<svg xmlns="http://www.w3.org/2000/svg" xmlns:xlink="http://www.w3.org/1999/xlink" width="108" height="108" viewBox="0 0 108 108">
  <defs>
    <filter id="Trazado_982538" x="0" y="0" width="108" height="108" filterUnits="userSpaceOnUse">
      <feOffset dy="3" input="SourceAlpha"/>
      <feGaussianBlur stdDeviation="3" result="blur"/>
      <feFlood flood-opacity="0.161"/>
      <feComposite operator="in" in2="blur"/>
      <feComposite in="SourceGraphic"/>
    </filter>
  </defs>
  <g id="Grupo_1151674" data-name="Grupo 1151674" transform="translate(-1236 -4069)">
    <g id="Grupo_1151565" data-name="Grupo 1151565" transform="translate(1245 4075)">
      <g id="Grupo_1150893" data-name="Grupo 1150893">
        <g transform="matrix(1, 0, 0, 1, -9, -6)" filter="url(#Trazado_982538)">
          <g id="Trazado_982538-2" data-name="Trazado 982538" transform="translate(9 6)" fill="#f3f3f3">
            <path d="M 45 88.5 C 39.12687683105469 88.5 33.43022537231445 87.35007476806641 28.06830024719238 85.08217620849609 C 22.88852500915527 82.89131164550781 18.23629951477051 79.75458526611328 14.2408504486084 75.75914764404297 C 10.24541282653809 71.76370239257812 7.108687400817871 67.11147308349609 4.917825222015381 61.93170166015625 C 2.649924993515015 56.56977462768555 1.5 50.87312316894531 1.5 45 C 1.5 39.12687683105469 2.649924993515015 33.43022537231445 4.917825222015381 28.06830024719238 C 7.108687400817871 22.88852500915527 10.24541282653809 18.23629951477051 14.2408504486084 14.2408504486084 C 18.23629951477051 10.24541282653809 22.88852500915527 7.108687400817871 28.06830024719238 4.917825222015381 C 33.43022537231445 2.649924993515015 39.12687683105469 1.5 45 1.5 C 50.87312316894531 1.5 56.56977462768555 2.649924993515015 61.93170166015625 4.917825222015381 C 67.11147308349609 7.108687400817871 71.76370239257812 10.24541282653809 75.75914764404297 14.2408504486084 C 79.75458526611328 18.23629951477051 82.89131164550781 22.88852500915527 85.08217620849609 28.06830024719238 C 87.35007476806641 33.43022537231445 88.5 39.12687683105469 88.5 45 C 88.5 50.87312316894531 87.35007476806641 56.56977462768555 85.08217620849609 61.93170166015625 C 82.89131164550781 67.11147308349609 79.75458526611328 71.76370239257812 75.75914764404297 75.75914764404297 C 71.76370239257812 79.75458526611328 67.11147308349609 82.89131164550781 61.93170166015625 85.08217620849609 C 56.56977462768555 87.35007476806641 50.87312316894531 88.5 45 88.5 Z" stroke="none"/>
            <path d="M 45 3 C 39.32871246337891 3 33.82865524291992 4.110054016113281 28.65262985229492 6.299339294433594 C 23.65165710449219 8.414573669433594 19.15968322753906 11.44334411621094 15.301513671875 15.301513671875 C 11.44334411621094 19.15968322753906 8.414573669433594 23.65165710449219 6.299339294433594 28.65262985229492 C 4.110054016113281 33.82865524291992 3 39.32871246337891 3 45 C 3 50.67128753662109 4.110054016113281 56.17134475708008 6.299339294433594 61.34737396240234 C 8.414573669433594 66.34834289550781 11.44334411621094 70.84031677246094 15.301513671875 74.698486328125 C 19.15968322753906 78.55665588378906 23.65165710449219 81.58542633056641 28.65262985229492 83.70066070556641 C 33.82865524291992 85.88994598388672 39.32871246337891 87 45 87 C 50.67128753662109 87 56.17134475708008 85.88994598388672 61.34737396240234 83.70066070556641 C 66.34834289550781 81.58542633056641 70.84031677246094 78.55665588378906 74.698486328125 74.698486328125 C 78.55665588378906 70.84031677246094 81.58542633056641 66.34834289550781 83.70066070556641 61.34737396240234 C 85.88994598388672 56.17134475708008 87 50.67128753662109 87 45 C 87 39.32871246337891 85.88994598388672 33.82865524291992 83.70066070556641 28.65262985229492 C 81.58542633056641 23.65165710449219 78.55665588378906 19.15968322753906 74.698486328125 15.301513671875 C 70.84031677246094 11.44334411621094 66.34834289550781 8.414573669433594 61.34737396240234 6.299339294433594 C 56.17134475708008 4.110054016113281 50.67128753662109 3 45 3 M 45 0 C 69.85281372070312 0 90 20.14718627929688 90 45 C 90 69.85281372070312 69.85281372070312 90 45 90 C 20.14718627929688 90 0 69.85281372070312 0 45 C 0 20.14718627929688 20.14718627929688 0 45 0 Z" stroke="none" fill="#fd7940"/>
          </g>
        </g>
      </g>
    </g>
    <g id="plant" transform="translate(1252.221 4089.496)">
      <path id="Trazado_986397" data-name="Trazado 986397" d="M149.463,397.779l-2.808,9.36a2.569,2.569,0,0,1-2.46,1.831H124.9a2.569,2.569,0,0,1-2.46-1.831l-2.808-9.36a1.284,1.284,0,0,1,1.23-1.653h27.373A1.284,1.284,0,0,1,149.463,397.779Z" transform="translate(-95.832 -348.925)" fill="#fe7d49"/>
      <path id="Trazado_986398" data-name="Trazado 986398" d="M260.139,397.779l-2.808,9.36a2.569,2.569,0,0,1-2.46,1.831h-9.648V396.125h13.686A1.285,1.285,0,0,1,260.139,397.779Z" transform="translate(-206.508 -348.924)" fill="#fe5a3a"/>
      <path id="Trazado_986399" data-name="Trazado 986399" d="M70.742,157.981H39.917a10.275,10.275,0,0,1-10.275-10.275h0a10.275,10.275,0,0,1,10.275-10.275H70.742a10.275,10.275,0,0,1,10.275,10.275h0A10.275,10.275,0,0,1,70.742,157.981Z" transform="translate(-16.615 -121.055)" fill="#699e69"/>
      <path id="Trazado_986400" data-name="Trazado 986400" d="M45.835,21.57A13.486,13.486,0,1,1,32.349,8.084,13.486,13.486,0,0,1,45.835,21.57Z" transform="translate(-7.121 -7.121)" fill="#fed76e"/>
      <path id="Trazado_986401" data-name="Trazado 986401" d="M70.466,50.054a9.633,9.633,0,1,1-9.633-9.633A9.633,9.633,0,0,1,70.466,50.054Z" transform="translate(-35.605 -35.605)" fill="#feaf50"/>
      <path id="Trazado_986402" data-name="Trazado 986402" d="M199.755,61.475h0A10.275,10.275,0,0,1,189.479,71.75H170.342a10.275,10.275,0,0,1-10.275-10.275h0A10.275,10.275,0,0,1,170.342,51.2h19.137A10.275,10.275,0,0,1,199.755,61.475Z" transform="translate(-131.499 -45.099)" fill="#81bc82"/>
      <path id="Trazado_986403" data-name="Trazado 986403" d="M16.559,14.449a8.678,8.678,0,0,0,10.7,8.432.963.963,0,0,1,.448,1.874A10.6,10.6,0,1,1,30.28,5.133a.963.963,0,1,1-.92,1.693,8.673,8.673,0,0,0-12.8,7.624ZM65.041,29.343a11.211,11.211,0,0,1-10.914,8.546H51.8a6.11,6.11,0,0,1-6.025,5.138h-6.1v3.211H52.4a2.248,2.248,0,0,1,2.153,2.893l-2.808,9.36a3.51,3.51,0,0,1-3.383,2.517h-19.3a3.51,3.51,0,0,1-3.383-2.517l-2.808-9.36a2.248,2.248,0,0,1,2.153-2.894H37.751V43.027h-6.1a6.11,6.11,0,0,1-6.025-5.138H23.3A11.251,11.251,0,0,1,12.063,26.651,11.126,11.126,0,0,1,13,22.145,14.448,14.448,0,0,1,33.928,2.912a.963.963,0,1,1-1.161,1.537,12.412,12.412,0,0,0-7.539-2.523A12.523,12.523,0,1,0,29.86,26.088a.963.963,0,0,1,.713,1.79,14.451,14.451,0,0,1-16.2-3.9A9.324,9.324,0,0,0,23.3,35.963H54.127a9.288,9.288,0,0,0,9.043-7.08.963.963,0,0,1,1.871.46ZM25.028,48.164a.321.321,0,0,0-.308.413l2.808,9.36a1.6,1.6,0,0,0,1.538,1.144h19.3A1.6,1.6,0,0,0,49.9,57.937l2.808-9.36a.321.321,0,0,0-.308-.413H25.028ZM49.841,37.889H27.588A4.182,4.182,0,0,0,31.65,41.1H45.778A4.182,4.182,0,0,0,49.841,37.889ZM69.219,16.376A11.251,11.251,0,0,1,57.98,27.614H42.568a.963.963,0,0,1,0-1.927H57.98a9.312,9.312,0,1,0,0-18.623H38.843a9.312,9.312,0,0,0,0,18.623.963.963,0,1,1,0,1.927,11.257,11.257,0,0,1-10.6-7.517,3.539,3.539,0,0,1-1.725.452h-.321v.321a.963.963,0,1,1-1.927,0V20.55H22.66a.963.963,0,0,1,0-1.927h1.606V15.413h-.321a3.532,3.532,0,1,1,0-7.064h.321V8.027a.963.963,0,1,1,1.927,0v.321H27.8a.963.963,0,1,1,0,1.927H26.192v3.211h.321a3.523,3.523,0,0,1,1.4.29A11.259,11.259,0,0,1,38.843,5.138H57.98A11.251,11.251,0,0,1,69.219,16.376Zm-44.953-6.1h-.321a1.606,1.606,0,0,0,0,3.211h.321Zm3.466,7.789a11.268,11.268,0,0,1-.127-1.688c0-.176,0-.35.012-.524a1.591,1.591,0,0,0-1.1-.439h-.321v3.211h.321A1.592,1.592,0,0,0,27.731,18.064Z" transform="translate(0 0)"/>
    </g>
  </g>
</svg>
