<svg xmlns="http://www.w3.org/2000/svg" xmlns:xlink="http://www.w3.org/1999/xlink" width="108" height="108" viewBox="0 0 108 108">
  <defs>
    <filter id="Fondo" x="0" y="0" width="108" height="108" filterUnits="userSpaceOnUse">
      <feOffset dy="3" input="SourceAlpha"/>
      <feGaussianBlur stdDeviation="3" result="blur"/>
      <feFlood flood-opacity="0.161"/>
      <feComposite operator="in" in2="blur"/>
      <feComposite in="SourceGraphic"/>
    </filter>
  </defs>
  <g id="Icono" transform="translate(-325.719 -689)">
    <g transform="matrix(1, 0, 0, 1, 325.72, 689)" filter="url(#Fondo)">
      <g id="Fondo-2" data-name="Fondo" transform="translate(9 6)" fill="#e6d567">
        <path d="M 45 88.5 C 39.12687683105469 88.5 33.43022537231445 87.35007476806641 28.06830024719238 85.08217620849609 C 22.88852500915527 82.89131164550781 18.23629951477051 79.75458526611328 14.2408504486084 75.75914764404297 C 10.24541282653809 71.76370239257812 7.108687400817871 67.11147308349609 4.917825222015381 61.93170166015625 C 2.649924993515015 56.56977462768555 1.5 50.87312316894531 1.5 45 C 1.5 39.12687683105469 2.649924993515015 33.43022537231445 4.917825222015381 28.06830024719238 C 7.108687400817871 22.88852500915527 10.24541282653809 18.23629951477051 14.2408504486084 14.2408504486084 C 18.23629951477051 10.24541282653809 22.88852500915527 7.108687400817871 28.06830024719238 4.917825222015381 C 33.43022537231445 2.649924993515015 39.12687683105469 1.5 45 1.5 C 50.87312316894531 1.5 56.56977462768555 2.649924993515015 61.93170166015625 4.917825222015381 C 67.11147308349609 7.108687400817871 71.76370239257812 10.24541282653809 75.75914764404297 14.2408504486084 C 79.75458526611328 18.23629951477051 82.89131164550781 22.88852500915527 85.08217620849609 28.06830024719238 C 87.35007476806641 33.43022537231445 88.5 39.12687683105469 88.5 45 C 88.5 50.87312316894531 87.35007476806641 56.56977462768555 85.08217620849609 61.93170166015625 C 82.89131164550781 67.11147308349609 79.75458526611328 71.76370239257812 75.75914764404297 75.75914764404297 C 71.76370239257812 79.75458526611328 67.11147308349609 82.89131164550781 61.93170166015625 85.08217620849609 C 56.56977462768555 87.35007476806641 50.87312316894531 88.5 45 88.5 Z" stroke="none"/>
        <path d="M 45 3 C 39.32871246337891 3 33.82865524291992 4.110054016113281 28.65262985229492 6.299339294433594 C 23.65165710449219 8.414573669433594 19.15968322753906 11.44334411621094 15.301513671875 15.301513671875 C 11.44334411621094 19.15968322753906 8.414573669433594 23.65165710449219 6.299339294433594 28.65262985229492 C 4.110054016113281 33.82865524291992 3 39.32871246337891 3 45 C 3 50.67128753662109 4.110054016113281 56.17134475708008 6.299339294433594 61.34737396240234 C 8.414573669433594 66.34834289550781 11.44334411621094 70.84031677246094 15.301513671875 74.698486328125 C 19.15968322753906 78.55665588378906 23.65165710449219 81.58542633056641 28.65262985229492 83.70066070556641 C 33.82865524291992 85.88994598388672 39.32871246337891 87 45 87 C 50.67128753662109 87 56.17134475708008 85.88994598388672 61.34737396240234 83.70066070556641 C 66.34834289550781 81.58542633056641 70.84031677246094 78.55665588378906 74.698486328125 74.698486328125 C 78.55665588378906 70.84031677246094 81.58542633056641 66.34834289550781 83.70066070556641 61.34737396240234 C 85.88994598388672 56.17134475708008 87 50.67128753662109 87 45 C 87 39.32871246337891 85.88994598388672 33.82865524291992 83.70066070556641 28.65262985229492 C 81.58542633056641 23.65165710449219 78.55665588378906 19.15968322753906 74.698486328125 15.301513671875 C 70.84031677246094 11.44334411621094 66.34834289550781 8.414573669433594 61.34737396240234 6.299339294433594 C 56.17134475708008 4.110054016113281 50.67128753662109 3 45 3 M 45 0 C 69.85281372070312 0 90 20.14718627929688 90 45 C 90 69.85281372070312 69.85281372070312 90 45 90 C 20.14718627929688 90 0 69.85281372070312 0 45 C 0 20.14718627929688 20.14718627929688 0 45 0 Z" stroke="none" fill="#bca724"/>
      </g>
    </g>
    <g id="Grape" transform="translate(347.72 708)">
      <path id="Trazado_986522" data-name="Trazado 986522" d="M21.132,24.8a15.708,15.708,0,0,1-2.7-.244,12.524,12.524,0,0,1-5.624-2.31c-.685-.554-1.8-1.682-1.566-3.01.275-1.572,2.481-2.692,5.489-2.787l1.469-.046-.583-1.349c-1.192-2.763-1.115-5.236.192-6.153a2.258,2.258,0,0,1,1.325-.386,7.291,7.291,0,0,1,4.526,2.3l1.071,1.006.542-1.366c1.025-2.579,2.65-4.246,4.139-4.246a2.035,2.035,0,0,1,.348.03c1.328.233,2.01,1.664,2.3,2.5a12.519,12.519,0,0,1,.261,6.075,12.957,12.957,0,0,1-2.13,5.37A4.038,4.038,0,0,1,27.6,22.018l-.543.061-.242.491C26.135,23.948,23.958,24.8,21.132,24.8Z" fill="#94e0aa"/>
      <path id="Trazado_986523" data-name="Trazado 986523" d="M30,21l-.08-.318A19.825,19.825,0,0,1,36,1l5,3-.474.415A22.037,22.037,0,0,0,33,21Z" fill="#72c192"/>
      <circle id="Elipse_11806" data-name="Elipse 11806" cx="6" cy="6" r="6" transform="translate(26 51)" fill="#b082ce"/>
      <circle id="Elipse_11807" data-name="Elipse 11807" cx="6" cy="6" r="6" transform="translate(21 44)" fill="#805aa8"/>
      <circle id="Elipse_11808" data-name="Elipse 11808" cx="6" cy="6" r="6" transform="translate(31 44)" fill="#9368b5"/>
      <circle id="Elipse_11809" data-name="Elipse 11809" cx="6" cy="6" r="6" transform="translate(16 36)" fill="#9368b5"/>
      <circle id="Elipse_11810" data-name="Elipse 11810" cx="6" cy="6" r="6" transform="translate(36 36)" fill="#805aa8"/>
      <circle id="Elipse_11811" data-name="Elipse 11811" cx="6" cy="6" r="6" transform="translate(26 36)" fill="#b082ce"/>
      <circle id="Elipse_11812" data-name="Elipse 11812" cx="6" cy="6" r="6" transform="translate(11 28)" fill="#735099"/>
      <circle id="Elipse_11813" data-name="Elipse 11813" cx="6" cy="6" r="6" transform="translate(21 28)" fill="#805aa8"/>
      <circle id="Elipse_11814" data-name="Elipse 11814" cx="6" cy="6" r="6" transform="translate(31 28)" fill="#9368b5"/>
      <circle id="Elipse_11815" data-name="Elipse 11815" cx="6" cy="6" r="6" transform="translate(16 20)" fill="#9368b5"/>
      <circle id="Elipse_11816" data-name="Elipse 11816" cx="6" cy="6" r="6" transform="translate(41 28)" fill="#735099"/>
      <circle id="Elipse_11817" data-name="Elipse 11817" cx="6" cy="6" r="6" transform="translate(36 20)" fill="#805aa8"/>
      <circle id="Elipse_11818" data-name="Elipse 11818" cx="6" cy="6" r="6" transform="translate(26 20)" fill="#b082ce"/>
      <path id="Trazado_986524" data-name="Trazado 986524" d="M54,34a7,7,0,0,0-5.12-6.74,6.984,6.984,0,0,0-11.875-6.143,7.007,7.007,0,0,0-2.911-1.8A21.152,21.152,0,0,1,38.216,8.383l1.743,1.245-.042.041a3.3,3.3,0,0,0,0,4.662,2.946,2.946,0,1,0,3.795-4.48l-.3-.215A7.089,7.089,0,0,1,46.36,9H48a1,1,0,0,0,0-2H46.36A9.051,9.051,0,0,0,41.6,8.34l-2.1-1.5a20.773,20.773,0,0,1,1.691-1.676l.47-.41a1,1,0,0,0-.143-1.611l-5-3a1,1,0,0,0-1.18.11A20.9,20.9,0,0,0,30.991,5.66a3.053,3.053,0,0,0-1.057-.4c-2.117-.369-4.291,1.563-5.587,4.832-2.566-2.4-5.354-3.236-7.113-2s-1.927,4.147-.533,7.369c-3.514.116-6.073,1.5-6.445,3.614s1.56,4.3,4.875,5.6a6.773,6.773,0,0,0-.011,2.589,6.994,6.994,0,0,0,0,13.476,6.985,6.985,0,0,0,5,8,6.989,6.989,0,0,0,4.9,7.973c0,.1-.013.192-.013.291a7,7,0,0,0,14,0c0-.1-.009-.194-.013-.291a6.989,6.989,0,0,0,4.9-7.973,6.985,6.985,0,0,0,5-8A7.007,7.007,0,0,0,54,34ZM41.331,11.083c.093-.093.188-.183.286-.271l.933.667a.946.946,0,0,1,.119,1.438.947.947,0,0,1-1.338,0,1.3,1.3,0,0,1,0-1.834ZM42,21a5,5,0,1,1-3.8,8.242,6.956,6.956,0,0,0,0-6.484A4.976,4.976,0,0,1,42,21ZM40.8,37.242a4.991,4.991,0,0,1-7.972-.49A4.9,4.9,0,0,1,32,34a5.111,5.111,0,0,1,.108-1.005,6.975,6.975,0,0,0,4.9-2.111,6.947,6.947,0,0,0,3.111,1.851,6.949,6.949,0,0,0,.685,4.507ZM32,47a5.006,5.006,0,0,1-5-5,4.953,4.953,0,0,1,.111-1.007A6.957,6.957,0,0,0,32,38.878a6.957,6.957,0,0,0,4.889,2.115A4.953,4.953,0,0,1,37,42,5.006,5.006,0,0,1,32,47ZM17,26a5,5,0,0,1,8.8-3.242,6.956,6.956,0,0,0,0,6.484A5,5,0,0,1,17,26Zm5.83,10.751A4.9,4.9,0,0,1,22,34a5.11,5.11,0,0,1,.109-1.007,6.957,6.957,0,0,0,4.886-2.11,7,7,0,0,0,3.122,1.851A7.137,7.137,0,0,0,30,34a6.911,6.911,0,0,0,.808,3.233,4.99,4.99,0,0,1-7.978-.482ZM37,26a5,5,0,1,1-5-5A5.006,5.006,0,0,1,37,26ZM36.128,2.243l3.19,1.914a22.81,22.81,0,0,0-1.926,2.069.971.971,0,0,0-.206.193.947.947,0,0,0-.068.152,23.149,23.149,0,0,0-5,12.435c-.039,0-.077-.006-.116-.006a7,7,0,0,0-1.374.137A18.858,18.858,0,0,1,36.128,2.243Zm-23.9,17.17c.2-1.137,2.563-2.2,6.037-1.926a1.016,1.016,0,0,0,.922-.462,1,1,0,0,0,.023-1.032c-1.727-3.016-1.77-5.606-.824-6.274s3.364.265,5.626,2.911a1,1,0,0,0,1.725-.387c.916-3.358,2.724-5.21,3.858-5.017a1.165,1.165,0,0,1,.509.237,20.831,20.831,0,0,0-1.378,12.355,7.035,7.035,0,0,0-1.73,1.3,6.974,6.974,0,0,0-11.2,1.66C13.348,21.8,12.058,20.36,12.225,19.414ZM12,34a4.99,4.99,0,0,1,3.766-4.832,7.022,7.022,0,0,0,4.35,3.567A7.137,7.137,0,0,0,20,34a6.911,6.911,0,0,0,.808,3.233A5,5,0,0,1,12,34Zm5,8a4.9,4.9,0,0,1,.112-1.007A6.957,6.957,0,0,0,22,38.878a6.949,6.949,0,0,0,3.117,1.857,6.947,6.947,0,0,0,.685,4.507A5,5,0,0,1,17,42Zm5,8a4.9,4.9,0,0,1,.112-1.007,6.957,6.957,0,0,0,4.883-2.109,7,7,0,0,0,3.127,1.853A6.762,6.762,0,0,0,30,50a6.952,6.952,0,0,0,.8,3.242A5,5,0,0,1,22,50ZM32,62a5.006,5.006,0,0,1-5-5,6.961,6.961,0,0,0,4.995-2.116A6.976,6.976,0,0,0,37,57,5.006,5.006,0,0,1,32,62Zm5-7a5.006,5.006,0,0,1-5-5,4.727,4.727,0,0,1,.118-1.006,6.974,6.974,0,0,0,4.887-2.11,6.957,6.957,0,0,0,4.883,2.109A4.9,4.9,0,0,1,42,50,5.006,5.006,0,0,1,37,55Zm5-8a4.976,4.976,0,0,1-3.8-1.758,6.947,6.947,0,0,0,.685-4.507,6.948,6.948,0,0,0,3.111-1.851,6.974,6.974,0,0,0,4.894,2.111A4.9,4.9,0,0,1,47,42,5.006,5.006,0,0,1,42,47Zm5-8a5.006,5.006,0,0,1-5-5,4.9,4.9,0,0,1,.112-1.006,7,7,0,0,0,6.123-3.826A4.993,4.993,0,0,1,47,39Z" fill="#3d3f4c"/>
    </g>
  </g>
</svg>
