<svg xmlns="http://www.w3.org/2000/svg" xmlns:xlink="http://www.w3.org/1999/xlink" width="108" height="108" viewBox="0 0 108 108">
  <defs>
    <filter id="Fondo" x="0" y="0" width="108" height="108" filterUnits="userSpaceOnUse">
      <feOffset dy="3" input="SourceAlpha"/>
      <feGaussianBlur stdDeviation="3" result="blur"/>
      <feFlood flood-opacity="0.161"/>
      <feComposite operator="in" in2="blur"/>
      <feComposite in="SourceGraphic"/>
    </filter>
  </defs>
  <g id="Icono" transform="translate(-325.719 -689)">
    <g transform="matrix(1, 0, 0, 1, 325.72, 689)" filter="url(#Fondo)">
      <g id="Fondo-2" data-name="Fondo" transform="translate(9 6)" fill="#e6d567">
        <path d="M 45 88.5 C 39.12687683105469 88.5 33.43022537231445 87.35007476806641 28.06830024719238 85.08217620849609 C 22.88852500915527 82.89131164550781 18.23629951477051 79.75458526611328 14.2408504486084 75.75914764404297 C 10.24541282653809 71.76370239257812 7.108687400817871 67.11147308349609 4.917825222015381 61.93170166015625 C 2.649924993515015 56.56977462768555 1.5 50.87312316894531 1.5 45 C 1.5 39.12687683105469 2.649924993515015 33.43022537231445 4.917825222015381 28.06830024719238 C 7.108687400817871 22.88852500915527 10.24541282653809 18.23629951477051 14.2408504486084 14.2408504486084 C 18.23629951477051 10.24541282653809 22.88852500915527 7.108687400817871 28.06830024719238 4.917825222015381 C 33.43022537231445 2.649924993515015 39.12687683105469 1.5 45 1.5 C 50.87312316894531 1.5 56.56977462768555 2.649924993515015 61.93170166015625 4.917825222015381 C 67.11147308349609 7.108687400817871 71.76370239257812 10.24541282653809 75.75914764404297 14.2408504486084 C 79.75458526611328 18.23629951477051 82.89131164550781 22.88852500915527 85.08217620849609 28.06830024719238 C 87.35007476806641 33.43022537231445 88.5 39.12687683105469 88.5 45 C 88.5 50.87312316894531 87.35007476806641 56.56977462768555 85.08217620849609 61.93170166015625 C 82.89131164550781 67.11147308349609 79.75458526611328 71.76370239257812 75.75914764404297 75.75914764404297 C 71.76370239257812 79.75458526611328 67.11147308349609 82.89131164550781 61.93170166015625 85.08217620849609 C 56.56977462768555 87.35007476806641 50.87312316894531 88.5 45 88.5 Z" stroke="none"/>
        <path d="M 45 3 C 39.32871246337891 3 33.82865524291992 4.110054016113281 28.65262985229492 6.299339294433594 C 23.65165710449219 8.414573669433594 19.15968322753906 11.44334411621094 15.301513671875 15.301513671875 C 11.44334411621094 19.15968322753906 8.414573669433594 23.65165710449219 6.299339294433594 28.65262985229492 C 4.110054016113281 33.82865524291992 3 39.32871246337891 3 45 C 3 50.67128753662109 4.110054016113281 56.17134475708008 6.299339294433594 61.34737396240234 C 8.414573669433594 66.34834289550781 11.44334411621094 70.84031677246094 15.301513671875 74.698486328125 C 19.15968322753906 78.55665588378906 23.65165710449219 81.58542633056641 28.65262985229492 83.70066070556641 C 33.82865524291992 85.88994598388672 39.32871246337891 87 45 87 C 50.67128753662109 87 56.17134475708008 85.88994598388672 61.34737396240234 83.70066070556641 C 66.34834289550781 81.58542633056641 70.84031677246094 78.55665588378906 74.698486328125 74.698486328125 C 78.55665588378906 70.84031677246094 81.58542633056641 66.34834289550781 83.70066070556641 61.34737396240234 C 85.88994598388672 56.17134475708008 87 50.67128753662109 87 45 C 87 39.32871246337891 85.88994598388672 33.82865524291992 83.70066070556641 28.65262985229492 C 81.58542633056641 23.65165710449219 78.55665588378906 19.15968322753906 74.698486328125 15.301513671875 C 70.84031677246094 11.44334411621094 66.34834289550781 8.414573669433594 61.34737396240234 6.299339294433594 C 56.17134475708008 4.110054016113281 50.67128753662109 3 45 3 M 45 0 C 69.85281372070312 0 90 20.14718627929688 90 45 C 90 69.85281372070312 69.85281372070312 90 45 90 C 20.14718627929688 90 0 69.85281372070312 0 45 C 0 20.14718627929688 20.14718627929688 0 45 0 Z" stroke="none" fill="#bca724"/>
      </g>
    </g>
    <g id="Engineer-Gear-Worker-Man-Occupation" transform="translate(346.72 707.221)">
      <path id="Trazado_986525" data-name="Trazado 986525" d="M56.019,37.993a23.8,23.8,0,0,1-2.938,7.091l3.647,4.457L50.61,55.659,49.567,56.7l-4.457-3.647c-.517.324-1.043.618-1.59.9a23.863,23.863,0,0,1-5.5,2.036l-.577,5.733H27.311l-.577-5.733a23.863,23.863,0,0,1-5.5-2.036c-.547-.284-1.074-.577-1.59-.9L15.186,56.7l-1.043-1.043L8.024,49.541l3.647-4.457a23.8,23.8,0,0,1-2.938-7.091L3,37.415V27.286l5.733-.577a23.8,23.8,0,0,1,2.938-7.091L8.024,15.16,15.186,8l4.457,3.647a23.153,23.153,0,0,1,4.994-2.33,21.557,21.557,0,0,1,2.1-.608l.192-1.894a9.084,9.084,0,0,1,3.424-1.59,9.319,9.319,0,0,1,4.052,0,9.084,9.084,0,0,1,3.424,1.59l.192,1.894a21.557,21.557,0,0,1,2.1.608,23.153,23.153,0,0,1,4.994,2.33L49.567,8l7.162,7.162-3.647,4.457a23.8,23.8,0,0,1,2.938,7.091l5.733.577v10.13Z" transform="translate(0.013 0.039)" fill="#ee8700"/>
      <circle id="Elipse_11819" data-name="Elipse 11819" cx="17.5" cy="17.5" r="17.5" transform="translate(15 14.779)" fill="#ffd422"/>
      <path id="Trazado_986526" data-name="Trazado 986526" d="M40.052,34.175v4.9a2.026,2.026,0,1,0-4.052,0V33Z" transform="translate(0.441 0.402)" fill="#1e81ce"/>
      <path id="Trazado_986527" data-name="Trazado 986527" d="M28.052,36.039v3.039a2.026,2.026,0,1,0-4.052,0v-4.9L28.052,33Z" transform="translate(0.286 0.402)" fill="#1e81ce"/>
      <path id="Trazado_986528" data-name="Trazado 986528" d="M39.713,9.312a8.7,8.7,0,0,0-2.289-2.5A9.084,9.084,0,0,0,34,5.22v8.894h7.091A8.952,8.952,0,0,0,39.713,9.312Z" transform="translate(0.415 0.042)" fill="#ff9811"/>
      <path id="Trazado_986529" data-name="Trazado 986529" d="M24.378,9.312A8.952,8.952,0,0,0,23,14.114h7.091V5.22a9.084,9.084,0,0,0-3.424,1.59,8.7,8.7,0,0,0-2.289,2.5Z" transform="translate(0.273 0.042)" fill="#ff9811"/>
      <path id="Trazado_986530" data-name="Trazado 986530" d="M50.467,41.676V61.348H14V41.676A6.1,6.1,0,0,1,15.854,37.3a6.252,6.252,0,0,1,2.624-1.489L24.13,34.16v4.9a2.026,2.026,0,0,1,4.052,0V36.024l4.052,3.039,4.052-3.039v3.039a2.026,2.026,0,0,1,4.052,0v-4.9l5.652,1.651A6.252,6.252,0,0,1,48.613,37.3a6.1,6.1,0,0,1,1.854,4.376Z" transform="translate(0.156 0.417)" fill="#3d9ae2"/>
      <path id="Trazado_986531" data-name="Trazado 986531" d="M43.286,16.026A2.012,2.012,0,0,1,41.8,17.971a1.607,1.607,0,0,1-.537.081H23.026a1.607,1.607,0,0,1-.537-.081,1.808,1.808,0,0,1-.891-.517,1.98,1.98,0,0,1-.6-1.428A2.032,2.032,0,0,1,23.026,14H41.26a2.041,2.041,0,0,1,2.026,2.026Z" transform="translate(0.247 0.156)" fill="#f7910c"/>
      <path id="Trazado_986532" data-name="Trazado 986532" d="M33.039,3H31.013A1.013,1.013,0,0,0,30,4.013v10.13h4.052V4.013A1.013,1.013,0,0,0,33.039,3Z" transform="translate(0.363 0.013)" fill="#ffa733"/>
      <path id="Trazado_986533" data-name="Trazado 986533" d="M36.1,29v7.091L32.052,39.13,28,36.091V29Z" transform="translate(0.337 0.35)" fill="#ffc477"/>
      <path id="Trazado_986534" data-name="Trazado 986534" d="M36.1,29v3.1a9.1,9.1,0,0,1-8.1,0V29Z" transform="translate(0.337 0.35)" fill="#ffb655"/>
      <path id="Trazado_986535" data-name="Trazado 986535" d="M41.234,18v4.052a9.117,9.117,0,0,1-18.234,0V18Z" transform="translate(0.273 0.208)" fill="#ffc477"/>
      <rect id="Rectángulo_408267" data-name="Rectángulo 408267" width="19" height="2" transform="translate(23 17.779)" fill="#ffb655"/>
      <path id="Trazado_986536" data-name="Trazado 986536" d="M36.1,24H34.078a2.026,2.026,0,0,1-4.052,0H28a4.052,4.052,0,0,0,8.1,0Z" transform="translate(0.337 0.286)"/>
      <path id="Trazado_986537" data-name="Trazado 986537" d="M46.286,35.256l-8.975-2.613V31.022a10.153,10.153,0,0,0,5.065-8.762V19.038a3.025,3.025,0,0,0-.041-5.723,10.028,10.028,0,0,0-7.05-8.823V4.026A2.032,2.032,0,0,0,33.26,2H31.234a2.032,2.032,0,0,0-2.026,2.026v.466a10.028,10.028,0,0,0-7.05,8.823,3.025,3.025,0,0,0-.041,5.723V22.26a10.153,10.153,0,0,0,5.065,8.762v1.621l-8.965,2.613A7.112,7.112,0,0,0,13,42.094V61.766a1.013,1.013,0,0,0,1.013,1.013H50.48a1.013,1.013,0,0,0,1.013-1.013V42.094a7.115,7.115,0,0,0-5.207-6.838Zm-6.949.091v1.266a3.153,3.153,0,0,0-2.026,0V34.75ZM35.286,6.639a8.213,8.213,0,0,1,4.994,6.5H35.286ZM31.234,4.026H33.26v9.117H31.234ZM29.208,6.639v6.5H24.214a8.213,8.213,0,0,1,4.994-6.5Zm-7.091,9.542a1.013,1.013,0,0,1,1.013-1.013H41.363a1.013,1.013,0,0,1,0,2.026H23.13A1.013,1.013,0,0,1,22.117,16.182Zm2.026,6.078V19.221H40.35V22.26a8.1,8.1,0,0,1-16.208,0Zm11.143,9.664v4.011l-3.039,2.279-3.039-2.279V31.923a10.143,10.143,0,0,0,6.078,0Zm-10.13,3.424,2.026-.6v1.864a3.153,3.153,0,0,0-2.026,0ZM49.467,60.753H44.4V45.558H42.376V60.753H22.117V45.558H20.091V60.753H15.026V42.094A5.1,5.1,0,0,1,18.774,37.2l4.356-1.266V39.48a1.013,1.013,0,1,0,2.026,0,1.013,1.013,0,0,1,2.026,0,1.013,1.013,0,0,0,2.026,0V38.467l2.431,1.823a1.013,1.013,0,0,0,1.216,0l2.431-1.823V39.48a1.013,1.013,0,1,0,2.026,0,1.013,1.013,0,1,1,2.026,0,1.013,1.013,0,1,0,2.026,0V35.935L45.729,37.2a5.1,5.1,0,0,1,3.738,4.893Z" transform="translate(0.143)"/>
      <rect id="Rectángulo_408268" data-name="Rectángulo 408268" width="2" height="2" transform="translate(27 19.779)"/>
      <rect id="Rectángulo_408269" data-name="Rectángulo 408269" width="2" height="2" transform="translate(35 19.779)"/>
      <path id="Trazado_986538" data-name="Trazado 986538" d="M19.363,19.251A18.1,18.1,0,0,0,14,32.165a18.426,18.426,0,0,0,.283,3.218l1.994-.356a16.352,16.352,0,0,1-.251-2.862,16.093,16.093,0,0,1,4.767-11.48Z" transform="translate(0.156 0.224)"/>
      <path id="Trazado_986539" data-name="Trazado 986539" d="M43.333,20.724a16.1,16.1,0,0,1,4.728,11.441,16.353,16.353,0,0,1-.251,2.862l1.995.355a18.42,18.42,0,0,0,.283-3.216,18.116,18.116,0,0,0-5.318-12.871Z" transform="translate(0.536 0.224)"/>
      <path id="Trazado_986540" data-name="Trazado 986540" d="M61.323,26.252l-5.022-.5a25.1,25.1,0,0,0-2.512-6.071l3.194-3.905a1.013,1.013,0,0,0-.067-1.357L49.753,7.255a1.013,1.013,0,0,0-1.358-.068l-4.457,3.647L45.22,12.4l3.748-3.065,5.865,5.868-3.064,3.748a1.013,1.013,0,0,0-.078,1.172,23.106,23.106,0,0,1,2.815,6.8,1.013,1.013,0,0,0,.885.774l4.817.475v8.3l-4.817.481a1.013,1.013,0,0,0-.885.774,23.106,23.106,0,0,1-2.815,6.8,1.013,1.013,0,0,0,.078,1.172l3.064,3.748L51.4,52.889l1.432,1.432,4.082-4.081a1.013,1.013,0,0,0,.067-1.357l-3.194-3.905A25.1,25.1,0,0,0,56.3,38.907l5.022-.506a1.013,1.013,0,0,0,.912-1.011V27.26a1.013,1.013,0,0,0-.912-1.008Z" transform="translate(0.544 0.064)"/>
      <path id="Trazado_986541" data-name="Trazado 986541" d="M12.465,45.7a1.013,1.013,0,0,0,.078-1.172,23.106,23.106,0,0,1-2.815-6.8,1.013,1.013,0,0,0-.885-.774l-4.817-.476v-8.3L8.843,27.7a1.013,1.013,0,0,0,.885-.774,23.106,23.106,0,0,1,2.815-6.8,1.013,1.013,0,0,0-.078-1.172L9.4,15.206l5.869-5.87L19.018,12.4,20.3,10.833,15.844,7.186a1.013,1.013,0,0,0-1.358.068L7.319,14.418a1.013,1.013,0,0,0-.067,1.357l3.194,3.905a25.1,25.1,0,0,0-2.512,6.071l-5.022.5A1.013,1.013,0,0,0,2,27.26V37.39A1.013,1.013,0,0,0,2.912,38.4l5.022.506a25.1,25.1,0,0,0,2.512,6.071l-3.194,3.9a1.013,1.013,0,0,0,.067,1.357l4.094,4.093,1.432-1.432L9.4,49.449Z" transform="translate(0 0.064)"/>
      <rect id="Rectángulo_408270" data-name="Rectángulo 408270" width="2.026" height="2.026" transform="translate(14.483 15.915) rotate(-45)"/>
      <rect id="Rectángulo_408271" data-name="Rectángulo 408271" width="2" height="2" transform="translate(8 31.779)"/>
      <rect id="Rectángulo_408272" data-name="Rectángulo 408272" width="2" height="2" transform="translate(55 31.779)"/>
      <rect id="Rectángulo_408273" data-name="Rectángulo 408273" width="2.026" height="2.026" transform="translate(47.431 15.915) rotate(-44.99)"/>
    </g>
  </g>
</svg>
