<svg xmlns="http://www.w3.org/2000/svg" xmlns:xlink="http://www.w3.org/1999/xlink" width="108" height="108" viewBox="0 0 108 108">
  <defs>
    <filter id="Fondo" x="0" y="0" width="108" height="108" filterUnits="userSpaceOnUse">
      <feOffset dy="3" input="SourceAlpha"/>
      <feGaussianBlur stdDeviation="3" result="blur"/>
      <feFlood flood-opacity="0.161"/>
      <feComposite operator="in" in2="blur"/>
      <feComposite in="SourceGraphic"/>
    </filter>
  </defs>
  <g id="Icono" transform="translate(-325.719 -689)">
    <g transform="matrix(1, 0, 0, 1, 325.72, 689)" filter="url(#Fondo)">
      <g id="Fondo-2" data-name="Fondo" transform="translate(9 6)" fill="#e6d567">
        <path d="M 45 88.5 C 39.12687683105469 88.5 33.43022537231445 87.35007476806641 28.06830024719238 85.08217620849609 C 22.88852500915527 82.89131164550781 18.23629951477051 79.75458526611328 14.2408504486084 75.75914764404297 C 10.24541282653809 71.76370239257812 7.108687400817871 67.11147308349609 4.917825222015381 61.93170166015625 C 2.649924993515015 56.56977462768555 1.5 50.87312316894531 1.5 45 C 1.5 39.12687683105469 2.649924993515015 33.43022537231445 4.917825222015381 28.06830024719238 C 7.108687400817871 22.88852500915527 10.24541282653809 18.23629951477051 14.2408504486084 14.2408504486084 C 18.23629951477051 10.24541282653809 22.88852500915527 7.108687400817871 28.06830024719238 4.917825222015381 C 33.43022537231445 2.649924993515015 39.12687683105469 1.5 45 1.5 C 50.87312316894531 1.5 56.56977462768555 2.649924993515015 61.93170166015625 4.917825222015381 C 67.11147308349609 7.108687400817871 71.76370239257812 10.24541282653809 75.75914764404297 14.2408504486084 C 79.75458526611328 18.23629951477051 82.89131164550781 22.88852500915527 85.08217620849609 28.06830024719238 C 87.35007476806641 33.43022537231445 88.5 39.12687683105469 88.5 45 C 88.5 50.87312316894531 87.35007476806641 56.56977462768555 85.08217620849609 61.93170166015625 C 82.89131164550781 67.11147308349609 79.75458526611328 71.76370239257812 75.75914764404297 75.75914764404297 C 71.76370239257812 79.75458526611328 67.11147308349609 82.89131164550781 61.93170166015625 85.08217620849609 C 56.56977462768555 87.35007476806641 50.87312316894531 88.5 45 88.5 Z" stroke="none"/>
        <path d="M 45 3 C 39.32871246337891 3 33.82865524291992 4.110054016113281 28.65262985229492 6.299339294433594 C 23.65165710449219 8.414573669433594 19.15968322753906 11.44334411621094 15.301513671875 15.301513671875 C 11.44334411621094 19.15968322753906 8.414573669433594 23.65165710449219 6.299339294433594 28.65262985229492 C 4.110054016113281 33.82865524291992 3 39.32871246337891 3 45 C 3 50.67128753662109 4.110054016113281 56.17134475708008 6.299339294433594 61.34737396240234 C 8.414573669433594 66.34834289550781 11.44334411621094 70.84031677246094 15.301513671875 74.698486328125 C 19.15968322753906 78.55665588378906 23.65165710449219 81.58542633056641 28.65262985229492 83.70066070556641 C 33.82865524291992 85.88994598388672 39.32871246337891 87 45 87 C 50.67128753662109 87 56.17134475708008 85.88994598388672 61.34737396240234 83.70066070556641 C 66.34834289550781 81.58542633056641 70.84031677246094 78.55665588378906 74.698486328125 74.698486328125 C 78.55665588378906 70.84031677246094 81.58542633056641 66.34834289550781 83.70066070556641 61.34737396240234 C 85.88994598388672 56.17134475708008 87 50.67128753662109 87 45 C 87 39.32871246337891 85.88994598388672 33.82865524291992 83.70066070556641 28.65262985229492 C 81.58542633056641 23.65165710449219 78.55665588378906 19.15968322753906 74.698486328125 15.301513671875 C 70.84031677246094 11.44334411621094 66.34834289550781 8.414573669433594 61.34737396240234 6.299339294433594 C 56.17134475708008 4.110054016113281 50.67128753662109 3 45 3 M 45 0 C 69.85281372070312 0 90 20.14718627929688 90 45 C 90 69.85281372070312 69.85281372070312 90 45 90 C 20.14718627929688 90 0 69.85281372070312 0 45 C 0 20.14718627929688 20.14718627929688 0 45 0 Z" stroke="none" fill="#bca724"/>
      </g>
    </g>
    <g id="_14-light_bulbs" data-name="14-light bulbs" transform="translate(350.72 707)">
      <path id="Trazado_986542" data-name="Trazado 986542" d="M15,50h8v1.32A1.6,1.6,0,0,1,21.5,53h-5A1.6,1.6,0,0,1,15,51.32Z" fill="#2e3b41"/>
      <path id="Trazado_986543" data-name="Trazado 986543" d="M26,44v3.02A2.894,2.894,0,0,1,23,50H15a2.894,2.894,0,0,1-3-2.98V44l.05-.08C12.99,44.45,14.96,45,19,45c3.92,0,5.87-.52,6.85-1.03a.879.879,0,0,0,.1-.06Z" fill="#a2adb3"/>
      <path id="Trazado_986544" data-name="Trazado 986544" d="M9.02,36H28.98c-.12.11-.24.2-.36.3a3.271,3.271,0,0,0-.64.7,3.419,3.419,0,0,0-.56,1.49l-.59,4.45s0,.48-.88.97a.879.879,0,0,1-.1.06C24.87,44.48,22.92,45,19,45c-4.04,0-6.01-.55-6.95-1.08-.89-.49-.9-.98-.9-.98l-.59-4.45A3.548,3.548,0,0,0,10,37h.02a3.031,3.031,0,0,0-.64-.7C9.26,36.2,9.14,36.11,9.02,36Z" fill="#a4c9d6"/>
      <path id="Trazado_986545" data-name="Trazado 986545" d="M19,1C9.06,1,1,7.71,1,20.29A22.073,22.073,0,0,0,9.02,36H28.98A22.073,22.073,0,0,0,37,20.29C37,7.71,28.94,1,19,1Z" fill="#d9e6ec"/>
      <path id="Trazado_986546" data-name="Trazado 986546" d="M23,50H15v1.32a1.85,1.85,0,0,0,.13.68,1.5,1.5,0,0,1,1.37-1h5a1.5,1.5,0,0,1,1.37,1,1.85,1.85,0,0,0,.13-.68Z" fill="#222c30"/>
      <path id="Trazado_986547" data-name="Trazado 986547" d="M25.95,43.91a.879.879,0,0,1-.1.06C24.87,44.48,22.92,45,19,45c-4.04,0-6.01-.55-6.95-1.08L12,44v1l.05-.08C12.99,45.45,14.96,46,19,46c3.92,0,5.87-.52,6.85-1.03a.879.879,0,0,0,.1-.06L26,45V44Z" fill="#77848c"/>
      <path id="Trazado_986548" data-name="Trazado 986548" d="M23,48H15a2.894,2.894,0,0,1-3-2.98v2A2.894,2.894,0,0,0,15,50h8a2.894,2.894,0,0,0,3-2.98v-2A2.894,2.894,0,0,1,23,48Z" fill="#77848c"/>
      <path id="Trazado_986549" data-name="Trazado 986549" d="M26.55,40.97C25.47,41.48,23.321,42,19,42c-4.453,0-6.624-.55-7.66-1.08a3.058,3.058,0,0,1-.5-.309l.309,2.329s.01.49.9.98C12.99,44.45,14.96,45,19,45c3.92,0,5.87-.52,6.85-1.03a.879.879,0,0,0,.1-.06c.88-.49.88-.97.88-.97l.309-2.328a3.1,3.1,0,0,1-.479.3.992.992,0,0,1-.11.058Z" fill="#8dbbc9"/>
      <path id="Trazado_986550" data-name="Trazado 986550" d="M27,29H11a9.992,9.992,0,0,1-9.971-9.425c-.006.241-.029.469-.029.715A22.073,22.073,0,0,0,9.02,36H28.98A22.073,22.073,0,0,0,37,20.29c0-.246-.023-.474-.029-.715A9.992,9.992,0,0,1,27,29Z" fill="#b4d3e0"/>
      <path id="Trazado_986551" data-name="Trazado 986551" d="M25.85,44.97a9.1,9.1,0,0,1-2.85.784V48a2.894,2.894,0,0,0,3-2.98V45l-.05-.09a.879.879,0,0,1-.1.06Z" fill="#bec5cd"/>
      <path id="Trazado_986552" data-name="Trazado 986552" d="M15,48V45.756a8.641,8.641,0,0,1-2.95-.836L12,45v.02A2.894,2.894,0,0,0,15,48Z" fill="#bec5cd"/>
      <path id="Trazado_986553" data-name="Trazado 986553" d="M15,45.756v-1a8.641,8.641,0,0,1-2.95-.836L12,44v1l.05-.08a8.641,8.641,0,0,0,2.95.836Z" fill="#a2adb3"/>
      <path id="Trazado_986554" data-name="Trazado 986554" d="M25.95,43.91a.879.879,0,0,1-.1.06,9.1,9.1,0,0,1-2.85.784v1a9.1,9.1,0,0,0,2.85-.784.878.878,0,0,0,.1-.06L26,45V44Z" fill="#a2adb3"/>
      <path id="Trazado_986555" data-name="Trazado 986555" d="M23,48a2,2,0,0,1-2,2h2a2.894,2.894,0,0,0,3-2.98v-2A2.894,2.894,0,0,1,23,48Z" fill="#9ea9af"/>
      <path id="Trazado_986556" data-name="Trazado 986556" d="M15,48a2.894,2.894,0,0,1-3-2.98v2A2.894,2.894,0,0,0,15,50h2A2,2,0,0,1,15,48Z" fill="#a2adb3"/>
      <path id="Trazado_986557" data-name="Trazado 986557" d="M24.708,45.4c-.213.061-.45.119-.708.175v2.256a2.8,2.8,0,0,0,1-.557V45.317c-.079.025-.165.05-.251.075Z" fill="#dce4ed"/>
      <path id="Trazado_986558" data-name="Trazado 986558" d="M24,47.835v2a2.8,2.8,0,0,0,1-.557v-2a2.8,2.8,0,0,1-1,.557Z" fill="#bec5cd"/>
      <path id="Trazado_986559" data-name="Trazado 986559" d="M22,45.87V48h1V45.754C22.693,45.8,22.359,45.837,22,45.87Z" fill="#dce4ed"/>
      <path id="Trazado_986560" data-name="Trazado 986560" d="M22,49.723A1.994,1.994,0,0,0,23,48H22Z" fill="#bec5cd"/>
      <path id="Trazado_986561" data-name="Trazado 986561" d="M41,60h8v1.32A1.6,1.6,0,0,1,47.5,63h-5A1.6,1.6,0,0,1,41,61.32Z" fill="#2e3b41"/>
      <path id="Trazado_986562" data-name="Trazado 986562" d="M52,54v3.02A2.894,2.894,0,0,1,49,60H41a2.894,2.894,0,0,1-3-2.98V54l.05-.08C38.99,54.45,40.96,55,45,55c3.92,0,5.87-.52,6.85-1.03a.879.879,0,0,0,.1-.06Z" fill="#a2adb3"/>
      <path id="Trazado_986563" data-name="Trazado 986563" d="M35.02,46H54.98c-.12.11-.24.2-.36.3a3.271,3.271,0,0,0-.64.7,3.419,3.419,0,0,0-.56,1.49l-.59,4.45s0,.48-.88.97a.879.879,0,0,1-.1.06C50.87,54.48,48.92,55,45,55c-4.04,0-6.01-.55-6.95-1.08-.89-.49-.9-.98-.9-.98l-.59-4.45A3.548,3.548,0,0,0,36,47h.02a3.031,3.031,0,0,0-.64-.7C35.26,46.2,35.14,46.11,35.02,46Z" fill="#feab5e"/>
      <path id="Trazado_986564" data-name="Trazado 986564" d="M45,11c-9.94,0-18,6.71-18,19.29A22.073,22.073,0,0,0,35.02,46H54.98A22.073,22.073,0,0,0,63,30.29C63,17.71,54.94,11,45,11Z" fill="#febd73"/>
      <path id="Trazado_986565" data-name="Trazado 986565" d="M49,60H41v1.32a1.85,1.85,0,0,0,.13.68,1.5,1.5,0,0,1,1.37-1h5a1.5,1.5,0,0,1,1.37,1,1.85,1.85,0,0,0,.13-.68Z" fill="#222c30"/>
      <path id="Trazado_986566" data-name="Trazado 986566" d="M51.95,53.91a.879.879,0,0,1-.1.06C50.87,54.48,48.92,55,45,55c-4.04,0-6.01-.55-6.95-1.08L38,54v1l.05-.08C38.99,55.45,40.96,56,45,56c3.92,0,5.87-.52,6.85-1.03a.879.879,0,0,0,.1-.06L52,55V54Z" fill="#77848c"/>
      <path id="Trazado_986567" data-name="Trazado 986567" d="M49,58H41a2.894,2.894,0,0,1-3-2.98v2A2.894,2.894,0,0,0,41,60h8a2.894,2.894,0,0,0,3-2.98v-2A2.894,2.894,0,0,1,49,58Z" fill="#77848c"/>
      <path id="Trazado_986568" data-name="Trazado 986568" d="M52.55,50.97C51.47,51.48,49.321,52,45,52c-4.453,0-6.624-.55-7.66-1.08a3.057,3.057,0,0,1-.5-.309l.309,2.329s.01.49.9.98C38.99,54.45,40.96,55,45,55c3.92,0,5.87-.52,6.85-1.03a.879.879,0,0,0,.1-.06c.88-.49.88-.97.88-.97l.309-2.328a3.1,3.1,0,0,1-.479.3.993.993,0,0,1-.11.058Z" fill="#fc8e52"/>
      <path id="Trazado_986569" data-name="Trazado 986569" d="M53,39H37a9.992,9.992,0,0,1-9.971-9.425c-.006.241-.029.469-.029.715A22.073,22.073,0,0,0,35.02,46H54.98A22.073,22.073,0,0,0,63,30.29c0-.246-.023-.474-.029-.715A9.992,9.992,0,0,1,53,39Z" fill="#feab5e"/>
      <path id="Trazado_986570" data-name="Trazado 986570" d="M29.015,28.394c.252-1.989,2.016-13.009,10.353-14.376a1.535,1.535,0,0,1,1.481,2.234c-1.735,3.809-5.008,11.423-5.885,16.463a1.42,1.42,0,0,1-2.206,1.029,8.922,8.922,0,0,1-3.717-4.758,1.636,1.636,0,0,1-.026-.592Z" fill="#ffecd1"/>
      <path id="Trazado_986571" data-name="Trazado 986571" d="M54.963,35.492a8.425,8.425,0,0,0,3.113-1.274,1.216,1.216,0,0,1,1.844,1.406,11.936,11.936,0,0,1-5.468,6.216,1.225,1.225,0,0,1-.851.136l-.62-.123a1.2,1.2,0,0,1-.713-1.938,7.837,7.837,0,0,0,1.7-3.4,1.248,1.248,0,0,1,.995-1.023Z" fill="#ffecd1"/>
      <path id="Trazado_986572" data-name="Trazado 986572" d="M51.85,54.97a9.1,9.1,0,0,1-2.85.784V58a2.894,2.894,0,0,0,3-2.98V55l-.05-.09A.879.879,0,0,1,51.85,54.97Z" fill="#bec5cd"/>
      <path id="Trazado_986573" data-name="Trazado 986573" d="M41,58V55.756a8.641,8.641,0,0,1-2.95-.836L38,55v.02A2.894,2.894,0,0,0,41,58Z" fill="#bec5cd"/>
      <path id="Trazado_986574" data-name="Trazado 986574" d="M41,55.756v-1a8.641,8.641,0,0,1-2.95-.836L38,54v1l.05-.08a8.641,8.641,0,0,0,2.95.836Z" fill="#a2adb3"/>
      <path id="Trazado_986575" data-name="Trazado 986575" d="M51.95,53.91a.879.879,0,0,1-.1.06,9.1,9.1,0,0,1-2.85.784v1a9.1,9.1,0,0,0,2.85-.784.879.879,0,0,0,.1-.06L52,55V54Z" fill="#a2adb3"/>
      <path id="Trazado_986576" data-name="Trazado 986576" d="M49,58a2,2,0,0,1-2,2h2a2.894,2.894,0,0,0,3-2.98v-2A2.894,2.894,0,0,1,49,58Z" fill="#9ea9af"/>
      <path id="Trazado_986577" data-name="Trazado 986577" d="M41,58a2.894,2.894,0,0,1-3-2.98v2A2.894,2.894,0,0,0,41,60h2A2,2,0,0,1,41,58Z" fill="#a2adb3"/>
      <path id="Trazado_986578" data-name="Trazado 986578" d="M50.708,55.4c-.213.061-.45.119-.708.175v2.256a2.8,2.8,0,0,0,1-.557V55.317c-.079.025-.165.05-.251.075Z" fill="#dce4ed"/>
      <path id="Trazado_986579" data-name="Trazado 986579" d="M50,57.835v2a2.8,2.8,0,0,0,1-.557v-2a2.8,2.8,0,0,1-1,.557Z" fill="#bec5cd"/>
      <path id="Trazado_986580" data-name="Trazado 986580" d="M48,55.87V58h1V55.754C48.693,55.8,48.359,55.837,48,55.87Z" fill="#dce4ed"/>
      <path id="Trazado_986581" data-name="Trazado 986581" d="M48,59.723A1.994,1.994,0,0,0,49,58H48Z" fill="#bec5cd"/>
      <path id="Trazado_986582" data-name="Trazado 986582" d="M28.126,36h-6A22.45,22.45,0,0,0,24.9,41.5a21.816,21.816,0,0,0,1.576,2.029.939.939,0,0,0,.35-.589l.309-2.328.281-2.122A3.419,3.419,0,0,1,27.98,37a3.651,3.651,0,0,1,.35-.426C28.258,36.38,28.191,36.189,28.126,36Z" fill="#73a3b3"/>
      <path id="Trazado_986583" data-name="Trazado 986583" d="M51,27,45,40V31H39l6-13v9Z" fill="#ffc247"/>
      <path id="Trazado_986584" data-name="Trazado 986584" d="M27.022,30.771C27,30.468,27,30.29,27,30.29c0-.443.033-.862.052-1.29h-6c-.019.428-.052.847-.052,1.29,0,0,0,.12.011.308A20.686,20.686,0,0,0,22.126,36h6a21.015,21.015,0,0,1-1.1-5.229Z" fill="#9abdc9"/>
      <path id="Trazado_986585" data-name="Trazado 986585" d="M35.985,13.189a19.3,19.3,0,0,0-.671-1.863C27.472,12.744,21.521,18.809,21.052,29h6C27.408,21.286,30.9,15.945,35.985,13.189Z" fill="#ccdee6"/>
      <path id="Trazado_986586" data-name="Trazado 986586" d="M27,30v.29A22.115,22.115,0,0,0,35.38,46.3a3.117,3.117,0,0,1,.644.7H36a3.5,3.5,0,0,1,.56,1.49l.592,4.445S37.174,55,45,55h0c7.826,0,7.826-2.065,7.826-2.065l.593-4.445A3.49,3.49,0,0,1,53.978,47a3.118,3.118,0,0,1,.642-.7A22.115,22.115,0,0,0,63,30.29C63,17.71,54.941,11,45,11c-9.32,0-16.985,5.9-17.907,17" fill="none" stroke="#000" stroke-linejoin="round" stroke-width="2"/>
      <path id="Trazado_986587" data-name="Trazado 986587" d="M38,54v3.018A2.892,2.892,0,0,0,41,60h8a2.892,2.892,0,0,0,3-2.982V54" fill="none" stroke="#000" stroke-linejoin="round" stroke-width="2"/>
      <path id="Trazado_986588" data-name="Trazado 986588" d="M41,60v1.323A1.6,1.6,0,0,0,42.5,63h5A1.6,1.6,0,0,0,49,61.323V60" fill="none" stroke="#000" stroke-linejoin="round" stroke-width="2"/>
      <path id="Trazado_986589" data-name="Trazado 986589" d="M45,40l6-13H45V18L39,31h6Z" fill="none" stroke="#000" stroke-linejoin="round" stroke-width="2"/>
      <line id="Línea_634" data-name="Línea 634" x1="5" transform="translate(35 46)" fill="none" stroke="#000" stroke-linejoin="round" stroke-width="2"/>
      <line id="Línea_635" data-name="Línea 635" x1="2" transform="translate(42 46)" fill="none" stroke="#000" stroke-linejoin="round" stroke-width="2"/>
      <line id="Línea_636" data-name="Línea 636" x1="9" transform="translate(46 46)" fill="none" stroke="#000" stroke-linejoin="round" stroke-width="2"/>
      <path id="Trazado_986590" data-name="Trazado 986590" d="M1,20v.29A22.115,22.115,0,0,0,9.38,36.3a3.117,3.117,0,0,1,.644.7H10a3.5,3.5,0,0,1,.56,1.49l.592,4.445S11.174,45,19,45h0c7.826,0,7.826-2.065,7.826-2.065L27.084,41" fill="none" stroke="#000" stroke-linejoin="round" stroke-width="2"/>
      <path id="Trazado_986591" data-name="Trazado 986591" d="M34.706,10C31.623,4.089,25.745,1,19,1,9.681,1,2.015,6.9,1.093,18" fill="none" stroke="#000" stroke-linejoin="round" stroke-width="2"/>
      <path id="Trazado_986592" data-name="Trazado 986592" d="M12,44v3.018A2.892,2.892,0,0,0,15,50h8a2.892,2.892,0,0,0,3-2.982V44" fill="none" stroke="#000" stroke-linejoin="round" stroke-width="2"/>
      <path id="Trazado_986593" data-name="Trazado 986593" d="M15,50v1.323A1.6,1.6,0,0,0,16.5,53h5A1.6,1.6,0,0,0,23,51.323V50" fill="none" stroke="#000" stroke-linejoin="round" stroke-width="2"/>
      <line id="Línea_637" data-name="Línea 637" x1="12" transform="translate(9 36)" fill="none" stroke="#000" stroke-linejoin="round" stroke-width="2"/>
      <line id="Línea_638" data-name="Línea 638" x1="2" transform="translate(23 36)" fill="none" stroke="#000" stroke-linejoin="round" stroke-width="2"/>
      <path id="Trazado_986594" data-name="Trazado 986594" d="M6,19A13,13,0,0,1,19,6" fill="none" stroke="#000" stroke-linejoin="round" stroke-width="2"/>
      <line id="Línea_639" data-name="Línea 639" y2="2" transform="translate(6 21)" fill="none" stroke="#000" stroke-linejoin="round" stroke-width="2"/>
    </g>
  </g>
</svg>
