<svg xmlns="http://www.w3.org/2000/svg" xmlns:xlink="http://www.w3.org/1999/xlink" width="108" height="108" viewBox="0 0 108 108">
  <defs>
    <filter id="Fondo" x="0" y="0" width="108" height="108" filterUnits="userSpaceOnUse">
      <feOffset dy="3" input="SourceAlpha"/>
      <feGaussianBlur stdDeviation="3" result="blur"/>
      <feFlood flood-opacity="0.161"/>
      <feComposite operator="in" in2="blur"/>
      <feComposite in="SourceGraphic"/>
    </filter>
    <clipPath id="clip-path">
      <rect id="Rectángulo_408274" data-name="Rectángulo 408274" width="69.135" height="59.163" fill="none"/>
    </clipPath>
  </defs>
  <g id="Icono" transform="translate(-325.719 -689)">
    <g transform="matrix(1, 0, 0, 1, 325.72, 689)" filter="url(#Fondo)">
      <g id="Fondo-2" data-name="Fondo" transform="translate(9 6)" fill="#e6d567">
        <path d="M 45 88.5 C 39.12687683105469 88.5 33.43022537231445 87.35007476806641 28.06830024719238 85.08217620849609 C 22.88852500915527 82.89131164550781 18.23629951477051 79.75458526611328 14.2408504486084 75.75914764404297 C 10.24541282653809 71.76370239257812 7.108687400817871 67.11147308349609 4.917825222015381 61.93170166015625 C 2.649924993515015 56.56977462768555 1.5 50.87312316894531 1.5 45 C 1.5 39.12687683105469 2.649924993515015 33.43022537231445 4.917825222015381 28.06830024719238 C 7.108687400817871 22.88852500915527 10.24541282653809 18.23629951477051 14.2408504486084 14.2408504486084 C 18.23629951477051 10.24541282653809 22.88852500915527 7.108687400817871 28.06830024719238 4.917825222015381 C 33.43022537231445 2.649924993515015 39.12687683105469 1.5 45 1.5 C 50.87312316894531 1.5 56.56977462768555 2.649924993515015 61.93170166015625 4.917825222015381 C 67.11147308349609 7.108687400817871 71.76370239257812 10.24541282653809 75.75914764404297 14.2408504486084 C 79.75458526611328 18.23629951477051 82.89131164550781 22.88852500915527 85.08217620849609 28.06830024719238 C 87.35007476806641 33.43022537231445 88.5 39.12687683105469 88.5 45 C 88.5 50.87312316894531 87.35007476806641 56.56977462768555 85.08217620849609 61.93170166015625 C 82.89131164550781 67.11147308349609 79.75458526611328 71.76370239257812 75.75914764404297 75.75914764404297 C 71.76370239257812 79.75458526611328 67.11147308349609 82.89131164550781 61.93170166015625 85.08217620849609 C 56.56977462768555 87.35007476806641 50.87312316894531 88.5 45 88.5 Z" stroke="none"/>
        <path d="M 45 3 C 39.32871246337891 3 33.82865524291992 4.110054016113281 28.65262985229492 6.299339294433594 C 23.65165710449219 8.414573669433594 19.15968322753906 11.44334411621094 15.301513671875 15.301513671875 C 11.44334411621094 19.15968322753906 8.414573669433594 23.65165710449219 6.299339294433594 28.65262985229492 C 4.110054016113281 33.82865524291992 3 39.32871246337891 3 45 C 3 50.67128753662109 4.110054016113281 56.17134475708008 6.299339294433594 61.34737396240234 C 8.414573669433594 66.34834289550781 11.44334411621094 70.84031677246094 15.301513671875 74.698486328125 C 19.15968322753906 78.55665588378906 23.65165710449219 81.58542633056641 28.65262985229492 83.70066070556641 C 33.82865524291992 85.88994598388672 39.32871246337891 87 45 87 C 50.67128753662109 87 56.17134475708008 85.88994598388672 61.34737396240234 83.70066070556641 C 66.34834289550781 81.58542633056641 70.84031677246094 78.55665588378906 74.698486328125 74.698486328125 C 78.55665588378906 70.84031677246094 81.58542633056641 66.34834289550781 83.70066070556641 61.34737396240234 C 85.88994598388672 56.17134475708008 87 50.67128753662109 87 45 C 87 39.32871246337891 85.88994598388672 33.82865524291992 83.70066070556641 28.65262985229492 C 81.58542633056641 23.65165710449219 78.55665588378906 19.15968322753906 74.698486328125 15.301513671875 C 70.84031677246094 11.44334411621094 66.34834289550781 8.414573669433594 61.34737396240234 6.299339294433594 C 56.17134475708008 4.110054016113281 50.67128753662109 3 45 3 M 45 0 C 69.85281372070312 0 90 20.14718627929688 90 45 C 90 69.85281372070312 69.85281372070312 90 45 90 C 20.14718627929688 90 0 69.85281372070312 0 45 C 0 20.14718627929688 20.14718627929688 0 45 0 Z" stroke="none" fill="#bca724"/>
      </g>
    </g>
    <g id="Grupo_1151789" data-name="Grupo 1151789" transform="translate(342.585 706.337)">
      <g id="Grupo_1151789-2" data-name="Grupo 1151789" clip-path="url(#clip-path)">
        <path id="Trazado_986633" data-name="Trazado 986633" d="M72.791,1.939a12.038,12.038,0,0,0-8.13,20.639.738.738,0,0,1,.736-.692h2.215a.738.738,0,0,1,.738.738v2.423a11.949,11.949,0,0,0,2.131.687.773.773,0,0,1,.5.364l1.7,2.95a.456.456,0,0,0,.79,0l1.7-2.95a.769.769,0,0,1,.5-.364A11.973,11.973,0,0,0,78.929,24.5c-.007-.142-.011-.285-.011-.428a9.155,9.155,0,0,1,6.117-8.636,12.031,12.031,0,0,0-12.244-13.5Z" transform="translate(-29.104 -0.923)" fill="#8379c1"/>
        <path id="Trazado_986634" data-name="Trazado 986634" d="M74.376,24.769a.77.77,0,0,0-.5-.364A12.021,12.021,0,0,1,68.189,3.936a12.03,12.03,0,0,0-3.528,19.6.737.737,0,0,1,.736-.692h2.214a.738.738,0,0,1,.738.738V26a11.949,11.949,0,0,0,2.131.687.77.77,0,0,1,.5.364L72.688,30a.456.456,0,0,0,.79,0l1.7-2.95a.758.758,0,0,1,.336-.306Z" transform="translate(-29.104 -1.877)" fill="#6e61b6"/>
        <path id="Trazado_986635" data-name="Trazado 986635" d="M23.667,81.248H17.444V95.537a1.35,1.35,0,0,0,1.35,1.35h2.1a1.351,1.351,0,0,0,1.288-.944l4.281-13.595Z" transform="translate(-8.317 -38.738)" fill="#fed402"/>
        <path id="Trazado_986636" data-name="Trazado 986636" d="M20.875,95.538V81.249H17.444V95.538a1.351,1.351,0,0,0,1.35,1.35h2.1a1.342,1.342,0,0,0,.664-.176,1.348,1.348,0,0,1-.685-1.174" transform="translate(-8.317 -38.738)" fill="#fac600"/>
        <path id="Trazado_986637" data-name="Trazado 986637" d="M16.382,59.472H6.463A4.527,4.527,0,0,0,1.936,64v2.474A4.528,4.528,0,0,0,6.463,71h9.919Z" transform="translate(-0.923 -28.355)" fill="#fd4755"/>
        <path id="Trazado_986638" data-name="Trazado 986638" d="M5.378,66.474V64a4.528,4.528,0,0,1,4.527-4.527H6.462A4.527,4.527,0,0,0,1.935,64v2.474A4.527,4.527,0,0,0,6.462,71H9.906a4.527,4.527,0,0,1-4.527-4.527" transform="translate(-0.923 -28.355)" fill="#fb2b3a"/>
        <path id="Trazado_986639" data-name="Trazado 986639" d="M75.249,59.472h-.5V71h.5a5.764,5.764,0,0,0,0-11.529" transform="translate(-35.64 -28.355)" fill="#fd4755"/>
        <path id="Trazado_986640" data-name="Trazado 986640" d="M75.249,71.267h-.5v3.426h.5a5.768,5.768,0,0,0,5.505-7.477,5.766,5.766,0,0,1-5.505,4.051" transform="translate(-35.64 -32.048)" fill="#fb2b3a"/>
        <path id="Trazado_986641" data-name="Trazado 986641" d="M49.654,44.166,29.288,52.175V63.7l20.366,8.008Z" transform="translate(-13.964 -21.058)" fill="#fed402"/>
        <path id="Trazado_986642" data-name="Trazado 986642" d="M33.837,65.987V56.054l-4.548,1.788V69.371l20.366,8.008V72.207Z" transform="translate(-13.964 -26.726)" fill="#fac600"/>
        <path id="Trazado_986643" data-name="Trazado 986643" d="M70.907,71.9H68.692a.738.738,0,0,1-.738-.738V40.805a.738.738,0,0,1,.738-.738h2.215a.738.738,0,0,1,.738.738V71.164a.738.738,0,0,1-.738.738" transform="translate(-32.399 -19.103)" fill="#fee97d"/>
        <path id="Trazado_986644" data-name="Trazado 986644" d="M104.1,26.755a9.152,9.152,0,0,0-7.667,14.152l-1.776,4.309,4.267-1.759a9.153,9.153,0,1,0,5.176-16.7" transform="translate(-45.131 -12.756)" fill="#0ed290"/>
        <path id="Trazado_986645" data-name="Trazado 986645" d="M98.759,43.526l1.079-2.618A9.15,9.15,0,0,1,105.8,26.916a9.151,9.151,0,0,0-9.37,13.991l-1.776,4.309Z" transform="translate(-45.131 -12.756)" fill="#00c285"/>
        <path id="Trazado_986646" data-name="Trazado 986646" d="M43.585,27.859l.973,1.97a.4.4,0,0,0,.305.221l2.174.316a.405.405,0,0,1,.224.691l-1.573,1.534a.4.4,0,0,0-.117.358l.371,2.166a.406.406,0,0,1-.588.427L43.41,34.521a.4.4,0,0,0-.377,0l-1.945,1.022a.406.406,0,0,1-.588-.427l.371-2.166a.405.405,0,0,0-.116-.358l-1.574-1.534a.405.405,0,0,1,.224-.691l2.174-.316a.4.4,0,0,0,.305-.221l.973-1.97a.4.4,0,0,1,.726,0" transform="translate(-18.623 -13.175)" fill="#fed402"/>
        <path id="Trazado_986647" data-name="Trazado 986647" d="M101.909,68.911l.973,1.97a.4.4,0,0,0,.305.221l2.174.316a.405.405,0,0,1,.224.691l-1.573,1.534A.4.4,0,0,0,103.9,74l.371,2.166a.406.406,0,0,1-.588.427l-1.945-1.022a.4.4,0,0,0-.377,0l-1.945,1.022a.406.406,0,0,1-.588-.427L99.2,74a.406.406,0,0,0-.116-.358L97.506,72.11a.405.405,0,0,1,.224-.691l2.174-.316a.4.4,0,0,0,.305-.221l.973-1.97A.4.4,0,0,1,101.909,68.911Z" transform="translate(-46.431 -32.748)" fill="#fed402"/>
        <path id="Trazado_986648" data-name="Trazado 986648" d="M83.134,13.872a1.013,1.013,0,0,0,1.013-1.013v-.65a1.013,1.013,0,1,0-2.026,0v.65a1.013,1.013,0,0,0,1.013,1.013" transform="translate(-39.154 -5.338)"/>
        <path id="Trazado_986649" data-name="Trazado 986649" d="M80.218,27.454a1.013,1.013,0,0,0,1.013,1.013h1.991a1.012,1.012,0,0,0,.017-2.025V20.294a1.012,1.012,0,0,0-1.012-1.012h-1a1.012,1.012,0,0,0-.017,2.025v5.135a1.012,1.012,0,0,0-1,1.012" transform="translate(-38.247 -9.193)"/>
        <path id="Trazado_986650" data-name="Trazado 986650" d="M12.183,67.193h3.4a1.013,1.013,0,0,0,0-2.025h-3.4a1.013,1.013,0,1,0,0,2.025" transform="translate(-5.326 -31.071)"/>
        <path id="Trazado_986651" data-name="Trazado 986651" d="M12.183,73.965h3.4a1.013,1.013,0,0,0,0-2.025h-3.4a1.013,1.013,0,1,0,0,2.025" transform="translate(-5.326 -34.3)"/>
        <path id="Trazado_986652" data-name="Trazado 986652" d="M58.968,12.986a10.138,10.138,0,0,0-1.936.187c0-.04,0-.079,0-.119a13.076,13.076,0,0,0-1.55-6.172,1.013,1.013,0,0,0-1.784.959,11.048,11.048,0,0,1,1.309,5.213c0,.25-.012.5-.029.747a10.181,10.181,0,0,0-6.174,9.164,10.9,10.9,0,0,1-2.442.858,1.788,1.788,0,0,0-1.164.847l-1.221,2.115L42.759,24.67a1.789,1.789,0,0,0-1.164-.847,11.053,11.053,0,0,1-1.336-.385V21.7a1.753,1.753,0,0,0-1.751-1.751H36.293a1.739,1.739,0,0,0-.78.186A11.034,11.034,0,0,1,50.928,4.49a1.013,1.013,0,0,0,1.277-1.572A13.054,13.054,0,0,0,33.918,21.372c.2.24.409.47.624.694v.405L15.132,30.1H5.54A5.546,5.546,0,0,0,0,35.644v2.474a5.546,5.546,0,0,0,5.54,5.54H8.115V56.8a2.366,2.366,0,0,0,2.363,2.363h2.1a2.354,2.354,0,0,0,2.254-1.653L16.379,52.6a1.013,1.013,0,1,0-1.932-.609L12.9,56.9a.337.337,0,0,1-.322.236h-2.1a.338.338,0,0,1-.337-.337V43.658h4.992l1.725.678-.987,3.136a1.013,1.013,0,0,0,1.932.608l.945-3,15.8,6.211v.77a1.753,1.753,0,0,0,1.751,1.751h2.215a1.753,1.753,0,0,0,1.751-1.751V43.626a6.776,6.776,0,0,0,0-13.491V25.564c.265.08.532.152.8.214l1.648,2.854a1.469,1.469,0,0,0,2.543,0L46.9,25.778a12.875,12.875,0,0,0,2.092-.672,10.113,10.113,0,0,0,1.178,3.137l-1.579,3.832A1.013,1.013,0,0,0,49.912,33.4l3.777-1.557a10.166,10.166,0,1,0,5.28-18.854ZM14.311,41.633H5.54a3.518,3.518,0,0,1-3.515-3.514V35.644A3.518,3.518,0,0,1,5.54,32.13h8.771v9.5ZM38.233,51.786H36.567V33.767a1.013,1.013,0,1,0-2.025,0V49.114L16.336,41.956V31.807l18.206-7.159v4.393a1.013,1.013,0,1,0,2.025,0V21.976h1.665Zm6.127-14.9a4.759,4.759,0,0,1-4.1,4.706V32.175a4.758,4.758,0,0,1,4.1,4.706m14.608-5.587a8.1,8.1,0,0,1-4.6-1.426,1.014,1.014,0,0,0-.96-.1l-2.018.831.849-2.06a1.013,1.013,0,0,0-.088-.94,8.14,8.14,0,1,1,6.819,3.7" transform="translate(0 0)"/>
        <path id="Trazado_986653" data-name="Trazado 986653" d="M112.081,36.107H105.29a1.013,1.013,0,1,0,0,2.025h6.791a1.013,1.013,0,1,0,0-2.025" transform="translate(-49.718 -17.215)"/>
        <path id="Trazado_986654" data-name="Trazado 986654" d="M112.081,42.315H105.29a1.013,1.013,0,1,0,0,2.025h6.791a1.013,1.013,0,1,0,0-2.025" transform="translate(-49.718 -20.175)"/>
        <path id="Trazado_986655" data-name="Trazado 986655" d="M112.081,48.523H105.29a1.013,1.013,0,1,0,0,2.025h6.791a1.013,1.013,0,1,0,0-2.025" transform="translate(-49.718 -23.135)"/>
        <path id="Trazado_986656" data-name="Trazado 986656" d="M91.068,87.653H89.885V86.47a1.013,1.013,0,1,0-2.025,0v1.183H86.677a1.013,1.013,0,1,0,0,2.025H87.86v1.183a1.013,1.013,0,1,0,2.025,0V89.678h1.183a1.013,1.013,0,1,0,0-2.025" transform="translate(-40.843 -40.745)"/>
        <path id="Trazado_986657" data-name="Trazado 986657" d="M38.9,32.172l-.317,1.851a1.418,1.418,0,0,0,2.057,1.495l1.662-.874,1.663.874a1.418,1.418,0,0,0,2.057-1.495L45.7,32.172l1.345-1.311a1.418,1.418,0,0,0-.786-2.418l-1.858-.27-.831-1.684a1.418,1.418,0,0,0-2.543,0L40.2,28.172l-1.858.27a1.418,1.418,0,0,0-.785,2.418ZM40.8,30.131a1.417,1.417,0,0,0,1.068-.775l.427-.866.427.866a1.417,1.417,0,0,0,1.068.776l.956.139-.691.674A1.416,1.416,0,0,0,43.65,32.2l.163.952-.855-.449a1.418,1.418,0,0,0-1.32,0l-.855.45.163-.953a1.417,1.417,0,0,0-.408-1.255l-.692-.674Z" transform="translate(-17.699 -12.252)"/>
        <path id="Trazado_986658" data-name="Trazado 986658" d="M104.583,69.493l-1.858-.27-.831-1.684a1.418,1.418,0,0,0-2.543,0l-.831,1.684-1.858.27a1.418,1.418,0,0,0-.786,2.419l1.345,1.311L96.9,75.073a1.418,1.418,0,0,0,2.057,1.495l1.662-.874,1.662.874a1.418,1.418,0,0,0,2.057-1.495l-.318-1.851,1.345-1.311a1.418,1.418,0,0,0-.785-2.418Zm-2.2,2.5a1.417,1.417,0,0,0-.408,1.255l.163.952-.855-.449a1.418,1.418,0,0,0-1.319,0l-.855.449.164-.952a1.419,1.419,0,0,0-.408-1.255l-.692-.674.955-.139a1.417,1.417,0,0,0,1.068-.776l.428-.866.427.867a1.416,1.416,0,0,0,1.067.775l.956.139Z" transform="translate(-45.507 -31.825)"/>
      </g>
    </g>
  </g>
</svg>
