<svg xmlns="http://www.w3.org/2000/svg" xmlns:xlink="http://www.w3.org/1999/xlink" width="108" height="108" viewBox="0 0 108 108">
  <defs>
    <filter id="Fondo" x="0" y="0" width="108" height="108" filterUnits="userSpaceOnUse">
      <feOffset dy="3" input="SourceAlpha"/>
      <feGaussianBlur stdDeviation="3" result="blur"/>
      <feFlood flood-opacity="0.161"/>
      <feComposite operator="in" in2="blur"/>
      <feComposite in="SourceGraphic"/>
    </filter>
  </defs>
  <g id="Icono" transform="translate(-325.719 -689)">
    <g transform="matrix(1, 0, 0, 1, 325.72, 689)" filter="url(#Fondo)">
      <g id="Fondo-2" data-name="Fondo" transform="translate(9 6)" fill="#e6d567">
        <path d="M 45 88.5 C 39.12687683105469 88.5 33.43022537231445 87.35007476806641 28.06830024719238 85.08217620849609 C 22.88852500915527 82.89131164550781 18.23629951477051 79.75458526611328 14.2408504486084 75.75914764404297 C 10.24541282653809 71.76370239257812 7.108687400817871 67.11147308349609 4.917825222015381 61.93170166015625 C 2.649924993515015 56.56977462768555 1.5 50.87312316894531 1.5 45 C 1.5 39.12687683105469 2.649924993515015 33.43022537231445 4.917825222015381 28.06830024719238 C 7.108687400817871 22.88852500915527 10.24541282653809 18.23629951477051 14.2408504486084 14.2408504486084 C 18.23629951477051 10.24541282653809 22.88852500915527 7.108687400817871 28.06830024719238 4.917825222015381 C 33.43022537231445 2.649924993515015 39.12687683105469 1.5 45 1.5 C 50.87312316894531 1.5 56.56977462768555 2.649924993515015 61.93170166015625 4.917825222015381 C 67.11147308349609 7.108687400817871 71.76370239257812 10.24541282653809 75.75914764404297 14.2408504486084 C 79.75458526611328 18.23629951477051 82.89131164550781 22.88852500915527 85.08217620849609 28.06830024719238 C 87.35007476806641 33.43022537231445 88.5 39.12687683105469 88.5 45 C 88.5 50.87312316894531 87.35007476806641 56.56977462768555 85.08217620849609 61.93170166015625 C 82.89131164550781 67.11147308349609 79.75458526611328 71.76370239257812 75.75914764404297 75.75914764404297 C 71.76370239257812 79.75458526611328 67.11147308349609 82.89131164550781 61.93170166015625 85.08217620849609 C 56.56977462768555 87.35007476806641 50.87312316894531 88.5 45 88.5 Z" stroke="none"/>
        <path d="M 45 3 C 39.32871246337891 3 33.82865524291992 4.110054016113281 28.65262985229492 6.299339294433594 C 23.65165710449219 8.414573669433594 19.15968322753906 11.44334411621094 15.301513671875 15.301513671875 C 11.44334411621094 19.15968322753906 8.414573669433594 23.65165710449219 6.299339294433594 28.65262985229492 C 4.110054016113281 33.82865524291992 3 39.32871246337891 3 45 C 3 50.67128753662109 4.110054016113281 56.17134475708008 6.299339294433594 61.34737396240234 C 8.414573669433594 66.34834289550781 11.44334411621094 70.84031677246094 15.301513671875 74.698486328125 C 19.15968322753906 78.55665588378906 23.65165710449219 81.58542633056641 28.65262985229492 83.70066070556641 C 33.82865524291992 85.88994598388672 39.32871246337891 87 45 87 C 50.67128753662109 87 56.17134475708008 85.88994598388672 61.34737396240234 83.70066070556641 C 66.34834289550781 81.58542633056641 70.84031677246094 78.55665588378906 74.698486328125 74.698486328125 C 78.55665588378906 70.84031677246094 81.58542633056641 66.34834289550781 83.70066070556641 61.34737396240234 C 85.88994598388672 56.17134475708008 87 50.67128753662109 87 45 C 87 39.32871246337891 85.88994598388672 33.82865524291992 83.70066070556641 28.65262985229492 C 81.58542633056641 23.65165710449219 78.55665588378906 19.15968322753906 74.698486328125 15.301513671875 C 70.84031677246094 11.44334411621094 66.34834289550781 8.414573669433594 61.34737396240234 6.299339294433594 C 56.17134475708008 4.110054016113281 50.67128753662109 3 45 3 M 45 0 C 69.85281372070312 0 90 20.14718627929688 90 45 C 90 69.85281372070312 69.85281372070312 90 45 90 C 20.14718627929688 90 0 69.85281372070312 0 45 C 0 20.14718627929688 20.14718627929688 0 45 0 Z" stroke="none" fill="#bca724"/>
      </g>
    </g>
    <g id="_013-pay_per_click" data-name="013-pay per click" transform="translate(327.678 708.485)">
      <g id="Grupo_1151794" data-name="Grupo 1151794" transform="translate(23.074 11.739)">
        <g id="Grupo_1151790" data-name="Grupo 1151790" transform="translate(0)">
          <path id="Trazado_986659" data-name="Trazado 986659" d="M51.654,95.211a6.894,6.894,0,0,1,.932-3.47H31.533a1.919,1.919,0,0,0-1.919,1.919v4.777l.684.126H52.519A6.9,6.9,0,0,1,51.654,95.211Z" transform="translate(-29.614 -91.741)" fill="#0593fc"/>
          <path id="Trazado_986660" data-name="Trazado 986660" d="M323.912,91.741h-4.027a6.928,6.928,0,0,1-11.519,0h-5.506a6.926,6.926,0,0,1,.067,6.823H325.1l.731-.126V93.66a1.92,1.92,0,0,0-1.92-1.919Z" transform="translate(-267.895 -91.741)" fill="#0593fc"/>
        </g>
        <g id="Grupo_1151791" data-name="Grupo 1151791" transform="translate(0 0)">
          <path id="Trazado_986661" data-name="Trazado 986661" d="M38.926,91.741H31.533a1.919,1.919,0,0,0-1.919,1.919v4.777h9.312Z" transform="translate(-29.614 -91.741)" fill="#60b7ff"/>
        </g>
        <g id="Grupo_1151792" data-name="Grupo 1151792" transform="translate(0 0)">
          <path id="Trazado_986662" data-name="Trazado 986662" d="M35.323,91.741H31.533a1.919,1.919,0,0,0-1.919,1.919v4.777H33.4V93.66A1.919,1.919,0,0,1,35.323,91.741Z" transform="translate(-29.614 -91.741)" fill="#26a6fe"/>
        </g>
        <path id="Trazado_986663" data-name="Trazado 986663" d="M64.713,144.071a6.928,6.928,0,0,1-12.262,0H29.614v30.536a1.28,1.28,0,0,0,1.28,1.28H49.474V161.811a2.316,2.316,0,0,1,2.2-2.335,2.277,2.277,0,0,1,2.355,2.276v7.721a2.277,2.277,0,0,1,4.554,0,2.277,2.277,0,0,1,4.554,0,2.277,2.277,0,0,1,2.355-2.276,2.316,2.316,0,0,1,2.2,2.335v6.354H86.271a1.28,1.28,0,0,0,1.28-1.28V144.071Z" transform="translate(-29.614 -137.375)" fill="#eaf6ff"/>
        <g id="Grupo_1151793" data-name="Grupo 1151793" transform="translate(0 6.696)">
          <path id="Trazado_986664" data-name="Trazado 986664" d="M33.4,174.607V144.071H29.614v30.536a1.28,1.28,0,0,0,1.28,1.28h3.789A1.279,1.279,0,0,1,33.4,174.607Z" transform="translate(-29.614 -144.071)" fill="#d8ecfe"/>
        </g>
      </g>
      <g id="Grupo_1151795" data-name="Grupo 1151795" transform="translate(34.681 26.006)">
        <path id="Trazado_986665" data-name="Trazado 986665" d="M130.78,211.071a2.276,2.276,0,0,1,2.345,2.087h15.853a6.931,6.931,0,0,1,6.07-4.935c0-.009,0-.017,0-.025a4.96,4.96,0,0,0-4.96-4.96h-24.8a4.96,4.96,0,0,0,0,9.92h3.306A2.308,2.308,0,0,1,130.78,211.071Z" transform="translate(-120.328 -203.237)" fill="#0ed290"/>
        <path id="Trazado_986666" data-name="Trazado 986666" d="M128.609,213.058a4.96,4.96,0,0,1,.988-9.821h-4.309a4.96,4.96,0,1,0,0,9.92h3.306C128.6,213.124,128.6,213.091,128.609,213.058Z" transform="translate(-120.328 -203.237)" fill="#00c285"/>
      </g>
      <g id="Grupo_1151798" data-name="Grupo 1151798" transform="translate(63.046 30.966)">
        <g id="Grupo_1151796" data-name="Grupo 1151796" transform="translate(0 0)">
          <circle id="Elipse_11826" data-name="Elipse 11826" cx="6.928" cy="6.928" r="6.928" fill="#fed402"/>
        </g>
        <g id="Grupo_1151797" data-name="Grupo 1151797">
          <path id="Trazado_986667" data-name="Trazado 986667" d="M345.29,248.927a6.93,6.93,0,0,1,5.283-6.73,6.928,6.928,0,1,0,0,13.46A6.93,6.93,0,0,1,345.29,248.927Z" transform="translate(-342 -241.999)" fill="#fac600"/>
        </g>
      </g>
      <g id="Grupo_1151801" data-name="Grupo 1151801" transform="translate(45.114 8.28)">
        <g id="Grupo_1151799" data-name="Grupo 1151799" transform="translate(0)">
          <circle id="Elipse_11827" data-name="Elipse 11827" cx="6.928" cy="6.928" r="6.928" fill="#fed402"/>
        </g>
        <g id="Grupo_1151800" data-name="Grupo 1151800" transform="translate(0 0)">
          <path id="Trazado_986668" data-name="Trazado 986668" d="M205.073,71.64a6.93,6.93,0,0,1,5.32-6.738,6.928,6.928,0,1,0,0,13.477A6.93,6.93,0,0,1,205.073,71.64Z" transform="translate(-201.856 -64.712)" fill="#fac600"/>
        </g>
      </g>
      <g id="Grupo_1151804" data-name="Grupo 1151804" transform="translate(62.375 0.96)">
        <g id="Grupo_1151802" data-name="Grupo 1151802" transform="translate(0 0)">
          <circle id="Elipse_11828" data-name="Elipse 11828" cx="6.928" cy="6.928" r="6.928" fill="#fed402"/>
        </g>
        <g id="Grupo_1151803" data-name="Grupo 1151803">
          <path id="Trazado_986669" data-name="Trazado 986669" d="M339.987,14.427A6.93,6.93,0,0,1,345.3,7.69a6.928,6.928,0,1,0,0,13.474A6.929,6.929,0,0,1,339.987,14.427Z" transform="translate(-336.757 -7.499)" fill="#fac600"/>
        </g>
      </g>
      <g id="Grupo_1151807" data-name="Grupo 1151807" transform="translate(42.934 33.838)">
        <path id="Trazado_986670" data-name="Trazado 986670" d="M200.837,272.169a2.277,2.277,0,0,0-2.355,2.276,2.277,2.277,0,1,0-4.554,0,2.277,2.277,0,0,0-4.554,0v-7.721a2.277,2.277,0,0,0-2.355-2.276,2.316,2.316,0,0,0-2.2,2.335V284.1a3.773,3.773,0,0,0,3.773,3.773v2.472h10.46v-2.472h.209a3.773,3.773,0,0,0,3.773-3.773V274.5a2.316,2.316,0,0,0-2.2-2.335Z" transform="translate(-184.82 -264.446)" fill="#ffe5c2"/>
        <path id="Trazado_986671" data-name="Trazado 986671" d="M188.595,290.342h3.222v-4a.635.635,0,0,0-.54-.631,3.774,3.774,0,0,1-3.233-3.735V264.661s0,0,0-.005a2.267,2.267,0,0,0-1.259-.187,2.318,2.318,0,0,0-1.963,2.315V284.1a3.773,3.773,0,0,0,3.773,3.773v2.472Z" transform="translate(-184.822 -264.447)" fill="#fed2a4"/>
        <g id="Grupo_1151805" data-name="Grupo 1151805" transform="translate(1.936 25.895)">
          <path id="Trazado_986672" data-name="Trazado 986672" d="M213.656,471.635H200.592a.64.64,0,0,1-.64-.64v-3.543a.64.64,0,0,1,.64-.64h13.064a.64.64,0,0,1,.64.64V471A.64.64,0,0,1,213.656,471.635Z" transform="translate(-199.952 -466.813)" fill="#fd4755"/>
        </g>
        <g id="Grupo_1151806" data-name="Grupo 1151806" transform="translate(1.936 25.895)">
          <path id="Trazado_986673" data-name="Trazado 986673" d="M204.3,471v-3.543a.64.64,0,0,1,.64-.64h-4.344a.64.64,0,0,0-.64.64V471a.64.64,0,0,0,.64.64h4.344A.64.64,0,0,1,204.3,471Z" transform="translate(-199.953 -466.813)" fill="#fb2b3a"/>
        </g>
      </g>
      <g id="Grupo_1151810" data-name="Grupo 1151810" transform="translate(27.026 42.674)">
        <g id="Grupo_1151808" data-name="Grupo 1151808" transform="translate(0)">
          <circle id="Elipse_11829" data-name="Elipse 11829" cx="1.919" cy="1.919" r="1.919" fill="#0ed290"/>
        </g>
        <g id="Grupo_1151809" data-name="Grupo 1151809" transform="translate(7.102)">
          <circle id="Elipse_11830" data-name="Elipse 11830" cx="1.919" cy="1.919" r="1.919" fill="#0ed290"/>
        </g>
      </g>
      <g id="Grupo_1151811" data-name="Grupo 1151811" transform="translate(22.114 0)">
        <path id="Trazado_986674" data-name="Trazado 986674" d="M79.09,10.779H76.64a7.881,7.881,0,0,0-.221-6.3.96.96,0,0,0-1.731.83,5.912,5.912,0,0,1,.584,2.578A5.969,5.969,0,1,1,69.3,1.919a5.9,5.9,0,0,1,2.681.636A.96.96,0,1,0,72.848.841,7.808,7.808,0,0,0,69.3,0a7.883,7.883,0,0,0-7.337,10.78h-3.4a7.881,7.881,0,0,0-13.047,0H24.993a2.882,2.882,0,0,0-2.879,2.879V48.971a2.242,2.242,0,0,0,2.239,2.239H41.974v2.277a4.741,4.741,0,0,0,3.773,4.635v.651H45.51a1.6,1.6,0,0,0-1.6,1.6v3.543a1.6,1.6,0,0,0,1.6,1.6H58.574a1.6,1.6,0,0,0,1.6-1.6V60.373a1.6,1.6,0,0,0-1.6-1.6h-.447v-.612a4.74,4.74,0,0,0,3.982-4.673V51.21H68.42a.96.96,0,0,0,0-1.919H62.109V43.9A3.294,3.294,0,0,0,58.983,40.6h0a3.216,3.216,0,0,0-2.36.908l-.028.027a3.232,3.232,0,0,0-4.553,0,3.233,3.233,0,0,0-3.594-.658V36.886H62.153a7.887,7.887,0,1,0,8.131-6.872,5.929,5.929,0,0,0-5.842-4.968H48.2a.96.96,0,1,0,0,1.919H64.442a4.007,4.007,0,0,1,3.921,3.207,7.916,7.916,0,0,0-5.711,4.794H48.238A3.242,3.242,0,0,0,45.1,32.88a3.266,3.266,0,0,0-2.9,2.086H39.642a4,4,0,0,1,0-8h4.083a.96.96,0,1,0,0-1.919H39.641a5.92,5.92,0,0,0,0,11.84h2.333v12.4H24.353a.32.32,0,0,1-.32-.32V19.395H45.361a7.879,7.879,0,0,0,13.361,0H80.05V48.971a.32.32,0,0,1-.32.32H72.9a.96.96,0,0,0,0,1.919H79.73a2.242,2.242,0,0,0,2.239-2.239V13.658a2.882,2.882,0,0,0-2.879-2.879ZM69.975,31.926a5.969,5.969,0,1,1-5.969,5.969,5.975,5.975,0,0,1,5.969-5.969ZM58.254,60.692v2.9H45.83v-2.9ZM43.893,36.175A1.359,1.359,0,0,1,45.165,34.8a1.317,1.317,0,0,1,1.363,1.316v7.721a.96.96,0,0,0,1.919,0,1.317,1.317,0,0,1,2.635,0,.96.96,0,1,0,1.919,0,1.317,1.317,0,1,1,2.635,0,.96.96,0,0,0,1.919,0,1.317,1.317,0,0,1,1.363-1.317A1.359,1.359,0,0,1,60.19,43.9v9.591A2.817,2.817,0,0,1,57.377,56.3h-.209a.96.96,0,0,0-.96.96v1.512H47.666V57.261a.96.96,0,0,0-.96-.96,2.817,2.817,0,0,1-2.813-2.813Zm-12.467-18.7H24.033V13.658a.959.959,0,0,1,.96-.96h6.433v4.777Zm13.061,0H33.345V12.7h11.22a7.862,7.862,0,0,0-.078,4.777Zm7.554,3.7a5.969,5.969,0,1,1,5.969-5.969,5.975,5.975,0,0,1-5.969,5.969Zm28.008-3.7H59.6a7.862,7.862,0,0,0-.078-4.777h3.541a7.875,7.875,0,0,0,12.489,0H79.09a.961.961,0,0,1,.96.96v3.817Z" transform="translate(-22.114 0)"/>
        <path id="Trazado_986675" data-name="Trazado 986675" d="M166.666,235.46a.96.96,0,0,0,.96.96h20.943a.96.96,0,1,0,0-1.919H167.626A.96.96,0,0,0,166.666,235.46Z" transform="translate(-148.169 -204.494)"/>
        <path id="Trazado_986676" data-name="Trazado 986676" d="M373.165,260.111H374.8a.517.517,0,0,1,0,1.034h-2.875a.96.96,0,0,0,0,1.919h1.1v.556a.96.96,0,1,0,1.919,0v-.563a2.435,2.435,0,0,0-.144-4.865h-1.632a.517.517,0,0,1,0-1.034h2.875a.96.96,0,1,0,0-1.919h-1.1v-.556a.96.96,0,1,0-1.919,0v.563a2.435,2.435,0,0,0,.144,4.865Z" transform="translate(-326.121 -221.257)"/>
        <path id="Trazado_986677" data-name="Trazado 986677" d="M234.652,80.9H233.02a.517.517,0,0,1,0-1.034H235.9a.96.96,0,0,0,0-1.919h-1.1v-.556a.96.96,0,1,0-1.919,0v.563a2.435,2.435,0,0,0,.144,4.865h1.632a.517.517,0,0,1,0,1.034h-2.875a.96.96,0,0,0,0,1.919h1.1v.556a.96.96,0,1,0,1.919,0v-.563a2.435,2.435,0,0,0-.144-4.865Z" transform="translate(-203.908 -66.653)"/>
        <path id="Trazado_986678" data-name="Trazado 986678" d="M368.737,30.079a.96.96,0,0,0,.96-.96v-.563a2.435,2.435,0,0,0-.144-4.865h-1.632a.517.517,0,0,1,0-1.034H370.8a.96.96,0,0,0,0-1.919h-1.1v-.556a.96.96,0,0,0-1.919,0v.563a2.435,2.435,0,0,0,.144,4.865h1.632a.517.517,0,0,1,0,1.034h-2.875a.96.96,0,0,0,0,1.919h1.1v.556A.96.96,0,0,0,368.737,30.079Z" transform="translate(-321.548 -16.762)"/>
        <path id="Trazado_986679" data-name="Trazado 986679" d="M53,328.879A2.879,2.879,0,1,0,55.879,326,2.882,2.882,0,0,0,53,328.879Zm3.839,0a.96.96,0,1,1-.96-.96A.961.961,0,0,1,56.839,328.879Z" transform="translate(-49.048 -284.285)"/>
        <path id="Trazado_986680" data-name="Trazado 986680" d="M114.258,328.879a2.879,2.879,0,1,0-2.879,2.879A2.882,2.882,0,0,0,114.258,328.879Zm-3.839,0a.96.96,0,1,1,.96.96A.961.961,0,0,1,110.419,328.879Z" transform="translate(-97.446 -284.285)"/>
      </g>
    </g>
  </g>
</svg>
