<svg xmlns="http://www.w3.org/2000/svg" xmlns:xlink="http://www.w3.org/1999/xlink" width="108" height="108" viewBox="0 0 108 108">
  <defs>
    <filter id="Fondo" x="0" y="0" width="108" height="108" filterUnits="userSpaceOnUse">
      <feOffset dy="3" input="SourceAlpha"/>
      <feGaussianBlur stdDeviation="3" result="blur"/>
      <feFlood flood-opacity="0.161"/>
      <feComposite operator="in" in2="blur"/>
      <feComposite in="SourceGraphic"/>
    </filter>
  </defs>
  <g id="Icono" transform="translate(-325.719 -689)">
    <g transform="matrix(1, 0, 0, 1, 325.72, 689)" filter="url(#Fondo)">
      <g id="Fondo-2" data-name="Fondo" transform="translate(9 6)" fill="#e6d567">
        <path d="M 45 88.5 C 39.12687683105469 88.5 33.43022537231445 87.35007476806641 28.06830024719238 85.08217620849609 C 22.88852500915527 82.89131164550781 18.23629951477051 79.75458526611328 14.2408504486084 75.75914764404297 C 10.24541282653809 71.76370239257812 7.108687400817871 67.11147308349609 4.917825222015381 61.93170166015625 C 2.649924993515015 56.56977462768555 1.5 50.87312316894531 1.5 45 C 1.5 39.12687683105469 2.649924993515015 33.43022537231445 4.917825222015381 28.06830024719238 C 7.108687400817871 22.88852500915527 10.24541282653809 18.23629951477051 14.2408504486084 14.2408504486084 C 18.23629951477051 10.24541282653809 22.88852500915527 7.108687400817871 28.06830024719238 4.917825222015381 C 33.43022537231445 2.649924993515015 39.12687683105469 1.5 45 1.5 C 50.87312316894531 1.5 56.56977462768555 2.649924993515015 61.93170166015625 4.917825222015381 C 67.11147308349609 7.108687400817871 71.76370239257812 10.24541282653809 75.75914764404297 14.2408504486084 C 79.75458526611328 18.23629951477051 82.89131164550781 22.88852500915527 85.08217620849609 28.06830024719238 C 87.35007476806641 33.43022537231445 88.5 39.12687683105469 88.5 45 C 88.5 50.87312316894531 87.35007476806641 56.56977462768555 85.08217620849609 61.93170166015625 C 82.89131164550781 67.11147308349609 79.75458526611328 71.76370239257812 75.75914764404297 75.75914764404297 C 71.76370239257812 79.75458526611328 67.11147308349609 82.89131164550781 61.93170166015625 85.08217620849609 C 56.56977462768555 87.35007476806641 50.87312316894531 88.5 45 88.5 Z" stroke="none"/>
        <path d="M 45 3 C 39.32871246337891 3 33.82865524291992 4.110054016113281 28.65262985229492 6.299339294433594 C 23.65165710449219 8.414573669433594 19.15968322753906 11.44334411621094 15.301513671875 15.301513671875 C 11.44334411621094 19.15968322753906 8.414573669433594 23.65165710449219 6.299339294433594 28.65262985229492 C 4.110054016113281 33.82865524291992 3 39.32871246337891 3 45 C 3 50.67128753662109 4.110054016113281 56.17134475708008 6.299339294433594 61.34737396240234 C 8.414573669433594 66.34834289550781 11.44334411621094 70.84031677246094 15.301513671875 74.698486328125 C 19.15968322753906 78.55665588378906 23.65165710449219 81.58542633056641 28.65262985229492 83.70066070556641 C 33.82865524291992 85.88994598388672 39.32871246337891 87 45 87 C 50.67128753662109 87 56.17134475708008 85.88994598388672 61.34737396240234 83.70066070556641 C 66.34834289550781 81.58542633056641 70.84031677246094 78.55665588378906 74.698486328125 74.698486328125 C 78.55665588378906 70.84031677246094 81.58542633056641 66.34834289550781 83.70066070556641 61.34737396240234 C 85.88994598388672 56.17134475708008 87 50.67128753662109 87 45 C 87 39.32871246337891 85.88994598388672 33.82865524291992 83.70066070556641 28.65262985229492 C 81.58542633056641 23.65165710449219 78.55665588378906 19.15968322753906 74.698486328125 15.301513671875 C 70.84031677246094 11.44334411621094 66.34834289550781 8.414573669433594 61.34737396240234 6.299339294433594 C 56.17134475708008 4.110054016113281 50.67128753662109 3 45 3 M 45 0 C 69.85281372070312 0 90 20.14718627929688 90 45 C 90 69.85281372070312 69.85281372070312 90 45 90 C 20.14718627929688 90 0 69.85281372070312 0 45 C 0 20.14718627929688 20.14718627929688 0 45 0 Z" stroke="none" fill="#bca724"/>
      </g>
    </g>
    <g id="_017-ads" data-name="017-ads" transform="translate(346.781 677.204)">
      <g id="Grupo_1151766" data-name="Grupo 1151766" transform="translate(46.74 43.565)">
        <path id="Trazado_986595" data-name="Trazado 986595" d="M390.459,195.6h-2.512v5.123h3.872v-4.5Z" transform="translate(-384.772 -186.265)" fill="#fd4755"/>
        <path id="Trazado_986596" data-name="Trazado 986596" d="M387.947,195.6h1.808v5.123h-1.808Z" transform="translate(-384.772 -186.265)" fill="#fb2b3a"/>
        <path id="Trazado_986597" data-name="Trazado 986597" d="M365.436,152.735a2.166,2.166,0,0,0-2.166,2.166v1.183a2.166,2.166,0,0,0,2.166,2.166h3.522v-5.515Z" transform="translate(-363.27 -148.919)" fill="#54469c"/>
        <g id="Grupo_1151763" data-name="Grupo 1151763" transform="translate(0 3.817)">
          <path id="Trazado_986598" data-name="Trazado 986598" d="M365.717,156.085V154.9a2.166,2.166,0,0,1,2.166-2.166h-2.447a2.166,2.166,0,0,0-2.166,2.166v1.183a2.166,2.166,0,0,0,2.166,2.166h2.447A2.166,2.166,0,0,1,365.717,156.085Z" transform="translate(-363.27 -152.736)" fill="#463b84"/>
        </g>
        <path id="Trazado_986599" data-name="Trazado 986599" d="M476.38,152.735h-.988v5.515h.988a2.757,2.757,0,1,0,0-5.515Z" transform="translate(-460.966 -148.919)" fill="#54469c"/>
        <g id="Grupo_1151764" data-name="Grupo 1151764" transform="translate(5.687)">
          <path id="Trazado_986600" data-name="Trazado 986600" d="M407.472,132.4l8.252,3.787a.366.366,0,0,0,.487-.387V123.49a.366.366,0,0,0-.487-.387l-8.252,3.787Z" transform="translate(-407.472 -123.074)" fill="#fd4755"/>
        </g>
        <g id="Grupo_1151765" data-name="Grupo 1151765" transform="translate(5.687 2.132)">
          <path id="Trazado_986601" data-name="Trazado 986601" d="M411.143,144.338v-4.695l-3.671,1.685v5.515l8.252,3.787a.366.366,0,0,0,.487-.387v-3.166l-4.693-2.154A.643.643,0,0,1,411.143,144.338Z" transform="translate(-407.472 -139.643)" fill="#fb2b3a"/>
        </g>
      </g>
      <path id="Trazado_986602" data-name="Trazado 986602" d="M345.316,244.919l-4.29-8.586a3.468,3.468,0,0,0-3.1-1.918H324.459v21.223h4.858a5.962,5.962,0,0,1,9.7,0h6.662v-9.169A3.468,3.468,0,0,0,345.316,244.919Z" transform="translate(-282.712 -176.524)" fill="#fed402"/>
      <g id="Grupo_1151767" data-name="Grupo 1151767" transform="translate(41.747 57.891)">
        <path id="Trazado_986603" data-name="Trazado 986603" d="M324.459,234.415h5.094v21.223h-5.094Z" transform="translate(-324.459 -234.415)" fill="#fac600"/>
      </g>
      <g id="Grupo_1151768" data-name="Grupo 1151768" transform="translate(59.502 73.27)">
        <path id="Trazado_986604" data-name="Trazado 986604" d="M465.923,359.791v-5.843h-2.774a.693.693,0,0,0-.694.693v5.15Z" transform="translate(-462.455 -353.948)" fill="#fe7701"/>
      </g>
      <g id="Grupo_1151769" data-name="Grupo 1151769" transform="translate(45.215 61.358)">
        <path id="Trazado_986605" data-name="Trazado 986605" d="M360.98,261.368H352.1a.693.693,0,0,0-.694.694v7.2a.693.693,0,0,0,.694.694h12.472a.694.694,0,0,0,.62-1l-3.6-7.2A.694.694,0,0,0,360.98,261.368Z" transform="translate(-351.411 -261.368)" fill="#60b7ff"/>
      </g>
      <g id="Grupo_1151770" data-name="Grupo 1151770" transform="translate(45.215 61.358)">
        <path id="Trazado_986606" data-name="Trazado 986606" d="M352.105,261.367a.693.693,0,0,0-.693.694v7.2a.693.693,0,0,0,.693.694h3.607v-8.586h-3.607Z" transform="translate(-351.412 -261.367)" fill="#26a6fe"/>
      </g>
      <path id="Trazado_986607" data-name="Trazado 986607" d="M45.073,153.707l-.732,4.113a.537.537,0,0,1-.874.318l-3.2-2.68a.537.537,0,0,0-.689,0l-3.2,2.68a.537.537,0,0,1-.874-.318l-.732-4.113a.537.537,0,0,0-.528-.443l-4.178-.007a.537.537,0,0,1-.465-.805l1.843-3.2H8.887A1.387,1.387,0,0,0,7.5,150.634v30.794h6.8a5.962,5.962,0,0,1,9.7,0h8.469a5.962,5.962,0,0,1,9.7,0h6.107V153.259l-2.68,0a.537.537,0,0,0-.528.443Z" transform="translate(-6.535 -102.315)" fill="#0ed290"/>
      <g id="Grupo_1151771" data-name="Grupo 1151771" transform="translate(0.965 46.932)">
        <path id="Trazado_986608" data-name="Trazado 986608" d="M13.2,149.246H8.887A1.387,1.387,0,0,0,7.5,150.633v30.794h4.316V150.633A1.387,1.387,0,0,1,13.2,149.246Z" transform="translate(-7.5 -149.246)" fill="#00c285"/>
      </g>
      <g id="Grupo_1151772" data-name="Grupo 1151772" transform="translate(0.965 79.114)">
        <path id="Trazado_986609" data-name="Trazado 986609" d="M286.906,403.663a6.017,6.017,0,0,1-.059-.832,5.935,5.935,0,0,1,1.113-3.468H276.995a5.935,5.935,0,0,1,1.113,3.468,6.019,6.019,0,0,1-.059.832Z" transform="translate(-242.32 -399.363)" fill="#8379c1"/>
        <path id="Trazado_986610" data-name="Trazado 986610" d="M135.766,399.363a5.935,5.935,0,0,1,1.113,3.468,6.023,6.023,0,0,1-.059.832h6.36a6.02,6.02,0,0,1-.059-.832,5.935,5.935,0,0,1,1.113-3.468Z" transform="translate(-119.263 -399.363)" fill="#8379c1"/>
        <path id="Trazado_986611" data-name="Trazado 986611" d="M437.631,399.363a5.935,5.935,0,0,1,1.113,3.468,6.024,6.024,0,0,1-.059.832h4.221a1.387,1.387,0,0,0,1.387-1.387v-2.913Z" transform="translate(-382.288 -399.363)" fill="#8379c1"/>
        <path id="Trazado_986612" data-name="Trazado 986612" d="M13.187,402.832a5.935,5.935,0,0,1,1.113-3.468H7.5v2.913a1.387,1.387,0,0,0,1.387,1.387h4.359a6,6,0,0,1-.059-.832Z" transform="translate(-7.5 -399.364)" fill="#8379c1"/>
      </g>
      <g id="Grupo_1151773" data-name="Grupo 1151773" transform="translate(0.965 79.114)">
        <path id="Trazado_986613" data-name="Trazado 986613" d="M8.887,403.663h2.928v-4.3H7.5v2.913A1.387,1.387,0,0,0,8.887,403.663Z" transform="translate(-7.5 -399.363)" fill="#6e61b6"/>
      </g>
      <g id="Grupo_1151774" data-name="Grupo 1151774" transform="translate(6.652 76.617)">
        <circle id="Elipse_11820" data-name="Elipse 11820" cx="5.965" cy="5.965" r="5.965" fill="#54469c"/>
      </g>
      <g id="Grupo_1151775" data-name="Grupo 1151775" transform="translate(6.652 76.617)">
        <path id="Trazado_986614" data-name="Trazado 986614" d="M54.957,385.924a5.966,5.966,0,0,1,4.337-5.738,5.965,5.965,0,1,0,0,11.476,5.966,5.966,0,0,1-4.337-5.738Z" transform="translate(-51.702 -379.959)" fill="#463b84"/>
      </g>
      <circle id="Elipse_11821" data-name="Elipse 11821" cx="2.041" cy="2.041" r="2.041" transform="translate(10.576 80.541)" fill="#fff"/>
      <g id="Grupo_1151776" data-name="Grupo 1151776" transform="translate(24.824 76.617)">
        <circle id="Elipse_11822" data-name="Elipse 11822" cx="5.965" cy="5.965" r="5.965" fill="#54469c"/>
      </g>
      <g id="Grupo_1151777" data-name="Grupo 1151777" transform="translate(24.824 76.617)">
        <path id="Trazado_986615" data-name="Trazado 986615" d="M196.157,385.923a5.966,5.966,0,0,1,4.352-5.742,5.965,5.965,0,1,0,0,11.484A5.966,5.966,0,0,1,196.157,385.923Z" transform="translate(-192.932 -379.958)" fill="#463b84"/>
      </g>
      <circle id="Elipse_11823" data-name="Elipse 11823" cx="2.041" cy="2.041" r="2.041" transform="translate(28.748 80.541)" fill="#fff"/>
      <g id="Grupo_1151778" data-name="Grupo 1151778" transform="translate(45.492 76.617)">
        <circle id="Elipse_11824" data-name="Elipse 11824" cx="5.965" cy="5.965" r="5.965" fill="#54469c"/>
      </g>
      <g id="Grupo_1151779" data-name="Grupo 1151779" transform="translate(45.492 76.617)">
        <path id="Trazado_986616" data-name="Trazado 986616" d="M356.84,385.923a5.966,5.966,0,0,1,4.329-5.736,5.965,5.965,0,1,0,0,11.471A5.966,5.966,0,0,1,356.84,385.923Z" transform="translate(-353.568 -379.958)" fill="#463b84"/>
      </g>
      <circle id="Elipse_11825" data-name="Elipse 11825" cx="2.041" cy="2.041" r="2.041" transform="translate(49.416 80.541)" fill="#fff"/>
      <g id="Grupo_1151783" data-name="Grupo 1151783" transform="translate(7.739 58.723)">
        <g id="Grupo_1151780" data-name="Grupo 1151780" transform="translate(0 0)">
          <path id="Trazado_986617" data-name="Trazado 986617" d="M65.639,241.2l1.1,2.223a.57.57,0,0,0,.429.312l2.453.357a.57.57,0,0,1,.316.971l-1.775,1.73a.57.57,0,0,0-.164.5l.419,2.444a.569.569,0,0,1-.826.6l-2.194-1.154a.569.569,0,0,0-.53,0l-2.194,1.154a.569.569,0,0,1-.826-.6l.419-2.444a.57.57,0,0,0-.164-.5l-1.775-1.73a.57.57,0,0,1,.316-.971l2.453-.357a.57.57,0,0,0,.429-.312l1.1-2.223A.57.57,0,0,1,65.639,241.2Z" transform="translate(-60.15 -240.884)" fill="#fed402"/>
        </g>
        <g id="Grupo_1151782" data-name="Grupo 1151782" transform="translate(0 2.844)">
          <g id="Grupo_1151781" data-name="Grupo 1151781">
            <path id="Trazado_986618" data-name="Trazado 986618" d="M64.782,267.856l.419-2.444a.57.57,0,0,0-.164-.5l-1.775-1.73a.572.572,0,0,1-.13-.193l-.041.009-2.453.357a.57.57,0,0,0-.316.971l1.775,1.73a.57.57,0,0,1,.164.5L61.842,269a.569.569,0,0,0,.826.6l2.194-1.154a.576.576,0,0,1,.127-.048.561.561,0,0,1-.208-.542Z" transform="translate(-60.15 -262.985)" fill="#fac600"/>
          </g>
        </g>
      </g>
      <g id="Grupo_1151787" data-name="Grupo 1151787" transform="translate(21.633 32.789)">
        <g id="Grupo_1151784" data-name="Grupo 1151784" transform="translate(0 0)">
          <path id="Trazado_986619" data-name="Trazado 986619" d="M180.352,39.594l2.095,3.615a.537.537,0,0,0,.648.236l3.928-1.423a.537.537,0,0,1,.712.6l-.719,4.116a.537.537,0,0,0,.345.6l3.924,1.435a.537.537,0,0,1,.161.916l-3.2,2.691a.537.537,0,0,0-.12.679l2.083,3.621a.537.537,0,0,1-.465.805l-4.178.007a.537.537,0,0,0-.528.443l-.732,4.113a.537.537,0,0,1-.874.318l-3.2-2.68a.537.537,0,0,0-.689,0l-3.2,2.68a.537.537,0,0,1-.874-.318l-.732-4.113a.537.537,0,0,0-.528-.443l-4.178-.007a.537.537,0,0,1-.465-.805l2.083-3.621a.537.537,0,0,0-.12-.679l-3.2-2.691a.537.537,0,0,1,.161-.916l3.924-1.435a.537.537,0,0,0,.345-.6l-.719-4.116a.537.537,0,0,1,.712-.6l3.928,1.423a.537.537,0,0,0,.648-.236l2.095-3.615A.537.537,0,0,1,180.352,39.594Z" transform="translate(-168.137 -39.326)" fill="#fed402"/>
        </g>
        <g id="Grupo_1151786" data-name="Grupo 1151786" transform="translate(0 0)">
          <g id="Grupo_1151785" data-name="Grupo 1151785">
            <path id="Trazado_986620" data-name="Trazado 986620" d="M175.194,51.508a10.807,10.807,0,0,1,6.353-9.847l-1.2-2.067a.537.537,0,0,0-.93,0l-2.095,3.615a.537.537,0,0,1-.648.236l-3.928-1.423a.537.537,0,0,0-.712.6l.719,4.116a.537.537,0,0,1-.345.6l-3.924,1.435a.537.537,0,0,0-.161.916l3.2,2.691a.537.537,0,0,1,.12.679l-2.083,3.621a.537.537,0,0,0,.465.805l4.178.007a.537.537,0,0,1,.528.443l.732,4.113a.537.537,0,0,0,.874.318l2.9-2.426a10.786,10.786,0,0,1-4.042-8.426Z" transform="translate(-168.135 -39.327)" fill="#fac600"/>
          </g>
        </g>
      </g>
      <g id="Grupo_1151788" data-name="Grupo 1151788" transform="translate(0 31.824)">
        <path id="Trazado_986621" data-name="Trazado 986621" d="M354.444,253.868h-8.875a1.661,1.661,0,0,0-1.659,1.659v7.2a1.661,1.661,0,0,0,1.659,1.659h12.472a1.658,1.658,0,0,0,1.484-2.4l-3.6-7.2A1.649,1.649,0,0,0,354.444,253.868Zm-6.234,8.586h-2.37V255.8h2.37Zm1.93,0V255.8h4.136l3.326,6.656Z" transform="translate(-299.661 -225.298)"/>
        <path id="Trazado_986622" data-name="Trazado 986622" d="M77.707,402.957a3.006,3.006,0,1,0,3.006,3.005A3.009,3.009,0,0,0,77.707,402.957Zm0,4.081a1.076,1.076,0,1,1,1.076-1.076A1.077,1.077,0,0,1,77.707,407.038Z" transform="translate(-65.09 -355.205)"/>
        <path id="Trazado_986623" data-name="Trazado 986623" d="M218.937,402.957a3.006,3.006,0,1,0,3.006,3.005A3.009,3.009,0,0,0,218.937,402.957Zm0,4.081a1.076,1.076,0,1,1,1.076-1.076A1.077,1.077,0,0,1,218.937,407.038Z" transform="translate(-188.148 -355.205)"/>
        <path id="Trazado_986624" data-name="Trazado 986624" d="M379.571,408.968a3.005,3.005,0,1,0-3.005-3.005A3.009,3.009,0,0,0,379.571,408.968Zm0-4.081a1.076,1.076,0,1,1-1.076,1.076A1.077,1.077,0,0,1,379.571,404.887Z" transform="translate(-328.115 -355.205)"/>
        <path id="Trazado_986625" data-name="Trazado 986625" d="M52.723,237.646a1.525,1.525,0,0,0,.388,1.573l1.626,1.585-.384,2.239a1.535,1.535,0,0,0,2.227,1.618l2.01-1.057,2.01,1.057a1.535,1.535,0,0,0,2.227-1.618l-.384-2.239,1.626-1.585a1.535,1.535,0,0,0-.85-2.617l-2.248-.327-1.005-2.037a1.534,1.534,0,0,0-2.752,0l-1.005,2.037-2.248.327A1.525,1.525,0,0,0,52.723,237.646Zm3.97.509a1.534,1.534,0,0,0,1.155-.839l.743-1.5.743,1.5a1.534,1.534,0,0,0,1.155.839l1.66.241-1.2,1.171a1.534,1.534,0,0,0-.441,1.358l.284,1.654L59.3,241.8a1.535,1.535,0,0,0-1.428,0l-1.485.781.284-1.654a1.534,1.534,0,0,0-.441-1.358l-1.2-1.171Z" transform="translate(-45.873 -207.449)"/>
        <path id="Trazado_986626" data-name="Trazado 986626" d="M163.527,250.127h6.532a.965.965,0,0,0,0-1.93h-6.532a.965.965,0,0,0,0,1.93Z" transform="translate(-141.646 -220.357)"/>
        <path id="Trazado_986627" data-name="Trazado 986627" d="M163.527,283.548h12.791a.965.965,0,1,0,0-1.93H163.527a.965.965,0,0,0,0,1.93Z" transform="translate(-141.646 -249.478)"/>
        <path id="Trazado_986628" data-name="Trazado 986628" d="M163.527,309.344h12.791a.965.965,0,0,0,0-1.93H163.527a.965.965,0,0,0,0,1.93Z" transform="translate(-141.646 -271.955)"/>
        <path id="Trazado_986629" data-name="Trazado 986629" d="M60.277,57.56a1.275,1.275,0,0,0,1.225-.087,1.386,1.386,0,0,0,.629-1.177V53.861h.023a3.722,3.722,0,0,0,0-7.445h-.023V43.981A1.386,1.386,0,0,0,61.5,42.8a1.275,1.275,0,0,0-1.225-.087l-8.06,3.7H48.906a3.134,3.134,0,0,0-3.131,3.131V50.73a3.134,3.134,0,0,0,3.131,3.131h.045v3.065H42.712V51.908h.534a1.5,1.5,0,0,0,1.3-2.251l-1.9-3.311,2.922-2.46a1.5,1.5,0,0,0-.451-2.56l-3.588-1.312.657-3.763a1.5,1.5,0,0,0-1.991-1.671l-3.592,1.3-1.915-3.305a1.5,1.5,0,0,0-2.6,0l-1.915,3.305-3.592-1.3a1.5,1.5,0,0,0-1.991,1.671l.657,3.763-3.587,1.312a1.5,1.5,0,0,0-.451,2.56l2.474,2.083H13a.965.965,0,1,0,0,1.93H23.232l-1.012,1.758a1.5,1.5,0,0,0,1.3,2.251l3.82.006.669,3.761a1.5,1.5,0,0,0,2.443.889l2.93-2.451,2.93,2.451a1.5,1.5,0,0,0,2.443-.889l.669-3.761,1.356,0V78.149H36.11a6.919,6.919,0,0,0-10.643,0H17.938a6.919,6.919,0,0,0-10.643,0H1.93V48.319a.423.423,0,0,1,.422-.422h6.14a.965.965,0,0,0,0-1.93H2.352A2.355,2.355,0,0,0,0,48.319V82.027a2.355,2.355,0,0,0,2.352,2.352H5.925a6.929,6.929,0,0,0,13.384,0H24.1a6.929,6.929,0,0,0,13.384,0h1.248a.965.965,0,1,0,0-1.93H37.715a6.889,6.889,0,0,0-.466-2.37H45a6.889,6.889,0,0,0-.466,2.37h-1.3a.965.965,0,1,0,0,1.93h1.533a6.929,6.929,0,0,0,13.384,0h3.434a2.355,2.355,0,0,0,2.352-2.352V69.944a4.456,4.456,0,0,0-.467-1.981l-1.415-2.831a.965.965,0,0,0-1.726.863l1.415,2.831A2.516,2.516,0,0,1,62,69.945v2.361H60.2a1.661,1.661,0,0,0-1.659,1.659v4.185H56.778a6.919,6.919,0,0,0-10.643,0H42.711V58.856h12.5a2.489,2.489,0,0,1,2.239,1.384l.862,1.726A.965.965,0,0,0,60.04,61.1l-.862-1.726a4.409,4.409,0,0,0-3.965-2.451h-.459v-1.9Zm1.855-9.214h.023a1.792,1.792,0,1,1,0,3.585h-.023ZM5.691,82.449H2.352a.423.423,0,0,1-.422-.422V80.079H6.157a6.886,6.886,0,0,0-.466,2.37Zm6.926,5.132a5,5,0,1,1,5-5A5.005,5.005,0,0,1,12.617,87.581Zm11.245-5.132H19.543a6.889,6.889,0,0,0-.466-2.37h5.251A6.889,6.889,0,0,0,23.862,82.449Zm6.926,5.132a5,5,0,1,1,5-5A5.005,5.005,0,0,1,30.788,87.581Zm8.277-37.6a1.5,1.5,0,0,0-1.477,1.239l-.6,3.386L34.347,52.4a1.5,1.5,0,0,0-1.928,0l-2.639,2.207-.6-3.386A1.5,1.5,0,0,0,27.7,49.984l-3.44-.006L25.977,47a1.5,1.5,0,0,0-.335-1.9l-2.631-2.215,3.23-1.182a1.5,1.5,0,0,0,.964-1.669l-.592-3.388,3.234,1.171a1.5,1.5,0,0,0,1.811-.659l1.725-2.976,1.725,2.976a1.5,1.5,0,0,0,1.811.659l3.234-1.171-.592,3.388a1.5,1.5,0,0,0,.964,1.669l3.23,1.182L41.124,45.1a1.5,1.5,0,0,0-.335,1.9L42.5,49.978Zm21.4,24.252h1.538v3.913H60.467Zm1.538,5.843v1.948a.423.423,0,0,1-.422.422h-3.2a6.889,6.889,0,0,0-.466-2.37Zm-10.548-2.5a5,5,0,1,1-5,5A5.005,5.005,0,0,1,51.457,77.582ZM48.906,51.931a1.2,1.2,0,0,1-1.2-1.2V49.547a1.2,1.2,0,0,1,1.2-1.2h2.557v3.585Zm3.917,4.995H50.881V53.861h1.336l.606.278Zm.57-4.649V48L60.2,44.875V55.4Z" transform="translate(0 -31.824)"/>
        <path id="Trazado_986630" data-name="Trazado 986630" d="M232.739,96.8h5.194a.965.965,0,1,0,0-1.93h-5.194a.965.965,0,1,0,0,1.93Z" transform="translate(-201.953 -86.76)"/>
        <path id="Trazado_986631" data-name="Trazado 986631" d="M230.738,121.824h-7.687a.965.965,0,1,0,0,1.93h7.687a.965.965,0,1,0,0-1.93Z" transform="translate(-193.512 -110.244)"/>
        <path id="Trazado_986632" data-name="Trazado 986632" d="M237.933,148.776h-5.194a.965.965,0,0,0,0,1.93h5.194a.965.965,0,0,0,0-1.93Z" transform="translate(-201.953 -133.728)"/>
      </g>
    </g>
  </g>
</svg>
