<svg xmlns="http://www.w3.org/2000/svg" xmlns:xlink="http://www.w3.org/1999/xlink" width="108" height="108" viewBox="0 0 108 108">
  <defs>
    <filter id="Fondo" x="0" y="0" width="108" height="108" filterUnits="userSpaceOnUse">
      <feOffset dy="3" input="SourceAlpha"/>
      <feGaussianBlur stdDeviation="3" result="blur"/>
      <feFlood flood-opacity="0.161"/>
      <feComposite operator="in" in2="blur"/>
      <feComposite in="SourceGraphic"/>
    </filter>
  </defs>
  <g id="Icono" transform="translate(8.5 -689)">
    <g transform="matrix(1, 0, 0, 1, -8.5, 689)" filter="url(#Fondo)">
      <g id="Fondo-2" data-name="Fondo" transform="translate(9 6)" fill="#e6d567" stroke="#bca724" stroke-width="3">
        <circle cx="45" cy="45" r="45" stroke="none"/>
        <circle cx="45" cy="45" r="43.5" fill="none"/>
      </g>
    </g>
    <g id="bank" transform="translate(20.922 713.199)">
      <path id="Trazado_986390" data-name="Trazado 986390" d="M83.162,179.343H40.421V147.032H83.162Z" transform="translate(-36.414 -132.457)" fill="#848484"/>
      <path id="Trazado_986391" data-name="Trazado 986391" d="M109.088,129.067v33.206h-6.411V129.067Zm-36.33,33.206h6.411V129.067H72.758Zm14.959,0h6.411V129.067H87.717Z" transform="translate(-65.545 -116.273)" fill="#999"/>
      <path id="Trazado_986392" data-name="Trazado 986392" d="M109.088,268.81v20.239h-6.411V268.81ZM87.717,289.049h6.411V268.81H87.717Zm-14.959,0h6.411V268.81H72.758Z" transform="translate(-65.545 -242.163)" fill="#dbdbdb"/>
      <path id="Trazado_986393" data-name="Trazado 986393" d="M57.236,54.031h0a3.206,3.206,0,0,1-3.206,3.206H11.29a3.206,3.206,0,0,1-3.206-3.206h0a3.206,3.206,0,0,1,3.206-3.206H54.031A3.206,3.206,0,0,1,57.236,54.031ZM10.128,23.421H55.192a2.044,2.044,0,0,0,.913-3.873L33.573,8.3a2.044,2.044,0,0,0-1.826,0L9.215,19.548a2.044,2.044,0,0,0,.913,3.873Z" transform="translate(-7.283 -7.283)" fill="#c1c1c1"/>
      <path id="Trazado_986394" data-name="Trazado 986394" d="M191.186,77.335a8.014,8.014,0,1,1-8.014-8.014A8.014,8.014,0,0,1,191.186,77.335Z" transform="translate(-157.794 -62.449)" fill="#fe9d5e"/>
      <path id="Trazado_986395" data-name="Trazado 986395" d="M98.614,293.731v11.138a.8.8,0,1,1-1.6,0V293.731a.8.8,0,1,1,1.6,0Zm14.158-.8a.8.8,0,0,0-.8.8v11.138a.8.8,0,1,0,1.6,0V293.731A.8.8,0,0,0,112.772,292.93Zm14.959,0a.8.8,0,0,0-.8.8v11.138a.8.8,0,1,0,1.6,0V293.731A.8.8,0,0,0,127.731,292.93Z" transform="translate(-87.394 -263.892)" fill="#fff"/>
      <path id="Trazado_986396" data-name="Trazado 986396" d="M29.251,16.665a2.9,2.9,0,0,1-2.893,2.893H23.107a.8.8,0,0,1-.8-.8V11.012a.8.8,0,0,1,.8-.8h2.671a2.581,2.581,0,0,1,2.143,4.022A2.892,2.892,0,0,1,29.251,16.665Zm-5.343-2.893h1.87a.98.98,0,1,0,0-1.959h-1.87Zm3.74,2.893a1.291,1.291,0,0,0-1.29-1.29h-2.45v2.58h2.45A1.292,1.292,0,0,0,27.648,16.665ZM50.755,46.748a4.012,4.012,0,0,1-4.007,4.007H4.007a4.007,4.007,0,0,1,0-8.014h2.4V18.757a.8.8,0,0,1,1.6,0V42.741h4.808V18.757a.8.8,0,0,1,1.6,0V42.741h6.945V25.376a.8.8,0,1,1,1.6,0V42.741h4.808V25.376a.8.8,0,1,1,1.6,0V42.741H36.33V18.757a.8.8,0,1,1,1.6,0V42.741h4.808V18.757a.8.8,0,0,1,1.6,0V42.741h2.4A4.012,4.012,0,0,1,50.755,46.748Zm-1.6,0a2.407,2.407,0,0,0-2.4-2.4H4.007a2.4,2.4,0,0,0,0,4.809H46.748A2.407,2.407,0,0,0,49.152,46.748ZM0,14.093a2.83,2.83,0,0,1,1.574-2.546L24.107.3a2.859,2.859,0,0,1,2.542,0l22.532,11.25a2.845,2.845,0,0,1-1.271,5.391H33.949a8.813,8.813,0,0,1-17.142,0H2.845A2.848,2.848,0,0,1,0,14.093Zm32.59.791A7.213,7.213,0,1,0,25.378,22.1,7.221,7.221,0,0,0,32.59,14.885ZM1.6,14.093a1.244,1.244,0,0,0,1.243,1.243H16.574q-.011-.224-.011-.451a8.815,8.815,0,1,1,17.631,0q0,.227-.011.451H47.91a1.243,1.243,0,0,0,.555-2.354L25.932,1.732a1.249,1.249,0,0,0-1.11,0L2.29,12.981A1.235,1.235,0,0,0,1.6,14.093Z" transform="translate(0 0)"/>
    </g>
  </g>
</svg>
