<svg xmlns="http://www.w3.org/2000/svg" width="400" height="418" viewBox="0 0 400 418">
  <g id="Grupo_1151816" data-name="Grupo 1151816" transform="translate(-600 -10669)">
    <path id="Trazado_986747" data-name="Trazado 986747" d="M-47,160V57.844h0a58.147,58.147,0,0,1,4.576-22.169,58.435,58.435,0,0,1,5.371-9.922A58.641,58.641,0,0,1-21.315,9.976a58.216,58.216,0,0,1,9.9-5.386A57.763,57.763,0,0,1,11.258,0,57.763,57.763,0,0,1,33.935,4.59a58.208,58.208,0,0,1,9.9,5.386A58.627,58.627,0,0,1,59.567,25.753a58.435,58.435,0,0,1,5.371,9.922,58.15,58.15,0,0,1,4.576,22.169H78L61.032,80,44.063,57.844h9.046a41.854,41.854,0,0,0-83.706.567V160Z" transform="translate(752 10840)" fill="#01899b"/>
    <path id="Trazado_986748" data-name="Trazado 986748" d="M-47,160V57.844h0a58.147,58.147,0,0,1,4.576-22.169,58.435,58.435,0,0,1,5.371-9.922A58.641,58.641,0,0,1-21.315,9.976a58.216,58.216,0,0,1,9.9-5.386A57.763,57.763,0,0,1,11.258,0,57.763,57.763,0,0,1,33.935,4.59a58.208,58.208,0,0,1,9.9,5.386A58.627,58.627,0,0,1,59.567,25.753a58.435,58.435,0,0,1,5.371,9.922,58.15,58.15,0,0,1,4.576,22.169H78L61.032,80,44.063,57.844h9.046a41.854,41.854,0,0,0-83.706.567V160Z" transform="translate(752 10669)" fill="#01899b"/>
    <g id="Trazado_986753" data-name="Trazado 986753" transform="translate(600 10749)" fill="#fbeadf">
      <path d="M 62.5 124 C 54.19711685180664 124 46.14311599731445 122.3740844726562 38.56173324584961 119.1674346923828 C 34.91781616210938 117.6261825561523 31.40318298339844 115.7184982299805 28.1154670715332 113.4973678588867 C 24.85871696472168 111.2971496582031 21.79618263244629 108.7703170776367 19.0129337310791 105.9870681762695 C 16.22968292236328 103.2038192749023 13.70285034179688 100.1412811279297 11.5026330947876 96.88453674316406 C 9.281499862670898 93.59681701660156 7.37381649017334 90.08218383789062 5.832566738128662 86.43826293945312 C 2.625916719436646 78.85688018798828 1 70.80288696289062 1 62.5 C 1 54.19711685180664 2.625916719436646 46.14311599731445 5.832566738128662 38.56173324584961 C 7.37381649017334 34.91781616210938 9.281499862670898 31.40318298339844 11.5026330947876 28.1154670715332 C 13.70285034179688 24.85871696472168 16.22968292236328 21.79618263244629 19.0129337310791 19.0129337310791 C 21.79618263244629 16.22968292236328 24.85871696472168 13.70285034179688 28.1154670715332 11.5026330947876 C 31.40318298339844 9.281499862670898 34.91781616210938 7.37381649017334 38.56173324584961 5.832566738128662 C 46.14311599731445 2.625916719436646 54.19711685180664 1 62.5 1 C 70.80288696289062 1 78.85688018798828 2.625916719436646 86.43826293945312 5.832566738128662 C 90.08218383789062 7.37381649017334 93.59681701660156 9.281499862670898 96.88453674316406 11.5026330947876 C 100.1412811279297 13.70285034179688 103.2038192749023 16.22968292236328 105.9870681762695 19.0129337310791 C 108.7703170776367 21.79618263244629 111.2971496582031 24.85871696472168 113.4973678588867 28.1154670715332 C 115.7184982299805 31.40318298339844 117.6261825561523 34.91781616210938 119.1674346923828 38.56173324584961 C 122.3740844726562 46.14311599731445 124 54.19711685180664 124 62.5 C 124 70.80288696289062 122.3740844726562 78.85688018798828 119.1674346923828 86.43826293945312 C 117.6261825561523 90.08218383789062 115.7184982299805 93.59681701660156 113.4973678588867 96.88453674316406 C 111.2971496582031 100.1412811279297 108.7703170776367 103.2038192749023 105.9870681762695 105.9870681762695 C 103.2038192749023 108.7703170776367 100.1412811279297 111.2971496582031 96.88453674316406 113.4973678588867 C 93.59681701660156 115.7184982299805 90.08218383789062 117.6261825561523 86.43826293945312 119.1674346923828 C 78.85688018798828 122.3740844726562 70.80288696289062 124 62.5 124 Z" stroke="none"/>
      <path d="M 62.5 2 C 54.33167266845703 2 46.40874481201172 3.599327087402344 38.9512939453125 6.753562927246094 C 35.36683654785156 8.2696533203125 31.90949249267578 10.14627075195312 28.67527008056641 12.33127593994141 C 25.47125244140625 14.49585723876953 22.45829010009766 16.98179626464844 19.72003936767578 19.72003936767578 C 16.98179626464844 22.45829010009766 14.49585723876953 25.47125244140625 12.33127593994141 28.67527008056641 C 10.14627075195312 31.90949249267578 8.2696533203125 35.36683654785156 6.753562927246094 38.9512939453125 C 3.599327087402344 46.40874481201172 2 54.33167266845703 2 62.5 C 2 70.66832733154297 3.599327087402344 78.59125518798828 6.753562927246094 86.0487060546875 C 8.2696533203125 89.63314819335938 10.14627075195312 93.09050750732422 12.33127593994141 96.32472991943359 C 14.49585723876953 99.52872467041016 16.98179626464844 102.5417098999023 19.72003936767578 105.2799682617188 C 22.45829010009766 108.0182037353516 25.47125244140625 110.5041427612305 28.67527008056641 112.6687240600586 C 31.90949249267578 114.8537292480469 35.36683654785156 116.7303466796875 38.9512939453125 118.2464370727539 C 46.40874481201172 121.4006729125977 54.33167266845703 123 62.5 123 C 70.66832733154297 123 78.59125518798828 121.4006729125977 86.0487060546875 118.2464370727539 C 89.63314819335938 116.7303466796875 93.09050750732422 114.8537292480469 96.32472991943359 112.6687240600586 C 99.52872467041016 110.5041427612305 102.5417098999023 108.0182037353516 105.2799682617188 105.2799682617188 C 108.0182037353516 102.5417098999023 110.5041427612305 99.52872467041016 112.6687240600586 96.32472991943359 C 114.8537292480469 93.09050750732422 116.7303466796875 89.63314819335938 118.2464370727539 86.0487060546875 C 121.4006729125977 78.59125518798828 123 70.66832733154297 123 62.5 C 123 54.33167266845703 121.4006729125977 46.40874481201172 118.2464370727539 38.9512939453125 C 116.7303466796875 35.36683654785156 114.8537292480469 31.90949249267578 112.6687240600586 28.67527008056641 C 110.5041427612305 25.47125244140625 108.0182037353516 22.45829010009766 105.2799682617188 19.72003936767578 C 102.5417098999023 16.98179626464844 99.52872467041016 14.49585723876953 96.32472991943359 12.33127593994141 C 93.09050750732422 10.14627075195312 89.63314819335938 8.2696533203125 86.0487060546875 6.753562927246094 C 78.59125518798828 3.599327087402344 70.66832733154297 2 62.5 2 M 62.5 0 C 97.01778411865234 0 125 27.98220062255859 125 62.5 C 125 97.01778411865234 97.01778411865234 125 62.5 125 C 27.98220062255859 125 0 97.01778411865234 0 62.5 C 0 27.98220062255859 27.98220062255859 0 62.5 0 Z" stroke="none" fill="#01899b"/>
    </g>
    <path id="Trazado_986754" data-name="Trazado 986754" d="M41.422,16.6a7.388,7.388,0,0,1-3.2.594,5.4,5.4,0,0,1-4.055-1.516,5.54,5.54,0,0,1-1.477-4.039,5.919,5.919,0,0,1,1.66-4.359,5.807,5.807,0,0,1,4.309-1.672,8.058,8.058,0,0,1,2.766.414v2.43a4.9,4.9,0,0,0-2.562-.672,3.4,3.4,0,0,0-2.547.992,3.682,3.682,0,0,0-.969,2.688,3.611,3.611,0,0,0,.914,2.59,3.229,3.229,0,0,0,2.461.965,5.249,5.249,0,0,0,2.7-.719Zm6.494.594a5.215,5.215,0,0,1-3.922-1.566,5.624,5.624,0,0,1-1.516-4.082,6.026,6.026,0,0,1,1.539-4.3A5.328,5.328,0,0,1,48.1,5.609a5.085,5.085,0,0,1,3.879,1.57,5.79,5.79,0,0,1,1.48,4.141,5.929,5.929,0,0,1-1.535,4.258A5.269,5.269,0,0,1,47.916,17.2Zm.109-9.414a2.54,2.54,0,0,0-2.109,1,4.153,4.153,0,0,0-.781,2.637,4.077,4.077,0,0,0,.781,2.633,2.7,2.7,0,0,0,4.117.027,4.032,4.032,0,0,0,.766-2.613,4.369,4.369,0,0,0-.742-2.711A2.42,2.42,0,0,0,48.025,7.781ZM54.8,16.57v-2.5a4.8,4.8,0,0,0,1.477.855,4.746,4.746,0,0,0,1.609.285,3.569,3.569,0,0,0,.832-.086,1.949,1.949,0,0,0,.594-.238,1.039,1.039,0,0,0,.355-.359.9.9,0,0,0,.117-.449.971.971,0,0,0-.187-.586,2.018,2.018,0,0,0-.512-.477,5.347,5.347,0,0,0-.77-.422q-.445-.2-.961-.414A4.9,4.9,0,0,1,55.4,10.844a2.917,2.917,0,0,1-.645-1.906,3.036,3.036,0,0,1,.352-1.5A2.986,2.986,0,0,1,56.062,6.4a4.291,4.291,0,0,1,1.4-.6,7.206,7.206,0,0,1,1.688-.191,10.15,10.15,0,0,1,1.551.105,6.1,6.1,0,0,1,1.246.324V8.375a3.768,3.768,0,0,0-.613-.344,4.859,4.859,0,0,0-.684-.246,5.214,5.214,0,0,0-.7-.145,4.949,4.949,0,0,0-.66-.047,3.443,3.443,0,0,0-.781.082,2,2,0,0,0-.594.23,1.147,1.147,0,0,0-.375.355.843.843,0,0,0-.133.465.888.888,0,0,0,.148.5,1.7,1.7,0,0,0,.422.422,4.477,4.477,0,0,0,.664.391q.391.191.883.395a9.837,9.837,0,0,1,1.207.6,4.291,4.291,0,0,1,.918.715,2.785,2.785,0,0,1,.586.91,3.216,3.216,0,0,1,.2,1.191,3.191,3.191,0,0,1-.355,1.574,2.886,2.886,0,0,1-.965,1.031,4.184,4.184,0,0,1-1.418.566A8.2,8.2,0,0,1,58,17.2a9.492,9.492,0,0,1-1.754-.156A5.3,5.3,0,0,1,54.8,16.57ZM72.153,7.852h-3.2V17H66.427V7.852h-3.18V5.8h8.906ZM77.8,17.2a5.215,5.215,0,0,1-3.922-1.566,5.624,5.624,0,0,1-1.516-4.082A6.026,6.026,0,0,1,73.9,7.25a5.328,5.328,0,0,1,4.078-1.641,5.085,5.085,0,0,1,3.879,1.57,5.79,5.79,0,0,1,1.48,4.141,5.929,5.929,0,0,1-1.535,4.258A5.269,5.269,0,0,1,77.8,17.2Zm.109-9.414a2.54,2.54,0,0,0-2.109,1,4.153,4.153,0,0,0-.781,2.637,4.077,4.077,0,0,0,.781,2.633,2.7,2.7,0,0,0,4.117.027,4.032,4.032,0,0,0,.766-2.613,4.369,4.369,0,0,0-.742-2.711A2.42,2.42,0,0,0,77.913,7.781Zm6.775,8.789v-2.5a4.8,4.8,0,0,0,1.477.855,4.746,4.746,0,0,0,1.609.285,3.569,3.569,0,0,0,.832-.086,1.949,1.949,0,0,0,.594-.238,1.039,1.039,0,0,0,.355-.359.9.9,0,0,0,.117-.449.971.971,0,0,0-.187-.586,2.018,2.018,0,0,0-.512-.477,5.347,5.347,0,0,0-.77-.422q-.445-.2-.961-.414a4.9,4.9,0,0,1-1.957-1.336,2.917,2.917,0,0,1-.645-1.906,3.036,3.036,0,0,1,.352-1.5A2.986,2.986,0,0,1,85.949,6.4a4.291,4.291,0,0,1,1.4-.6,7.206,7.206,0,0,1,1.688-.191,10.15,10.15,0,0,1,1.551.105,6.1,6.1,0,0,1,1.246.324V8.375a3.768,3.768,0,0,0-.613-.344,4.859,4.859,0,0,0-.684-.246,5.214,5.214,0,0,0-.7-.145,4.949,4.949,0,0,0-.66-.047,3.443,3.443,0,0,0-.781.082,2,2,0,0,0-.594.23,1.147,1.147,0,0,0-.375.355.843.843,0,0,0-.133.465.888.888,0,0,0,.148.5,1.7,1.7,0,0,0,.422.422,4.477,4.477,0,0,0,.664.391q.391.191.883.395a9.838,9.838,0,0,1,1.207.6,4.291,4.291,0,0,1,.918.715,2.785,2.785,0,0,1,.586.91,3.216,3.216,0,0,1,.2,1.191,3.191,3.191,0,0,1-.355,1.574,2.886,2.886,0,0,1-.965,1.031,4.184,4.184,0,0,1-1.418.566,8.2,8.2,0,0,1-1.707.172,9.492,9.492,0,0,1-1.754-.156A5.3,5.3,0,0,1,84.688,16.57Z" transform="translate(600 10802)" fill="#212429"/>
    <g id="Trazado_986404" data-name="Trazado 986404" transform="translate(600 10943)" fill="#fbeadf">
      <path d="M 62.5 124 C 54.19711685180664 124 46.14311599731445 122.3740844726562 38.56173324584961 119.1674346923828 C 34.91781616210938 117.6261825561523 31.40318298339844 115.7184982299805 28.1154670715332 113.4973678588867 C 24.85871696472168 111.2971496582031 21.79618263244629 108.7703170776367 19.0129337310791 105.9870681762695 C 16.22968292236328 103.2038192749023 13.70285034179688 100.1412811279297 11.5026330947876 96.88453674316406 C 9.281499862670898 93.59681701660156 7.37381649017334 90.08218383789062 5.832566738128662 86.43826293945312 C 2.625916719436646 78.85688018798828 1 70.80288696289062 1 62.5 C 1 54.19711685180664 2.625916719436646 46.14311599731445 5.832566738128662 38.56173324584961 C 7.37381649017334 34.91781616210938 9.281499862670898 31.40318298339844 11.5026330947876 28.1154670715332 C 13.70285034179688 24.85871696472168 16.22968292236328 21.79618263244629 19.0129337310791 19.0129337310791 C 21.79618263244629 16.22968292236328 24.85871696472168 13.70285034179688 28.1154670715332 11.5026330947876 C 31.40318298339844 9.281499862670898 34.91781616210938 7.37381649017334 38.56173324584961 5.832566738128662 C 46.14311599731445 2.625916719436646 54.19711685180664 1 62.5 1 C 70.80288696289062 1 78.85688018798828 2.625916719436646 86.43826293945312 5.832566738128662 C 90.08218383789062 7.37381649017334 93.59681701660156 9.281499862670898 96.88453674316406 11.5026330947876 C 100.1412811279297 13.70285034179688 103.2038192749023 16.22968292236328 105.9870681762695 19.0129337310791 C 108.7703170776367 21.79618263244629 111.2971496582031 24.85871696472168 113.4973678588867 28.1154670715332 C 115.7184982299805 31.40318298339844 117.6261825561523 34.91781616210938 119.1674346923828 38.56173324584961 C 122.3740844726562 46.14311599731445 124 54.19711685180664 124 62.5 C 124 70.80288696289062 122.3740844726562 78.85688018798828 119.1674346923828 86.43826293945312 C 117.6261825561523 90.08218383789062 115.7184982299805 93.59681701660156 113.4973678588867 96.88453674316406 C 111.2971496582031 100.1412811279297 108.7703170776367 103.2038192749023 105.9870681762695 105.9870681762695 C 103.2038192749023 108.7703170776367 100.1412811279297 111.2971496582031 96.88453674316406 113.4973678588867 C 93.59681701660156 115.7184982299805 90.08218383789062 117.6261825561523 86.43826293945312 119.1674346923828 C 78.85688018798828 122.3740844726562 70.80288696289062 124 62.5 124 Z" stroke="none"/>
      <path d="M 62.5 2 C 54.33167266845703 2 46.40874481201172 3.599327087402344 38.9512939453125 6.753562927246094 C 35.36683654785156 8.2696533203125 31.90949249267578 10.14627075195312 28.67527008056641 12.33127593994141 C 25.47125244140625 14.49585723876953 22.45829010009766 16.98179626464844 19.72003936767578 19.72003936767578 C 16.98179626464844 22.45829010009766 14.49585723876953 25.47125244140625 12.33127593994141 28.67527008056641 C 10.14627075195312 31.90949249267578 8.2696533203125 35.36683654785156 6.753562927246094 38.9512939453125 C 3.599327087402344 46.40874481201172 2 54.33167266845703 2 62.5 C 2 70.66832733154297 3.599327087402344 78.59125518798828 6.753562927246094 86.0487060546875 C 8.2696533203125 89.63314819335938 10.14627075195312 93.09050750732422 12.33127593994141 96.32472991943359 C 14.49585723876953 99.52872467041016 16.98179626464844 102.5417098999023 19.72003936767578 105.2799682617188 C 22.45829010009766 108.0182037353516 25.47125244140625 110.5041427612305 28.67527008056641 112.6687240600586 C 31.90949249267578 114.8537292480469 35.36683654785156 116.7303466796875 38.9512939453125 118.2464370727539 C 46.40874481201172 121.4006729125977 54.33167266845703 123 62.5 123 C 70.66832733154297 123 78.59125518798828 121.4006729125977 86.0487060546875 118.2464370727539 C 89.63314819335938 116.7303466796875 93.09050750732422 114.8537292480469 96.32472991943359 112.6687240600586 C 99.52872467041016 110.5041427612305 102.5417098999023 108.0182037353516 105.2799682617188 105.2799682617188 C 108.0182037353516 102.5417098999023 110.5041427612305 99.52872467041016 112.6687240600586 96.32472991943359 C 114.8537292480469 93.09050750732422 116.7303466796875 89.63314819335938 118.2464370727539 86.0487060546875 C 121.4006729125977 78.59125518798828 123 70.66832733154297 123 62.5 C 123 54.33167266845703 121.4006729125977 46.40874481201172 118.2464370727539 38.9512939453125 C 116.7303466796875 35.36683654785156 114.8537292480469 31.90949249267578 112.6687240600586 28.67527008056641 C 110.5041427612305 25.47125244140625 108.0182037353516 22.45829010009766 105.2799682617188 19.72003936767578 C 102.5417098999023 16.98179626464844 99.52872467041016 14.49585723876953 96.32472991943359 12.33127593994141 C 93.09050750732422 10.14627075195312 89.63314819335938 8.2696533203125 86.0487060546875 6.753562927246094 C 78.59125518798828 3.599327087402344 70.66832733154297 2 62.5 2 M 62.5 0 C 97.01778411865234 0 125 27.98220062255859 125 62.5 C 125 97.01778411865234 97.01778411865234 125 62.5 125 C 27.98220062255859 125 0 97.01778411865234 0 62.5 C 0 27.98220062255859 27.98220062255859 0 62.5 0 Z" stroke="none" fill="#01899b"/>
    </g>
    <path id="Trazado_986755" data-name="Trazado 986755" d="M42.234,16.25a8.063,8.063,0,0,1-4.078.945,5.9,5.9,0,0,1-4.262-1.5,5.443,5.443,0,0,1-1.559-4.121,5.753,5.753,0,0,1,1.7-4.3A6.205,6.205,0,0,1,38.57,5.609a9.2,9.2,0,0,1,3.141.492V8.469a6.242,6.242,0,0,0-3.172-.75,3.405,3.405,0,0,0-2.559,1.02,3.745,3.745,0,0,0-.988,2.723,3.756,3.756,0,0,0,.887,2.672,3.125,3.125,0,0,0,2.395.945,3.333,3.333,0,0,0,1.438-.258V12.633H37.469V10.617h4.766ZM54.267,17h-2.75l-.8-2.492H46.736L45.947,17H43.212L47.291,5.8h2.992Zm-4.125-4.43L48.939,8.8A4.907,4.907,0,0,1,48.752,7.8h-.062a4.273,4.273,0,0,1-.2.977l-1.219,3.8Zm5.009,4v-2.5a4.8,4.8,0,0,0,1.477.855,4.746,4.746,0,0,0,1.609.285,3.569,3.569,0,0,0,.832-.086,1.949,1.949,0,0,0,.594-.238,1.039,1.039,0,0,0,.355-.359.9.9,0,0,0,.117-.449.971.971,0,0,0-.187-.586,2.018,2.018,0,0,0-.512-.477,5.347,5.347,0,0,0-.77-.422q-.445-.2-.961-.414a4.9,4.9,0,0,1-1.957-1.336A2.917,2.917,0,0,1,55.1,8.938a3.036,3.036,0,0,1,.352-1.5A2.986,2.986,0,0,1,56.413,6.4a4.291,4.291,0,0,1,1.4-.6A7.206,7.206,0,0,1,59.5,5.609a10.15,10.15,0,0,1,1.551.105,6.1,6.1,0,0,1,1.246.324V8.375a3.768,3.768,0,0,0-.613-.344A4.859,4.859,0,0,0,61,7.785a5.214,5.214,0,0,0-.7-.145,4.949,4.949,0,0,0-.66-.047,3.443,3.443,0,0,0-.781.082,2,2,0,0,0-.594.23,1.147,1.147,0,0,0-.375.355.843.843,0,0,0-.133.465.888.888,0,0,0,.148.5,1.7,1.7,0,0,0,.422.422,4.477,4.477,0,0,0,.664.391q.391.191.883.395a9.837,9.837,0,0,1,1.207.6A4.291,4.291,0,0,1,62,11.75a2.785,2.785,0,0,1,.586.91,3.216,3.216,0,0,1,.2,1.191,3.191,3.191,0,0,1-.355,1.574,2.886,2.886,0,0,1-.965,1.031,4.184,4.184,0,0,1-1.418.566,8.2,8.2,0,0,1-1.707.172,9.492,9.492,0,0,1-1.754-.156A5.3,5.3,0,0,1,55.152,16.57ZM72.5,7.852h-3.2V17H66.778V7.852H63.6V5.8H72.5Zm5.65,9.344a5.215,5.215,0,0,1-3.922-1.566,5.624,5.624,0,0,1-1.516-4.082,6.026,6.026,0,0,1,1.539-4.3,5.328,5.328,0,0,1,4.078-1.641,5.085,5.085,0,0,1,3.879,1.57,5.79,5.79,0,0,1,1.48,4.141,5.929,5.929,0,0,1-1.535,4.258A5.269,5.269,0,0,1,78.155,17.2Zm.109-9.414a2.54,2.54,0,0,0-2.109,1,4.153,4.153,0,0,0-.781,2.637,4.077,4.077,0,0,0,.781,2.633,2.7,2.7,0,0,0,4.117.027,4.032,4.032,0,0,0,.766-2.613A4.369,4.369,0,0,0,80.3,8.75,2.42,2.42,0,0,0,78.264,7.781Zm6.775,8.789v-2.5a4.8,4.8,0,0,0,1.477.855,4.746,4.746,0,0,0,1.609.285,3.569,3.569,0,0,0,.832-.086,1.949,1.949,0,0,0,.594-.238,1.039,1.039,0,0,0,.355-.359.9.9,0,0,0,.117-.449.971.971,0,0,0-.187-.586,2.018,2.018,0,0,0-.512-.477,5.347,5.347,0,0,0-.77-.422q-.445-.2-.961-.414a4.9,4.9,0,0,1-1.957-1.336,2.917,2.917,0,0,1-.645-1.906,3.036,3.036,0,0,1,.352-1.5A2.986,2.986,0,0,1,86.3,6.4a4.291,4.291,0,0,1,1.4-.6,7.206,7.206,0,0,1,1.688-.191,10.15,10.15,0,0,1,1.551.105,6.1,6.1,0,0,1,1.246.324V8.375a3.768,3.768,0,0,0-.613-.344,4.859,4.859,0,0,0-.684-.246,5.214,5.214,0,0,0-.7-.145,4.949,4.949,0,0,0-.66-.047,3.443,3.443,0,0,0-.781.082,2,2,0,0,0-.594.23,1.147,1.147,0,0,0-.375.355.843.843,0,0,0-.133.465.888.888,0,0,0,.148.5,1.7,1.7,0,0,0,.422.422,4.477,4.477,0,0,0,.664.391q.391.191.883.395a9.838,9.838,0,0,1,1.207.6,4.291,4.291,0,0,1,.918.715,2.785,2.785,0,0,1,.586.91,3.216,3.216,0,0,1,.2,1.191,3.191,3.191,0,0,1-.355,1.574,2.886,2.886,0,0,1-.965,1.031,4.184,4.184,0,0,1-1.418.566,8.2,8.2,0,0,1-1.707.172,9.492,9.492,0,0,1-1.754-.156A5.3,5.3,0,0,1,85.039,16.57Z" transform="translate(600 10996)" fill="#212429"/>
    <g id="Trazado_986405" data-name="Trazado 986405" transform="translate(807 10754)" fill="#ecfcf6">
      <path d="M 192 39 L 1 39 L 1 1 L 192 1 L 192 39 Z" stroke="none"/>
      <path d="M 2 2 L 2 38 L 191 38 L 191 2 L 2 2 M 0 0 L 193 0 L 193 40 L 0 40 L 0 0 Z" stroke="none" fill="#01899b"/>
    </g>
    <g id="Trazado_986749" data-name="Trazado 986749" transform="translate(807 10925)" fill="#ecfcf6">
      <path d="M 192 39 L 1 39 L 1 1 L 192 1 L 192 39 Z" stroke="none"/>
      <path d="M 2 2 L 2 38 L 191 38 L 191 2 L 2 2 M 0 0 L 193 0 L 193 40 L 0 40 L 0 0 Z" stroke="none" fill="#01899b"/>
    </g>
    <path id="Trazado_986750" data-name="Trazado 986750" d="M17.825,13.141V17H15.3V5.8h3.953q4.234,0,4.234,3.57a3.426,3.426,0,0,1-1.215,2.73,4.813,4.813,0,0,1-3.246,1.043Zm0-5.406v3.492h.992q2.016,0,2.016-1.766,0-1.727-2.016-1.727ZM34.53,17h-2.9l-1.742-2.883q-.2-.328-.375-.586a3.255,3.255,0,0,0-.363-.441,1.445,1.445,0,0,0-.383-.281.972.972,0,0,0-.434-.1h-.68V17H25.131V5.8h4q4.078,0,4.078,3.047a3.155,3.155,0,0,1-.18,1.082,3.006,3.006,0,0,1-.508.895,3.219,3.219,0,0,1-.793.688,4.089,4.089,0,0,1-1.035.453v.031a1.606,1.606,0,0,1,.484.254,3.469,3.469,0,0,1,.453.41,5.722,5.722,0,0,1,.418.5q.2.27.363.527ZM27.655,7.688V10.8h1.094a1.813,1.813,0,0,0,1.3-.469,1.564,1.564,0,0,0,.5-1.18q0-1.469-1.758-1.469Zm12.5,9.508a5.215,5.215,0,0,1-3.922-1.566,5.624,5.624,0,0,1-1.516-4.082,6.026,6.026,0,0,1,1.539-4.3,5.328,5.328,0,0,1,4.078-1.641,5.085,5.085,0,0,1,3.879,1.57A5.79,5.79,0,0,1,45.7,11.32a5.929,5.929,0,0,1-1.535,4.258A5.269,5.269,0,0,1,40.156,17.2Zm.109-9.414a2.54,2.54,0,0,0-2.109,1,4.153,4.153,0,0,0-.781,2.637,4.077,4.077,0,0,0,.781,2.633,2.7,2.7,0,0,0,4.117.027,4.032,4.032,0,0,0,.766-2.613A4.369,4.369,0,0,0,42.3,8.75,2.42,2.42,0,0,0,40.266,7.781ZM47.556,17V5.8h3.969q5.969,0,5.969,5.461a5.522,5.522,0,0,1-1.629,4.18A6.007,6.007,0,0,1,51.525,17ZM50.08,7.852v7.1h1.25a3.378,3.378,0,0,0,2.574-.984,3.735,3.735,0,0,0,.934-2.68,3.388,3.388,0,0,0-.926-2.52,3.529,3.529,0,0,0-2.6-.918Zm18.408,4.3q0,5.047-4.7,5.047-4.563,0-4.562-4.93V5.8h2.531v6.5q0,2.719,2.125,2.719,2.086,0,2.086-2.625V5.8h2.523ZM78.958,16.6a7.388,7.388,0,0,1-3.2.594A5.4,5.4,0,0,1,71.7,15.68a5.54,5.54,0,0,1-1.477-4.039,5.919,5.919,0,0,1,1.66-4.359,5.807,5.807,0,0,1,4.309-1.672,8.058,8.058,0,0,1,2.766.414v2.43A4.9,4.9,0,0,0,76.4,7.781a3.4,3.4,0,0,0-2.547.992,3.682,3.682,0,0,0-.969,2.688,3.611,3.611,0,0,0,.914,2.59,3.229,3.229,0,0,0,2.461.965,5.249,5.249,0,0,0,2.7-.719Zm9.509,0a7.388,7.388,0,0,1-3.2.594,5.4,5.4,0,0,1-4.055-1.516,5.54,5.54,0,0,1-1.477-4.039,5.919,5.919,0,0,1,1.66-4.359A5.807,5.807,0,0,1,85.7,5.609a8.058,8.058,0,0,1,2.766.414v2.43A4.9,4.9,0,0,0,85.9,7.781a3.4,3.4,0,0,0-2.547.992,3.682,3.682,0,0,0-.969,2.688,3.611,3.611,0,0,0,.914,2.59,3.229,3.229,0,0,0,2.461.965,5.249,5.249,0,0,0,2.7-.719Zm4.478.4H90.422V5.8h2.523Zm7.283.2a5.215,5.215,0,0,1-3.922-1.566,5.624,5.624,0,0,1-1.516-4.082,6.026,6.026,0,0,1,1.539-4.3,5.328,5.328,0,0,1,4.078-1.641,5.085,5.085,0,0,1,3.879,1.57,5.79,5.79,0,0,1,1.48,4.141,5.929,5.929,0,0,1-1.535,4.258A5.269,5.269,0,0,1,100.228,17.2Zm.109-9.414a2.54,2.54,0,0,0-2.109,1,4.153,4.153,0,0,0-.781,2.637,4.077,4.077,0,0,0,.781,2.633,2.7,2.7,0,0,0,4.117.027,4.032,4.032,0,0,0,.766-2.613,4.369,4.369,0,0,0-.742-2.711A2.42,2.42,0,0,0,100.338,7.781Zm2.547-5.547-2.445,2.523H98.658l2.031-2.523ZM117.7,17h-2.547l-4.617-7.039a10.178,10.178,0,0,1-.562-.93h-.031q.062.594.063,1.813V17H107.62V5.8h2.719l4.445,6.82q.3.461.563.914h.031a11.979,11.979,0,0,1-.062-1.539V5.8H117.7Z" transform="translate(837 10764)" fill="#212429"/>
    <path id="Trazado_986751" data-name="Trazado 986751" d="M46.953,5.8,43.094,17H40.234L36.422,5.8h2.719l2.336,7.8a5.584,5.584,0,0,1,.227,1.117h.047a6.314,6.314,0,0,1,.242-1.148L44.312,5.8ZM55.017,17H48.3V5.8h6.461V7.852H50.822v2.492h3.664v2.047H50.822v2.563h4.2Zm11.877,0H64.347L59.73,9.961a10.18,10.18,0,0,1-.562-.93h-.031q.063.594.063,1.813V17H56.816V5.8h2.719l4.445,6.82q.3.461.562.914h.031a11.979,11.979,0,0,1-.062-1.539V5.8h2.383ZM77.325,7.852h-3.2V17H71.6V7.852h-3.18V5.8h8.906ZM87.569,17h-2.75l-.8-2.492H80.038L79.248,17H76.514L80.592,5.8h2.992Zm-4.125-4.43L82.241,8.8A4.908,4.908,0,0,1,82.053,7.8h-.062a4.273,4.273,0,0,1-.2.977l-1.219,3.8Zm5.009,4v-2.5a4.8,4.8,0,0,0,1.477.855,4.746,4.746,0,0,0,1.609.285,3.569,3.569,0,0,0,.832-.086,1.949,1.949,0,0,0,.594-.238,1.039,1.039,0,0,0,.355-.359.9.9,0,0,0,.117-.449.971.971,0,0,0-.187-.586,2.018,2.018,0,0,0-.512-.477,5.347,5.347,0,0,0-.77-.422q-.445-.2-.961-.414a4.9,4.9,0,0,1-1.957-1.336,2.917,2.917,0,0,1-.645-1.906,3.036,3.036,0,0,1,.352-1.5A2.986,2.986,0,0,1,89.715,6.4a4.291,4.291,0,0,1,1.4-.6A7.206,7.206,0,0,1,92.8,5.609a10.15,10.15,0,0,1,1.551.105,6.1,6.1,0,0,1,1.246.324V8.375a3.768,3.768,0,0,0-.613-.344,4.859,4.859,0,0,0-.684-.246,5.214,5.214,0,0,0-.7-.145,4.949,4.949,0,0,0-.66-.047,3.443,3.443,0,0,0-.781.082,2,2,0,0,0-.594.23,1.147,1.147,0,0,0-.375.355.843.843,0,0,0-.133.465.888.888,0,0,0,.148.5,1.7,1.7,0,0,0,.422.422,4.477,4.477,0,0,0,.664.391q.391.191.883.395a9.838,9.838,0,0,1,1.207.6,4.291,4.291,0,0,1,.918.715,2.785,2.785,0,0,1,.586.91,3.216,3.216,0,0,1,.2,1.191,3.191,3.191,0,0,1-.355,1.574,2.886,2.886,0,0,1-.965,1.031,4.184,4.184,0,0,1-1.418.566,8.2,8.2,0,0,1-1.707.172,9.492,9.492,0,0,1-1.754-.156A5.3,5.3,0,0,1,88.453,16.57Z" transform="translate(837 10935)" fill="#212429"/>
    <g id="Trazado_986756" data-name="Trazado 986756" transform="translate(807 10987)" fill="#ecfcf6">
      <path d="M 192 39 L 1 39 L 1 1 L 192 1 L 192 39 Z" stroke="none"/>
      <path d="M 2 2 L 2 38 L 191 38 L 191 2 L 2 2 M 0 0 L 193 0 L 193 40 L 0 40 L 0 0 Z" stroke="none" fill="#01899b"/>
    </g>
    <path id="Trazado_986757" data-name="Trazado 986757" d="M17.244,17h-2.75l-.8-2.492H9.712L8.923,17H6.189L10.267,5.8h2.992Zm-4.125-4.43L11.915,8.8A4.907,4.907,0,0,1,11.728,7.8h-.062a4.273,4.273,0,0,1-.2.977l-1.219,3.8ZM18.644,17V5.8h3.969q5.969,0,5.969,5.461a5.522,5.522,0,0,1-1.629,4.18A6.007,6.007,0,0,1,22.612,17Zm2.523-9.148v7.1h1.25a3.378,3.378,0,0,0,2.574-.984,3.735,3.735,0,0,0,.934-2.68A3.388,3.388,0,0,0,25,8.77a3.529,3.529,0,0,0-2.6-.918ZM43.208,17H40.715V10.3q0-1.086.094-2.4h-.062A11.8,11.8,0,0,1,40.4,9.383L37.77,17H35.708L33.036,9.461A14.67,14.67,0,0,1,32.684,7.9h-.07q.1,1.656.1,2.906V17H30.442V5.8h3.7l2.289,6.641a9.35,9.35,0,0,1,.4,1.6h.047a16.127,16.127,0,0,1,.445-1.617L39.606,5.8h3.6Zm5.072,0H45.756V5.8H48.28Zm12.627,0H58.359L53.742,9.961a10.18,10.18,0,0,1-.562-.93h-.031q.063.594.063,1.813V17H50.828V5.8h2.719l4.445,6.82q.3.461.563.914h.031a11.978,11.978,0,0,1-.062-1.539V5.8h2.383Zm5.088,0H63.47V5.8h2.523Zm2.033-.43v-2.5a4.8,4.8,0,0,0,1.477.855,4.746,4.746,0,0,0,1.609.285,3.569,3.569,0,0,0,.832-.086,1.949,1.949,0,0,0,.594-.238,1.039,1.039,0,0,0,.355-.359.9.9,0,0,0,.117-.449.971.971,0,0,0-.187-.586,2.018,2.018,0,0,0-.512-.477,5.347,5.347,0,0,0-.77-.422q-.445-.2-.961-.414a4.9,4.9,0,0,1-1.957-1.336,2.917,2.917,0,0,1-.645-1.906,3.036,3.036,0,0,1,.352-1.5A2.986,2.986,0,0,1,69.288,6.4a4.291,4.291,0,0,1,1.4-.6,7.206,7.206,0,0,1,1.688-.191,10.15,10.15,0,0,1,1.551.105,6.1,6.1,0,0,1,1.246.324V8.375a3.768,3.768,0,0,0-.613-.344,4.859,4.859,0,0,0-.684-.246,5.214,5.214,0,0,0-.7-.145,4.949,4.949,0,0,0-.66-.047,3.443,3.443,0,0,0-.781.082,2,2,0,0,0-.594.23,1.147,1.147,0,0,0-.375.355.843.843,0,0,0-.133.465.888.888,0,0,0,.148.5,1.7,1.7,0,0,0,.422.422,4.477,4.477,0,0,0,.664.391q.391.191.883.395a9.838,9.838,0,0,1,1.207.6,4.291,4.291,0,0,1,.918.715,2.785,2.785,0,0,1,.586.91,3.216,3.216,0,0,1,.2,1.191,3.191,3.191,0,0,1-.355,1.574,2.886,2.886,0,0,1-.965,1.031,4.184,4.184,0,0,1-1.418.566,8.2,8.2,0,0,1-1.707.172,9.492,9.492,0,0,1-1.754-.156A5.3,5.3,0,0,1,68.027,16.57ZM85.38,7.852h-3.2V17H79.653V7.852h-3.18V5.8H85.38ZM96.288,17h-2.9l-1.742-2.883q-.2-.328-.375-.586a3.255,3.255,0,0,0-.363-.441,1.445,1.445,0,0,0-.383-.281.972.972,0,0,0-.434-.1h-.68V17H86.889V5.8h4q4.078,0,4.078,3.047a3.155,3.155,0,0,1-.18,1.082,3.006,3.006,0,0,1-.508.895,3.219,3.219,0,0,1-.793.688,4.089,4.089,0,0,1-1.035.453v.031a1.606,1.606,0,0,1,.484.254,3.469,3.469,0,0,1,.453.41,5.722,5.722,0,0,1,.418.5q.2.27.363.527ZM89.413,7.688V10.8h1.094a1.813,1.813,0,0,0,1.3-.469,1.564,1.564,0,0,0,.5-1.18q0-1.469-1.758-1.469ZM107.188,17h-2.75l-.8-2.492H99.656L98.867,17H96.133l4.078-11.2H103.2Zm-4.125-4.43-1.2-3.766a4.908,4.908,0,0,1-.187-1.008h-.062a4.273,4.273,0,0,1-.2.977l-1.219,3.8ZM116.377,16.6a7.388,7.388,0,0,1-3.2.594,5.4,5.4,0,0,1-4.055-1.516,5.54,5.54,0,0,1-1.477-4.039,5.919,5.919,0,0,1,1.66-4.359,5.807,5.807,0,0,1,4.309-1.672,8.058,8.058,0,0,1,2.766.414v2.43a4.9,4.9,0,0,0-2.562-.672,3.4,3.4,0,0,0-2.547.992,3.682,3.682,0,0,0-.969,2.688,3.611,3.611,0,0,0,.914,2.59,3.229,3.229,0,0,0,2.461.965,5.249,5.249,0,0,0,2.7-.719Zm4.478.4h-2.523V5.8h2.523Zm7.283.2a5.215,5.215,0,0,1-3.922-1.566,5.624,5.624,0,0,1-1.516-4.082,6.026,6.026,0,0,1,1.539-4.3,5.328,5.328,0,0,1,4.078-1.641A5.085,5.085,0,0,1,132.2,7.18a5.789,5.789,0,0,1,1.48,4.141,5.929,5.929,0,0,1-1.535,4.258A5.269,5.269,0,0,1,128.138,17.2Zm.109-9.414a2.54,2.54,0,0,0-2.109,1,4.153,4.153,0,0,0-.781,2.637,4.077,4.077,0,0,0,.781,2.633,2.7,2.7,0,0,0,4.117.027,4.032,4.032,0,0,0,.766-2.613,4.369,4.369,0,0,0-.742-2.711A2.42,2.42,0,0,0,128.247,7.781Zm2.547-5.547-2.445,2.523h-1.781L128.6,2.234ZM145.608,17h-2.547l-4.617-7.039a10.181,10.181,0,0,1-.562-.93h-.031q.063.594.063,1.813V17H135.53V5.8h2.719l4.445,6.82q.3.461.563.914h.031a11.977,11.977,0,0,1-.062-1.539V5.8h2.383Z" transform="translate(827 10997)" fill="#212429"/>
    <path id="Trazado_986752" data-name="Trazado 986752" d="M-47,57V44H173V30H162L179.5,0,197,30H186V57Z" transform="translate(709 11030)" fill="#01899b"/>
  </g>
</svg>
