<svg xmlns="http://www.w3.org/2000/svg" xmlns:xlink="http://www.w3.org/1999/xlink" width="108" height="108" viewBox="0 0 108 108">
  <defs>
    <filter id="Trazado_982538" x="0" y="0" width="108" height="108" filterUnits="userSpaceOnUse">
      <feOffset dy="3" input="SourceAlpha"/>
      <feGaussianBlur stdDeviation="3" result="blur"/>
      <feFlood flood-opacity="0.161"/>
      <feComposite operator="in" in2="blur"/>
      <feComposite in="SourceGraphic"/>
    </filter>
  </defs>
  <g id="Grupo_1151565" data-name="Grupo 1151565" transform="translate(9 6)">
    <g id="Grupo_1150893" data-name="Grupo 1150893">
      <g transform="matrix(1, 0, 0, 1, -9, -6)" filter="url(#Trazado_982538)">
        <g id="Trazado_982538-2" data-name="Trazado 982538" transform="translate(9 6)" fill="#f3f3f3">
          <path d="M 45 88.5 C 39.12687683105469 88.5 33.43022537231445 87.35007476806641 28.06830024719238 85.08217620849609 C 22.88852500915527 82.89131164550781 18.23629951477051 79.75458526611328 14.2408504486084 75.75914764404297 C 10.24541282653809 71.76370239257812 7.108687400817871 67.11147308349609 4.917825222015381 61.93170166015625 C 2.649924993515015 56.56977462768555 1.5 50.87312316894531 1.5 45 C 1.5 39.12687683105469 2.649924993515015 33.43022537231445 4.917825222015381 28.06830024719238 C 7.108687400817871 22.88852500915527 10.24541282653809 18.23629951477051 14.2408504486084 14.2408504486084 C 18.23629951477051 10.24541282653809 22.88852500915527 7.108687400817871 28.06830024719238 4.917825222015381 C 33.43022537231445 2.649924993515015 39.12687683105469 1.5 45 1.5 C 50.87312316894531 1.5 56.56977462768555 2.649924993515015 61.93170166015625 4.917825222015381 C 67.11147308349609 7.108687400817871 71.76370239257812 10.24541282653809 75.75914764404297 14.2408504486084 C 79.75458526611328 18.23629951477051 82.89131164550781 22.88852500915527 85.08217620849609 28.06830024719238 C 87.35007476806641 33.43022537231445 88.5 39.12687683105469 88.5 45 C 88.5 50.87312316894531 87.35007476806641 56.56977462768555 85.08217620849609 61.93170166015625 C 82.89131164550781 67.11147308349609 79.75458526611328 71.76370239257812 75.75914764404297 75.75914764404297 C 71.76370239257812 79.75458526611328 67.11147308349609 82.89131164550781 61.93170166015625 85.08217620849609 C 56.56977462768555 87.35007476806641 50.87312316894531 88.5 45 88.5 Z" stroke="none"/>
          <path d="M 45 3 C 39.32871246337891 3 33.82865524291992 4.110054016113281 28.65262985229492 6.299339294433594 C 23.65165710449219 8.414573669433594 19.15968322753906 11.44334411621094 15.301513671875 15.301513671875 C 11.44334411621094 19.15968322753906 8.414573669433594 23.65165710449219 6.299339294433594 28.65262985229492 C 4.110054016113281 33.82865524291992 3 39.32871246337891 3 45 C 3 50.67128753662109 4.110054016113281 56.17134475708008 6.299339294433594 61.34737396240234 C 8.414573669433594 66.34834289550781 11.44334411621094 70.84031677246094 15.301513671875 74.698486328125 C 19.15968322753906 78.55665588378906 23.65165710449219 81.58542633056641 28.65262985229492 83.70066070556641 C 33.82865524291992 85.88994598388672 39.32871246337891 87 45 87 C 50.67128753662109 87 56.17134475708008 85.88994598388672 61.34737396240234 83.70066070556641 C 66.34834289550781 81.58542633056641 70.84031677246094 78.55665588378906 74.698486328125 74.698486328125 C 78.55665588378906 70.84031677246094 81.58542633056641 66.34834289550781 83.70066070556641 61.34737396240234 C 85.88994598388672 56.17134475708008 87 50.67128753662109 87 45 C 87 39.32871246337891 85.88994598388672 33.82865524291992 83.70066070556641 28.65262985229492 C 81.58542633056641 23.65165710449219 78.55665588378906 19.15968322753906 74.698486328125 15.301513671875 C 70.84031677246094 11.44334411621094 66.34834289550781 8.414573669433594 61.34737396240234 6.299339294433594 C 56.17134475708008 4.110054016113281 50.67128753662109 3 45 3 M 45 0 C 69.85281372070312 0 90 20.14718627929688 90 45 C 90 69.85281372070312 69.85281372070312 90 45 90 C 20.14718627929688 90 0 69.85281372070312 0 45 C 0 20.14718627929688 20.14718627929688 0 45 0 Z" stroke="none" fill="#fd7940"/>
        </g>
      </g>
      <g id="coins" transform="translate(10 -69.621)">
        <path id="Trazado_986681" data-name="Trazado 986681" d="M50.732,117.553A21.481,21.481,0,1,1,25.945,99.989,21.481,21.481,0,0,1,50.732,117.553Z" transform="translate(-6.963 -6.951)" fill="#c1c1c1"/>
        <path id="Trazado_986682" data-name="Trazado 986682" d="M83.205,157.109a15.344,15.344,0,1,1-17.7-12.546A15.344,15.344,0,0,1,83.205,157.109Z" transform="translate(-45.486 -45.476)" fill="#999"/>
        <path id="Trazado_986683" data-name="Trazado 986683" d="M234.3,121.186A21.481,21.481,0,1,1,212.82,99.705,21.481,21.481,0,0,1,234.3,121.186Z" transform="translate(-165.041 -6.973)" fill="#fed76e"/>
        <path id="Trazado_986684" data-name="Trazado 986684" d="M266.681,159.7a15.344,15.344,0,1,1-15.344-15.344A15.344,15.344,0,0,1,266.681,159.7Z" transform="translate(-203.559 -45.491)" fill="#feaf50"/>
        <path id="Trazado_986685" data-name="Trazado 986685" d="M27.563,128.776a1.111,1.111,0,0,1-.793,1.356,16.455,16.455,0,1,1,.845-31.593,1.111,1.111,0,1,1-.678,2.116,14.232,14.232,0,1,0-.73,27.327A1.112,1.112,0,0,1,27.563,128.776ZM14.976,113.3a1.111,1.111,0,0,0-.273,1.547l4.757,6.794a1.111,1.111,0,0,0,1.82-1.275l-4.757-6.794A1.111,1.111,0,0,0,14.976,113.3Zm55.393.91a22.582,22.582,0,0,1-35.177,18.754,22.594,22.594,0,1,1,0-37.506,22.582,22.582,0,0,1,35.179,18.752ZM33.3,131.543a22.676,22.676,0,0,1-6.865-9.916,1.11,1.11,0,0,1-.071-.088l-10.55-15.068a1.111,1.111,0,1,1,1.82-1.275l7.628,10.894c-.051-.619-.079-1.245-.079-1.878A22.553,22.553,0,0,1,33.3,96.884a20.369,20.369,0,1,0,0,34.659Zm34.847-17.33a20.37,20.37,0,1,0-20.37,20.37A20.393,20.393,0,0,0,68.147,114.213Zm-3.915,0A16.455,16.455,0,1,1,47.777,97.759,16.473,16.473,0,0,1,64.232,114.213Zm-2.222,0a14.232,14.232,0,1,0-14.232,14.232A14.249,14.249,0,0,0,62.009,114.213ZM55.026,118.3a5.209,5.209,0,0,1-5.2,5.2h-.935v.935a1.111,1.111,0,0,1-2.222,0v-.935H43.685a1.111,1.111,0,1,1,0-2.222h2.981v-5.961h-.935a5.2,5.2,0,1,1,0-10.406h.935v-.935a1.111,1.111,0,0,1,2.222,0v.935h2.981a1.111,1.111,0,0,1,0,2.222H48.888V113.1h.935A5.209,5.209,0,0,1,55.026,118.3Zm-8.36-5.2v-5.961h-.935a2.981,2.981,0,1,0,0,5.961h.935Zm6.138,5.2a2.984,2.984,0,0,0-2.981-2.981h-.935v5.961h.935A2.984,2.984,0,0,0,52.8,118.3Z"/>
      </g>
    </g>
  </g>
</svg>
