<svg xmlns="http://www.w3.org/2000/svg" xmlns:xlink="http://www.w3.org/1999/xlink" width="108" height="108" viewBox="0 0 108 108">
  <defs>
    <filter id="Trazado_982538" x="0" y="0" width="108" height="108" filterUnits="userSpaceOnUse">
      <feOffset dy="3" input="SourceAlpha"/>
      <feGaussianBlur stdDeviation="3" result="blur"/>
      <feFlood flood-opacity="0.161"/>
      <feComposite operator="in" in2="blur"/>
      <feComposite in="SourceGraphic"/>
    </filter>
  </defs>
  <g id="Grupo_1151812" data-name="Grupo 1151812" transform="translate(-1291 -12331.365)">
    <g id="Grupo_1151642" data-name="Grupo 1151642" transform="translate(1300 12337.365)">
      <g id="Grupo_1150893" data-name="Grupo 1150893">
        <g transform="matrix(1, 0, 0, 1, -9, -6)" filter="url(#Trazado_982538)">
          <g id="Trazado_982538-2" data-name="Trazado 982538" transform="translate(9 6)" fill="#f3f3f3">
            <path d="M 45 88.5 C 39.12687683105469 88.5 33.43022537231445 87.35007476806641 28.06830024719238 85.08217620849609 C 22.88852500915527 82.89131164550781 18.23629951477051 79.75458526611328 14.2408504486084 75.75914764404297 C 10.24541282653809 71.76370239257812 7.108687400817871 67.11147308349609 4.917825222015381 61.93170166015625 C 2.649924993515015 56.56977462768555 1.5 50.87312316894531 1.5 45 C 1.5 39.12687683105469 2.649924993515015 33.43022537231445 4.917825222015381 28.06830024719238 C 7.108687400817871 22.88852500915527 10.24541282653809 18.23629951477051 14.2408504486084 14.2408504486084 C 18.23629951477051 10.24541282653809 22.88852500915527 7.108687400817871 28.06830024719238 4.917825222015381 C 33.43022537231445 2.649924993515015 39.12687683105469 1.5 45 1.5 C 50.87312316894531 1.5 56.56977462768555 2.649924993515015 61.93170166015625 4.917825222015381 C 67.11147308349609 7.108687400817871 71.76370239257812 10.24541282653809 75.75914764404297 14.2408504486084 C 79.75458526611328 18.23629951477051 82.89131164550781 22.88852500915527 85.08217620849609 28.06830024719238 C 87.35007476806641 33.43022537231445 88.5 39.12687683105469 88.5 45 C 88.5 50.87312316894531 87.35007476806641 56.56977462768555 85.08217620849609 61.93170166015625 C 82.89131164550781 67.11147308349609 79.75458526611328 71.76370239257812 75.75914764404297 75.75914764404297 C 71.76370239257812 79.75458526611328 67.11147308349609 82.89131164550781 61.93170166015625 85.08217620849609 C 56.56977462768555 87.35007476806641 50.87312316894531 88.5 45 88.5 Z" stroke="none"/>
            <path d="M 45 3 C 39.32871246337891 3 33.82865524291992 4.110054016113281 28.65262985229492 6.299339294433594 C 23.65165710449219 8.414573669433594 19.15968322753906 11.44334411621094 15.301513671875 15.301513671875 C 11.44334411621094 19.15968322753906 8.414573669433594 23.65165710449219 6.299339294433594 28.65262985229492 C 4.110054016113281 33.82865524291992 3 39.32871246337891 3 45 C 3 50.67128753662109 4.110054016113281 56.17134475708008 6.299339294433594 61.34737396240234 C 8.414573669433594 66.34834289550781 11.44334411621094 70.84031677246094 15.301513671875 74.698486328125 C 19.15968322753906 78.55665588378906 23.65165710449219 81.58542633056641 28.65262985229492 83.70066070556641 C 33.82865524291992 85.88994598388672 39.32871246337891 87 45 87 C 50.67128753662109 87 56.17134475708008 85.88994598388672 61.34737396240234 83.70066070556641 C 66.34834289550781 81.58542633056641 70.84031677246094 78.55665588378906 74.698486328125 74.698486328125 C 78.55665588378906 70.84031677246094 81.58542633056641 66.34834289550781 83.70066070556641 61.34737396240234 C 85.88994598388672 56.17134475708008 87 50.67128753662109 87 45 C 87 39.32871246337891 85.88994598388672 33.82865524291992 83.70066070556641 28.65262985229492 C 81.58542633056641 23.65165710449219 78.55665588378906 19.15968322753906 74.698486328125 15.301513671875 C 70.84031677246094 11.44334411621094 66.34834289550781 8.414573669433594 61.34737396240234 6.299339294433594 C 56.17134475708008 4.110054016113281 50.67128753662109 3 45 3 M 45 0 C 69.85281372070312 0 90 20.14718627929688 90 45 C 90 69.85281372070312 69.85281372070312 90 45 90 C 20.14718627929688 90 0 69.85281372070312 0 45 C 0 20.14718627929688 20.14718627929688 0 45 0 Z" stroke="none" fill="#fd7940"/>
          </g>
        </g>
      </g>
    </g>
    <g id="laptop" transform="translate(1318 12301.747)">
      <path id="Trazado_986686" data-name="Trazado 986686" d="M77.491,105.647H32.034a2.392,2.392,0,0,1-2.392-2.392V69.76a2.392,2.392,0,0,1,2.392-2.392H77.491a2.392,2.392,0,0,1,2.392,2.392v33.494A2.392,2.392,0,0,1,77.491,105.647Z" transform="translate(-26.352 -7.187)" fill="#6583b7"/>
      <path id="Trazado_986687" data-name="Trazado 986687" d="M79.883,69.76V87.106H29.642V69.76a2.392,2.392,0,0,1,2.392-2.392H77.491A2.392,2.392,0,0,1,79.883,69.76Z" transform="translate(-26.352 -7.187)" fill="#819ad1"/>
      <path id="Trazado_986688" data-name="Trazado 986688" d="M58.325,387.135H12.869a4.785,4.785,0,0,1-4.785-4.785h0a2.392,2.392,0,0,1,2.392-2.392H60.718a2.392,2.392,0,0,1,2.392,2.392h0A4.785,4.785,0,0,1,58.325,387.135Z" transform="translate(-7.187 -285.087)" fill="#999"/>
      <path id="Trazado_986689" data-name="Trazado 986689" d="M64.722,379.958a2.386,2.386,0,0,1,1.893.933,4.784,4.784,0,0,1-4.285,2.656H16.873a4.784,4.784,0,0,1-4.285-2.656,2.386,2.386,0,0,1,1.893-.933Z" transform="translate(-11.191 -285.087)" fill="#c1c1c1"/>
      <path id="Trazado_986690" data-name="Trazado 986690" d="M220.659,372.769h-5.981a1.794,1.794,0,0,1-1.794-1.794h0a1.794,1.794,0,0,1,1.794-1.794h5.981a1.794,1.794,0,0,1,1.794,1.794h0A1.794,1.794,0,0,1,220.659,372.769Z" transform="translate(-189.259 -275.505)" fill="#999"/>
      <path id="Trazado_986691" data-name="Trazado 986691" d="M203.892,208.691v11.962h-7.177V208.691a1.2,1.2,0,0,1,1.2-1.2H202.7A1.2,1.2,0,0,1,203.892,208.691Z" transform="translate(-174.884 -131.763)" fill="#fe5a3a"/>
      <path id="Trazado_986692" data-name="Trazado 986692" d="M150,165.575v16.747h-7.177V165.575a1.2,1.2,0,0,1,1.2-1.2H148.8A1.2,1.2,0,0,1,150,165.575Z" transform="translate(-126.971 -93.432)" fill="#fe9d5e"/>
      <path id="Trazado_986693" data-name="Trazado 986693" d="M106.882,262.585v5.981H99.705v-5.981a1.2,1.2,0,0,1,1.2-1.2h4.785A1.2,1.2,0,0,1,106.882,262.585Z" transform="translate(-88.64 -179.676)" fill="#fef184"/>
      <path id="Trazado_986694" data-name="Trazado 986694" d="M79.883,69.76v2.392H29.642V69.76a2.392,2.392,0,0,1,2.392-2.392H77.491A2.392,2.392,0,0,1,79.883,69.76Z" transform="translate(-26.352 -7.187)" fill="#c1c1c1"/>
      <path id="Trazado_986695" data-name="Trazado 986695" d="M235.034,86.528a2.991,2.991,0,1,1-2.991-2.991A2.991,2.991,0,0,1,235.034,86.528Z" transform="translate(-203.633 -21.561)" fill="#dbdbdb"/>
      <path id="Trazado_986696" data-name="Trazado 986696" d="M43.961,83.807a.9.9,0,1,1,0,1.794H36.784a.9.9,0,1,1,0-1.794Zm3.589-9.57H36.784a.9.9,0,1,0,0,1.794H47.55a.9.9,0,0,0,0-1.794ZM3.29,92.18a.9.9,0,0,0,.9-.9V65.863H24.821a.9.9,0,0,0,0-1.794H4.187v-1.5a1.5,1.5,0,0,1,1.5-1.5H51.138a1.5,1.5,0,0,1,1.5,1.5v1.5H32a.9.9,0,1,0,0,1.794H52.634v25.42a.9.9,0,0,0,1.794,0V62.574a3.293,3.293,0,0,0-3.29-3.29H5.682a3.293,3.293,0,0,0-3.29,3.29V91.283A.9.9,0,0,0,3.29,92.18ZM48.447,79.919a.9.9,0,0,0-.9-.9H36.784a.9.9,0,1,0,0,1.794H47.55A.9.9,0,0,0,48.447,79.919ZM56.82,97.264a5.689,5.689,0,0,1-5.682,5.682H5.682A5.689,5.689,0,0,1,0,97.264a3.293,3.293,0,0,1,3.29-3.29H23.183a2.691,2.691,0,0,1,2.237-1.2H31.4a2.691,2.691,0,0,1,2.237,1.2H53.531A3.293,3.293,0,0,1,56.82,97.264Zm-32.3-1.794a.9.9,0,0,0,.9.9H31.4a.9.9,0,1,0,0-1.794H25.42A.9.9,0,0,0,24.522,95.47Zm30.5,1.794a1.5,1.5,0,0,0-1.5-1.5H34.076A2.7,2.7,0,0,1,31.4,98.161H25.42a2.7,2.7,0,0,1-2.675-2.392H3.29a1.5,1.5,0,0,0-1.5,1.5,3.892,3.892,0,0,0,3.888,3.888H51.138A3.892,3.892,0,0,0,55.026,97.264ZM19.139,82.909v5.084H22.13V72.143a.3.3,0,0,0-.3-.3H17.046a.3.3,0,0,0-.3.3V78.6a.9.9,0,0,1-1.794,0V72.143a2.1,2.1,0,0,1,2.093-2.093h4.785a2.1,2.1,0,0,1,2.093,2.093v15.85h4.187V76.928a.3.3,0,0,0-.3-.3H26.018a.9.9,0,1,1,0-1.794h1.794a2.1,2.1,0,0,1,2.093,2.093V87.993H32a.9.9,0,1,1,0,1.794H8.074a.9.9,0,1,1,0-1.794h2.093V82.909a2.1,2.1,0,0,1,2.093-2.093h4.785A2.1,2.1,0,0,1,19.139,82.909Zm-1.794,0a.3.3,0,0,0-.3-.3H12.261a.3.3,0,0,0-.3.3v5.084h5.383V82.909ZM28.47,65.863a.9.9,0,0,0,0-1.794h-.12a.9.9,0,0,0,0,1.794Z" transform="translate(0)"/>
    </g>
  </g>
</svg>
