<svg xmlns="http://www.w3.org/2000/svg" xmlns:xlink="http://www.w3.org/1999/xlink" width="108" height="108" viewBox="0 0 108 108">
  <defs>
    <filter id="Fondo" x="0" y="0" width="108" height="108" filterUnits="userSpaceOnUse">
      <feOffset dy="3" input="SourceAlpha"/>
      <feGaussianBlur stdDeviation="3" result="blur"/>
      <feFlood flood-opacity="0.161"/>
      <feComposite operator="in" in2="blur"/>
      <feComposite in="SourceGraphic"/>
    </filter>
  </defs>
  <g id="Icono" transform="translate(8.5 -689)">
    <g transform="matrix(1, 0, 0, 1, -8.5, 689)" filter="url(#Fondo)">
      <g id="Fondo-2" data-name="Fondo" transform="translate(9 6)" fill="#e6d567" stroke="#bca724" stroke-width="3">
        <circle cx="45" cy="45" r="45" stroke="none"/>
        <circle cx="45" cy="45" r="43.5" fill="none"/>
      </g>
    </g>
    <g id="Graduate-Mortarboard-Avatar-Education-Man" transform="translate(12.12 704)">
      <path id="Trazado_986427" data-name="Trazado 986427" d="M36.514,33.16v5.151L32.257,40.44,28,38.311V33.16A10.583,10.583,0,0,0,36.514,33.16Z" transform="translate(1.157 2.002)" fill="#ffc477"/>
      <path id="Trazado_986428" data-name="Trazado 986428" d="M12,12.578,33.285,3,54.57,12.578,33.285,22.157l-20.221-9.1Z" transform="translate(0.129 0.064)" fill="#3d9ae2"/>
      <circle id="Elipse_11803" data-name="Elipse 11803" cx="2" cy="2" r="2" transform="translate(11 18)" fill="#3d9ae2"/>
      <path id="Trazado_986429" data-name="Trazado 986429" d="M29.31,42.363l-.947.681A2.129,2.129,0,0,1,25,41.31V39l3.193-1,4.257,2.129Z" transform="translate(0.964 2.313)" fill="#898890"/>
      <path id="Trazado_986430" data-name="Trazado 986430" d="M35.14,42.363,32,40.129,36.257,38l3.193,1V41.31a2.129,2.129,0,0,1-3.363,1.735Z" transform="translate(1.414 2.313)" fill="#898890"/>
      <path id="Trazado_986431" data-name="Trazado 986431" d="M35.329,42.235l-2.075,4.151H31.125L29.05,42.235,32.19,40Z" transform="translate(1.224 2.442)" fill="#57565c"/>
      <path id="Trazado_986432" data-name="Trazado 986432" d="M33.238,46l1.82,7.28a5.338,5.338,0,0,1-5.768,0L31.11,46Z" transform="translate(1.24 2.827)" fill="#787680"/>
      <path id="Trazado_986433" data-name="Trazado 986433" d="M25.271,41.249a2.129,2.129,0,0,0,3.363,1.735l.947-.681,2.075,4.151-1.82,7.28A5.138,5.138,0,0,1,28.219,52.1L20.79,40.334l4.481-1.394Z" transform="translate(0.693 2.374)" fill="#e6e7e8"/>
      <path id="Trazado_986434" data-name="Trazado 986434" d="M36.022,42.984a2.129,2.129,0,0,0,3.363-1.735V38.94l4.481,1.394L36.438,52.1a5.138,5.138,0,0,1-1.618,1.628L33,46.454,35.075,42.3Z" transform="translate(1.478 2.374)" fill="#e6e7e8"/>
      <path id="Trazado_986435" data-name="Trazado 986435" d="M48.6,41.314,45.215,40.25,37.787,52.021a5.138,5.138,0,0,1-1.618,1.628,5.338,5.338,0,0,1-5.768,0,5.138,5.138,0,0,1-1.618-1.628L21.355,40.25,17.97,41.314A8.5,8.5,0,0,0,12,49.435v12.9H54.57v-12.9A8.5,8.5,0,0,0,48.6,41.314Z" transform="translate(0.129 2.458)" fill="#3d9ae2"/>
      <path id="Trazado_986436" data-name="Trazado 986436" d="M23.321,19v6.386H21.193a3.193,3.193,0,1,1,0-6.386Z" transform="translate(0.514 1.092)" fill="#ffb655"/>
      <path id="Trazado_986437" data-name="Trazado 986437" d="M43.129,19a3.193,3.193,0,0,1,0,6.386H41V19Z" transform="translate(1.992 1.092)" fill="#ffb655"/>
      <path id="Trazado_986438" data-name="Trazado 986438" d="M36.514,33.16v3.193a10.583,10.583,0,0,1-8.514,0V33.16A10.583,10.583,0,0,0,36.514,33.16Z" transform="translate(1.157 2.002)" fill="#ffb655"/>
      <path id="Trazado_986439" data-name="Trazado 986439" d="M43.285,19.129v6.386a10.643,10.643,0,0,1-21.285,0V17H43.285Z" transform="translate(0.771 0.964)" fill="#ffc477"/>
      <rect id="Rectángulo_408249" data-name="Rectángulo 408249" width="21" height="6" transform="translate(23 12)" fill="#1e81ce"/>
      <path id="Trazado_986440" data-name="Trazado 986440" d="M49.037,42.75l-10.3-3.225V36.9a11.737,11.737,0,0,0,6.332-9.355h.053a4.257,4.257,0,0,0,0-8.514v-.9l10.015-4.512a1.064,1.064,0,0,0,0-1.937L33.85,2.1a1.042,1.042,0,0,0-.873,0L11.692,11.674a1.064,1.064,0,0,0,0,1.937l.436.2v3.278a3.2,3.2,0,0,0-2.129,3,3.144,3.144,0,0,0,1.1,2.384L10.074,25.02l1.98.788,1.011-2.533c.043,0,.085.011.128.011s.085-.011.128-.011l1.011,2.533,1.98-.788-1.022-2.544a3.144,3.144,0,0,0,1.1-2.384,3.2,3.2,0,0,0-2.129-3v-2.32l7.45,3.352v.9a4.257,4.257,0,0,0,0,8.514h.053A11.737,11.737,0,0,0,28.092,36.9v2.629L17.79,42.75a9.535,9.535,0,0,0-6.726,9.142v12.9a1.064,1.064,0,0,0,1.064,1.064H54.7a1.064,1.064,0,0,0,1.064-1.064v-12.9a9.535,9.535,0,0,0-6.726-9.142ZM13.193,21.157a1.064,1.064,0,1,1,1.064-1.064A1.064,1.064,0,0,1,13.193,21.157Zm8.514,4.257a2.129,2.129,0,1,1,0-4.257ZM41.928,43.623v-.862l1.777.553-6.684,10.6c-.043.053-.085.117-.128.17l-1.288-5.13,1.341-2.693a3.147,3.147,0,0,0,1.788.564,3.212,3.212,0,0,0,1.458-.362A3.178,3.178,0,0,0,41.928,43.623ZM39.8,42.091v1.533a1.03,1.03,0,0,1-.575.947,1.041,1.041,0,0,1-1.107-.075L35.468,42.6l2.3-1.149Zm-5.981,5.672h-.809l-1.373-2.746,1.777-1.266,1.777,1.266Zm1.245,7.79a4.289,4.289,0,0,1-3.3,0l1.415-5.662h.468Zm-1.65-14.3-3.193-1.6V37.727a11.366,11.366,0,0,0,6.386,0v1.926ZM42.992,16.9H23.835V12.643H42.992Zm4.257,6.386a2.144,2.144,0,0,1-2.129,2.129V21.157a2.135,2.135,0,0,1,2.129,2.129ZM21.707,11.578v4.2l-6.982-3.14L33.414,4.235,52.1,12.643l-6.982,3.14v-4.2a1.064,1.064,0,0,0-1.064-1.064H22.771A1.064,1.064,0,0,0,21.707,11.578Zm2.129,14.9v-7.45H42.992v7.45a9.578,9.578,0,1,1-19.157,0Zm3.193,15.613,2.033-.639,2.3,1.149L28.71,44.5a1.041,1.041,0,0,1-1.107.074,1.03,1.03,0,0,1-.575-.947Zm-2.129.67v.862a3.178,3.178,0,0,0,1.735,2.842,3.212,3.212,0,0,0,1.458.362,3.147,3.147,0,0,0,1.788-.564l1.341,2.693-1.288,5.13c-.032-.064-.085-.117-.117-.17l-6.694-10.6ZM53.635,63.727H13.193V51.892a7.411,7.411,0,0,1,5.226-7.109l2.607-.809,6.982,11.068a6.407,6.407,0,0,0,10.813,0L45.8,43.974l2.607.809a7.411,7.411,0,0,1,5.226,7.109Z" transform="translate(0 0)"/>
      <path id="Trazado_986441" data-name="Trazado 986441" d="M35.732,27.846l-1.408-1.6a3.274,3.274,0,0,1-4.223,0l-1.408,1.6A5.321,5.321,0,0,0,35.732,27.846Z" transform="translate(1.201 1.558)"/>
      <circle id="Elipse_11804" data-name="Elipse 11804" cx="2" cy="2" r="2" transform="translate(26 21)"/>
      <circle id="Elipse_11805" data-name="Elipse 11805" cx="2" cy="2" r="2" transform="translate(37 21)"/>
    </g>
  </g>
</svg>
