<svg xmlns="http://www.w3.org/2000/svg" xmlns:xlink="http://www.w3.org/1999/xlink" width="108" height="108" viewBox="0 0 108 108">
  <defs>
    <filter id="Fondo" x="0" y="0" width="108" height="108" filterUnits="userSpaceOnUse">
      <feOffset dy="3" input="SourceAlpha"/>
      <feGaussianBlur stdDeviation="3" result="blur"/>
      <feFlood flood-opacity="0.161"/>
      <feComposite operator="in" in2="blur"/>
      <feComposite in="SourceGraphic"/>
    </filter>
  </defs>
  <g id="Icono" transform="translate(8.5 -689)">
    <g transform="matrix(1, 0, 0, 1, -8.5, 689)" filter="url(#Fondo)">
      <g id="Fondo-2" data-name="Fondo" transform="translate(9 6)" fill="#e6d567" stroke="#bca724" stroke-width="3">
        <circle cx="45" cy="45" r="45" stroke="none"/>
        <circle cx="45" cy="45" r="43.5" fill="none"/>
      </g>
    </g>
    <g id="Factory_2" transform="translate(13.11 704)">
      <path id="Trazado_986442" data-name="Trazado 986442" d="M61,38V61H43V47H35V61H3V37l10-6v8l10-8v8l10-8v8l10-8v7Z" fill="#ffcd00"/>
      <path id="Trazado_986443" data-name="Trazado 986443" d="M55,9H49L47,38H57Z" fill="#acabb1"/>
      <rect id="Rectángulo_408250" data-name="Rectángulo 408250" width="8" height="14" transform="translate(35 47)" fill="#57565c"/>
      <rect id="Rectángulo_408251" data-name="Rectángulo 408251" width="4" height="6" transform="translate(9 49)" fill="#acabb1"/>
      <rect id="Rectángulo_408252" data-name="Rectángulo 408252" width="4" height="6" transform="translate(17 49)" fill="#acabb1"/>
      <rect id="Rectángulo_408253" data-name="Rectángulo 408253" width="4" height="6" transform="translate(25 49)" fill="#acabb1"/>
      <path id="Trazado_986444" data-name="Trazado 986444" d="M61,37H57.933L56,8.932A1,1,0,0,0,55,8H49a1,1,0,0,0-1,.932L46.065,37H44V31a1,1,0,0,0-1.625-.781L34,36.919V31a1,1,0,0,0-1.625-.781L24,36.919V31a1,1,0,0,0-1.625-.781L14,36.919V31a1,1,0,0,0-1.514-.857l-10,6A1,1,0,0,0,2,37V61a1,1,0,0,0,1,1H61a1,1,0,0,0,1-1V38a1,1,0,0,0-1-1ZM49.934,10h4.133l1.862,27H48.072ZM36,60V48h6V60Zm24,0H44V47a1,1,0,0,0-1-1H35a1,1,0,0,0-1,1V60H4V37.566l8-4.8V39a1,1,0,0,0,1.625.781L22,33.08V39a1,1,0,0,0,1.625.781L32,33.08V39a1,1,0,0,0,1.625.781L42,33.08V38a1,1,0,0,0,1,1H60V60Z" fill="#231f20"/>
      <path id="Trazado_986445" data-name="Trazado 986445" d="M35.993,4a3.7,3.7,0,0,1,.972.752A3.5,3.5,0,0,0,39.2,6a3.65,3.65,0,0,0,2.356-1.3A4.7,4.7,0,0,1,42.4,4c.206.009.745.514,1.034.785A3.35,3.35,0,0,0,45.6,6a3.9,3.9,0,0,0,2.512-1.378c.245-.23.616-.579.688-.622.538,0,.661.178.99.654A2.531,2.531,0,0,0,52,6a1,1,0,0,0,0-2c-.2,0-.239-.014-.564-.483A2.954,2.954,0,0,0,48.8,2a3.209,3.209,0,0,0-2.058,1.164c-.333.312-.89.836-1.1.841a4.057,4.057,0,0,1-.842-.679A3.712,3.712,0,0,0,42.4,2a3.459,3.459,0,0,0-2.21,1.236A4.219,4.219,0,0,1,39.227,4a3.88,3.88,0,0,1-.9-.71A3.624,3.624,0,0,0,36,2a1,1,0,1,0-.007,2Z" fill="#231f20"/>
      <path id="Trazado_986446" data-name="Trazado 986446" d="M13,48H9a1,1,0,0,0-1,1v6a1,1,0,0,0,1,1h4a1,1,0,0,0,1-1V49A1,1,0,0,0,13,48Zm-1,6H10V50h2Z" fill="#231f20"/>
      <path id="Trazado_986447" data-name="Trazado 986447" d="M21,48H17a1,1,0,0,0-1,1v6a1,1,0,0,0,1,1h4a1,1,0,0,0,1-1V49A1,1,0,0,0,21,48Zm-1,6H18V50h2Z" fill="#231f20"/>
      <path id="Trazado_986448" data-name="Trazado 986448" d="M29,48H25a1,1,0,0,0-1,1v6a1,1,0,0,0,1,1h4a1,1,0,0,0,1-1V49A1,1,0,0,0,29,48Zm-1,6H26V50h2Z" fill="#231f20"/>
    </g>
  </g>
</svg>
