<svg xmlns="http://www.w3.org/2000/svg" xmlns:xlink="http://www.w3.org/1999/xlink" width="666" height="318" viewBox="0 0 666 318">
  <defs>
    <filter id="Fondo" x="0" y="0" width="246" height="318" filterUnits="userSpaceOnUse">
      <feOffset dy="3" input="SourceAlpha"/>
      <feGaussianBlur stdDeviation="10" result="blur"/>
      <feFlood flood-color="#0f1f33" flood-opacity="0.235"/>
      <feComposite operator="in" in2="blur"/>
      <feComposite in="SourceGraphic"/>
    </filter>
    <filter id="Fondo-2" x="73" y="63" width="108" height="108" filterUnits="userSpaceOnUse">
      <feOffset dy="3" input="SourceAlpha"/>
      <feGaussianBlur stdDeviation="3" result="blur-2"/>
      <feFlood flood-opacity="0.161"/>
      <feComposite operator="in" in2="blur-2"/>
      <feComposite in="SourceGraphic"/>
    </filter>
    <clipPath id="clip-path">
      <rect id="Rectángulo_408266" data-name="Rectángulo 408266" width="57.612" height="60.28" fill="none"/>
    </clipPath>
    <clipPath id="clip-path-3">
      <rect id="Rectángulo_408255" data-name="Rectángulo 408255" width="16.442" height="26.268" fill="none"/>
    </clipPath>
    <clipPath id="clip-path-4">
      <rect id="Rectángulo_408256" data-name="Rectángulo 408256" width="21.862" height="33.37" fill="none"/>
    </clipPath>
    <clipPath id="clip-path-5">
      <rect id="Rectángulo_408257" data-name="Rectángulo 408257" width="8.552" height="23.511" fill="none"/>
    </clipPath>
    <clipPath id="clip-path-6">
      <rect id="Rectángulo_408258" data-name="Rectángulo 408258" width="8.551" height="23.511" fill="none"/>
    </clipPath>
    <clipPath id="clip-path-7">
      <rect id="Rectángulo_408260" data-name="Rectángulo 408260" width="29.807" height="3.767" fill="none"/>
    </clipPath>
    <clipPath id="clip-path-9">
      <rect id="Rectángulo_408264" data-name="Rectángulo 408264" width="47.889" height="3.767" fill="none"/>
    </clipPath>
    <filter id="Fondo-3" x="208" y="0" width="247" height="318" filterUnits="userSpaceOnUse">
      <feOffset dy="3" input="SourceAlpha"/>
      <feGaussianBlur stdDeviation="10" result="blur-3"/>
      <feFlood flood-color="#0f1f33" flood-opacity="0.235"/>
      <feComposite operator="in" in2="blur-3"/>
      <feComposite in="SourceGraphic"/>
    </filter>
    <filter id="Fondo-4" x="278" y="63" width="108" height="108" filterUnits="userSpaceOnUse">
      <feOffset dy="3" input="SourceAlpha"/>
      <feGaussianBlur stdDeviation="3" result="blur-4"/>
      <feFlood flood-opacity="0.161"/>
      <feComposite operator="in" in2="blur-4"/>
      <feComposite in="SourceGraphic"/>
    </filter>
    <filter id="Fondo-5" x="420" y="0" width="246" height="318" filterUnits="userSpaceOnUse">
      <feOffset dy="3" input="SourceAlpha"/>
      <feGaussianBlur stdDeviation="10" result="blur-5"/>
      <feFlood flood-color="#0f1f33" flood-opacity="0.235"/>
      <feComposite operator="in" in2="blur-5"/>
      <feComposite in="SourceGraphic"/>
    </filter>
    <filter id="Fondo-6" x="489" y="63" width="108" height="108" filterUnits="userSpaceOnUse">
      <feOffset dy="3" input="SourceAlpha"/>
      <feGaussianBlur stdDeviation="3" result="blur-6"/>
      <feFlood flood-opacity="0.161"/>
      <feComposite operator="in" in2="blur-6"/>
      <feComposite in="SourceGraphic"/>
    </filter>
  </defs>
  <g id="Grupo_1151815" data-name="Grupo 1151815" transform="translate(-454 -1814)">
    <g transform="matrix(1, 0, 0, 1, 454, 1814)" filter="url(#Fondo)">
      <path id="Fondo-7" data-name="Fondo" d="M8,0H178a8,8,0,0,1,8,8V250a8,8,0,0,1-8,8H8a8,8,0,0,1-8-8V8A8,8,0,0,1,8,0Z" transform="translate(30 27)" fill="#fff"/>
    </g>
    <path id="Titulo" d="M36.814,14.658V19H33.976V6.4h4.447q4.764,0,4.764,4.017a3.854,3.854,0,0,1-1.367,3.072,5.414,5.414,0,0,1-3.652,1.173Zm0-6.082V12.5h1.116q2.268,0,2.268-1.986,0-1.942-2.268-1.942ZM50.631,12.5a2.409,2.409,0,0,0-1.169-.272,1.684,1.684,0,0,0-1.415.664,2.9,2.9,0,0,0-.51,1.806V19H44.76V10h2.777v1.67h.035a2.4,2.4,0,0,1,2.373-1.828,1.788,1.788,0,0,1,.686.105ZM53.4,8.576a1.622,1.622,0,0,1-1.151-.417A1.345,1.345,0,0,1,51.8,7.135a1.3,1.3,0,0,1,.448-1.02,1.88,1.88,0,0,1,2.307,0A1.3,1.3,0,0,1,55,7.135a1.34,1.34,0,0,1-.444,1.037A1.65,1.65,0,0,1,53.4,8.576ZM54.771,19H51.993V10h2.777ZM71.4,19H68.631V13.867q0-1.96-1.441-1.96a1.324,1.324,0,0,0-1.116.589,2.42,2.42,0,0,0-.431,1.468V19H62.865V13.814q0-1.907-1.415-1.907a1.356,1.356,0,0,0-1.138.563A2.475,2.475,0,0,0,59.886,14v5H57.108V10h2.777v1.406h.035A3.41,3.41,0,0,1,62.83,9.78a2.592,2.592,0,0,1,2.61,1.679A3.329,3.329,0,0,1,68.464,9.78Q71.4,9.78,71.4,13.4Zm9.686,0H78.457V17.708h-.035a2.933,2.933,0,0,1-2.681,1.512,2.8,2.8,0,0,1-2.061-.743,2.661,2.661,0,0,1-.751-1.982q0-2.619,3.1-3.023l2.443-.325q0-1.477-1.6-1.477a5.46,5.46,0,0,0-3.059.958V10.536a6.881,6.881,0,0,1,1.586-.527,8.339,8.339,0,0,1,1.833-.229q3.85,0,3.85,3.841Zm-2.61-3.656v-.606l-1.635.211q-1.354.176-1.354,1.222a1.01,1.01,0,0,0,.33.778,1.266,1.266,0,0,0,.892.3,1.644,1.644,0,0,0,1.274-.541A1.952,1.952,0,0,0,78.475,15.344ZM89.153,12.5a2.409,2.409,0,0,0-1.169-.272,1.684,1.684,0,0,0-1.415.664,2.9,2.9,0,0,0-.51,1.806V19H83.282V10H86.06v1.67h.035a2.4,2.4,0,0,1,2.373-1.828,1.788,1.788,0,0,1,.686.105Zm2.769-3.929a1.622,1.622,0,0,1-1.151-.417,1.345,1.345,0,0,1-.448-1.024,1.3,1.3,0,0,1,.448-1.02,1.88,1.88,0,0,1,2.307,0,1.3,1.3,0,0,1,.444,1.02,1.34,1.34,0,0,1-.444,1.037A1.65,1.65,0,0,1,91.922,8.576ZM93.293,19H90.516V10h2.777Zm6.627.22a4.838,4.838,0,0,1-3.538-1.261,4.573,4.573,0,0,1-1.288-3.423,4.573,4.573,0,0,1,1.336-3.494,5.048,5.048,0,0,1,3.612-1.261,4.78,4.78,0,0,1,3.516,1.261,4.483,4.483,0,0,1,1.274,3.335,4.759,4.759,0,0,1-1.314,3.542A4.892,4.892,0,0,1,99.92,19.22Zm.07-7.312a1.852,1.852,0,0,0-1.529.677,2.984,2.984,0,0,0-.545,1.916q0,2.593,2.092,2.593,2,0,2-2.663Q102,11.907,99.99,11.907Z" transform="translate(508 2013)" fill="#212429"/>
    <g id="Icono" transform="translate(536 1188)">
      <g transform="matrix(1, 0, 0, 1, -82, 626)" filter="url(#Fondo-2)">
        <g id="Fondo-8" data-name="Fondo" transform="translate(82 69)" fill="#e6d567" stroke="#bca724" stroke-width="3">
          <circle cx="45" cy="45" r="45" stroke="none"/>
          <circle cx="45" cy="45" r="43.5" fill="none"/>
        </g>
      </g>
      <g id="Grupo_1151739" data-name="Grupo 1151739" transform="translate(16 708.205)">
        <g id="Grupo_1151762" data-name="Grupo 1151762" clip-path="url(#clip-path)">
          <g id="Grupo_1151761" data-name="Grupo 1151761">
            <g id="Grupo_1151760" data-name="Grupo 1151760" clip-path="url(#clip-path)">
              <path id="Trazado_986483" data-name="Trazado 986483" d="M27.474,14.316a6.325,6.325,0,0,0-4.754-.664,11.063,11.063,0,0,0,.072-1.152,6.321,6.321,0,0,0-12.643,0,11.278,11.278,0,0,0,.071,1.152A6.319,6.319,0,0,0,3.2,22.961c1.759,3.017,9.546,9.488,12.856,9.488h.837c3.536,0,11.1-6.471,12.856-9.488a6.32,6.32,0,0,0-2.271-8.644" transform="translate(-1.393 -3.691)" fill="#78b735"/>
              <path id="Trazado_986484" data-name="Trazado 986484" d="M15.5,31.993h-.838c-3.834,0-11.893-6.908-13.669-9.955a7.261,7.261,0,0,1,6.825-10.9V11.1a7.263,7.263,0,0,1,14.526,0v.033a7.237,7.237,0,0,1,4.214.968h0a7.262,7.262,0,0,1,2.609,9.933c-1.813,3.109-9.607,9.954-13.669,9.954M7.254,13a5.377,5.377,0,0,0-4.639,8.089,25.642,25.642,0,0,0,5.609,5.6c2.726,2.107,5.191,3.415,6.433,3.415H15.5c2.983,0,10.348-6.114,12.042-9.02a5.377,5.377,0,0,0-5.98-7.921.942.942,0,0,1-1.168-1.014,10.173,10.173,0,0,0,.066-1.051A5.379,5.379,0,0,0,9.7,11.1a10.361,10.361,0,0,0,.066,1.052A.941.941,0,0,1,8.6,13.168,5.45,5.45,0,0,0,7.254,13" transform="translate(0 -2.294)" fill="#2e3535"/>
              <g id="Grupo_1151741" data-name="Grupo 1151741" transform="translate(12.775 2.489)" opacity="0.25">
                <g id="Grupo_1151740" data-name="Grupo 1151740">
                  <g id="Grupo_1151739-2" data-name="Grupo 1151739" clip-path="url(#clip-path-3)">
                    <path id="Trazado_986485" data-name="Trazado 986485" d="M34.438,32.447H33.6a1.884,1.884,0,0,1,0-3.768h.838c1.591-.095,8.094-5.033,9.6-7.619a2.552,2.552,0,0,0-.915-3.491A2.588,2.588,0,0,0,41.2,17.3l-2.626.666a1.883,1.883,0,0,1-2.336-2.027l.288-2.692a7.272,7.272,0,0,0,.05-.75A2.556,2.556,0,0,0,34.02,9.947a1.884,1.884,0,1,1,0-3.768A6.328,6.328,0,0,1,40.341,12.5a10.837,10.837,0,0,1-.072,1.152h0a6.393,6.393,0,0,1,4.753.663,6.32,6.32,0,0,1,2.272,8.645c-1.693,2.9-9.286,9.488-12.856,9.488" transform="translate(-31.717 -6.179)" fill="#424242"/>
                  </g>
                </g>
              </g>
              <path id="Trazado_986486" data-name="Trazado 986486" d="M58.562,11.032a6.748,6.748,0,0,0-5.079-.71,12.151,12.151,0,0,0,.076-1.231,6.754,6.754,0,0,0-13.508,0,11.933,11.933,0,0,0,.076,1.231,6.752,6.752,0,0,0-7.506,9.946c1.879,3.222,10.2,15.44,13.737,15.44h.894c3.778,0,11.858-12.218,13.737-15.44a6.752,6.752,0,0,0-2.427-9.236" transform="translate(-18.931 -1.397)" fill="#b0ea78"/>
              <path id="Trazado_986487" data-name="Trazado 986487" d="M45.852,35.254h-.894c-4.8,0-14.457-15.749-14.55-15.908A7.694,7.694,0,0,1,37.709,7.8c0-.036,0-.072,0-.106a7.7,7.7,0,0,1,15.392,0c0,.035,0,.07,0,.106a7.672,7.672,0,0,1,4.536,1.021h0A7.693,7.693,0,0,1,60.4,19.346c-.092.158-9.5,15.907-14.55,15.907m-8.808-25.6a5.811,5.811,0,0,0-5.01,8.741C34.7,22.97,42.351,33.369,44.958,33.369h.894c.466,0,2.338-.444,6.841-6.153a88.1,88.1,0,0,0,6.082-8.82,5.81,5.81,0,0,0-6.459-8.558.941.941,0,0,1-1.169-1.011,11.292,11.292,0,0,0,.07-1.133,5.812,5.812,0,0,0-11.624,0,11.07,11.07,0,0,0,.071,1.133.942.942,0,0,1-1.169,1.012,5.87,5.87,0,0,0-1.451-.183" transform="translate(-17.531 0.001)" fill="#2e3535"/>
              <g id="Grupo_1151744" data-name="Grupo 1151744" transform="translate(21.12 0.942)" opacity="0.25">
                <g id="Grupo_1151743" data-name="Grupo 1151743">
                  <g id="Grupo_1151742" data-name="Grupo 1151742" clip-path="url(#clip-path-4)">
                    <path id="Trazado_986488" data-name="Trazado 986488" d="M59.634,35.708h-.892a1.884,1.884,0,1,1,0-3.768H59.4c1.553-.8,7.034-7.25,10.722-13.572a2.985,2.985,0,0,0-1.071-4.083,3.027,3.027,0,0,0-2.247-.313l-2.623.669a1.883,1.883,0,0,1-2.338-2.022l.282-2.691a8.289,8.289,0,0,0,.056-.839,2.987,2.987,0,0,0-5.973,0,1.884,1.884,0,0,1-3.768,0,6.754,6.754,0,0,1,13.508,0,11.926,11.926,0,0,1-.076,1.232h0a6.838,6.838,0,0,1,5.077.708,6.752,6.752,0,0,1,2.428,9.238c-1.456,2.5-9.689,15.23-13.64,15.438l-.1,0" transform="translate(-52.435 -2.338)" fill="#424242"/>
                  </g>
                </g>
              </g>
              <path id="Trazado_986489" data-name="Trazado 986489" d="M67.807,54.836a.942.942,0,0,1-.942-.942V33.731a.942.942,0,1,1,1.883,0V53.894a.942.942,0,0,1-.942.942" transform="translate(-39.934 -19.583)" fill="#2e3535"/>
              <path id="Trazado_986490" data-name="Trazado 986490" d="M40.012,61.723a5.055,5.055,0,1,1-5.055-5.056,5.055,5.055,0,0,1,5.055,5.056" transform="translate(-17.858 -33.843)" fill="#f97373"/>
              <path id="Trazado_986491" data-name="Trazado 986491" d="M33.56,66.323a6,6,0,1,1,6-6,6,6,0,0,1-6,6m0-10.11a4.113,4.113,0,1,0,4.113,4.114,4.118,4.118,0,0,0-4.113-4.114" transform="translate(-16.462 -32.446)" fill="#2e3535"/>
              <path id="Trazado_986492" data-name="Trazado 986492" d="M19.035,61.723a5.055,5.055,0,1,1-5.055-5.056,5.055,5.055,0,0,1,5.055,5.056" transform="translate(-5.33 -33.843)" fill="#f44d4d"/>
              <path id="Trazado_986493" data-name="Trazado 986493" d="M12.584,66.323a6,6,0,1,1,6-6,6,6,0,0,1-6,6m0-10.11A4.113,4.113,0,1,0,16.7,60.326a4.118,4.118,0,0,0-4.113-4.114" transform="translate(-3.934 -32.446)" fill="#2e3535"/>
              <path id="Trazado_986494" data-name="Trazado 986494" d="M118.44,41.9c0,3.682-2.985,16.865-6.667,16.865s-6.667-13.183-6.667-16.865a6.667,6.667,0,1,1,13.335,0" transform="translate(-62.772 -21.043)" fill="#ffa131"/>
              <path id="Trazado_986495" data-name="Trazado 986495" d="M110.376,58.312c-4.961,0-7.61-14.909-7.61-17.807a7.61,7.61,0,1,1,15.219,0c0,2.9-2.648,17.807-7.61,17.807m0-23.533A5.732,5.732,0,0,0,104.65,40.5c0,4.263,3.246,15.923,5.726,15.923S116.1,44.768,116.1,40.5a5.732,5.732,0,0,0-5.726-5.726" transform="translate(-61.375 -19.646)" fill="#2e3535"/>
              <g id="Grupo_1151747" data-name="Grupo 1151747" transform="translate(47.117 14.192)" opacity="0.25">
                <g id="Grupo_1151746" data-name="Grupo 1151746">
                  <g id="Grupo_1151745" data-name="Grupo 1151745" clip-path="url(#clip-path-5)">
                    <path id="Trazado_986496" data-name="Trazado 986496" d="M118.866,58.747a1.884,1.884,0,0,1-.953-3.51c1.176-1.2,3.851-9.376,3.851-13.334a2.9,2.9,0,0,0-2.9-2.9,1.884,1.884,0,1,1,0-3.767,6.675,6.675,0,0,1,6.667,6.667c0,3.387-2.63,15.1-5.846,16.655a1.878,1.878,0,0,1-.82.189m-.823-3.579h0" transform="translate(-116.981 -35.236)" fill="#424242"/>
                  </g>
                </g>
              </g>
              <path id="Trazado_986497" data-name="Trazado 986497" d="M120.263,21.21a.942.942,0,0,1-.942-.942V11.116a.942.942,0,1,1,1.883,0v9.152a.942.942,0,0,1-.942.942" transform="translate(-71.262 -6.076)" fill="#2e3535"/>
              <path id="Trazado_986498" data-name="Trazado 986498" d="M120.262,25.6a.942.942,0,0,1-.82-1.4l3.486-6.188a.942.942,0,0,1,1.641.924l-3.486,6.188a.942.942,0,0,1-.821.48" transform="translate(-71.262 -10.471)" fill="#2e3535"/>
              <path id="Trazado_986499" data-name="Trazado 986499" d="M90.308,53.576c0,3.683-2.985,16.865-6.667,16.865s-6.667-13.182-6.667-16.865a6.667,6.667,0,1,1,13.335,0" transform="translate(-45.97 -28.015)" fill="#ffa131"/>
              <path id="Trazado_986500" data-name="Trazado 986500" d="M82.243,69.987c-4.961,0-7.61-14.909-7.61-17.807a7.61,7.61,0,1,1,15.219,0c0,2.9-2.648,17.807-7.61,17.807m0-23.533a5.732,5.732,0,0,0-5.725,5.725c0,4.263,3.246,15.923,5.725,15.923s5.726-11.66,5.726-15.923a5.732,5.732,0,0,0-5.726-5.725" transform="translate(-44.573 -26.618)" fill="#2e3535"/>
              <g id="Grupo_1151750" data-name="Grupo 1151750" transform="translate(35.786 18.894)" opacity="0.25">
                <g id="Grupo_1151749" data-name="Grupo 1151749">
                  <g id="Grupo_1151748" data-name="Grupo 1151748" clip-path="url(#clip-path-6)">
                    <path id="Trazado_986501" data-name="Trazado 986501" d="M90.734,70.42a1.884,1.884,0,0,1-.952-3.511c1.176-1.2,3.85-9.376,3.85-13.333a2.9,2.9,0,0,0-2.9-2.9,1.884,1.884,0,1,1,0-3.767A6.674,6.674,0,0,1,97.4,53.576c0,3.388-2.63,15.1-5.847,16.656a1.881,1.881,0,0,1-.818.188m-.821-3.58h0" transform="translate(-88.848 -46.909)" fill="#424242"/>
                  </g>
                </g>
              </g>
              <path id="Trazado_986502" data-name="Trazado 986502" d="M92.13,38.943A.942.942,0,0,1,91.188,38V32.936a.942.942,0,1,1,1.883,0V38a.942.942,0,0,1-.942.942" transform="translate(-54.46 -19.108)" fill="#2e3535"/>
              <path id="Trazado_986503" data-name="Trazado 986503" d="M92.129,42.7a.942.942,0,0,1-.661-1.613l2.571-2.533a.942.942,0,0,1,1.322,1.342l-2.57,2.533a.941.941,0,0,1-.661.271" transform="translate(-54.46 -22.863)" fill="#2e3535"/>
              <rect id="Rectángulo_408259" data-name="Rectángulo 408259" width="55.501" height="10.391" transform="translate(1.169 28.163)" fill="#e09b4f"/>
              <path id="Trazado_986504" data-name="Trazado 986504" d="M57.007,79.857H1.505a.942.942,0,0,1-.942-.942V68.524a.942.942,0,0,1,.942-.942h55.5a.942.942,0,0,1,.942.942V78.915a.942.942,0,0,1-.942.942M2.447,77.973H56.065V69.466H2.447Z" transform="translate(-0.336 -40.362)" fill="#2e3535"/>
              <g id="Grupo_1151753" data-name="Grupo 1151753" transform="translate(26.864 34.786)" opacity="0.25">
                <g id="Grupo_1151752" data-name="Grupo 1151752">
                  <g id="Grupo_1151751" data-name="Grupo 1151751" clip-path="url(#clip-path-7)">
                    <path id="Trazado_986505" data-name="Trazado 986505" d="M94.62,90.134H68.581a1.884,1.884,0,0,1,0-3.768H94.62a1.884,1.884,0,0,1,0,3.768" transform="translate(-66.697 -86.366)" fill="#424242"/>
                  </g>
                </g>
              </g>
              <rect id="Rectángulo_408261" data-name="Rectángulo 408261" width="55.501" height="10.393" transform="translate(1.169 38.553)" fill="#ffc988"/>
              <path id="Trazado_986506" data-name="Trazado 986506" d="M57.007,105.657H1.505a.942.942,0,0,1-.942-.942V94.323a.942.942,0,0,1,.942-.942h55.5a.942.942,0,0,1,.942.942v10.392a.942.942,0,0,1-.942.942m-54.56-1.884H56.065V95.265H2.447Z" transform="translate(-0.336 -55.77)" fill="#2e3535"/>
              <g id="Grupo_1151756" data-name="Grupo 1151756" transform="translate(26.864 45.178)" opacity="0.25">
                <g id="Grupo_1151755" data-name="Grupo 1151755">
                  <g id="Grupo_1151754" data-name="Grupo 1151754" clip-path="url(#clip-path-7)">
                    <path id="Trazado_986507" data-name="Trazado 986507" d="M94.62,115.936H68.581a1.884,1.884,0,0,1,0-3.768H94.62a1.884,1.884,0,0,1,0,3.768" transform="translate(-66.697 -112.168)" fill="#424242"/>
                  </g>
                </g>
              </g>
              <rect id="Rectángulo_408263" data-name="Rectángulo 408263" width="55.501" height="10.392" transform="translate(1.169 48.946)" fill="#e09b4f"/>
              <path id="Trazado_986508" data-name="Trazado 986508" d="M57.007,131.459H1.505a.942.942,0,0,1-.942-.942V120.125a.942.942,0,0,1,.942-.942h55.5a.942.942,0,0,1,.942.942v10.392a.942.942,0,0,1-.942.942m-54.56-1.884H56.065v-8.508H2.447Z" transform="translate(-0.336 -71.18)" fill="#2e3535"/>
              <g id="Grupo_1151759" data-name="Grupo 1151759" transform="translate(8.781 55.57)" opacity="0.25">
                <g id="Grupo_1151758" data-name="Grupo 1151758">
                  <g id="Grupo_1151757" data-name="Grupo 1151757" clip-path="url(#clip-path-9)">
                    <path id="Trazado_986509" data-name="Trazado 986509" d="M67.807,141.737H23.685a1.884,1.884,0,1,1,0-3.768H67.807a1.884,1.884,0,1,1,0,3.768" transform="translate(-21.801 -137.969)" fill="#424242"/>
                  </g>
                </g>
              </g>
              <path id="Trazado_986510" data-name="Trazado 986510" d="M78.617,63.008H75.576a.942.942,0,0,1,0-1.884h3.042a.942.942,0,0,1,0,1.884" transform="translate(-44.574 -36.505)" fill="#2e3535"/>
              <path id="Trazado_986511" data-name="Trazado 986511" d="M131.373,61.807h-2.454a.942.942,0,0,1,0-1.884h2.454a.942.942,0,0,1,0,1.884" transform="translate(-76.431 -35.788)" fill="#2e3535"/>
              <path id="Trazado_986512" data-name="Trazado 986512" d="M134.226,52.062H132.48a.942.942,0,0,1,0-1.884h1.747a.942.942,0,0,1,0,1.884" transform="translate(-78.558 -29.968)" fill="#2e3535"/>
              <path id="Trazado_986513" data-name="Trazado 986513" d="M69.976,82.365a.967.967,0,0,1-.185-.021.936.936,0,0,1-.338-.141.659.659,0,0,1-.141-.117.92.92,0,0,1-.258-.85A.863.863,0,0,1,69.2,80.9a.785.785,0,0,1,.117-.145,1,1,0,0,1,.141-.117,1.275,1.275,0,0,1,.165-.085,1.192,1.192,0,0,1,.173-.057.957.957,0,0,1,.85.258.785.785,0,0,1,.117.145.864.864,0,0,1,.141.338.92.92,0,0,1-.258.85.659.659,0,0,1-.141.117.936.936,0,0,1-.338.141.967.967,0,0,1-.185.021" transform="translate(-41.229 -48.064)" fill="#2e3535"/>
              <path id="Trazado_986514" data-name="Trazado 986514" d="M69.976,108.168a1,1,0,0,1-.185-.02.835.835,0,0,1-.173-.053.811.811,0,0,1-.165-.088.66.66,0,0,1-.141-.117.946.946,0,0,1-.278-.665.945.945,0,0,1,1.128-.922.811.811,0,0,1,.173.052,1.061,1.061,0,0,1,.165.085.807.807,0,0,1,.141.121.648.648,0,0,1,.117.141.919.919,0,0,1,.089.162.889.889,0,0,1,.052.177.967.967,0,0,1,.02.185,1,1,0,0,1-.02.185.93.93,0,0,1-.258.479.932.932,0,0,1-.665.278" transform="translate(-41.229 -63.476)" fill="#2e3535"/>
              <path id="Trazado_986515" data-name="Trazado 986515" d="M70.266,133.971a.942.942,0,0,1-.942-.942.96.96,0,0,1,.016-.185,1,1,0,0,1,.056-.177.881.881,0,0,1,.085-.161.791.791,0,0,1,.117-.141.948.948,0,0,1,.85-.258.9.9,0,0,1,.177.052.782.782,0,0,1,.161.089.8.8,0,0,1,.145.117.65.65,0,0,1,.117.141,1.254,1.254,0,0,1,.089.161,1.474,1.474,0,0,1,.052.177.966.966,0,0,1-.258.85.8.8,0,0,1-.145.117.782.782,0,0,1-.161.089.9.9,0,0,1-.177.052.956.956,0,0,1-.181.02" transform="translate(-41.402 -78.887)" fill="#2e3535"/>
              <path id="Trazado_986516" data-name="Trazado 986516" d="M24.8,82.365a.967.967,0,0,1-.185-.021.915.915,0,0,1-.177-.052.886.886,0,0,1-.161-.088.659.659,0,0,1-.141-.117.939.939,0,0,1-.278-.665.97.97,0,0,1,.02-.185.922.922,0,0,1,.053-.177.889.889,0,0,1,.088-.162.787.787,0,0,1,.117-.145.957.957,0,0,1,.849-.258,1.161,1.161,0,0,1,.173.057,1.225,1.225,0,0,1,.165.085,1.009,1.009,0,0,1,.141.117.785.785,0,0,1,.117.145.891.891,0,0,1,.089.162.921.921,0,0,1,.052.177.92.92,0,0,1-.258.85.662.662,0,0,1-.141.117.906.906,0,0,1-.165.088.8.8,0,0,1-.173.052.962.962,0,0,1-.185.021" transform="translate(-14.246 -48.064)" fill="#2e3535"/>
              <path id="Trazado_986517" data-name="Trazado 986517" d="M24.8,108.168a1,1,0,0,1-.185-.02.827.827,0,0,1-.173-.053.8.8,0,0,1-.165-.088.66.66,0,0,1-.141-.117.946.946,0,0,1-.278-.665.932.932,0,0,1,.278-.665.807.807,0,0,1,.141-.121,1.043,1.043,0,0,1,.165-.085.8.8,0,0,1,.173-.052.945.945,0,0,1,1.128.922.946.946,0,0,1-.278.665.662.662,0,0,1-.141.117.905.905,0,0,1-.165.088.82.82,0,0,1-.173.053.994.994,0,0,1-.185.02" transform="translate(-14.246 -63.476)" fill="#2e3535"/>
              <path id="Trazado_986518" data-name="Trazado 986518" d="M25.082,133.968a.956.956,0,0,1-.181-.02.9.9,0,0,1-.177-.052.782.782,0,0,1-.161-.089.8.8,0,0,1-.145-.117.966.966,0,0,1-.258-.85,1,1,0,0,1,.056-.177.881.881,0,0,1,.085-.161.792.792,0,0,1,.117-.141.8.8,0,0,1,.145-.117.782.782,0,0,1,.161-.089.9.9,0,0,1,.177-.052.934.934,0,0,1,.85.258.792.792,0,0,1,.117.141.881.881,0,0,1,.085.161,1,1,0,0,1,.056.177.966.966,0,0,1-.258.85.949.949,0,0,1-.669.278" transform="translate(-14.419 -78.885)" fill="#2e3535"/>
              <path id="Trazado_986519" data-name="Trazado 986519" d="M115.156,82.365a1,1,0,0,1-.185-.021.887.887,0,0,1-.173-.052.933.933,0,0,1-.165-.088.926.926,0,0,1-.4-.967.863.863,0,0,1,.141-.338.785.785,0,0,1,.117-.145c.044-.041.093-.081.141-.117a1.275,1.275,0,0,1,.165-.085,1.378,1.378,0,0,1,.173-.057.965.965,0,0,1,.854.258,1.361,1.361,0,0,1,.117.145,1.205,1.205,0,0,1,.085.162.893.893,0,0,1,.052.177.939.939,0,0,1,.02.185.953.953,0,0,1-.274.665.8.8,0,0,1-.145.117.9.9,0,0,1-.161.088.846.846,0,0,1-.177.052.966.966,0,0,1-.185.021" transform="translate(-68.212 -48.064)" fill="#2e3535"/>
              <path id="Trazado_986520" data-name="Trazado 986520" d="M115.156,108.165a.932.932,0,0,1-.665-.278.928.928,0,0,1-.258-.479,1,1,0,0,1-.02-.185.966.966,0,0,1,.02-.185.889.889,0,0,1,.052-.177.919.919,0,0,1,.089-.162.648.648,0,0,1,.117-.141.791.791,0,0,1,.306-.205.886.886,0,0,1,.173-.052.822.822,0,0,1,.371,0,.845.845,0,0,1,.177.052,1.228,1.228,0,0,1,.161.085,1.021,1.021,0,0,1,.145.121.945.945,0,0,1,.274.665.96.96,0,0,1-.274.665.8.8,0,0,1-.145.117.9.9,0,0,1-.161.088.872.872,0,0,1-.177.053,1,1,0,0,1-.185.02" transform="translate(-68.212 -63.473)" fill="#2e3535"/>
              <path id="Trazado_986521" data-name="Trazado 986521" d="M115.445,133.971a.942.942,0,0,1-.942-.942.96.96,0,0,1,.016-.185,1,1,0,0,1,.056-.177,1.227,1.227,0,0,1,.085-.161.791.791,0,0,1,.117-.141.948.948,0,0,1,.85-.258.9.9,0,0,1,.177.052.782.782,0,0,1,.161.089.8.8,0,0,1,.145.117.65.65,0,0,1,.117.141,1.254,1.254,0,0,1,.089.161,1.474,1.474,0,0,1,.052.177.96.96,0,0,1,.016.185.935.935,0,0,1-.274.665.8.8,0,0,1-.145.117.782.782,0,0,1-.161.089.9.9,0,0,1-.177.052.956.956,0,0,1-.181.02" transform="translate(-68.384 -78.887)" fill="#2e3535"/>
            </g>
          </g>
        </g>
      </g>
    </g>
    <g transform="matrix(1, 0, 0, 1, 454, 1814)" filter="url(#Fondo-3)">
      <path id="Fondo-9" data-name="Fondo" d="M8,0H179a8,8,0,0,1,8,8V250a8,8,0,0,1-8,8H8a8,8,0,0,1-8-8V8A8,8,0,0,1,8,0Z" transform="translate(238 27)" fill="#fff"/>
    </g>
    <path id="Titulo-2" data-name="Titulo" d="M23.146,18.517V15.7a5.4,5.4,0,0,0,1.661.962,5.34,5.34,0,0,0,1.811.321,4.015,4.015,0,0,0,.936-.1,2.193,2.193,0,0,0,.668-.268,1.169,1.169,0,0,0,.4-.4,1.009,1.009,0,0,0,.132-.505,1.092,1.092,0,0,0-.211-.659,2.27,2.27,0,0,0-.576-.536,6.015,6.015,0,0,0-.866-.475q-.5-.229-1.081-.466a5.517,5.517,0,0,1-2.2-1.5,3.281,3.281,0,0,1-.725-2.145,3.416,3.416,0,0,1,.4-1.692,3.359,3.359,0,0,1,1.077-1.165A4.828,4.828,0,0,1,26.144,6.4a8.106,8.106,0,0,1,1.9-.215,11.418,11.418,0,0,1,1.745.119,6.861,6.861,0,0,1,1.4.365V9.3a4.239,4.239,0,0,0-.69-.387,5.466,5.466,0,0,0-.769-.277,5.866,5.866,0,0,0-.787-.163,5.567,5.567,0,0,0-.743-.053,3.873,3.873,0,0,0-.879.092,2.254,2.254,0,0,0-.668.259,1.29,1.29,0,0,0-.422.4.948.948,0,0,0-.149.523,1,1,0,0,0,.167.567,1.916,1.916,0,0,0,.475.475,5.037,5.037,0,0,0,.747.439q.439.215.993.444a11.067,11.067,0,0,1,1.358.672,4.827,4.827,0,0,1,1.033.8,3.133,3.133,0,0,1,.659,1.024,3.618,3.618,0,0,1,.229,1.34,3.59,3.59,0,0,1-.4,1.771,3.247,3.247,0,0,1-1.085,1.16,4.707,4.707,0,0,1-1.6.637,9.219,9.219,0,0,1-1.92.193,10.678,10.678,0,0,1-1.973-.176A5.956,5.956,0,0,1,23.146,18.517ZM41.63,15.291H35.759q.141,1.96,2.47,1.96a4.822,4.822,0,0,0,2.61-.7v2a6.858,6.858,0,0,1-3.243.668,4.565,4.565,0,0,1-3.384-1.208,4.566,4.566,0,0,1-1.2-3.371,4.816,4.816,0,0,1,1.3-3.551,4.334,4.334,0,0,1,3.2-1.31,3.933,3.933,0,0,1,3.045,1.169,4.5,4.5,0,0,1,1.077,3.173Zm-2.575-1.705q0-1.934-1.564-1.934a1.494,1.494,0,0,0-1.156.554,2.513,2.513,0,0,0-.593,1.38ZM50.1,18.675a5.492,5.492,0,0,1-2.716.545,4.593,4.593,0,0,1-3.357-1.257,4.341,4.341,0,0,1-1.283-3.243A4.782,4.782,0,0,1,44.122,11.1,5.083,5.083,0,0,1,47.8,9.78a4.72,4.72,0,0,1,2.3.422v2.355a3.166,3.166,0,0,0-1.942-.65,2.559,2.559,0,0,0-1.894.7,2.607,2.607,0,0,0-.7,1.929,2.565,2.565,0,0,0,.668,1.876,2.455,2.455,0,0,0,1.837.681,3.666,3.666,0,0,0,2.03-.65ZM60.474,19H57.705V17.629h-.044A3.141,3.141,0,0,1,54.91,19.22q-3.129,0-3.129-3.788V10H54.55v5.186q0,1.907,1.512,1.907a1.5,1.5,0,0,0,1.2-.523,2.109,2.109,0,0,0,.448-1.419V10h2.769ZM71.5,19H68.735V14q0-2.092-1.494-2.092a1.483,1.483,0,0,0-1.187.554,2.109,2.109,0,0,0-.466,1.406V19H62.812V10h2.777v1.424h.035A3.183,3.183,0,0,1,68.516,9.78q2.988,0,2.988,3.709Zm11,0H79.73V17.761H79.7a3.114,3.114,0,0,1-2.786,1.459,3.412,3.412,0,0,1-2.716-1.191A4.93,4.93,0,0,1,73.165,14.7,5.366,5.366,0,0,1,74.3,11.125,3.7,3.7,0,0,1,77.27,9.78,2.527,2.527,0,0,1,79.7,11.028h.035V5.676h2.777Zm-2.725-4.377v-.677a2.13,2.13,0,0,0-.51-1.459,1.8,1.8,0,0,0-2.769.145,3.367,3.367,0,0,0-.519,1.991,2.914,2.914,0,0,0,.5,1.828,1.779,1.779,0,0,0,2.764-.035A2.821,2.821,0,0,0,79.783,14.623ZM92.334,19H89.706V17.708h-.035A2.933,2.933,0,0,1,86.99,19.22a2.8,2.8,0,0,1-2.061-.743,2.661,2.661,0,0,1-.751-1.982q0-2.619,3.1-3.023l2.443-.325q0-1.477-1.6-1.477a5.46,5.46,0,0,0-3.059.958V10.536a6.881,6.881,0,0,1,1.586-.527,8.339,8.339,0,0,1,1.833-.229q3.85,0,3.85,3.841Zm-2.61-3.656v-.606l-1.635.211q-1.354.176-1.354,1.222a1.01,1.01,0,0,0,.33.778,1.266,1.266,0,0,0,.892.3,1.644,1.644,0,0,0,1.274-.541A1.952,1.952,0,0,0,89.724,15.344ZM100.4,12.5a2.409,2.409,0,0,0-1.169-.272,1.684,1.684,0,0,0-1.415.664,2.9,2.9,0,0,0-.51,1.806V19H94.531V10h2.777v1.67h.035a2.4,2.4,0,0,1,2.373-1.828,1.788,1.788,0,0,1,.686.105Zm2.769-3.929a1.622,1.622,0,0,1-1.151-.417,1.345,1.345,0,0,1-.448-1.024,1.3,1.3,0,0,1,.448-1.02,1.88,1.88,0,0,1,2.307,0,1.3,1.3,0,0,1,.444,1.02,1.34,1.34,0,0,1-.444,1.037A1.65,1.65,0,0,1,103.171,8.576ZM104.542,19h-2.777V10h2.777Zm6.627.22a4.838,4.838,0,0,1-3.538-1.261,4.573,4.573,0,0,1-1.288-3.423,4.573,4.573,0,0,1,1.336-3.494,5.048,5.048,0,0,1,3.612-1.261,4.78,4.78,0,0,1,3.516,1.261,4.483,4.483,0,0,1,1.274,3.335,4.759,4.759,0,0,1-1.314,3.542A4.892,4.892,0,0,1,111.169,19.22Zm.07-7.312a1.852,1.852,0,0,0-1.529.677,2.984,2.984,0,0,0-.545,1.916q0,2.593,2.092,2.593,2,0,2-2.663Q113.252,11.907,111.239,11.907Z" transform="translate(716 2013)" fill="#212429"/>
    <g id="Icono-2" data-name="Icono" transform="translate(406.28 1188)">
      <g transform="matrix(1, 0, 0, 1, 47.72, 626)" filter="url(#Fondo-4)">
        <g id="Fondo-10" data-name="Fondo" transform="translate(287 69)" fill="#e6d567">
          <path d="M 45 88.5 C 39.12687683105469 88.5 33.43022537231445 87.35007476806641 28.06830024719238 85.08217620849609 C 22.88852500915527 82.89131164550781 18.23629951477051 79.75458526611328 14.2408504486084 75.75914764404297 C 10.24541282653809 71.76370239257812 7.108687400817871 67.11147308349609 4.917825222015381 61.93170166015625 C 2.649924993515015 56.56977462768555 1.5 50.87312316894531 1.5 45 C 1.5 39.12687683105469 2.649924993515015 33.43022537231445 4.917825222015381 28.06830024719238 C 7.108687400817871 22.88852500915527 10.24541282653809 18.23629951477051 14.2408504486084 14.2408504486084 C 18.23629951477051 10.24541282653809 22.88852500915527 7.108687400817871 28.06830024719238 4.917825222015381 C 33.43022537231445 2.649924993515015 39.12687683105469 1.5 45 1.5 C 50.87312316894531 1.5 56.56977462768555 2.649924993515015 61.93170166015625 4.917825222015381 C 67.11147308349609 7.108687400817871 71.76370239257812 10.24541282653809 75.75914764404297 14.2408504486084 C 79.75458526611328 18.23629951477051 82.89131164550781 22.88852500915527 85.08217620849609 28.06830024719238 C 87.35007476806641 33.43022537231445 88.5 39.12687683105469 88.5 45 C 88.5 50.87312316894531 87.35007476806641 56.56977462768555 85.08217620849609 61.93170166015625 C 82.89131164550781 67.11147308349609 79.75458526611328 71.76370239257812 75.75914764404297 75.75914764404297 C 71.76370239257812 79.75458526611328 67.11147308349609 82.89131164550781 61.93170166015625 85.08217620849609 C 56.56977462768555 87.35007476806641 50.87312316894531 88.5 45 88.5 Z" stroke="none"/>
          <path d="M 45 3 C 39.32871246337891 3 33.82865524291992 4.110054016113281 28.65262985229492 6.299339294433594 C 23.65165710449219 8.414573669433594 19.15968322753906 11.44334411621094 15.301513671875 15.301513671875 C 11.44334411621094 19.15968322753906 8.414573669433594 23.65165710449219 6.299339294433594 28.65262985229492 C 4.110054016113281 33.82865524291992 3 39.32871246337891 3 45 C 3 50.67128753662109 4.110054016113281 56.17134475708008 6.299339294433594 61.34737396240234 C 8.414573669433594 66.34834289550781 11.44334411621094 70.84031677246094 15.301513671875 74.698486328125 C 19.15968322753906 78.55665588378906 23.65165710449219 81.58542633056641 28.65262985229492 83.70066070556641 C 33.82865524291992 85.88994598388672 39.32871246337891 87 45 87 C 50.67128753662109 87 56.17134475708008 85.88994598388672 61.34737396240234 83.70066070556641 C 66.34834289550781 81.58542633056641 70.84031677246094 78.55665588378906 74.698486328125 74.698486328125 C 78.55665588378906 70.84031677246094 81.58542633056641 66.34834289550781 83.70066070556641 61.34737396240234 C 85.88994598388672 56.17134475708008 87 50.67128753662109 87 45 C 87 39.32871246337891 85.88994598388672 33.82865524291992 83.70066070556641 28.65262985229492 C 81.58542633056641 23.65165710449219 78.55665588378906 19.15968322753906 74.698486328125 15.301513671875 C 70.84031677246094 11.44334411621094 66.34834289550781 8.414573669433594 61.34737396240234 6.299339294433594 C 56.17134475708008 4.110054016113281 50.67128753662109 3 45 3 M 45 0 C 69.85281372070312 0 90 20.14718627929688 90 45 C 90 69.85281372070312 69.85281372070312 90 45 90 C 20.14718627929688 90 0 69.85281372070312 0 45 C 0 20.14718627929688 20.14718627929688 0 45 0 Z" stroke="none" fill="#bca724"/>
        </g>
      </g>
      <g id="Pmp_jack" data-name="Pmp jack" transform="translate(347.476 708.689)">
        <path id="Trazado_986449" data-name="Trazado 986449" d="M40.1,52.967,33.073,26.74a6.5,6.5,0,0,1-3.508,0L22.54,52.967Z" transform="translate(-1.532 -1.805)" fill="none"/>
        <path id="Trazado_986450" data-name="Trazado 986450" d="M21.134,55H3v5.568H56.827V55H21.134Z" transform="translate(-0.126 -3.838)" fill="#57565c"/>
        <path id="Trazado_986451" data-name="Trazado 986451" d="M37.993,19.431a6.49,6.49,0,0,0-12.965-.371A3.334,3.334,0,0,0,25,19.5a6.467,6.467,0,0,0,.835,3.193,6.261,6.261,0,0,0,.64.919A6.5,6.5,0,0,0,37.993,19.5Zm-4.327,1.8a2.776,2.776,0,0,1-1.413.947,2.715,2.715,0,0,1-.756.1,2.686,2.686,0,0,1-.742-.1,2.735,2.735,0,0,1-1.392-.908,2.94,2.94,0,0,1-.305-.428,2.736,2.736,0,0,1-.344-1.348l.019-.135,0-.068A2.767,2.767,0,0,1,31.5,16.712a2.8,2.8,0,0,1,2.323,1.239,2.751,2.751,0,0,1,.461,1.505,2.7,2.7,0,0,1-.614,1.774Z" transform="translate(-1.709 -0.816)" fill="#3e3d42"/>
        <path id="Trazado_986452" data-name="Trazado 986452" d="M31.784,17a2.768,2.768,0,0,0-2.764,2.581l0,.068L29,19.784a2.736,2.736,0,0,0,.344,1.348,2.871,2.871,0,0,0,.305.428,2.735,2.735,0,0,0,1.392.908,2.69,2.69,0,0,0,.742.1,2.724,2.724,0,0,0,.756-.1,2.77,2.77,0,0,0,1.413-.947,2.7,2.7,0,0,0,.614-1.774,2.751,2.751,0,0,0-.461-1.505A2.8,2.8,0,0,0,31.784,17Z" transform="translate(-1.997 -1.104)" fill="#cca400"/>
        <path id="Trazado_986453" data-name="Trazado 986453" d="M23.407,19.53,2.47,25.135l.965,3.592,20.779-5.568a6.467,6.467,0,0,1-.835-3.193,3.334,3.334,0,0,1,.028-.436Z" transform="translate(-0.088 -1.286)" fill="#cca400"/>
        <path id="Trazado_986454" data-name="Trazado 986454" d="M51.156,16.112l-.845-1.7-.121-1.884L37.82,15.843a6.462,6.462,0,0,1,1.1,3.554Z" transform="translate(-2.631 -0.783)" fill="#cca400"/>
        <path id="Trazado_986455" data-name="Trazado 986455" d="M52.078,15.414l3.35,6.793,5.383-1.448L60.2,11.322,56,2.83,50.63,4.278l.483,7.554.121,1.884Z" transform="translate(-3.553 -0.085)" fill="#57565c"/>
        <path id="Trazado_986456" data-name="Trazado 986456" d="M33.89,26.574,40.915,52.8h3.842l-7.6-28.371A6.43,6.43,0,0,1,33.89,26.574Z" transform="translate(-2.349 -1.639)" fill="#c6c5ca"/>
        <path id="Trazado_986457" data-name="Trazado 986457" d="M29.268,26.574A6.43,6.43,0,0,1,26,24.43L18.4,52.8h3.842Z" transform="translate(-1.234 -1.639)" fill="#c6c5ca"/>
        <path id="Trazado_986458" data-name="Trazado 986458" d="M28.856,22.072a3.686,3.686,0,0,0,1.86,1.217,3.58,3.58,0,0,0,1,.135,3.635,3.635,0,0,0,1.005-.138A3.722,3.722,0,0,0,34.8,17.648a3.708,3.708,0,0,0-6.782,1.8L28,19.712a3.546,3.546,0,0,0,.855,2.36Zm1.02-2.5a1.837,1.837,0,0,1,1.837-1.711,1.871,1.871,0,0,1,1.552.827,1.855,1.855,0,0,1-.1,2.179,1.866,1.866,0,0,1-.945.638,1.834,1.834,0,0,1-1.926-.605,2.009,2.009,0,0,1-.209-.289,1.792,1.792,0,0,1-.225-.835Z" transform="translate(-1.925 -1.032)" fill="#231f20"/>
        <path id="Trazado_986459" data-name="Trazado 986459" d="M35.823,22.99a7.353,7.353,0,0,0,1.361-3.655l10.843-2.91,3.355,6.792,6.854-1.842L57.56,10.993,52.946,1.652,46.1,3.494l.484,7.554L35.547,14A7.408,7.408,0,0,0,22.47,17.511L1.244,23.193l1.447,5.385,2.291-.614,5.963,22.271h-9v7.424H57.629V50.234H43.121l-7.3-27.244ZM25.255,24.556c.089.069.187.124.279.188.111.079.222.156.338.228.195.122.4.229.6.332.112.057.222.118.337.168.035.016.068.037.1.052L20.3,50.233h-1.92l6.88-25.678ZM28.7,26.021a7.076,7.076,0,0,0,2.168,0l6.486,24.213H22.218L28.7,26.021Zm3.957-.5c.036-.015.069-.036.1-.052.114-.05.222-.11.333-.166.205-.1.406-.21.6-.331.12-.074.233-.154.348-.235.09-.063.187-.117.273-.185L41.2,50.235H39.28L32.662,25.526Zm19.3-21.686,3.775,7.643.551,8.495L52.37,21.029l-2.517-5.1.007,0-1.266-2.547-.543-8.494,3.9-1.052Zm-5.25,9.1.06.94.42.851-10.077,2.7a7.229,7.229,0,0,0-.221-.929c-.017-.054-.042-.1-.059-.159-.078-.234-.158-.468-.259-.694L46.7,12.937Zm-16.919.174a5.554,5.554,0,0,1,5.568,5.509v.058h0a5.435,5.435,0,0,1-1.269,3.528,5.363,5.363,0,0,1-.583.614c-.011.01-.024.018-.035.027a5.542,5.542,0,0,1-7.991-.651l0,0a5.441,5.441,0,0,1-.542-.776,5.586,5.586,0,0,1-.716-2.737,2.338,2.338,0,0,1,.019-.306v-.006l.112-.817a5.558,5.558,0,0,1,5.437-4.438ZM3.519,24.505,22.4,19.45c0,.032.012.062.016.094.017.144.046.285.071.428.03.168.057.336.1.5.034.137.08.27.122.406s.069.257.114.382L4,26.3l-.484-1.8Zm3.257,2.977,16.94-4.54c.012.017.025.032.036.048l-7.3,27.242H12.866Zm49,24.607V55.8H3.8V52.089Z" fill="#231f20"/>
      </g>
    </g>
    <g transform="matrix(1, 0, 0, 1, 454, 1814)" filter="url(#Fondo-5)">
      <path id="Fondo-11" data-name="Fondo" d="M8,0H178a8,8,0,0,1,8,8V250a8,8,0,0,1-8,8H8a8,8,0,0,1-8-8V8A8,8,0,0,1,8,0Z" transform="translate(450 27)" fill="#fff"/>
    </g>
    <path id="Titulo-3" data-name="Titulo" d="M43.015,8.708H39.42V19H36.573V8.708H33V6.4h10.02Zm7.893,6.583H45.037q.141,1.96,2.47,1.96a4.822,4.822,0,0,0,2.61-.7v2a6.858,6.858,0,0,1-3.243.668,4.565,4.565,0,0,1-3.384-1.208,4.566,4.566,0,0,1-1.2-3.371,4.816,4.816,0,0,1,1.3-3.551,4.334,4.334,0,0,1,3.2-1.31,3.933,3.933,0,0,1,3.045,1.169,4.5,4.5,0,0,1,1.077,3.173Zm-2.575-1.705q0-1.934-1.564-1.934a1.494,1.494,0,0,0-1.156.554,2.513,2.513,0,0,0-.593,1.38Zm10.1-1.081a2.409,2.409,0,0,0-1.169-.272,1.684,1.684,0,0,0-1.415.664,2.9,2.9,0,0,0-.51,1.806V19H52.56V10h2.777v1.67h.035a2.4,2.4,0,0,1,2.373-1.828,1.788,1.788,0,0,1,.686.105Zm8.042,6.17a5.492,5.492,0,0,1-2.716.545A4.593,4.593,0,0,1,60.4,17.963a4.341,4.341,0,0,1-1.283-3.243A4.782,4.782,0,0,1,60.492,11.1,5.083,5.083,0,0,1,64.17,9.78a4.72,4.72,0,0,1,2.3.422v2.355a3.166,3.166,0,0,0-1.942-.65,2.559,2.559,0,0,0-1.894.7,2.607,2.607,0,0,0-.7,1.929,2.565,2.565,0,0,0,.668,1.876,2.455,2.455,0,0,0,1.837.681,3.666,3.666,0,0,0,2.03-.65ZM69.7,8.576a1.622,1.622,0,0,1-1.151-.417A1.345,1.345,0,0,1,68.1,7.135a1.3,1.3,0,0,1,.448-1.02,1.88,1.88,0,0,1,2.307,0,1.3,1.3,0,0,1,.444,1.02,1.34,1.34,0,0,1-.444,1.037A1.65,1.65,0,0,1,69.7,8.576ZM71.07,19H68.292V10H71.07ZM80.9,19H78.268V17.708h-.035a2.933,2.933,0,0,1-2.681,1.512,2.8,2.8,0,0,1-2.061-.743A2.661,2.661,0,0,1,72.74,16.5q0-2.619,3.1-3.023l2.443-.325q0-1.477-1.6-1.477a5.46,5.46,0,0,0-3.059.958V10.536a6.881,6.881,0,0,1,1.586-.527,8.339,8.339,0,0,1,1.833-.229q3.85,0,3.85,3.841Zm-2.61-3.656v-.606l-1.635.211Q75.3,15.124,75.3,16.17a1.01,1.01,0,0,0,.33.778,1.266,1.266,0,0,0,.892.3,1.644,1.644,0,0,0,1.274-.541A1.952,1.952,0,0,0,78.286,15.344ZM88.964,12.5a2.409,2.409,0,0,0-1.169-.272,1.684,1.684,0,0,0-1.415.664,2.9,2.9,0,0,0-.51,1.806V19H83.093V10h2.777v1.67h.035a2.4,2.4,0,0,1,2.373-1.828,1.788,1.788,0,0,1,.686.105Zm2.769-3.929a1.622,1.622,0,0,1-1.151-.417,1.345,1.345,0,0,1-.448-1.024,1.3,1.3,0,0,1,.448-1.02,1.88,1.88,0,0,1,2.307,0,1.3,1.3,0,0,1,.444,1.02,1.34,1.34,0,0,1-.444,1.037A1.65,1.65,0,0,1,91.733,8.576ZM93.1,19H90.327V10H93.1Zm6.627.22a4.838,4.838,0,0,1-3.538-1.261,4.573,4.573,0,0,1-1.288-3.423,4.573,4.573,0,0,1,1.336-3.494A5.048,5.048,0,0,1,99.854,9.78a4.78,4.78,0,0,1,3.516,1.261,4.483,4.483,0,0,1,1.274,3.335,4.759,4.759,0,0,1-1.314,3.542A4.892,4.892,0,0,1,99.731,19.22Zm.07-7.312a1.852,1.852,0,0,0-1.529.677,2.984,2.984,0,0,0-.545,1.916q0,2.593,2.092,2.593,2,0,2-2.663Q101.814,11.907,99.8,11.907Z" transform="translate(928 2013)" fill="#212429"/>
    <g id="Icono-3" data-name="Icono" transform="translate(617.28 1188)">
      <g transform="matrix(1, 0, 0, 1, -163.28, 626)" filter="url(#Fondo-6)">
        <g id="Fondo-12" data-name="Fondo" transform="translate(498 69)" fill="#e6d567">
          <path d="M 45 88.5 C 39.12687683105469 88.5 33.43022537231445 87.35007476806641 28.06830024719238 85.08217620849609 C 22.88852500915527 82.89131164550781 18.23629951477051 79.75458526611328 14.2408504486084 75.75914764404297 C 10.24541282653809 71.76370239257812 7.108687400817871 67.11147308349609 4.917825222015381 61.93170166015625 C 2.649924993515015 56.56977462768555 1.5 50.87312316894531 1.5 45 C 1.5 39.12687683105469 2.649924993515015 33.43022537231445 4.917825222015381 28.06830024719238 C 7.108687400817871 22.88852500915527 10.24541282653809 18.23629951477051 14.2408504486084 14.2408504486084 C 18.23629951477051 10.24541282653809 22.88852500915527 7.108687400817871 28.06830024719238 4.917825222015381 C 33.43022537231445 2.649924993515015 39.12687683105469 1.5 45 1.5 C 50.87312316894531 1.5 56.56977462768555 2.649924993515015 61.93170166015625 4.917825222015381 C 67.11147308349609 7.108687400817871 71.76370239257812 10.24541282653809 75.75914764404297 14.2408504486084 C 79.75458526611328 18.23629951477051 82.89131164550781 22.88852500915527 85.08217620849609 28.06830024719238 C 87.35007476806641 33.43022537231445 88.5 39.12687683105469 88.5 45 C 88.5 50.87312316894531 87.35007476806641 56.56977462768555 85.08217620849609 61.93170166015625 C 82.89131164550781 67.11147308349609 79.75458526611328 71.76370239257812 75.75914764404297 75.75914764404297 C 71.76370239257812 79.75458526611328 67.11147308349609 82.89131164550781 61.93170166015625 85.08217620849609 C 56.56977462768555 87.35007476806641 50.87312316894531 88.5 45 88.5 Z" stroke="none"/>
          <path d="M 45 3 C 39.32871246337891 3 33.82865524291992 4.110054016113281 28.65262985229492 6.299339294433594 C 23.65165710449219 8.414573669433594 19.15968322753906 11.44334411621094 15.301513671875 15.301513671875 C 11.44334411621094 19.15968322753906 8.414573669433594 23.65165710449219 6.299339294433594 28.65262985229492 C 4.110054016113281 33.82865524291992 3 39.32871246337891 3 45 C 3 50.67128753662109 4.110054016113281 56.17134475708008 6.299339294433594 61.34737396240234 C 8.414573669433594 66.34834289550781 11.44334411621094 70.84031677246094 15.301513671875 74.698486328125 C 19.15968322753906 78.55665588378906 23.65165710449219 81.58542633056641 28.65262985229492 83.70066070556641 C 33.82865524291992 85.88994598388672 39.32871246337891 87 45 87 C 50.67128753662109 87 56.17134475708008 85.88994598388672 61.34737396240234 83.70066070556641 C 66.34834289550781 81.58542633056641 70.84031677246094 78.55665588378906 74.698486328125 74.698486328125 C 78.55665588378906 70.84031677246094 81.58542633056641 66.34834289550781 83.70066070556641 61.34737396240234 C 85.88994598388672 56.17134475708008 87 50.67128753662109 87 45 C 87 39.32871246337891 85.88994598388672 33.82865524291992 83.70066070556641 28.65262985229492 C 81.58542633056641 23.65165710449219 78.55665588378906 19.15968322753906 74.698486328125 15.301513671875 C 70.84031677246094 11.44334411621094 66.34834289550781 8.414573669433594 61.34737396240234 6.299339294433594 C 56.17134475708008 4.110054016113281 50.67128753662109 3 45 3 M 45 0 C 69.85281372070312 0 90 20.14718627929688 90 45 C 90 69.85281372070312 69.85281372070312 90 45 90 C 20.14718627929688 90 0 69.85281372070312 0 45 C 0 20.14718627929688 20.14718627929688 0 45 0 Z" stroke="none" fill="#bca724"/>
        </g>
      </g>
      <g id="_x31_0_microscope" transform="translate(349.738 705.345)">
        <g id="Grupo_1151738" data-name="Grupo 1151738">
          <g id="Grupo_1151716" data-name="Grupo 1151716">
            <path id="Trazado_986460" data-name="Trazado 986460" d="M11.817,35.688v4.2H30.722v-4.2Z" fill="#81d4fa" fill-rule="evenodd"/>
          </g>
          <g id="Grupo_1151717" data-name="Grupo 1151717">
            <path id="Trazado_986461" data-name="Trazado 986461" d="M7.981,51.287v9.16A1.558,1.558,0,0,0,9.523,62H53.194a1.558,1.558,0,0,0,1.542-1.552v-9.16a1.558,1.558,0,0,0-1.552-1.552H9.534a1.556,1.556,0,0,0-1.552,1.552Zm9.059,6.146A2.369,2.369,0,1,1,17,54.086a2.365,2.365,0,0,1,.038,3.348Z" fill="#74787a" fill-rule="evenodd"/>
          </g>
          <g id="Grupo_1151718" data-name="Grupo 1151718">
            <path id="Trazado_986462" data-name="Trazado 986462" d="M13.651,54.124A2.369,2.369,0,1,0,17,54.085a2.373,2.373,0,0,0-3.352.038Z" fill="#eee" fill-rule="evenodd"/>
          </g>
          <g id="Grupo_1151719" data-name="Grupo 1151719">
            <path id="Trazado_986463" data-name="Trazado 986463" d="M44.254,30.419a6.857,6.857,0,0,0-.1,9.47c.073.077.146.153.223.226a6.859,6.859,0,0,0,8.6.793h0A7.048,7.048,0,0,0,54.068,40a6.861,6.861,0,0,0,.24-9.324c-.111-.129-.233-.254-.355-.376a6.846,6.846,0,0,0-9.7.118Z" fill="#74787a" fill-rule="evenodd"/>
          </g>
          <g id="Grupo_1151720" data-name="Grupo 1151720">
            <path id="Trazado_986464" data-name="Trazado 986464" d="M47.466,33.554a2.369,2.369,0,1,0,3.352-.042,2.366,2.366,0,0,0-3.352.042Z" fill="#eee" fill-rule="evenodd"/>
          </g>
          <g id="Grupo_1151721" data-name="Grupo 1151721">
            <path id="Trazado_986465" data-name="Trazado 986465" d="M21.116,6.431,17.169,18.522l10.782,3.519,1.695-5.182L31.9,9.95a1.484,1.484,0,0,0-.947-1.862l-1.121-.365L24.1,5.85l-1.117-.365a1.481,1.481,0,0,0-1.862.947Z" fill="#81d4fa" fill-rule="evenodd"/>
          </g>
          <g id="Grupo_1151722" data-name="Grupo 1151722">
            <path id="Trazado_986466" data-name="Trazado 986466" d="M14.625,18.829l-.922,2.83a1.082,1.082,0,0,0,.689,1.361l3.533,1.152,5.739,1.876L27.193,27.2a1.086,1.086,0,0,0,1.364-.693l.922-2.83a1.081,1.081,0,0,0-.693-1.361l-.835-.275L17.17,18.522l-1.183-.386a1.084,1.084,0,0,0-1.361.693Z" fill="#74787a" fill-rule="evenodd"/>
          </g>
          <g id="Grupo_1151723" data-name="Grupo 1151723">
            <path id="Trazado_986467" data-name="Trazado 986467" d="M17.229,26.3a2.249,2.249,0,0,0,1.434,2.826l1.479.484a2.248,2.248,0,0,0,2.826-1.434l.7-2.13-5.739-1.876Z" fill="#eee" fill-rule="evenodd"/>
          </g>
          <g id="Grupo_1151724" data-name="Grupo 1151724">
            <path id="Trazado_986468" data-name="Trazado 986468" d="M31.9,9.95l-2.255,6.909c8.861-.083,14.252,5.8,15.554,12.749a6.863,6.863,0,0,1,8.753.693c.122.122.244.247.355.376A23.456,23.456,0,0,0,31.9,9.95Z" fill="#eee" fill-rule="evenodd"/>
          </g>
          <g id="Grupo_1151725" data-name="Grupo 1151725">
            <path id="Trazado_986469" data-name="Trazado 986469" d="M25,3.08l-.9,2.77,5.739,1.872.9-2.77a1.567,1.567,0,0,0-1-1.973l-2.763-.9A1.57,1.57,0,0,0,25,3.08Z" fill="#eee" fill-rule="evenodd"/>
          </g>
          <g id="Grupo_1151726" data-name="Grupo 1151726">
            <path id="Trazado_986470" data-name="Trazado 986470" d="M50.118,51.287v9.16A1.558,1.558,0,0,1,48.576,62h4.618a1.558,1.558,0,0,0,1.542-1.552v-9.16a1.558,1.558,0,0,0-1.552-1.552H48.566a1.556,1.556,0,0,1,1.552,1.552Z" fill="#5a5b5c" fill-rule="evenodd"/>
          </g>
          <g id="Grupo_1151727" data-name="Grupo 1151727">
            <path id="Trazado_986471" data-name="Trazado 986471" d="M15.9,39.892l3.766,9.843H45.917a18.26,18.26,0,0,0,7.058-8.826,6.859,6.859,0,0,1-8.6-.793c-.077-.073-.15-.15-.223-.226l-13.427,0Z" fill="#eee" fill-rule="evenodd"/>
          </g>
          <g id="Grupo_1151728" data-name="Grupo 1151728">
            <path id="Trazado_986472" data-name="Trazado 986472" d="M46.659,41.594a18.062,18.062,0,0,1-6.769,8.141h6.028a18.26,18.26,0,0,0,7.058-8.826,6.874,6.874,0,0,1-6.317.686Z" fill="#d4d4d4" fill-rule="evenodd"/>
          </g>
          <g id="Grupo_1151729" data-name="Grupo 1151729">
            <rect id="Rectángulo_408254" data-name="Rectángulo 408254" width="4.142" height="4.204" transform="translate(26.58 35.688)" fill="#4fc3f7"/>
          </g>
          <g id="Grupo_1151730" data-name="Grupo 1151730">
            <path id="Trazado_986473" data-name="Trazado 986473" d="M28.784,4.312l-.9,2.774L29,7.451l.839.272.9-2.77a1.567,1.567,0,0,0-1-1.973l-1.956-.64a1.57,1.57,0,0,1,1,1.973Z" fill="#d4d4d4" fill-rule="evenodd"/>
          </g>
          <g id="Grupo_1151731" data-name="Grupo 1151731">
            <path id="Trazado_986474" data-name="Trazado 986474" d="M28.62,8.882,24.673,20.973l2.158.7,1.121.365,1.695-5.182L31.9,9.95a1.484,1.484,0,0,0-.947-1.862l-2.443-.8-.839-.272a1.481,1.481,0,0,1,.947,1.862Z" fill="#4fc3f7" fill-rule="evenodd"/>
          </g>
          <g id="Grupo_1151732" data-name="Grupo 1151732">
            <path id="Trazado_986475" data-name="Trazado 986475" d="M27.52,23.04,26.6,25.866a1.084,1.084,0,0,1-1.354.7h0l1.949.637a1.086,1.086,0,0,0,1.364-.693l.922-2.83a1.081,1.081,0,0,0-.693-1.361l-.835-.275-1.121-.365a1.084,1.084,0,0,1,.689,1.364Z" fill="#5a5b5c" fill-rule="evenodd"/>
          </g>
          <g id="Grupo_1151733" data-name="Grupo 1151733">
            <path id="Trazado_986476" data-name="Trazado 986476" d="M21.7,25.407l-.693,2.13a2.252,2.252,0,0,1-2.582,1.5,1.708,1.708,0,0,0,.233.09l1.479.484a2.248,2.248,0,0,0,2.826-1.434l.7-2.13Z" fill="#d4d4d4" fill-rule="evenodd"/>
          </g>
          <g id="Grupo_1151734" data-name="Grupo 1151734">
            <path id="Trazado_986477" data-name="Trazado 986477" d="M31.9,9.95l-.828,2.537A23.414,23.414,0,0,1,50.226,28.431,6.847,6.847,0,0,1,53.953,30.3c.122.122.244.247.355.376A23.457,23.457,0,0,0,31.9,9.95Z" fill="#d4d4d4" fill-rule="evenodd"/>
          </g>
          <g id="Grupo_1151735" data-name="Grupo 1151735">
            <path id="Trazado_986478" data-name="Trazado 986478" d="M51.023,30.182a6.863,6.863,0,0,1,.118,9.7,7.241,7.241,0,0,1-1.093.908h0a6.844,6.844,0,0,1-2.621,1.055,6.864,6.864,0,0,0,5.548-.936h0A7.048,7.048,0,0,0,54.068,40c.007-.01.017-.017.024-.028a6.826,6.826,0,0,0,1.855-3.766v-.017a6.852,6.852,0,0,0-1.639-5.513c-.111-.129-.233-.254-.355-.376a6.846,6.846,0,0,0-3.728-1.869,6.926,6.926,0,0,0-2.259.024,6.824,6.824,0,0,1,3.056,1.726Z" fill="#5a5b5c" fill-rule="evenodd"/>
          </g>
          <g id="Grupo_1151736" data-name="Grupo 1151736">
            <path id="Trazado_986479" data-name="Trazado 986479" d="M48.868,33.474a2.37,2.37,0,0,1,.038,3.352,2.33,2.33,0,0,1-.762.522,2.37,2.37,0,1,0,.083-4.319,2.465,2.465,0,0,1,.64.445Z" fill="#d4d4d4" fill-rule="evenodd"/>
          </g>
          <g id="Grupo_1151737" data-name="Grupo 1151737">
            <path id="Trazado_986480" data-name="Trazado 986480" d="M53.185,48.735h-4.34a19.864,19.864,0,0,0,4.945-7.187A7.8,7.8,0,0,0,55.26,30.259C53.994,20.476,45.83,9.967,32.914,9.01a2.476,2.476,0,0,0-1.648-1.872l-.17-.055.594-1.818a2.567,2.567,0,0,0-1.642-3.236l-2.764-.9A2.567,2.567,0,0,0,24.05,2.77l-.594,1.819-.167-.055h0a2.477,2.477,0,0,0-3.121,1.588L16.53,17.261l-.233-.076a2.084,2.084,0,0,0-2.623,1.334l-.921,2.828a2.082,2.082,0,0,0,1.329,2.622l2.581.843-.385,1.178a3.246,3.246,0,0,0,2.074,4.087l1.479.483a3.241,3.241,0,0,0,4.087-2.074l.386-1.18,2.58.843a2.084,2.084,0,0,0,2.625-1.334l.921-2.828a2.065,2.065,0,0,0-1.222-2.574l1.154-3.532c8.293.243,12.526,6.061,13.726,11.329-.189.16-.373.328-.55.509h0a7.854,7.854,0,0,0-1.318,9.169l-10.5,0v-3.2a1,1,0,0,0-1-1H11.816a1,1,0,0,0-1,1v4.2a1,1,0,0,0,1,1h3.4l3,7.843H9.533a2.555,2.555,0,0,0-2.552,2.552v9.161A2.555,2.555,0,0,0,9.533,63H53.185a2.555,2.555,0,0,0,2.552-2.552V51.287A2.555,2.555,0,0,0,53.185,48.735ZM25.95,3.392a.573.573,0,0,1,.712-.364h0l2.764.9a.568.568,0,0,1,.362.713l-.594,1.819L25.357,5.209ZM22.067,6.74a.487.487,0,0,1,.6-.3l7.973,2.6a.486.486,0,0,1,.309.6L27.312,20.78l-8.881-2.9Zm-.05,21.126a1.241,1.241,0,0,1-1.565.794l-1.477-.483a1.245,1.245,0,0,1-.8-1.565l.385-1.178L22.4,26.687Zm5.59-1.671a.089.089,0,0,1-.1.053l-12.8-4.18a.087.087,0,0,1-.049-.1l.921-2.828a.084.084,0,0,1,.1-.053l12.8,4.18.052.1Zm3.4-10.29,1.6-4.893A22.534,22.534,0,0,1,52.855,28.277a7.887,7.887,0,0,0-6.98-.2A15.877,15.877,0,0,0,31.008,15.9ZM44.969,31.117h0A5.856,5.856,0,1,1,43.3,35.278,5.844,5.844,0,0,1,44.97,31.117ZM12.816,36.688H29.722v2.2H12.816Zm4.537,4.2,26.386,0a7.828,7.828,0,0,0,5.422,2.174,7.91,7.91,0,0,0,1.791-.214A16.566,16.566,0,0,1,45.6,48.735H20.353ZM53.736,60.448a.56.56,0,0,1-.552.552H9.533a.56.56,0,0,1-.552-.552V51.287a.56.56,0,0,1,.552-.552H53.185a.56.56,0,0,1,.552.552v9.161Z"/>
            <path id="Trazado_986481" data-name="Trazado 986481" d="M49.163,38.578h.043a3.369,3.369,0,1,0-2.455-5.723h0a3.37,3.37,0,0,0,2.412,5.722Zm-.982-4.324a1.367,1.367,0,0,1,.966-.415,1.336,1.336,0,0,1,.972.389,1.37,1.37,0,1,1-1.937.025Z"/>
            <path id="Trazado_986482" data-name="Trazado 986482" d="M15.308,52.41a3.348,3.348,0,0,0-2.371,1.014h0a3.38,3.38,0,0,0,.059,4.765,3.344,3.344,0,0,0,2.351.958h.043A3.369,3.369,0,0,0,17.7,53.371,3.275,3.275,0,0,0,15.308,52.41Zm1.017,4.326a1.357,1.357,0,0,1-.962.413,1.334,1.334,0,0,1-.971-.388,1.375,1.375,0,0,1-.024-1.939,1.36,1.36,0,0,1,.963-.412h.017a1.368,1.368,0,0,1,.977,2.326Z"/>
          </g>
        </g>
      </g>
    </g>
    <g id="Trazado_986744" data-name="Trazado 986744" transform="translate(1076 2049.5) rotate(90)" fill="#e4f2f4">
      <path d="M 36.34581756591797 30.88358116149902 L 2.65418267250061 30.88358116149902 L 19.5 2.907793045043945 L 36.34581756591797 30.88358116149902 Z" stroke="none"/>
      <path d="M 19.5 5.815601348876953 L 5.308376312255859 29.38358116149902 L 33.69162368774414 29.38358116149902 L 19.5 5.815601348876953 M 19.5 0 L 39 32.38358306884766 L 0 32.38358306884766 L 19.5 0 Z" stroke="none" fill="#98cfd6"/>
    </g>
    <g id="Trazado_986745" data-name="Trazado 986745" transform="translate(495 2088.5) rotate(-90)" fill="#e4f2f4">
      <path d="M 36.34581756591797 30.88358116149902 L 2.65418267250061 30.88358116149902 L 19.5 2.907793045043945 L 36.34581756591797 30.88358116149902 Z" stroke="none"/>
      <path d="M 19.5 5.815601348876953 L 5.308376312255859 29.38358116149902 L 33.69162368774414 29.38358116149902 L 19.5 5.815601348876953 M 19.5 0 L 39 32.38358306884766 L 0 32.38358306884766 L 19.5 0 Z" stroke="none" fill="#98cfd6"/>
    </g>
    <g id="Trazado_986746" data-name="Trazado 986746" transform="translate(520.716 2062)" fill="#e4f2f4">
      <path d="M 529.0192260742188 12.5 L 1.500012993812561 12.5 L 1.500012993812561 1.5 L 529.0192260742188 1.5 L 529.0192260742188 12.5 Z" stroke="none"/>
      <path d="M 3 3 L 3 11 L 527.5191650390625 11 L 527.5191650390625 3 L 3 3 M 0 0 L 530.5191650390625 0 L 530.5191650390625 14 L 0 14 L 0 0 Z" stroke="none" fill="#98cfd6"/>
    </g>
  </g>
</svg>
