<svg xmlns="http://www.w3.org/2000/svg" xmlns:xlink="http://www.w3.org/1999/xlink" width="108" height="108" viewBox="0 0 108 108">
  <defs>
    <filter id="Trazado_982538" x="0" y="0" width="108" height="108" filterUnits="userSpaceOnUse">
      <feOffset dy="3" input="SourceAlpha"/>
      <feGaussianBlur stdDeviation="3" result="blur"/>
      <feFlood flood-opacity="0.161"/>
      <feComposite operator="in" in2="blur"/>
      <feComposite in="SourceGraphic"/>
    </filter>
  </defs>
  <g id="Grupo_1151813" data-name="Grupo 1151813" transform="translate(-201 -2177)">
    <g id="Grupo_1151645" data-name="Grupo 1151645" transform="translate(0 -8113)">
      <g id="Grupo_1150893" data-name="Grupo 1150893" transform="translate(0 7321)">
        <g transform="matrix(1, 0, 0, 1, 201, 2969)" filter="url(#Trazado_982538)">
          <g id="Trazado_982538-2" data-name="Trazado 982538" transform="translate(9 6)" fill="#f3f3f3">
            <path d="M 45 88.5 C 39.12687683105469 88.5 33.43022537231445 87.35007476806641 28.06830024719238 85.08217620849609 C 22.88852500915527 82.89131164550781 18.23629951477051 79.75458526611328 14.2408504486084 75.75914764404297 C 10.24541282653809 71.76370239257812 7.108687400817871 67.11147308349609 4.917825222015381 61.93170166015625 C 2.649924993515015 56.56977462768555 1.5 50.87312316894531 1.5 45 C 1.5 39.12687683105469 2.649924993515015 33.43022537231445 4.917825222015381 28.06830024719238 C 7.108687400817871 22.88852500915527 10.24541282653809 18.23629951477051 14.2408504486084 14.2408504486084 C 18.23629951477051 10.24541282653809 22.88852500915527 7.108687400817871 28.06830024719238 4.917825222015381 C 33.43022537231445 2.649924993515015 39.12687683105469 1.5 45 1.5 C 50.87312316894531 1.5 56.56977462768555 2.649924993515015 61.93170166015625 4.917825222015381 C 67.11147308349609 7.108687400817871 71.76370239257812 10.24541282653809 75.75914764404297 14.2408504486084 C 79.75458526611328 18.23629951477051 82.89131164550781 22.88852500915527 85.08217620849609 28.06830024719238 C 87.35007476806641 33.43022537231445 88.5 39.12687683105469 88.5 45 C 88.5 50.87312316894531 87.35007476806641 56.56977462768555 85.08217620849609 61.93170166015625 C 82.89131164550781 67.11147308349609 79.75458526611328 71.76370239257812 75.75914764404297 75.75914764404297 C 71.76370239257812 79.75458526611328 67.11147308349609 82.89131164550781 61.93170166015625 85.08217620849609 C 56.56977462768555 87.35007476806641 50.87312316894531 88.5 45 88.5 Z" stroke="none"/>
            <path d="M 45 3 C 39.32871246337891 3 33.82865524291992 4.110054016113281 28.65262985229492 6.299339294433594 C 23.65165710449219 8.414573669433594 19.15968322753906 11.44334411621094 15.301513671875 15.301513671875 C 11.44334411621094 19.15968322753906 8.414573669433594 23.65165710449219 6.299339294433594 28.65262985229492 C 4.110054016113281 33.82865524291992 3 39.32871246337891 3 45 C 3 50.67128753662109 4.110054016113281 56.17134475708008 6.299339294433594 61.34737396240234 C 8.414573669433594 66.34834289550781 11.44334411621094 70.84031677246094 15.301513671875 74.698486328125 C 19.15968322753906 78.55665588378906 23.65165710449219 81.58542633056641 28.65262985229492 83.70066070556641 C 33.82865524291992 85.88994598388672 39.32871246337891 87 45 87 C 50.67128753662109 87 56.17134475708008 85.88994598388672 61.34737396240234 83.70066070556641 C 66.34834289550781 81.58542633056641 70.84031677246094 78.55665588378906 74.698486328125 74.698486328125 C 78.55665588378906 70.84031677246094 81.58542633056641 66.34834289550781 83.70066070556641 61.34737396240234 C 85.88994598388672 56.17134475708008 87 50.67128753662109 87 45 C 87 39.32871246337891 85.88994598388672 33.82865524291992 83.70066070556641 28.65262985229492 C 81.58542633056641 23.65165710449219 78.55665588378906 19.15968322753906 74.698486328125 15.301513671875 C 70.84031677246094 11.44334411621094 66.34834289550781 8.414573669433594 61.34737396240234 6.299339294433594 C 56.17134475708008 4.110054016113281 50.67128753662109 3 45 3 M 45 0 C 69.85281372070312 0 90 20.14718627929688 90 45 C 90 69.85281372070312 69.85281372070312 90 45 90 C 20.14718627929688 90 0 69.85281372070312 0 45 C 0 20.14718627929688 20.14718627929688 0 45 0 Z" stroke="none" fill="#fd7940"/>
          </g>
        </g>
      </g>
    </g>
    <g id="money-bag" transform="translate(210.023 2200.044)">
      <path id="Trazado_986697" data-name="Trazado 986697" d="M70.863,40.145A20.611,20.611,0,1,1,42.237,21.151V17.244a6.87,6.87,0,0,1-6.87-6.87h0a2.29,2.29,0,0,1,2.29-2.29H62.848a2.29,2.29,0,0,1,2.29,2.29h0a6.87,6.87,0,0,1-6.87,6.87v3.907A20.616,20.616,0,0,1,70.863,40.145Z" transform="translate(-7.224 -7.225)" fill="#81bc82"/>
      <path id="Trazado_986698" data-name="Trazado 986698" d="M123.179,100.042H102.569a2.863,2.863,0,0,1-2.863-2.863h0a2.863,2.863,0,0,1,2.863-2.863h20.611a2.863,2.863,0,0,1,2.863,2.863h0A2.863,2.863,0,0,1,123.179,100.042Z" transform="translate(-69.845 -84.298)" fill="#feaf50"/>
      <path id="Trazado_986699" data-name="Trazado 986699" d="M99.705,121.263h26.336a2.863,2.863,0,0,1-2.863,2.863H102.568A2.863,2.863,0,0,1,99.705,121.263Z" transform="translate(-69.845 -108.381)" fill="#af773a"/>
      <path id="Trazado_986700" data-name="Trazado 986700" d="M280.046,289.581a12.023,12.023,0,1,1-12.023-12.023A12.023,12.023,0,0,1,280.046,289.581Z" transform="translate(-209.536 -248.073)" fill="#fed76e"/>
      <path id="Trazado_986701" data-name="Trazado 986701" d="M305.513,318.483a8.588,8.588,0,1,1-8.588-8.588A8.588,8.588,0,0,1,305.513,318.483Z" transform="translate(-238.438 -276.975)" fill="#feaf50"/>
      <path id="Trazado_986702" data-name="Trazado 986702" d="M48.35,51.947A19.755,19.755,0,0,1,32,16.532a3.724,3.724,0,0,0,.721.071H47.952a.859.859,0,0,0,0-1.718H32.723a2,2,0,1,1,0-4.008H53.334a2,2,0,1,1,0,4.008h-2.29a.859.859,0,0,0,0,1.718h2.29a3.73,3.73,0,0,0,.723-.071,19.772,19.772,0,0,1,7.932,10.835.859.859,0,1,0,1.648-.482A21.48,21.48,0,0,0,55.8,15.663a3.716,3.716,0,0,0-.606-6,7.727,7.727,0,0,0,3.576-6.513A3.152,3.152,0,0,0,55.624,0H30.433a3.152,3.152,0,0,0-3.149,3.149A7.727,7.727,0,0,0,30.86,9.662a3.716,3.716,0,0,0-.607,6A21.477,21.477,0,0,0,48.812,53.6a.859.859,0,1,0-.462-1.654ZM29,3.149a1.433,1.433,0,0,1,1.431-1.431H55.624a1.433,1.433,0,0,1,1.431,1.431A6.018,6.018,0,0,1,51.044,9.16h-1.83l1.4-2.1a.859.859,0,1,0-1.429-.953L47.149,9.16H43.887V5.439a.859.859,0,0,0-1.718,0V9.16H38.908L36.873,6.108a.859.859,0,0,0-1.429.953l1.4,2.1h-1.83A6.018,6.018,0,0,1,29,3.149Zm30.63,37.5h-.286V37.786h1.431a.859.859,0,1,0,0-1.718H59.345v-.286a.859.859,0,0,0-1.718,0v.286h-.286a3.149,3.149,0,1,0,0,6.3h.286v2.863H56.2a.859.859,0,0,0,0,1.718h1.431v.286a.859.859,0,0,0,1.718,0v-.286h.286a3.149,3.149,0,0,0,0-6.3Zm-2,0h-.286a1.431,1.431,0,0,1,0-2.863h.286Zm2,4.58h-.286V42.367h.286a1.431,1.431,0,1,1,0,2.863Zm-1.145-16.6A12.882,12.882,0,1,0,71.368,41.508,12.9,12.9,0,0,0,58.486,28.626Zm0,24.046A11.164,11.164,0,1,1,69.651,41.508,11.177,11.177,0,0,1,58.486,52.672Zm0-20.611a9.447,9.447,0,1,0,9.447,9.447A9.457,9.457,0,0,0,58.486,32.061Zm0,17.176a7.729,7.729,0,1,1,7.729-7.729A7.738,7.738,0,0,1,58.486,49.237Z"/>
    </g>
  </g>
</svg>
