<svg xmlns="http://www.w3.org/2000/svg" xmlns:xlink="http://www.w3.org/1999/xlink" width="108" height="108" viewBox="0 0 108 108">
  <defs>
    <filter id="Fondo" x="0" y="0" width="108" height="108" filterUnits="userSpaceOnUse">
      <feOffset dy="3" input="SourceAlpha"/>
      <feGaussianBlur stdDeviation="3" result="blur"/>
      <feFlood flood-opacity="0.161"/>
      <feComposite operator="in" in2="blur"/>
      <feComposite in="SourceGraphic"/>
    </filter>
  </defs>
  <g id="Grupo_1151961" data-name="Grupo 1151961" transform="translate(-325.999 -878)">
    <g transform="matrix(1, 0, 0, 1, 326, 878)" filter="url(#Fondo)">
      <g id="Fondo-2" data-name="Fondo" transform="translate(9 6)" fill="#e6d567">
        <path d="M 45 88.5 C 39.12687683105469 88.5 33.43022537231445 87.35007476806641 28.06830024719238 85.08217620849609 C 22.88852500915527 82.89131164550781 18.23629951477051 79.75458526611328 14.2408504486084 75.75914764404297 C 10.24541282653809 71.76370239257812 7.108687400817871 67.11147308349609 4.917825222015381 61.93170166015625 C 2.649924993515015 56.56977462768555 1.5 50.87312316894531 1.5 45 C 1.5 39.12687683105469 2.649924993515015 33.43022537231445 4.917825222015381 28.06830024719238 C 7.108687400817871 22.88852500915527 10.24541282653809 18.23629951477051 14.2408504486084 14.2408504486084 C 18.23629951477051 10.24541282653809 22.88852500915527 7.108687400817871 28.06830024719238 4.917825222015381 C 33.43022537231445 2.649924993515015 39.12687683105469 1.5 45 1.5 C 50.87312316894531 1.5 56.56977462768555 2.649924993515015 61.93170166015625 4.917825222015381 C 67.11147308349609 7.108687400817871 71.76370239257812 10.24541282653809 75.75914764404297 14.2408504486084 C 79.75458526611328 18.23629951477051 82.89131164550781 22.88852500915527 85.08217620849609 28.06830024719238 C 87.35007476806641 33.43022537231445 88.5 39.12687683105469 88.5 45 C 88.5 50.87312316894531 87.35007476806641 56.56977462768555 85.08217620849609 61.93170166015625 C 82.89131164550781 67.11147308349609 79.75458526611328 71.76370239257812 75.75914764404297 75.75914764404297 C 71.76370239257812 79.75458526611328 67.11147308349609 82.89131164550781 61.93170166015625 85.08217620849609 C 56.56977462768555 87.35007476806641 50.87312316894531 88.5 45 88.5 Z" stroke="none"/>
        <path d="M 45 3 C 39.32871246337891 3 33.82865524291992 4.110054016113281 28.65262985229492 6.299339294433594 C 23.65165710449219 8.414573669433594 19.15968322753906 11.44334411621094 15.301513671875 15.301513671875 C 11.44334411621094 19.15968322753906 8.414573669433594 23.65165710449219 6.299339294433594 28.65262985229492 C 4.110054016113281 33.82865524291992 3 39.32871246337891 3 45 C 3 50.67128753662109 4.110054016113281 56.17134475708008 6.299339294433594 61.34737396240234 C 8.414573669433594 66.34834289550781 11.44334411621094 70.84031677246094 15.301513671875 74.698486328125 C 19.15968322753906 78.55665588378906 23.65165710449219 81.58542633056641 28.65262985229492 83.70066070556641 C 33.82865524291992 85.88994598388672 39.32871246337891 87 45 87 C 50.67128753662109 87 56.17134475708008 85.88994598388672 61.34737396240234 83.70066070556641 C 66.34834289550781 81.58542633056641 70.84031677246094 78.55665588378906 74.698486328125 74.698486328125 C 78.55665588378906 70.84031677246094 81.58542633056641 66.34834289550781 83.70066070556641 61.34737396240234 C 85.88994598388672 56.17134475708008 87 50.67128753662109 87 45 C 87 39.32871246337891 85.88994598388672 33.82865524291992 83.70066070556641 28.65262985229492 C 81.58542633056641 23.65165710449219 78.55665588378906 19.15968322753906 74.698486328125 15.301513671875 C 70.84031677246094 11.44334411621094 66.34834289550781 8.414573669433594 61.34737396240234 6.299339294433594 C 56.17134475708008 4.110054016113281 50.67128753662109 3 45 3 M 45 0 C 69.85281372070312 0 90 20.14718627929688 90 45 C 90 69.85281372070312 69.85281372070312 90 45 90 C 20.14718627929688 90 0 69.85281372070312 0 45 C 0 20.14718627929688 20.14718627929688 0 45 0 Z" stroke="none" fill="#bca724"/>
      </g>
    </g>
    <path id="Trazado_986687" data-name="Trazado 986687" d="M42.765,38.108l-14.89-2.233-14.89,2.233a6,6,0,0,0-5.11,5.934V54.875h40V44.042a6,6,0,0,0-5.11-5.934" transform="translate(352.124 902)" fill="#e7eaf0"/>
    <path id="Trazado_986688" data-name="Trazado 986688" d="M43.875,51.875h-32a4,4,0,0,1-4-4v7h40v-7a4,4,0,0,1-4,4" transform="translate(352.124 902)" fill="#c3ccdb"/>
    <path id="Trazado_986689" data-name="Trazado 986689" d="M47.875,44.042a6,6,0,0,0-5.11-5.934L34.89,36.927a64,64,0,0,1-4.75,17.948H47.875Z" transform="translate(352.124 902)" fill="#1e88e5"/>
    <path id="Trazado_986690" data-name="Trazado 986690" d="M43.875,51.875H31.346c-.7,1.912-1.206,3-1.206,3H47.875v-7a4,4,0,0,1-4,4" transform="translate(352.124 902)" fill="#156dca"/>
    <path id="Trazado_986691" data-name="Trazado 986691" d="M7.875,44.042a6,6,0,0,1,5.11-5.934l7.875-1.181a64,64,0,0,0,4.75,17.948H7.875Z" transform="translate(352.124 902)" fill="#1e88e5"/>
    <path id="Trazado_986692" data-name="Trazado 986692" d="M11.875,51.875H24.4c.7,1.912,1.206,3,1.206,3H7.875v-7a4,4,0,0,0,4,4" transform="translate(352.124 902)" fill="#156dca"/>
    <path id="Trazado_986693" data-name="Trazado 986693" d="M27.875,40.995a3.732,3.732,0,0,0,3.73-3.74v-.82h0l-3.73-.559-3.73.56v.82a3.732,3.732,0,0,0,3.73,3.74" transform="translate(352.124 902)" fill="#fbbb9f"/>
    <path id="Trazado_986694" data-name="Trazado 986694" d="M27.875,15.875a9.45,9.45,0,0,0-9.45,9.45v2.1a9.45,9.45,0,0,0,18.9,0v-2.1a9.45,9.45,0,0,0-9.45-9.45" transform="translate(352.124 902)" fill="#fbbb9f"/>
    <path id="Trazado_986695" data-name="Trazado 986695" d="M27.875,15.875a9.45,9.45,0,0,0-9.45,9.45v2a9.209,9.209,0,0,0,9.45-5.25,9.209,9.209,0,0,0,9.45,5.25v-2a9.45,9.45,0,0,0-9.45-9.45" transform="translate(352.124 902)" fill="#1e88e5"/>
    <path id="Trazado_986696" data-name="Trazado 986696" d="M19.861,10.368a9.493,9.493,0,1,0-9.493,9.493c.223,0,.441-.018.66-.033l2.942,3.041a.7.7,0,0,0,1.2-.465l.121-3.932a9.478,9.478,0,0,0,4.568-8.1" transform="translate(352.124 902)" fill="#f06292"/>
    <path id="Trazado_986697" data-name="Trazado 986697" d="M10.368,16.368A9.492,9.492,0,0,1,1.042,8.622a9.468,9.468,0,0,0,9.326,11.239c.223,0,.441-.018.66-.033l2.942,3.041a.7.7,0,0,0,1.2-.465l.122-3.932a9.427,9.427,0,0,0,4.4-9.85,9.49,9.49,0,0,1-9.325,7.746" transform="translate(352.124 902)" fill="#d13978"/>
    <path id="Trazado_986698" data-name="Trazado 986698" d="M35.889,10.368a9.493,9.493,0,1,1,9.493,9.493c-.223,0-.441-.018-.66-.033L41.78,22.869a.7.7,0,0,1-1.2-.465l-.121-3.932a9.478,9.478,0,0,1-4.568-8.1" transform="translate(352.124 902)" fill="#9ccc65"/>
    <path id="Trazado_986699" data-name="Trazado 986699" d="M45.382,16.368a9.492,9.492,0,0,0,9.326-7.746,9.468,9.468,0,0,1-9.326,11.239c-.223,0-.441-.018-.66-.033L41.78,22.869a.7.7,0,0,1-1.2-.465l-.122-3.932a9.427,9.427,0,0,1-4.4-9.85,9.49,9.49,0,0,0,9.325,7.746" transform="translate(352.124 902)" fill="#43a047"/>
    <path id="Trazado_986700" data-name="Trazado 986700" d="M27.875,37.75A10.337,10.337,0,0,1,17.55,27.425v-2.1a10.366,10.366,0,0,1,5.98-9.369.876.876,0,0,1,.738,1.588A8.607,8.607,0,0,0,19.3,25.325v2.1a8.575,8.575,0,0,0,17.15,0v-2.1a8.584,8.584,0,0,0-8.575-8.575.875.875,0,0,1,0-1.75A10.337,10.337,0,0,1,38.2,25.325v2.1A10.337,10.337,0,0,1,27.875,37.75" transform="translate(352.124 902)"/>
    <path id="Trazado_986701" data-name="Trazado 986701" d="M42.926,55.75H7.875A.875.875,0,0,1,7,54.875V44.045a6.918,6.918,0,0,1,5.856-6.8l11.76-1.761a.875.875,0,1,1,.259,1.731L13.114,38.971A5.158,5.158,0,0,0,8.75,44.045V54H42.926a.875.875,0,0,1,0,1.75" transform="translate(352.124 902)"/>
    <path id="Trazado_986702" data-name="Trazado 986702" d="M47.875,55.75A.875.875,0,0,1,47,54.875V44.045a5.158,5.158,0,0,0-4.364-5.074L30.875,37.21a.875.875,0,0,1,.259-1.731L42.9,37.24a6.918,6.918,0,0,1,5.855,6.8v10.83a.875.875,0,0,1-.875.875" transform="translate(352.124 902)"/>
    <path id="Trazado_986703" data-name="Trazado 986703" d="M36.366,28.256a10.037,10.037,0,0,1-8.491-4.443,10.185,10.185,0,0,1-9.594,4.376.875.875,0,0,1,.288-1.727,8.284,8.284,0,0,0,8.524-4.778.912.912,0,0,1,1.565,0,8.285,8.285,0,0,0,8.526,4.778.875.875,0,0,1,.286,1.727,7.74,7.74,0,0,1-1.1.067" transform="translate(352.124 902)"/>
    <path id="Trazado_986704" data-name="Trazado 986704" d="M15.874,55.75a.876.876,0,0,1-.869-.778l-1-9a.875.875,0,0,1,1.74-.194l1,9a.876.876,0,0,1-.773.967c-.033,0-.066.005-.1.005" transform="translate(352.124 902)"/>
    <path id="Trazado_986705" data-name="Trazado 986705" d="M39.876,55.75c-.032,0-.065,0-.1-.005a.876.876,0,0,1-.773-.967l1-9a.886.886,0,0,1,.967-.773.876.876,0,0,1,.773.967l-1,9a.876.876,0,0,1-.869.778" transform="translate(352.124 902)"/>
    <path id="Trazado_986706" data-name="Trazado 986706" d="M25.61,55.75a.876.876,0,0,1-.793-.5A64.276,64.276,0,0,1,19.99,37.028a.875.875,0,0,1,1.738-.2A63.742,63.742,0,0,0,26.4,54.5a.875.875,0,0,1-.792,1.246" transform="translate(352.124 902)"/>
    <path id="Trazado_986707" data-name="Trazado 986707" d="M30.14,55.75a.875.875,0,0,1-.792-1.246,63.742,63.742,0,0,0,4.674-17.677.875.875,0,0,1,1.738.2,64.276,64.276,0,0,1-4.827,18.218.876.876,0,0,1-.793.5" transform="translate(352.124 902)"/>
    <path id="Trazado_986708" data-name="Trazado 986708" d="M27.875,41.87a4.615,4.615,0,0,1-4.6-4.615v-.821a.875.875,0,0,1,1.75,0v.821a2.855,2.855,0,1,0,5.71,0v-.821a.875.875,0,1,1,1.75,0v.821a4.615,4.615,0,0,1-4.6,4.615" transform="translate(352.124 902)"/>
    <path id="Trazado_986709" data-name="Trazado 986709" d="M14.472,23.957a1.573,1.573,0,0,1-1.13-.48L10.4,20.436a.875.875,0,1,1,1.258-1.217l2.653,2.742.108-3.516a.872.872,0,0,1,.42-.719,8.606,8.606,0,1,0-7.824.584.875.875,0,1,1-.682,1.611,10.382,10.382,0,1,1,9.821-.96l-.107,3.471a1.572,1.572,0,0,1-1,1.419,1.592,1.592,0,0,1-.569.106" transform="translate(352.124 902)"/>
    <path id="Trazado_986710" data-name="Trazado 986710" d="M41.278,23.957A1.574,1.574,0,0,1,39.7,22.432L39.6,18.96A10.367,10.367,0,0,1,35.57,7.007a.876.876,0,0,1,1.657.566,8.614,8.614,0,0,0,3.685,10.152.872.872,0,0,1,.42.719l.108,3.517,2.653-2.742a.892.892,0,0,1,.691-.265c.243.018.418.031.6.031a8.618,8.618,0,1,0,0-17.235,8.538,8.538,0,0,0-5.255,1.786A.875.875,0,1,1,39.06,2.149,10.274,10.274,0,0,1,45.382,0a10.368,10.368,0,1,1,0,20.735c-.1,0-.209,0-.313-.008l-2.66,2.75a1.577,1.577,0,0,1-1.131.48" transform="translate(352.124 902)"/>
    <path id="Trazado_986711" data-name="Trazado 986711" d="M44.7,13.538h0a.873.873,0,0,1-.652-.292l-2.414-2.7A.875.875,0,1,1,42.937,9.38L44.7,11.35l3.187-3.565A.875.875,0,0,1,49.19,8.951l-3.84,4.3a.873.873,0,0,1-.652.292" transform="translate(352.124 902)"/>
    <path id="Trazado_986712" data-name="Trazado 986712" d="M12.991,13.866a.872.872,0,0,1-.619-.256L7.126,8.363A.875.875,0,1,1,8.363,7.125l5.247,5.247a.875.875,0,0,1-.619,1.494" transform="translate(352.124 902)"/>
    <path id="Trazado_986713" data-name="Trazado 986713" d="M7.745,13.866a.875.875,0,0,1-.619-1.494l5.247-5.247A.875.875,0,0,1,13.61,8.363L8.364,13.61a.872.872,0,0,1-.619.256" transform="translate(352.124 902)"/>
    <path id="Trazado_986714" data-name="Trazado 986714" d="M15.972,7.546a.875.875,0,0,1-.731-.393A5.868,5.868,0,0,0,12.1,4.793a.875.875,0,0,1,.52-1.67A7.62,7.62,0,0,1,16.7,6.189.872.872,0,0,1,16.453,7.4a.861.861,0,0,1-.481.146" transform="translate(352.124 902)" fill="#fff"/>
    <path id="Trazado_986715" data-name="Trazado 986715" d="M50.986,7.546a.875.875,0,0,1-.731-.393,5.861,5.861,0,0,0-3.137-2.359.875.875,0,0,1,.52-1.672,7.626,7.626,0,0,1,4.077,3.067A.872.872,0,0,1,51.467,7.4a.861.861,0,0,1-.481.146" transform="translate(352.124 902)" fill="#fff"/>
    <path id="Trazado_986716" data-name="Trazado 986716" d="M41.316,41.87a.868.868,0,0,1-.113-.007l-3.44-.445a.875.875,0,1,1,.224-1.736l3.44.445a.875.875,0,0,1-.111,1.743" transform="translate(352.124 902)" fill="#fff"/>
    <path id="Trazado_986717" data-name="Trazado 986717" d="M33.746,23.528a.873.873,0,0,1-.8-.512,5.621,5.621,0,0,0-2.625-2.7.875.875,0,1,1,.772-1.57,7.365,7.365,0,0,1,3.444,3.543.874.874,0,0,1-.8,1.238" transform="translate(352.124 902)" fill="#fff"/>
    <rect id="Rectángulo_408356" data-name="Rectángulo 408356" width="55.75" height="55.75" transform="translate(352.124 902)" fill="none"/>
  </g>
</svg>
