<svg xmlns="http://www.w3.org/2000/svg" xmlns:xlink="http://www.w3.org/1999/xlink" width="108" height="108" viewBox="0 0 108 108">
  <defs>
    <filter id="Fondo" x="0" y="0" width="108" height="108" filterUnits="userSpaceOnUse">
      <feOffset dy="3" input="SourceAlpha"/>
      <feGaussianBlur stdDeviation="3" result="blur"/>
      <feFlood flood-opacity="0.161"/>
      <feComposite operator="in" in2="blur"/>
      <feComposite in="SourceGraphic"/>
    </filter>
  </defs>
  <g id="Grupo_1151962" data-name="Grupo 1151962" transform="translate(-745.999 -878)">
    <g transform="matrix(1, 0, 0, 1, 746, 878)" filter="url(#Fondo)">
      <g id="Fondo-2" data-name="Fondo" transform="translate(9 6)" fill="#e6d567">
        <path d="M 45 88.5 C 39.12687683105469 88.5 33.43022537231445 87.35007476806641 28.06830024719238 85.08217620849609 C 22.88852500915527 82.89131164550781 18.23629951477051 79.75458526611328 14.2408504486084 75.75914764404297 C 10.24541282653809 71.76370239257812 7.108687400817871 67.11147308349609 4.917825222015381 61.93170166015625 C 2.649924993515015 56.56977462768555 1.5 50.87312316894531 1.5 45 C 1.5 39.12687683105469 2.649924993515015 33.43022537231445 4.917825222015381 28.06830024719238 C 7.108687400817871 22.88852500915527 10.24541282653809 18.23629951477051 14.2408504486084 14.2408504486084 C 18.23629951477051 10.24541282653809 22.88852500915527 7.108687400817871 28.06830024719238 4.917825222015381 C 33.43022537231445 2.649924993515015 39.12687683105469 1.5 45 1.5 C 50.87312316894531 1.5 56.56977462768555 2.649924993515015 61.93170166015625 4.917825222015381 C 67.11147308349609 7.108687400817871 71.76370239257812 10.24541282653809 75.75914764404297 14.2408504486084 C 79.75458526611328 18.23629951477051 82.89131164550781 22.88852500915527 85.08217620849609 28.06830024719238 C 87.35007476806641 33.43022537231445 88.5 39.12687683105469 88.5 45 C 88.5 50.87312316894531 87.35007476806641 56.56977462768555 85.08217620849609 61.93170166015625 C 82.89131164550781 67.11147308349609 79.75458526611328 71.76370239257812 75.75914764404297 75.75914764404297 C 71.76370239257812 79.75458526611328 67.11147308349609 82.89131164550781 61.93170166015625 85.08217620849609 C 56.56977462768555 87.35007476806641 50.87312316894531 88.5 45 88.5 Z" stroke="none"/>
        <path d="M 45 3 C 39.32871246337891 3 33.82865524291992 4.110054016113281 28.65262985229492 6.299339294433594 C 23.65165710449219 8.414573669433594 19.15968322753906 11.44334411621094 15.301513671875 15.301513671875 C 11.44334411621094 19.15968322753906 8.414573669433594 23.65165710449219 6.299339294433594 28.65262985229492 C 4.110054016113281 33.82865524291992 3 39.32871246337891 3 45 C 3 50.67128753662109 4.110054016113281 56.17134475708008 6.299339294433594 61.34737396240234 C 8.414573669433594 66.34834289550781 11.44334411621094 70.84031677246094 15.301513671875 74.698486328125 C 19.15968322753906 78.55665588378906 23.65165710449219 81.58542633056641 28.65262985229492 83.70066070556641 C 33.82865524291992 85.88994598388672 39.32871246337891 87 45 87 C 50.67128753662109 87 56.17134475708008 85.88994598388672 61.34737396240234 83.70066070556641 C 66.34834289550781 81.58542633056641 70.84031677246094 78.55665588378906 74.698486328125 74.698486328125 C 78.55665588378906 70.84031677246094 81.58542633056641 66.34834289550781 83.70066070556641 61.34737396240234 C 85.88994598388672 56.17134475708008 87 50.67128753662109 87 45 C 87 39.32871246337891 85.88994598388672 33.82865524291992 83.70066070556641 28.65262985229492 C 81.58542633056641 23.65165710449219 78.55665588378906 19.15968322753906 74.698486328125 15.301513671875 C 70.84031677246094 11.44334411621094 66.34834289550781 8.414573669433594 61.34737396240234 6.299339294433594 C 56.17134475708008 4.110054016113281 50.67128753662109 3 45 3 M 45 0 C 69.85281372070312 0 90 20.14718627929688 90 45 C 90 69.85281372070312 69.85281372070312 90 45 90 C 20.14718627929688 90 0 69.85281372070312 0 45 C 0 20.14718627929688 20.14718627929688 0 45 0 Z" stroke="none" fill="#bca724"/>
      </g>
    </g>
    <path id="Trazado_986718" data-name="Trazado 986718" d="M24.24,5.875a3,3,0,1,1-3-3,3,3,0,0,1,3,3" transform="translate(771.999 902)" fill="#d4e157"/>
    <path id="Trazado_986719" data-name="Trazado 986719" d="M10.96,11.875a3,3,0,1,1-3-3,3,3,0,0,1,3,3" transform="translate(771.999 902)" fill="#9ccc65"/>
    <path id="Trazado_986720" data-name="Trazado 986720" d="M37.51,11.875a3,3,0,1,1-3-3,3,3,0,0,1,3,3" transform="translate(771.999 902)" fill="#ffca28"/>
    <path id="Trazado_986721" data-name="Trazado 986721" d="M50.79,3.875a3,3,0,1,1-3-3,3,3,0,0,1,3,3" transform="translate(771.999 902)" fill="#f57c00"/>
    <path id="Trazado_986722" data-name="Trazado 986722" d="M12.045,19.875v13.13a26.883,26.883,0,0,0-8.17,9.51V19.875Z" transform="translate(771.999 902)" fill="#9ccc65"/>
    <path id="Trazado_986723" data-name="Trazado 986723" d="M25.325,13.875V28a26.573,26.573,0,0,0-8.17,2.1V13.875Z" transform="translate(771.999 902)" fill="#d4e157"/>
    <path id="Trazado_986724" data-name="Trazado 986724" d="M38.6,19.875v10.22a26.574,26.574,0,0,0-8.17-2.1v-8.12Z" transform="translate(771.999 902)" fill="#f5bb2b"/>
    <path id="Trazado_986725" data-name="Trazado 986725" d="M51.875,11.875v30.64a26.883,26.883,0,0,0-8.17-9.51V11.875Z" transform="translate(771.999 902)" fill="#f57c00"/>
    <path id="Trazado_986726" data-name="Trazado 986726" d="M54.875,54.875h-54a27,27,0,0,1,54,0" transform="translate(771.999 902)" fill="#e7eaf0"/>
    <path id="Trazado_986727" data-name="Trazado 986727" d="M51.255,41.377h0a26.866,26.866,0,0,1,3.62,13.5H46.157a18.169,18.169,0,0,0-2.471-9.148Z" transform="translate(771.999 902)" fill="#f06292"/>
    <path id="Trazado_986728" data-name="Trazado 986728" d="M51.255,41.377l-7.548,4.358a.13.13,0,0,0-.021-.008,18.334,18.334,0,0,0-6.693-6.681l4.381-7.55a27.116,27.116,0,0,1,9.881,9.881" transform="translate(771.999 902)" fill="#f57c00"/>
    <path id="Trazado_986729" data-name="Trazado 986729" d="M46.047,44.383l-2.34,1.351-.021-.007a18.352,18.352,0,0,0-6.693-6.682L38.356,36.7a21.078,21.078,0,0,1,7.691,7.687" transform="translate(771.999 902)" fill="#d95e00"/>
    <path id="Trazado_986730" data-name="Trazado 986730" d="M41.373,31.5l-4.358,7.548-.022,0a18.181,18.181,0,0,0-9.118-2.452V27.875a26.866,26.866,0,0,1,13.5,3.62" transform="translate(771.999 902)" fill="#f5bb2b"/>
    <path id="Trazado_986731" data-name="Trazado 986731" d="M27.875,33.875A20.885,20.885,0,0,1,38.367,36.7l-1.351,2.341-.023,0a18.181,18.181,0,0,0-9.118-2.452Z" transform="translate(771.999 902)" fill="#ffa000"/>
    <path id="Trazado_986732" data-name="Trazado 986732" d="M1.552,48.875a27.085,27.085,0,0,0-.677,6h54a27.086,27.086,0,0,0-.678-6H34.222l.287-11-.784-.32-4.894,11.32Z" transform="translate(771.999 902)" fill="#c3ccdb"/>
    <path id="Trazado_986733" data-name="Trazado 986733" d="M4.495,41.377h0a26.866,26.866,0,0,0-3.62,13.5H9.593a18.169,18.169,0,0,1,2.471-9.148Z" transform="translate(771.999 902)" fill="#43a047"/>
    <path id="Trazado_986734" data-name="Trazado 986734" d="M4.495,41.377l7.548,4.358a.13.13,0,0,1,.021-.008,18.334,18.334,0,0,1,6.693-6.681L14.376,31.5a27.116,27.116,0,0,0-9.881,9.881" transform="translate(771.999 902)" fill="#9ccc65"/>
    <path id="Trazado_986735" data-name="Trazado 986735" d="M9.7,44.383l2.34,1.351.021-.007a18.352,18.352,0,0,1,6.693-6.682L17.394,36.7A21.078,21.078,0,0,0,9.7,44.383" transform="translate(771.999 902)" fill="#43a047"/>
    <path id="Trazado_986736" data-name="Trazado 986736" d="M14.377,31.5l4.358,7.548.022,0a18.181,18.181,0,0,1,9.118-2.452V27.875a26.866,26.866,0,0,0-13.5,3.62" transform="translate(771.999 902)" fill="#d4e157"/>
    <path id="Trazado_986737" data-name="Trazado 986737" d="M27.875,33.875A20.885,20.885,0,0,0,17.383,36.7l1.351,2.341.023,0a18.181,18.181,0,0,1,9.118-2.452Z" transform="translate(771.999 902)" fill="#9ccc65"/>
    <path id="Trazado_986738" data-name="Trazado 986738" d="M1.552,48.875a27.085,27.085,0,0,0-.677,6H9.593a18.229,18.229,0,0,1,1.028-6Z" transform="translate(771.999 902)" fill="#388e3c"/>
    <path id="Trazado_986739" data-name="Trazado 986739" d="M9.709,44.373a20.882,20.882,0,0,0-2.834,10.5H9.594a18.165,18.165,0,0,1,2.47-9.148Z" transform="translate(771.999 902)" fill="#388e3c"/>
    <path id="Trazado_986740" data-name="Trazado 986740" d="M45.128,48.875a18.2,18.2,0,0,1,1.028,6h8.719a27.026,27.026,0,0,0-.678-6Z" transform="translate(771.999 902)" fill="#d13978"/>
    <path id="Trazado_986741" data-name="Trazado 986741" d="M46.041,44.373a20.882,20.882,0,0,1,2.834,10.5H46.156a18.165,18.165,0,0,0-2.47-9.148Z" transform="translate(771.999 902)" fill="#d13978"/>
    <path id="Trazado_986742" data-name="Trazado 986742" d="M34.205,34.845l-3.07,17.54h-5.33l6.31-18.08a1.084,1.084,0,0,1,1.03-.73,1.241,1.241,0,0,1,.27.03,1.091,1.091,0,0,1,.79,1.24" transform="translate(771.999 902)" fill="#1e88e5"/>
    <path id="Trazado_986743" data-name="Trazado 986743" d="M33.875,54.875h-12a6,6,0,0,1,12,0" transform="translate(771.999 902)" fill="#1e88e5"/>
    <path id="Trazado_986744" data-name="Trazado 986744" d="M54.875,55.75H17.383a.875.875,0,1,1,0-1.75h36.6a26.125,26.125,0,0,0-52.22,0H12.288a.875.875,0,1,1,0,1.75H.875A.875.875,0,0,1,0,54.875a27.875,27.875,0,0,1,55.75,0,.875.875,0,0,1-.875.875" transform="translate(771.999 902)"/>
    <path id="Trazado_986745" data-name="Trazado 986745" d="M33.875,55.75A.875.875,0,0,1,33,54.875a5.125,5.125,0,0,0-10.25,0,.875.875,0,0,1-1.75,0,6.875,6.875,0,0,1,13.75,0,.875.875,0,0,1-.875.875" transform="translate(771.999 902)"/>
    <path id="Trazado_986746" data-name="Trazado 986746" d="M31.525,50.995a.871.871,0,0,1-.875-.87v-.01a.847.847,0,0,1,.013-.151l2.68-15.27a.216.216,0,0,0-.162-.246.228.228,0,0,0-.241.15L27.821,49.234a.875.875,0,1,1-1.652-.578l5.12-14.64a2,2,0,0,1,2.317-1.265A1.969,1.969,0,0,1,35.067,35L32.39,50.251a.88.88,0,0,1-.865.744" transform="translate(771.999 902)"/>
    <path id="Trazado_986747" data-name="Trazado 986747" d="M27.875,37.469A.875.875,0,0,1,27,36.594V27.875a.875.875,0,0,1,1.75,0v8.719a.875.875,0,0,1-.875.875" transform="translate(771.999 902)"/>
    <path id="Trazado_986748" data-name="Trazado 986748" d="M18.735,39.918a.875.875,0,0,1-.759-.437L13.617,31.93a.875.875,0,1,1,1.515-.875l4.36,7.551a.874.874,0,0,1-.757,1.312" transform="translate(771.999 902)"/>
    <path id="Trazado_986749" data-name="Trazado 986749" d="M12.042,46.609a.879.879,0,0,1-.437-.117l-7.55-4.36a.875.875,0,1,1,.875-1.515l7.55,4.359a.875.875,0,0,1-.438,1.633" transform="translate(771.999 902)"/>
    <path id="Trazado_986750" data-name="Trazado 986750" d="M37.015,39.918a.874.874,0,0,1-.757-1.312l4.36-7.551a.875.875,0,1,1,1.515.875l-4.359,7.551a.875.875,0,0,1-.759.437" transform="translate(771.999 902)"/>
    <path id="Trazado_986751" data-name="Trazado 986751" d="M43.708,46.609a.875.875,0,0,1-.438-1.633l7.55-4.359a.875.875,0,1,1,.875,1.515l-7.55,4.36a.879.879,0,0,1-.437.117" transform="translate(771.999 902)"/>
    <path id="Trazado_986752" data-name="Trazado 986752" d="M3.875,34.75A.875.875,0,0,1,3,33.875v-14A.875.875,0,0,1,3.875,19h8.17a.875.875,0,0,1,.875.875v13.13a.875.875,0,0,1-1.75,0V20.75H4.75V33.875a.875.875,0,0,1-.875.875" transform="translate(771.999 902)"/>
    <path id="Trazado_986753" data-name="Trazado 986753" d="M17.155,30.97a.875.875,0,0,1-.875-.875V13.875A.875.875,0,0,1,17.155,13h8.17a.875.875,0,0,1,.875.875V28a.875.875,0,0,1-1.75,0V14.75H18.03V30.095a.875.875,0,0,1-.875.875" transform="translate(771.999 902)"/>
    <path id="Trazado_986754" data-name="Trazado 986754" d="M38.6,30.97a.875.875,0,0,1-.875-.875V19.875a.875.875,0,0,1,1.75,0v10.22a.875.875,0,0,1-.875.875" transform="translate(771.999 902)"/>
    <path id="Trazado_986755" data-name="Trazado 986755" d="M30.425,28.87A.875.875,0,0,1,29.55,28v-8.12A.875.875,0,0,1,30.425,19h4.2a.875.875,0,0,1,0,1.75H31.3V28a.875.875,0,0,1-.875.875" transform="translate(771.999 902)"/>
    <path id="Trazado_986756" data-name="Trazado 986756" d="M51.875,43.39A.875.875,0,0,1,51,42.515V12.75H44.58V33.005a.875.875,0,1,1-1.75,0V11.875A.875.875,0,0,1,43.705,11h8.17a.875.875,0,0,1,.875.875v30.64a.875.875,0,0,1-.875.875" transform="translate(771.999 902)"/>
    <path id="Trazado_986757" data-name="Trazado 986757" d="M21.24,9.75a3.875,3.875,0,1,1,3.875-3.875A3.879,3.879,0,0,1,21.24,9.75m0-6a2.125,2.125,0,1,0,2.125,2.125A2.127,2.127,0,0,0,21.24,3.75" transform="translate(771.999 902)"/>
    <path id="Trazado_986758" data-name="Trazado 986758" d="M7.96,15.75a3.875,3.875,0,1,1,3.875-3.875A3.879,3.879,0,0,1,7.96,15.75m0-6a2.125,2.125,0,1,0,2.125,2.125A2.127,2.127,0,0,0,7.96,9.75" transform="translate(771.999 902)"/>
    <path id="Trazado_986759" data-name="Trazado 986759" d="M34.51,15.75a3.875,3.875,0,1,1,3.875-3.875A3.879,3.879,0,0,1,34.51,15.75m0-6a2.125,2.125,0,1,0,2.125,2.125A2.127,2.127,0,0,0,34.51,9.75" transform="translate(771.999 902)"/>
    <path id="Trazado_986760" data-name="Trazado 986760" d="M47.79,7.75a3.875,3.875,0,1,1,3.875-3.875A3.879,3.879,0,0,1,47.79,7.75m0-6a2.125,2.125,0,1,0,2.125,2.125A2.127,2.127,0,0,0,47.79,1.75" transform="translate(771.999 902)"/>
    <path id="Trazado_986761" data-name="Trazado 986761" d="M37.076,11.2a.875.875,0,0,1-.452-1.625l8.15-4.9a.875.875,0,1,1,.9,1.5l-8.15,4.9a.87.87,0,0,1-.45.125" transform="translate(771.999 902)"/>
    <path id="Trazado_986762" data-name="Trazado 986762" d="M31.774,11.52a.869.869,0,0,1-.36-.078l-7.8-3.529a.875.875,0,1,1,.722-1.6l7.8,3.53a.875.875,0,0,1-.361,1.672" transform="translate(771.999 902)"/>
    <path id="Trazado_986763" data-name="Trazado 986763" d="M10.686,11.52a.875.875,0,0,1-.361-1.672l7.819-3.53a.875.875,0,1,1,.721,1.6l-7.821,3.529a.86.86,0,0,1-.358.078" transform="translate(771.999 902)"/>
    <path id="Trazado_986764" data-name="Trazado 986764" d="M45.706,51.708a.875.875,0,0,1-.853-.682A17.464,17.464,0,0,0,33.446,38.385.875.875,0,1,1,34,36.726,19.227,19.227,0,0,1,46.56,50.641a.875.875,0,0,1-.661,1.047.973.973,0,0,1-.193.02" transform="translate(771.999 902)"/>
    <path id="Trazado_986765" data-name="Trazado 986765" d="M9.6,55.75a.875.875,0,0,1-.875-.875A19.177,19.177,0,0,1,27.875,35.72a18.387,18.387,0,0,1,3.5.326.875.875,0,0,1-.334,1.718,16.606,16.606,0,0,0-3.163-.294,17.425,17.425,0,0,0-17.4,17.4.875.875,0,0,1-.875.875" transform="translate(771.999 902)"/>
    <path id="Trazado_986766" data-name="Trazado 986766" d="M22.325,20.985a.875.875,0,0,1-.875-.875V16.875a.875.875,0,0,1,1.75,0V20.11a.875.875,0,0,1-.875.875" transform="translate(771.999 902)" fill="#fff"/>
    <path id="Trazado_986767" data-name="Trazado 986767" d="M48.875,23.367A.875.875,0,0,1,48,22.492v-.828a.875.875,0,1,1,1.75,0v.828a.875.875,0,0,1-.875.875" transform="translate(771.999 902)" fill="#fff"/>
    <path id="Trazado_986768" data-name="Trazado 986768" d="M48.875,18.985A.875.875,0,0,1,48,18.11V14.639a.875.875,0,0,1,1.75,0V18.11a.875.875,0,0,1-.875.875" transform="translate(771.999 902)" fill="#fff"/>
    <path id="Trazado_986769" data-name="Trazado 986769" d="M46.282,40.4a.874.874,0,0,1-.672-.314,23.23,23.23,0,0,0-3.557-3.438.875.875,0,0,1,1.075-1.381,25.051,25.051,0,0,1,3.825,3.7.874.874,0,0,1-.671,1.436" transform="translate(771.999 902)" fill="#fff"/>
    <path id="Trazado_986770" data-name="Trazado 986770" d="M4.664,49.749a.876.876,0,0,1-.848-1.093A24.7,24.7,0,0,1,4.9,45.4a.875.875,0,1,1,1.617.668,22.913,22.913,0,0,0-1.008,3.024.875.875,0,0,1-.847.656" transform="translate(771.999 902)" fill="#fff"/>
    <rect id="Rectángulo_408357" data-name="Rectángulo 408357" width="55.75" height="55.75" transform="translate(771.999 902)" fill="none"/>
  </g>
</svg>
