<svg xmlns="http://www.w3.org/2000/svg" width="509.635" height="596.422" viewBox="0 0 509.635 596.422">
  <g id="Grupo_1151964" data-name="Grupo 1151964" transform="translate(-548 -3060.793)">
    <path id="Trazado_986436" data-name="Trazado 986436" d="M26.253,236.965c0-8.37-13.16-16.446-24.238-19.762a152.418,152.418,0,0,1,13.377-40.9c10.951,3.882,27.061,5.677,31.51-2.023,4.186-7.242-3.169-20.806-11.089-29.219a154.786,154.786,0,0,1,32.022-28.728c7.545,8.828,20.584,18.434,28.286,13.993,7.253-4.183,7.657-19.632,4.991-30.886a153.324,153.324,0,0,1,42.114-8.82c2.115,11.42,8.616,26.256,17.5,26.256,8.37,0,16.438-13.16,19.751-24.241a152.466,152.466,0,0,1,40.907,13.38c-3.893,10.962-5.688,27.069,2.014,31.51,7.244,4.183,20.8-3.169,29.211-11.089a154.155,154.155,0,0,1,28.725,32.012c-8.828,7.556-18.423,20.595-13.982,28.3,4.183,7.253,19.624,7.656,30.878,4.991a152.871,152.871,0,0,1,8.825,42.114c-11.417,2.115-26.242,8.608-26.242,17.49-.011,8.37,13.158,16.446,24.23,19.759a152.489,152.489,0,0,1-13.38,40.9c-10.951-3.882-27.058-5.677-31.5,2.025-4.183,7.242,3.161,20.8,11.092,29.211a154.466,154.466,0,0,1-32.022,28.726c-7.556-8.828-20.595-18.426-28.289-13.982-7.253,4.183-7.662,19.624-4.991,30.878a153.032,153.032,0,0,1-42.111,8.825c-2.126-11.417-8.619-26.253-17.5-26.253-8.37,0-16.435,13.158-19.751,24.241a152.543,152.543,0,0,1-40.9-13.38c3.882-10.953,5.685-27.061-2.014-31.51-7.244-4.183-20.8,3.169-29.214,11.1a154.027,154.027,0,0,1-28.734-32.022c8.828-7.545,18.434-20.595,13.993-28.294-4.186-7.253-19.635-7.657-30.889-4.991A152.869,152.869,0,0,1,0,254.456c11.425-2.115,26.253-8.608,26.253-17.49M153.532,346.643A102.489,102.489,0,1,0,51.042,244.156a102.489,102.489,0,0,0,102.49,102.487" transform="translate(719.885 3259.532)" fill="#0d1b36"/>
    <path id="Trazado_986438" data-name="Trazado 986438" d="M34.343,104.024c0-5.951-9.354-11.691-17.23-14.047a108.241,108.241,0,0,1,9.511-29.07c7.784,2.76,19.233,4.034,22.4-1.44C52,54.319,46.769,44.677,41.14,38.7A109.974,109.974,0,0,1,63.9,18.278c5.363,6.274,14.633,13.1,20.107,9.945,5.157-2.974,5.441-13.955,3.549-21.956A109.07,109.07,0,0,1,117.492,0c1.5,8.117,6.125,18.661,12.439,18.661,5.948,0,11.685-9.354,14.041-17.227a108.3,108.3,0,0,1,29.075,9.508c-2.765,7.792-4.042,19.242,1.432,22.4,5.149,2.974,14.784-2.25,20.765-7.882a109.669,109.669,0,0,1,20.418,22.755c-6.274,5.371-13.1,14.638-9.939,20.115,2.974,5.154,13.949,5.441,21.95,3.546a108.633,108.633,0,0,1,6.274,29.937c-8.117,1.5-18.656,6.117-18.656,12.431-.005,5.948,9.354,11.691,17.224,14.047A108.241,108.241,0,0,1,223,157.359c-7.784-2.76-19.233-4.034-22.389,1.44-2.977,5.149,2.245,14.782,7.882,20.763a109.84,109.84,0,0,1-22.764,20.421c-5.368-6.277-14.638-13.1-20.107-9.939-5.154,2.974-5.447,13.949-3.549,21.947a108.758,108.758,0,0,1-29.935,6.276c-1.51-8.117-6.125-18.664-12.439-18.664-5.948,0-11.683,9.354-14.039,17.233a108.519,108.519,0,0,1-29.078-9.511c2.76-7.784,4.042-19.236-1.432-22.4-5.149-2.974-14.782,2.25-20.765,7.887a109.57,109.57,0,0,1-20.424-22.761c6.274-5.366,13.1-14.641,9.945-20.115-2.974-5.154-13.955-5.441-21.956-3.546a108.635,108.635,0,0,1-6.274-29.935c8.123-1.5,18.661-6.119,18.661-12.434m90.474,77.962a72.852,72.852,0,1,0-72.854-72.851,72.853,72.853,0,0,0,72.854,72.851" transform="translate(750.475 3104.452)" fill="#0d1b36"/>
    <path id="Trazado_986440" data-name="Trazado 986440" d="M114.807,143.641c0-5.948-9.354-11.691-17.23-14.047a108.239,108.239,0,0,1,9.511-29.07c7.784,2.76,19.233,4.034,22.4-1.44,2.974-5.149-2.253-14.787-7.882-20.771A109.974,109.974,0,0,1,144.365,57.9C149.728,64.169,159,71,164.472,67.84c5.157-2.974,5.441-13.955,3.549-21.956a109.069,109.069,0,0,1,29.935-6.268c1.5,8.117,6.125,18.661,12.439,18.661,5.948,0,11.685-9.354,14.041-17.227a108.3,108.3,0,0,1,29.075,9.508c-2.765,7.792-4.042,19.242,1.432,22.4,5.151,2.974,14.784-2.25,20.765-7.882A109.669,109.669,0,0,1,296.127,87.83c-6.274,5.371-13.1,14.638-9.939,20.115,2.974,5.154,13.949,5.441,21.95,3.546a108.634,108.634,0,0,1,6.274,29.937c-8.115,1.5-18.656,6.117-18.656,12.431-.005,5.948,9.354,11.691,17.224,14.047a108.241,108.241,0,0,1-9.511,29.07c-7.784-2.76-19.233-4.034-22.389,1.44-2.977,5.149,2.245,14.782,7.882,20.763A109.84,109.84,0,0,1,266.2,239.6c-5.368-6.277-14.638-13.1-20.107-9.939-5.154,2.974-5.447,13.949-3.546,21.947a108.8,108.8,0,0,1-29.937,6.277c-1.51-8.117-6.125-18.664-12.439-18.664-5.948,0-11.683,9.356-14.039,17.233a108.519,108.519,0,0,1-29.078-9.511c2.76-7.784,4.042-19.236-1.432-22.4-5.149-2.974-14.782,2.25-20.763,7.887a109.507,109.507,0,0,1-20.426-22.761c6.274-5.366,13.1-14.641,9.945-20.115-2.974-5.154-13.955-5.441-21.956-3.546a108.634,108.634,0,0,1-6.274-29.937c8.123-1.5,18.661-6.117,18.661-12.431M205.281,221.6a72.852,72.852,0,1,0-72.854-72.851A72.853,72.853,0,0,0,205.281,221.6" transform="translate(451.854 3172.246)" fill="#0d1b36"/>
    <path id="Trazado_986774" data-name="Trazado 986774" d="M13.356,10.9V1.166h3.362V10.9a8.152,8.152,0,0,1-.784,3.932q-1.461,2.578-5.575,2.578T4.773,14.83A8.152,8.152,0,0,1,3.988,10.9V1.166H7.351V10.9a5.5,5.5,0,0,0,.387,2.385,2.566,2.566,0,0,0,2.621,1.332,2.556,2.556,0,0,0,2.61-1.332A5.5,5.5,0,0,0,13.356,10.9ZM27.7,5.828a3.772,3.772,0,0,1,1.579,3.029H26.214a1.811,1.811,0,0,0-.333-.935A2.1,2.1,0,0,0,24.162,7.3a2.47,2.47,0,0,0-1.423.312.9.9,0,0,0-.424.73.8.8,0,0,0,.451.763,19.531,19.531,0,0,0,3.19.849,5.86,5.86,0,0,1,2.739,1.3,2.951,2.951,0,0,1,.9,2.2A3.558,3.558,0,0,1,28.3,16.3a6.081,6.081,0,0,1-4,1.1,6.024,6.024,0,0,1-4.077-1.166,3.792,3.792,0,0,1-1.316-2.97h3.1a2.044,2.044,0,0,0,.419,1.16,2.832,2.832,0,0,0,2.105.612,3.209,3.209,0,0,0,1.434-.269.9.9,0,0,0,.1-1.59,17.48,17.48,0,0,0-3.19-.924,6.645,6.645,0,0,1-2.8-1.235,2.678,2.678,0,0,1-.816-2.105,3.652,3.652,0,0,1,1.273-2.788,5.113,5.113,0,0,1,3.583-1.166A6.633,6.633,0,0,1,27.7,5.828Zm11.677,9.518q-.043.054-.215.322a2.157,2.157,0,0,1-.408.473,4.263,4.263,0,0,1-1.391.881,4.741,4.741,0,0,1-1.574.236,3.508,3.508,0,0,1-3.5-1.869,7.152,7.152,0,0,1-.5-3.04V5.291h3.137v7.058a3.694,3.694,0,0,0,.236,1.5,1.636,1.636,0,0,0,1.644.892,2.148,2.148,0,0,0,2.148-1.268,4.589,4.589,0,0,0,.3-1.815V5.291h3.1V17H39.373Zm6.37-8.787q1.214-1.547,4.168-1.547a7.405,7.405,0,0,1,3.416.763,2.928,2.928,0,0,1,1.493,2.879v5.371q0,.559.021,1.354a1.7,1.7,0,0,0,.183.816,1.1,1.1,0,0,0,.451.354V17h-3.33a3.41,3.41,0,0,1-.193-.666q-.054-.312-.086-.709A6.29,6.29,0,0,1,50.405,16.8a4.394,4.394,0,0,1-2.234.569,3.842,3.842,0,0,1-2.626-.908,3.238,3.238,0,0,1-1.037-2.573,3.339,3.339,0,0,1,1.665-3.126,7.393,7.393,0,0,1,2.686-.752L49.9,9.878a4.779,4.779,0,0,0,1.214-.269.92.92,0,0,0,.655-.87,1.032,1.032,0,0,0-.5-.994A3.12,3.12,0,0,0,49.8,7.472a1.91,1.91,0,0,0-1.536.537,2.232,2.232,0,0,0-.43,1.074H44.884A4.493,4.493,0,0,1,45.743,6.559Zm2.277,8.229a1.6,1.6,0,0,0,1.053.354,3.118,3.118,0,0,0,1.821-.58,2.474,2.474,0,0,0,.865-2.116V11.307a3.327,3.327,0,0,1-.585.3,4.9,4.9,0,0,1-.811.209l-.687.129a4.439,4.439,0,0,0-1.386.419,1.4,1.4,0,0,0-.709,1.3A1.344,1.344,0,0,0,48.021,14.787Zm15.4-6.671a2.539,2.539,0,0,0-2.481,1.2,4.68,4.68,0,0,0-.354,2.084V17H57.506V5.291h2.922V7.332a6.473,6.473,0,0,1,1.235-1.6,3.363,3.363,0,0,1,2.234-.72q.086,0,.145.005t.263.016V8.17q-.29-.032-.516-.043T63.425,8.116Zm5.822-2.825V17h-3.1V5.291Zm0-4.222V3.895h-3.1V1.069Zm12.729,5.7a6.833,6.833,0,0,1,1.482,4.394,6.788,6.788,0,0,1-1.482,4.41,5.447,5.447,0,0,1-4.5,1.832,5.447,5.447,0,0,1-4.5-1.832,6.788,6.788,0,0,1-1.482-4.41,6.833,6.833,0,0,1,1.482-4.394,5.409,5.409,0,0,1,4.5-1.858A5.409,5.409,0,0,1,81.977,6.773Zm-4.512.73a2.446,2.446,0,0,0-2.068.951,4.4,4.4,0,0,0-.725,2.712,4.423,4.423,0,0,0,.725,2.718,2.709,2.709,0,0,0,4.13,0,4.448,4.448,0,0,0,.72-2.718,4.423,4.423,0,0,0-.72-2.712A2.432,2.432,0,0,0,77.465,7.5ZM93.718,5.828A3.772,3.772,0,0,1,95.3,8.857H92.236a1.811,1.811,0,0,0-.333-.935A2.1,2.1,0,0,0,90.184,7.3a2.47,2.47,0,0,0-1.423.312.9.9,0,0,0-.424.73.8.8,0,0,0,.451.763,19.531,19.531,0,0,0,3.19.849,5.86,5.86,0,0,1,2.739,1.3,2.951,2.951,0,0,1,.9,2.2A3.558,3.558,0,0,1,94.325,16.3a6.081,6.081,0,0,1-4,1.1,6.024,6.024,0,0,1-4.077-1.166,3.792,3.792,0,0,1-1.316-2.97h3.1a2.044,2.044,0,0,0,.419,1.16,2.832,2.832,0,0,0,2.105.612,3.209,3.209,0,0,0,1.434-.269.9.9,0,0,0,.1-1.59,17.48,17.48,0,0,0-3.19-.924,6.645,6.645,0,0,1-2.8-1.235,2.678,2.678,0,0,1-.816-2.105,3.652,3.652,0,0,1,1.273-2.788,5.113,5.113,0,0,1,3.583-1.166A6.633,6.633,0,0,1,93.718,5.828ZM10.568,31.691V43.4h-3.1V31.691Zm0-4.222v2.825h-3.1V27.469Zm8.476,6.488a2.132,2.132,0,0,0-2.138,1.321,4.538,4.538,0,0,0-.3,1.783V43.4H13.554V31.713h2.954v1.708a5.2,5.2,0,0,1,1.117-1.3,3.883,3.883,0,0,1,2.4-.709,4.52,4.52,0,0,1,2.97.951,3.866,3.866,0,0,1,1.155,3.153V43.4H21.009V36.278a3.25,3.25,0,0,0-.247-1.418A1.738,1.738,0,0,0,19.044,33.958Zm13.288,7.262v2.288l-1.45.054a3.892,3.892,0,0,1-2.965-.752,2.239,2.239,0,0,1-.516-1.622V33.979H25.768V31.8H27.4V28.533H30.43V31.8h1.9v2.181h-1.9v6.188a1.394,1.394,0,0,0,.183.9,2.011,2.011,0,0,0,1.117.177q.14,0,.3-.005T32.332,41.219ZM44.32,39.963a3.884,3.884,0,0,1-1.085,2.116,5.316,5.316,0,0,1-4.211,1.708,5.938,5.938,0,0,1-3.942-1.439q-1.708-1.439-1.708-4.684A6.51,6.51,0,0,1,34.915,33a5.271,5.271,0,0,1,4-1.622,6.136,6.136,0,0,1,2.632.548,4.61,4.61,0,0,1,1.934,1.729,5.9,5.9,0,0,1,.892,2.417,15.609,15.609,0,0,1,.1,2.32H36.457a2.91,2.91,0,0,0,1.106,2.471,2.606,2.606,0,0,0,1.525.44,2.2,2.2,0,0,0,1.536-.537,2.551,2.551,0,0,0,.569-.806Zm-3.029-3.588a2.665,2.665,0,0,0-.736-1.842,2.285,2.285,0,0,0-1.638-.628,2.079,2.079,0,0,0-1.649.666,3.324,3.324,0,0,0-.736,1.8ZM52.42,34.516a2.539,2.539,0,0,0-2.481,1.2,4.68,4.68,0,0,0-.354,2.084v5.6H46.5V31.691h2.922v2.041a6.473,6.473,0,0,1,1.235-1.6,3.363,3.363,0,0,1,2.234-.72q.086,0,.145.005t.263.016V34.57q-.29-.032-.516-.043T52.42,34.516Zm8.186-.559a2.132,2.132,0,0,0-2.138,1.321,4.538,4.538,0,0,0-.3,1.783V43.4H55.116V31.713H58.07v1.708a5.2,5.2,0,0,1,1.117-1.3,3.883,3.883,0,0,1,2.4-.709,4.52,4.52,0,0,1,2.97.951,3.866,3.866,0,0,1,1.155,3.153V43.4H62.571V36.278a3.25,3.25,0,0,0-.247-1.418A1.738,1.738,0,0,0,60.605,33.958ZM78.3,33.173a7.276,7.276,0,0,1,0,8.8,5.447,5.447,0,0,1-4.5,1.832,5.447,5.447,0,0,1-4.5-1.832,7.276,7.276,0,0,1,0-8.8,5.409,5.409,0,0,1,4.5-1.858A5.409,5.409,0,0,1,78.3,33.173Zm-4.512.73a2.446,2.446,0,0,0-2.068.951,4.4,4.4,0,0,0-.725,2.712,4.423,4.423,0,0,0,.725,2.718,2.709,2.709,0,0,0,4.13,0,4.448,4.448,0,0,0,.72-2.718,4.423,4.423,0,0,0-.72-2.712A2.432,2.432,0,0,0,73.786,33.9Zm16.253-1.676a3.772,3.772,0,0,1,1.579,3.029H88.556a1.811,1.811,0,0,0-.333-.935A2.1,2.1,0,0,0,86.5,33.7a2.47,2.47,0,0,0-1.423.312.9.9,0,0,0-.424.73.8.8,0,0,0,.451.763,19.531,19.531,0,0,0,3.19.849,5.86,5.86,0,0,1,2.739,1.3,2.951,2.951,0,0,1,.9,2.2A3.558,3.558,0,0,1,90.646,42.7a6.081,6.081,0,0,1-4,1.1,6.024,6.024,0,0,1-4.077-1.166,3.792,3.792,0,0,1-1.316-2.97h3.1a2.044,2.044,0,0,0,.419,1.16,2.832,2.832,0,0,0,2.105.612,3.209,3.209,0,0,0,1.434-.269.9.9,0,0,0,.1-1.59,17.48,17.48,0,0,0-3.19-.924,6.645,6.645,0,0,1-2.8-1.235,2.678,2.678,0,0,1-.816-2.105,3.652,3.652,0,0,1,1.273-2.788,5.113,5.113,0,0,1,3.583-1.166A6.633,6.633,0,0,1,90.039,32.228Z" transform="translate(607.742 3295.344)" fill="#212429"/>
    <path id="Trazado_986775" data-name="Trazado 986775" d="M13.471,10.9V1.166h3.362V10.9a8.152,8.152,0,0,1-.784,3.932q-1.461,2.578-5.575,2.578T4.888,14.83A8.152,8.152,0,0,1,4.1,10.9V1.166H7.466V10.9a5.5,5.5,0,0,0,.387,2.385,2.566,2.566,0,0,0,2.621,1.332,2.556,2.556,0,0,0,2.61-1.332A5.5,5.5,0,0,0,13.471,10.9Zm14.341-5.07a3.772,3.772,0,0,1,1.579,3.029H26.329A1.811,1.811,0,0,0,26,7.923,2.1,2.1,0,0,0,24.277,7.3a2.47,2.47,0,0,0-1.423.312.9.9,0,0,0-.424.73.8.8,0,0,0,.451.763,19.531,19.531,0,0,0,3.19.849,5.86,5.86,0,0,1,2.739,1.3,2.951,2.951,0,0,1,.9,2.2A3.558,3.558,0,0,1,28.418,16.3a6.081,6.081,0,0,1-4,1.1,6.024,6.024,0,0,1-4.077-1.166,3.792,3.792,0,0,1-1.316-2.97h3.1a2.044,2.044,0,0,0,.419,1.16,2.832,2.832,0,0,0,2.105.612,3.209,3.209,0,0,0,1.434-.269.9.9,0,0,0,.1-1.59A17.48,17.48,0,0,0,23,12.252a6.645,6.645,0,0,1-2.8-1.235,2.678,2.678,0,0,1-.816-2.105,3.652,3.652,0,0,1,1.273-2.788,5.113,5.113,0,0,1,3.583-1.166A6.633,6.633,0,0,1,27.812,5.828Zm11.677,9.518q-.043.054-.215.322a2.157,2.157,0,0,1-.408.473,4.263,4.263,0,0,1-1.391.881,4.741,4.741,0,0,1-1.574.236,3.508,3.508,0,0,1-3.5-1.869,7.152,7.152,0,0,1-.5-3.04V5.291H35.03v7.058a3.694,3.694,0,0,0,.236,1.5,1.636,1.636,0,0,0,1.644.892,2.148,2.148,0,0,0,2.148-1.268,4.589,4.589,0,0,0,.3-1.815V5.291h3.1V17H39.488Zm6.37-8.787q1.214-1.547,4.168-1.547a7.405,7.405,0,0,1,3.416.763,2.928,2.928,0,0,1,1.493,2.879v5.371q0,.559.021,1.354a1.7,1.7,0,0,0,.183.816,1.1,1.1,0,0,0,.451.354V17h-3.33a3.41,3.41,0,0,1-.193-.666q-.054-.312-.086-.709A6.29,6.29,0,0,1,50.521,16.8a4.394,4.394,0,0,1-2.234.569,3.842,3.842,0,0,1-2.626-.908,3.238,3.238,0,0,1-1.037-2.573,3.339,3.339,0,0,1,1.665-3.126,7.393,7.393,0,0,1,2.686-.752l1.042-.129a4.779,4.779,0,0,0,1.214-.269.92.92,0,0,0,.655-.87,1.032,1.032,0,0,0-.5-.994,3.12,3.12,0,0,0-1.466-.274,1.91,1.91,0,0,0-1.536.537,2.232,2.232,0,0,0-.43,1.074H45A4.493,4.493,0,0,1,45.858,6.559Zm2.277,8.229a1.6,1.6,0,0,0,1.053.354,3.118,3.118,0,0,0,1.821-.58,2.474,2.474,0,0,0,.865-2.116V11.307a3.327,3.327,0,0,1-.585.3,4.9,4.9,0,0,1-.811.209l-.687.129a4.439,4.439,0,0,0-1.386.419,1.4,1.4,0,0,0-.709,1.3A1.344,1.344,0,0,0,48.136,14.787Zm15.4-6.671a2.539,2.539,0,0,0-2.481,1.2A4.68,4.68,0,0,0,60.7,11.4V17H57.621V5.291h2.922V7.332a6.473,6.473,0,0,1,1.235-1.6,3.363,3.363,0,0,1,2.234-.72q.086,0,.145.005t.263.016V8.17q-.29-.032-.516-.043T63.54,8.116Zm5.822-2.825V17h-3.1V5.291Zm0-4.222V3.895h-3.1V1.069Zm12.729,5.7a6.833,6.833,0,0,1,1.482,4.394,6.788,6.788,0,0,1-1.482,4.41,5.447,5.447,0,0,1-4.5,1.832,5.447,5.447,0,0,1-4.5-1.832,6.788,6.788,0,0,1-1.482-4.41A6.833,6.833,0,0,1,73.09,6.773a5.409,5.409,0,0,1,4.5-1.858A5.409,5.409,0,0,1,82.092,6.773ZM77.58,7.5a2.446,2.446,0,0,0-2.068.951,4.4,4.4,0,0,0-.725,2.712,4.423,4.423,0,0,0,.725,2.718,2.709,2.709,0,0,0,4.13,0,4.448,4.448,0,0,0,.72-2.718,4.423,4.423,0,0,0-.72-2.712A2.432,2.432,0,0,0,77.58,7.5ZM93.833,5.828a3.772,3.772,0,0,1,1.579,3.029H92.351a1.811,1.811,0,0,0-.333-.935A2.1,2.1,0,0,0,90.3,7.3a2.47,2.47,0,0,0-1.423.312.9.9,0,0,0-.424.73A.8.8,0,0,0,88.9,9.1a19.531,19.531,0,0,0,3.19.849,5.86,5.86,0,0,1,2.739,1.3,2.951,2.951,0,0,1,.9,2.2A3.558,3.558,0,0,1,94.44,16.3a6.081,6.081,0,0,1-4,1.1,6.024,6.024,0,0,1-4.077-1.166,3.792,3.792,0,0,1-1.316-2.97h3.1a2.044,2.044,0,0,0,.419,1.16,2.832,2.832,0,0,0,2.105.612,3.209,3.209,0,0,0,1.434-.269.9.9,0,0,0,.1-1.59,17.48,17.48,0,0,0-3.19-.924,6.645,6.645,0,0,1-2.8-1.235A2.678,2.678,0,0,1,85.4,8.911a3.652,3.652,0,0,1,1.273-2.788,5.113,5.113,0,0,1,3.583-1.166A6.633,6.633,0,0,1,93.833,5.828ZM15.1,39.963a3.884,3.884,0,0,1-1.085,2.116A5.316,5.316,0,0,1,9.8,43.787,5.938,5.938,0,0,1,5.86,42.347q-1.708-1.439-1.708-4.684A6.51,6.51,0,0,1,5.693,33a5.271,5.271,0,0,1,4-1.622,6.136,6.136,0,0,1,2.632.548,4.61,4.61,0,0,1,1.934,1.729,5.9,5.9,0,0,1,.892,2.417,15.609,15.609,0,0,1,.1,2.32H7.235a2.91,2.91,0,0,0,1.106,2.471,2.606,2.606,0,0,0,1.525.44,2.2,2.2,0,0,0,1.536-.537,2.551,2.551,0,0,0,.569-.806Zm-3.029-3.588a2.665,2.665,0,0,0-.736-1.842A2.285,2.285,0,0,0,9.695,33.9a2.079,2.079,0,0,0-1.649.666,3.324,3.324,0,0,0-.736,1.8ZM27.742,43.4H23.928l-2.02-3.513L19.878,43.4H16.162l4-5.93-3.824-5.758h3.749l1.955,3.395,1.912-3.395h3.642l-3.846,5.7Zm7.165-2.181v2.288l-1.45.054a3.892,3.892,0,0,1-2.965-.752,2.239,2.239,0,0,1-.516-1.622V33.979H28.343V31.8h1.633V28.533h3.029V31.8h1.9v2.181h-1.9v6.188a1.394,1.394,0,0,0,.183.9,2.011,2.011,0,0,0,1.117.177q.14,0,.3-.005T34.907,41.219ZM46.9,39.963a3.884,3.884,0,0,1-1.085,2.116A5.316,5.316,0,0,1,41.6,43.787a5.938,5.938,0,0,1-3.942-1.439q-1.708-1.439-1.708-4.684A6.51,6.51,0,0,1,37.49,33a5.271,5.271,0,0,1,4-1.622,6.136,6.136,0,0,1,2.632.548,4.61,4.61,0,0,1,1.934,1.729,5.9,5.9,0,0,1,.892,2.417,15.609,15.609,0,0,1,.1,2.32H39.032a2.91,2.91,0,0,0,1.106,2.471,2.606,2.606,0,0,0,1.525.44,2.2,2.2,0,0,0,1.536-.537,2.551,2.551,0,0,0,.569-.806Zm-3.029-3.588a2.665,2.665,0,0,0-.736-1.842,2.285,2.285,0,0,0-1.638-.628,2.079,2.079,0,0,0-1.649.666,3.324,3.324,0,0,0-.736,1.8Zm11.129-1.858a2.539,2.539,0,0,0-2.481,1.2,4.68,4.68,0,0,0-.354,2.084v5.6H49.076V31.691H52v2.041a6.473,6.473,0,0,1,1.235-1.6,3.363,3.363,0,0,1,2.234-.72q.086,0,.145.005t.263.016V34.57q-.29-.032-.516-.043T54.995,34.516Zm8.186-.559a2.132,2.132,0,0,0-2.138,1.321,4.538,4.538,0,0,0-.3,1.783V43.4H57.691V31.713h2.954v1.708a5.2,5.2,0,0,1,1.117-1.3,3.883,3.883,0,0,1,2.4-.709,4.52,4.52,0,0,1,2.97.951,3.866,3.866,0,0,1,1.155,3.153V43.4H65.146V36.278A3.25,3.25,0,0,0,64.9,34.86,1.738,1.738,0,0,0,63.18,33.958Zm17.692-.784a7.276,7.276,0,0,1,0,8.8,5.447,5.447,0,0,1-4.5,1.832,5.447,5.447,0,0,1-4.5-1.832,7.276,7.276,0,0,1,0-8.8,5.409,5.409,0,0,1,4.5-1.858A5.409,5.409,0,0,1,80.873,33.173Zm-4.512.73a2.446,2.446,0,0,0-2.068.951,4.4,4.4,0,0,0-.725,2.712,4.423,4.423,0,0,0,.725,2.718,2.709,2.709,0,0,0,4.13,0,4.448,4.448,0,0,0,.72-2.718,4.423,4.423,0,0,0-.72-2.712A2.432,2.432,0,0,0,76.361,33.9Zm16.253-1.676a3.772,3.772,0,0,1,1.579,3.029H91.131a1.811,1.811,0,0,0-.333-.935A2.1,2.1,0,0,0,89.08,33.7a2.47,2.47,0,0,0-1.423.312.9.9,0,0,0-.424.73.8.8,0,0,0,.451.763,19.531,19.531,0,0,0,3.19.849,5.86,5.86,0,0,1,2.739,1.3,2.951,2.951,0,0,1,.9,2.2A3.558,3.558,0,0,1,93.221,42.7a6.081,6.081,0,0,1-4,1.1,6.024,6.024,0,0,1-4.077-1.166,3.792,3.792,0,0,1-1.316-2.97h3.1a2.044,2.044,0,0,0,.419,1.16,2.832,2.832,0,0,0,2.105.612,3.209,3.209,0,0,0,1.434-.269.9.9,0,0,0,.1-1.59,17.48,17.48,0,0,0-3.19-.924A6.645,6.645,0,0,1,85,37.417a2.678,2.678,0,0,1-.816-2.105,3.652,3.652,0,0,1,1.273-2.788,5.113,5.113,0,0,1,3.583-1.166A6.633,6.633,0,0,1,92.614,32.228Z" transform="translate(825.396 3186.273)" fill="#212429"/>
    <path id="Trazado_986773" data-name="Trazado 986773" d="M1.676,1.166H4.984V14.153h7.842V17H1.676ZM15.308,6.559q1.214-1.547,4.168-1.547a7.405,7.405,0,0,1,3.416.763,2.928,2.928,0,0,1,1.493,2.879v5.371q0,.559.021,1.354a1.7,1.7,0,0,0,.183.816,1.1,1.1,0,0,0,.451.354V17H21.71a3.41,3.41,0,0,1-.193-.666q-.054-.312-.086-.709A6.29,6.29,0,0,1,19.97,16.8a4.394,4.394,0,0,1-2.234.569,3.842,3.842,0,0,1-2.626-.908,3.238,3.238,0,0,1-1.037-2.573,3.339,3.339,0,0,1,1.665-3.126,7.393,7.393,0,0,1,2.686-.752l1.042-.129a4.779,4.779,0,0,0,1.214-.269.92.92,0,0,0,.655-.87,1.032,1.032,0,0,0-.5-.994,3.12,3.12,0,0,0-1.466-.274,1.91,1.91,0,0,0-1.536.537,2.232,2.232,0,0,0-.43,1.074H14.448A4.493,4.493,0,0,1,15.308,6.559Zm2.277,8.229a1.6,1.6,0,0,0,1.053.354,3.118,3.118,0,0,0,1.821-.58,2.474,2.474,0,0,0,.865-2.116V11.307a3.327,3.327,0,0,1-.585.3,4.9,4.9,0,0,1-.811.209l-.687.129a4.439,4.439,0,0,0-1.386.419,1.4,1.4,0,0,0-.709,1.3A1.344,1.344,0,0,0,17.585,14.787Zm25.652-1.225a3.884,3.884,0,0,1-1.085,2.116,5.316,5.316,0,0,1-4.211,1.708A5.938,5.938,0,0,1,34,15.947q-1.708-1.439-1.708-4.684A6.51,6.51,0,0,1,33.833,6.6a5.271,5.271,0,0,1,4-1.622,6.136,6.136,0,0,1,2.632.548A4.61,4.61,0,0,1,42.4,7.257a5.9,5.9,0,0,1,.892,2.417,15.609,15.609,0,0,1,.1,2.32H35.374a2.91,2.91,0,0,0,1.106,2.471,2.606,2.606,0,0,0,1.525.44,2.2,2.2,0,0,0,1.536-.537,2.551,2.551,0,0,0,.569-.806ZM40.208,9.975a2.665,2.665,0,0,0-.736-1.842A2.285,2.285,0,0,0,37.834,7.5a2.079,2.079,0,0,0-1.649.666,3.324,3.324,0,0,0-.736,1.8ZM52.024,8.514a1.5,1.5,0,0,0-1.515-.849,1.808,1.808,0,0,0-1.762.849A3.27,3.27,0,0,0,48.5,9.953V17H45.4V5.313h2.976V7.021a4.927,4.927,0,0,1,1.074-1.3,4.25,4.25,0,0,1,4.479-.1,3.437,3.437,0,0,1,1.01,1.407,3.893,3.893,0,0,1,1.493-1.515,4.556,4.556,0,0,1,2.105-.483,4.076,4.076,0,0,1,1.525.3,3.4,3.4,0,0,1,1.364,1.053,3.364,3.364,0,0,1,.666,1.5A10.4,10.4,0,0,1,62.2,9.62L62.176,17H59.039V9.545a2.447,2.447,0,0,0-.215-1.1,1.527,1.527,0,0,0-1.5-.816,1.76,1.76,0,0,0-1.751,1.053,3.306,3.306,0,0,0-.247,1.343V17H52.239V10.028A3.915,3.915,0,0,0,52.024,8.514ZM74.819,6.548A6.282,6.282,0,0,1,76.237,11a7.054,7.054,0,0,1-1.391,4.716,4.5,4.5,0,0,1-3.583,1.622,3.739,3.739,0,0,1-2.32-.7,4.5,4.5,0,0,1-.988-1.128v6.1H64.926V5.291h2.933V7.021a4.915,4.915,0,0,1,1.053-1.2,3.868,3.868,0,0,1,2.428-.784A4.6,4.6,0,0,1,74.819,6.548Zm-1.74,4.6a4.608,4.608,0,0,0-.618-2.4,2.15,2.15,0,0,0-2-1.042A2.279,2.279,0,0,0,68.17,9.287a5.989,5.989,0,0,0-.322,2.127,3.392,3.392,0,0,0,1.085,2.868,2.471,2.471,0,0,0,1.525.483,2.21,2.21,0,0,0,1.95-.988A4.609,4.609,0,0,0,73.079,11.146ZM84.337,8.116a2.539,2.539,0,0,0-2.481,1.2A4.68,4.68,0,0,0,81.5,11.4V17H78.418V5.291H81.34V7.332a6.473,6.473,0,0,1,1.235-1.6,3.363,3.363,0,0,1,2.234-.72q.086,0,.145.005t.263.016V8.17q-.29-.032-.516-.043T84.337,8.116Zm12.7,5.446a3.884,3.884,0,0,1-1.085,2.116,5.316,5.316,0,0,1-4.211,1.708A5.938,5.938,0,0,1,87.8,15.947q-1.708-1.439-1.708-4.684A6.51,6.51,0,0,1,87.629,6.6a5.271,5.271,0,0,1,4-1.622,6.136,6.136,0,0,1,2.632.548A4.61,4.61,0,0,1,96.2,7.257a5.9,5.9,0,0,1,.892,2.417,15.61,15.61,0,0,1,.1,2.32H89.171a2.91,2.91,0,0,0,1.106,2.471,2.606,2.606,0,0,0,1.525.44,2.2,2.2,0,0,0,1.536-.537,2.551,2.551,0,0,0,.569-.806ZM94,9.975a2.665,2.665,0,0,0-.736-1.842A2.285,2.285,0,0,0,91.631,7.5a2.079,2.079,0,0,0-1.649.666,3.324,3.324,0,0,0-.736,1.8Zm13.31-4.146a3.772,3.772,0,0,1,1.579,3.029h-3.062a1.811,1.811,0,0,0-.333-.935A2.1,2.1,0,0,0,103.78,7.3a2.47,2.47,0,0,0-1.423.312.9.9,0,0,0-.424.73.8.8,0,0,0,.451.763,19.531,19.531,0,0,0,3.19.849,5.86,5.86,0,0,1,2.739,1.3,2.951,2.951,0,0,1,.9,2.2,3.558,3.558,0,0,1-1.294,2.841,7.766,7.766,0,0,1-8.078-.064,3.792,3.792,0,0,1-1.316-2.97h3.1a2.044,2.044,0,0,0,.419,1.16,2.832,2.832,0,0,0,2.105.612,3.209,3.209,0,0,0,1.434-.269.9.9,0,0,0,.1-1.59,17.48,17.48,0,0,0-3.19-.924,6.645,6.645,0,0,1-2.8-1.235,2.678,2.678,0,0,1-.816-2.105,3.652,3.652,0,0,1,1.273-2.788,5.113,5.113,0,0,1,3.583-1.166A6.633,6.633,0,0,1,107.314,5.828Zm4.608.73q1.214-1.547,4.168-1.547a7.405,7.405,0,0,1,3.416.763A2.928,2.928,0,0,1,121,8.653v5.371q0,.559.021,1.354a1.7,1.7,0,0,0,.183.816,1.1,1.1,0,0,0,.451.354V17h-3.33a3.41,3.41,0,0,1-.193-.666q-.054-.312-.086-.709a6.29,6.29,0,0,1-1.461,1.171,4.394,4.394,0,0,1-2.234.569,3.842,3.842,0,0,1-2.626-.908,3.238,3.238,0,0,1-1.037-2.573,3.339,3.339,0,0,1,1.665-3.126,7.393,7.393,0,0,1,2.686-.752l1.042-.129a4.779,4.779,0,0,0,1.214-.269.92.92,0,0,0,.655-.87,1.032,1.032,0,0,0-.5-.994,3.12,3.12,0,0,0-1.466-.274,1.91,1.91,0,0,0-1.536.537,2.232,2.232,0,0,0-.43,1.074h-2.954A4.493,4.493,0,0,1,111.923,6.559Zm2.277,8.229a1.6,1.6,0,0,0,1.053.354,3.118,3.118,0,0,0,1.821-.58,2.474,2.474,0,0,0,.865-2.116V11.307a3.327,3.327,0,0,1-.585.3,4.9,4.9,0,0,1-.811.209l-.687.129a4.439,4.439,0,0,0-1.386.419,1.4,1.4,0,0,0-.709,1.3A1.344,1.344,0,0,0,114.2,14.787Z" transform="translate(807.396 3489.273)" fill="#212429"/>
    <path id="Sustracción_9" data-name="Sustracción 9" d="M14.314,57.7h0L0,50.717A90.227,90.227,0,0,1,65.165,0l7.869,13.1A90.607,90.607,0,0,0,14.314,57.7Z" transform="matrix(0.966, -0.259, 0.259, 0.966, 725.414, 3106.146)" fill="#98cfd6"/>
    <path id="Polígono_25" data-name="Polígono 25" d="M19.469,0,38.938,33.24H0Z" transform="matrix(0.574, 0.819, -0.819, 0.574, 807.645, 3060.793)" fill="#98cfd6"/>
    <path id="Sustracción_15" data-name="Sustracción 15" d="M14.314,57.7h0L0,50.717A90.227,90.227,0,0,1,65.165,0l7.869,13.1A90.607,90.607,0,0,0,14.314,57.7Z" transform="translate(1011.379 3326.626) rotate(72)" fill="#98cfd6"/>
    <path id="Polígono_27" data-name="Polígono 27" d="M19.469,0,38.938,33.24H0Z" transform="translate(1057.635 3410.358) rotate(151)" fill="#98cfd6"/>
    <path id="Sustracción_12" data-name="Sustracción 12" d="M14.314,0h0L0,6.982A90.309,90.309,0,0,0,7.054,19.458,90.846,90.846,0,0,0,18.07,32.81,90.854,90.854,0,0,0,31.423,43.828a90.276,90.276,0,0,0,15.325,8.318A89.7,89.7,0,0,0,65.165,57.7l7.869-13.1A90.607,90.607,0,0,1,14.314,0Z" transform="translate(687.881 3179.846) rotate(137)" fill="#98cfd6"/>
    <path id="Polígono_26" data-name="Polígono 26" d="M19.469,0,38.938,33.24H0Z" transform="matrix(-0.391, -0.921, 0.921, -0.391, 581.707, 3219.193)" fill="#98cfd6"/>
  </g>
</svg>
