<svg xmlns="http://www.w3.org/2000/svg" xmlns:xlink="http://www.w3.org/1999/xlink" width="108" height="108" viewBox="0 0 108 108">
  <defs>
    <filter id="Fondo" x="0" y="0" width="108" height="108" filterUnits="userSpaceOnUse">
      <feOffset dy="3" input="SourceAlpha"/>
      <feGaussianBlur stdDeviation="3" result="blur"/>
      <feFlood flood-opacity="0.161"/>
      <feComposite operator="in" in2="blur"/>
      <feComposite in="SourceGraphic"/>
    </filter>
    <clipPath id="clip-path">
      <rect id="Rect치ngulo_408355" data-name="Rect치ngulo 408355" width="55.75" height="55.75" fill="none"/>
    </clipPath>
  </defs>
  <g id="Grupo_1151963" data-name="Grupo 1151963" transform="translate(-1165.999 -878)">
    <g transform="matrix(1, 0, 0, 1, 1166, 878)" filter="url(#Fondo)">
      <g id="Fondo-2" data-name="Fondo" transform="translate(9 6)" fill="#e6d567">
        <path d="M 45 88.5 C 39.12687683105469 88.5 33.43022537231445 87.35007476806641 28.06830024719238 85.08217620849609 C 22.88852500915527 82.89131164550781 18.23629951477051 79.75458526611328 14.2408504486084 75.75914764404297 C 10.24541282653809 71.76370239257812 7.108687400817871 67.11147308349609 4.917825222015381 61.93170166015625 C 2.649924993515015 56.56977462768555 1.5 50.87312316894531 1.5 45 C 1.5 39.12687683105469 2.649924993515015 33.43022537231445 4.917825222015381 28.06830024719238 C 7.108687400817871 22.88852500915527 10.24541282653809 18.23629951477051 14.2408504486084 14.2408504486084 C 18.23629951477051 10.24541282653809 22.88852500915527 7.108687400817871 28.06830024719238 4.917825222015381 C 33.43022537231445 2.649924993515015 39.12687683105469 1.5 45 1.5 C 50.87312316894531 1.5 56.56977462768555 2.649924993515015 61.93170166015625 4.917825222015381 C 67.11147308349609 7.108687400817871 71.76370239257812 10.24541282653809 75.75914764404297 14.2408504486084 C 79.75458526611328 18.23629951477051 82.89131164550781 22.88852500915527 85.08217620849609 28.06830024719238 C 87.35007476806641 33.43022537231445 88.5 39.12687683105469 88.5 45 C 88.5 50.87312316894531 87.35007476806641 56.56977462768555 85.08217620849609 61.93170166015625 C 82.89131164550781 67.11147308349609 79.75458526611328 71.76370239257812 75.75914764404297 75.75914764404297 C 71.76370239257812 79.75458526611328 67.11147308349609 82.89131164550781 61.93170166015625 85.08217620849609 C 56.56977462768555 87.35007476806641 50.87312316894531 88.5 45 88.5 Z" stroke="none"/>
        <path d="M 45 3 C 39.32871246337891 3 33.82865524291992 4.110054016113281 28.65262985229492 6.299339294433594 C 23.65165710449219 8.414573669433594 19.15968322753906 11.44334411621094 15.301513671875 15.301513671875 C 11.44334411621094 19.15968322753906 8.414573669433594 23.65165710449219 6.299339294433594 28.65262985229492 C 4.110054016113281 33.82865524291992 3 39.32871246337891 3 45 C 3 50.67128753662109 4.110054016113281 56.17134475708008 6.299339294433594 61.34737396240234 C 8.414573669433594 66.34834289550781 11.44334411621094 70.84031677246094 15.301513671875 74.698486328125 C 19.15968322753906 78.55665588378906 23.65165710449219 81.58542633056641 28.65262985229492 83.70066070556641 C 33.82865524291992 85.88994598388672 39.32871246337891 87 45 87 C 50.67128753662109 87 56.17134475708008 85.88994598388672 61.34737396240234 83.70066070556641 C 66.34834289550781 81.58542633056641 70.84031677246094 78.55665588378906 74.698486328125 74.698486328125 C 78.55665588378906 70.84031677246094 81.58542633056641 66.34834289550781 83.70066070556641 61.34737396240234 C 85.88994598388672 56.17134475708008 87 50.67128753662109 87 45 C 87 39.32871246337891 85.88994598388672 33.82865524291992 83.70066070556641 28.65262985229492 C 81.58542633056641 23.65165710449219 78.55665588378906 19.15968322753906 74.698486328125 15.301513671875 C 70.84031677246094 11.44334411621094 66.34834289550781 8.414573669433594 61.34737396240234 6.299339294433594 C 56.17134475708008 4.110054016113281 50.67128753662109 3 45 3 M 45 0 C 69.85281372070312 0 90 20.14718627929688 90 45 C 90 69.85281372070312 69.85281372070312 90 45 90 C 20.14718627929688 90 0 69.85281372070312 0 45 C 0 20.14718627929688 20.14718627929688 0 45 0 Z" stroke="none" fill="#bca724"/>
      </g>
    </g>
    <g id="Grupo_1151957" data-name="Grupo 1151957" transform="translate(1192.124 902)">
      <g id="Grupo_1151949" data-name="Grupo 1151949" clip-path="url(#clip-path)">
        <path id="Trazado_986661" data-name="Trazado 986661" d="M52.875,33.875h-39v-33h37a2,2,0,0,1,2,2Z" fill="#e7eaf0"/>
        <rect id="Rect치ngulo_408354" data-name="Rect치ngulo 408354" width="39" height="3.675" transform="translate(13.875 30.2)" fill="#c3ccdb"/>
        <path id="Trazado_986662" data-name="Trazado 986662" d="M13.875,37.875h39a2,2,0,0,0,0-4h-39Z" fill="#9ccc65"/>
        <path id="Trazado_986663" data-name="Trazado 986663" d="M19.875,6.875a6,6,0,1,1-6-6,6,6,0,0,1,6,6" fill="#42a5f5"/>
        <path id="Trazado_986664" data-name="Trazado 986664" d="M20.874,54.875l1-36,11.6-.828a2.589,2.589,0,0,0-.185-5.172H6.875a6,6,0,0,0-6,6v12a3,3,0,0,0,3,3H6.291l.584,21Z" fill="#42a5f5"/>
        <path id="Trazado_986665" data-name="Trazado 986665" d="M3.875,33.875H6.292l.583,21h14L21.56,30.2c-10.7-.021-17-2.672-20.685-6v6.675a3,3,0,0,0,3,3" fill="#1e88e5"/>
        <path id="Trazado_986666" data-name="Trazado 986666" d="M52.875,38.75h-28a.875.875,0,1,1,0-1.75h28A1.127,1.127,0,0,0,54,35.875a1.08,1.08,0,0,0-.325-.783,1.1,1.1,0,0,0-.8-.342H21.455a.875.875,0,0,1,0-1.75h31.42a2.888,2.888,0,0,1,2.875,2.875,2.879,2.879,0,0,1-2.875,2.875"/>
        <path id="Trazado_986667" data-name="Trazado 986667" d="M52.875,34.75A.875.875,0,0,1,52,33.875v-21a.875.875,0,0,1,1.75,0v21a.875.875,0,0,1-.875.875"/>
        <path id="Trazado_986668" data-name="Trazado 986668" d="M52.875,8.811A.875.875,0,0,1,52,7.936V2.875A1.127,1.127,0,0,0,50.875,1.75H20.7A.875.875,0,0,1,20.7,0H50.875A2.879,2.879,0,0,1,53.75,2.875V7.936a.875.875,0,0,1-.875.875"/>
        <path id="Trazado_986669" data-name="Trazado 986669" d="M13.875,55.75A.875.875,0,0,1,13,54.875v-17a.875.875,0,0,1,1.75,0v17a.875.875,0,0,1-.875.875"/>
        <path id="Trazado_986670" data-name="Trazado 986670" d="M20.874,55.75H20.85a.876.876,0,0,1-.851-.9l1-36A.876.876,0,0,1,21.812,18l11.6-.828a1.714,1.714,0,0,0-.122-3.424H6.875A5.131,5.131,0,0,0,1.75,18.875v12A2.127,2.127,0,0,0,3.875,33H6.292a.875.875,0,0,1,0,1.75H3.875A3.879,3.879,0,0,1,0,30.875v-12A6.883,6.883,0,0,1,6.875,12h26.41a3.464,3.464,0,0,1,.247,6.92l-10.8.771L21.749,54.9a.876.876,0,0,1-.875.851"/>
        <path id="Trazado_986671" data-name="Trazado 986671" d="M6.875,55.75A.876.876,0,0,1,6,54.9l-.134-4.824a.875.875,0,0,1,1.75-.049l.134,4.825a.876.876,0,0,1-.851.9Z"/>
        <path id="Trazado_986672" data-name="Trazado 986672" d="M6.6,45.814a.876.876,0,0,1-.875-.851L5,18.9a.876.876,0,0,1,.851-.9h.024a.875.875,0,0,1,.875.85l.724,26.064a.876.876,0,0,1-.851.9Z"/>
        <path id="Trazado_986673" data-name="Trazado 986673" d="M13.875,13.75A6.875,6.875,0,1,1,20.75,6.875a6.883,6.883,0,0,1-6.875,6.875m0-12A5.125,5.125,0,1,0,19,6.875,5.131,5.131,0,0,0,13.875,1.75"/>
        <path id="Trazado_986674" data-name="Trazado 986674" d="M54.875,55.75h-54a.875.875,0,0,1,0-1.75h54a.875.875,0,0,1,0,1.75"/>
        <path id="Trazado_986675" data-name="Trazado 986675" d="M38.875,8.75h-14a.875.875,0,0,1,0-1.75h14a.875.875,0,0,1,0,1.75"/>
        <path id="Trazado_986676" data-name="Trazado 986676" d="M47.6,13.75H40.875a.875.875,0,0,1,0-1.75H47.6a.875.875,0,0,1,0,1.75"/>
        <path id="Trazado_986677" data-name="Trazado 986677" d="M47.6,18.75H40.875a.875.875,0,0,1,0-1.75H47.6a.875.875,0,0,1,0,1.75"/>
        <path id="Trazado_986678" data-name="Trazado 986678" d="M47.6,23.75H34.875a.875.875,0,0,1,0-1.75H47.6a.875.875,0,0,1,0,1.75"/>
        <path id="Trazado_986679" data-name="Trazado 986679" d="M30.875,23.75h-4a.875.875,0,0,1,0-1.75h4a.875.875,0,0,1,0,1.75"/>
        <path id="Trazado_986680" data-name="Trazado 986680" d="M37.875,28.75h-11a.875.875,0,0,1,0-1.75h11a.875.875,0,0,1,0,1.75"/>
        <path id="Trazado_986681" data-name="Trazado 986681" d="M33.375,55.75a.875.875,0,0,1-.875-.875v-17a.875.875,0,0,1,1.75,0v17a.875.875,0,0,1-.875.875"/>
        <path id="Trazado_986682" data-name="Trazado 986682" d="M42.765,55.75a.875.875,0,0,1-.8-.521l-7.512-17a.876.876,0,0,1,1.6-.708l7.512,17a.874.874,0,0,1-.8,1.229"/>
        <path id="Trazado_986683" data-name="Trazado 986683" d="M23.985,55.75a.874.874,0,0,1-.8-1.229l7.511-17a.876.876,0,0,1,1.6.708l-7.511,17a.875.875,0,0,1-.8.521"/>
        <path id="Trazado_986684" data-name="Trazado 986684" d="M21.684,16.841H18.392a.875.875,0,0,1,0-1.75h3.292a.875.875,0,0,1,0,1.75" fill="#fff"/>
        <path id="Trazado_986685" data-name="Trazado 986685" d="M15.06,16.841h-.725a.875.875,0,1,1,0-1.75h.725a.875.875,0,0,1,0,1.75" fill="#fff"/>
        <path id="Trazado_986686" data-name="Trazado 986686" d="M47.6,5.28H40.875a.875.875,0,0,1,0-1.75H47.6a.875.875,0,0,1,0,1.75" fill="#fff"/>
      </g>
    </g>
  </g>
</svg>
