<svg xmlns="http://www.w3.org/2000/svg" xmlns:xlink="http://www.w3.org/1999/xlink" width="1030" height="369.973" viewBox="0 0 1030 369.973">
  <defs>
    <clipPath id="clip-path">
      <rect id="Rectángulo_408224" data-name="Rectángulo 408224" width="1030" height="4.501" fill="#a4f1d6"/>
    </clipPath>
    <clipPath id="clip-path-2">
      <path id="Trazado_986406" data-name="Trazado 986406" d="M232.327,112.424a86.106,86.106,0,1,1,86.1,86.1,86.2,86.2,0,0,1-86.1-86.1m-11.663,0a97.769,97.769,0,1,0,97.767-97.771,97.769,97.769,0,0,0-97.767,97.771" transform="translate(-220.664 -14.653)" fill="#2e5bb6"/>
    </clipPath>
    <clipPath id="clip-path-3">
      <path id="Trazado_986408" data-name="Trazado 986408" d="M406.268,112.318a86.368,86.368,0,1,1,86.368,86.37,86.466,86.466,0,0,1-86.368-86.37m-11.7,0a98.07,98.07,0,1,0,98.07-98.069,98.071,98.071,0,0,0-98.07,98.069" transform="translate(-394.566 -14.249)" fill="#ee9865"/>
    </clipPath>
    <clipPath id="clip-path-4">
      <path id="Trazado_986410" data-name="Trazado 986410" d="M58.5,113.023a86.633,86.633,0,1,1,86.634,86.633A86.734,86.734,0,0,1,58.5,113.023m-11.736,0a98.37,98.37,0,1,0,98.37-98.371,98.37,98.37,0,0,0-98.37,98.371" transform="translate(-46.76 -14.653)" fill="#01899b"/>
    </clipPath>
    <clipPath id="clip-path-5">
      <rect id="Rectángulo_408331" data-name="Rectángulo 408331" width="53" height="52" transform="translate(0 0.384)" fill="none"/>
    </clipPath>
    <clipPath id="clip-path-9">
      <rect id="Rectángulo_408339" data-name="Rectángulo 408339" width="74.905" height="52" fill="none"/>
    </clipPath>
    <clipPath id="clip-path-10">
      <rect id="Rectángulo_408341" data-name="Rectángulo 408341" width="52" height="52" fill="none"/>
    </clipPath>
  </defs>
  <g id="Grupo_1151961" data-name="Grupo 1151961" transform="translate(-285 -463.731)">
    <g id="Grupo_1151704" data-name="Grupo 1151704" transform="translate(285 716.131)" clip-path="url(#clip-path)">
      <rect id="Rectángulo_408223" data-name="Rectángulo 408223" width="1030" height="4.501" fill="#a4f1d6"/>
    </g>
    <path id="Trazado_986405" data-name="Trazado 986405" d="M324.778,0A115.073,115.073,0,0,0,209.705,115.072V250.91h29.947v-19.4H255.2v21.774h.073v72.224h.051c-.019.638,69.452,40.838,69.452,40.838l69.911-41.365-.237-93.471H410v19.4h29.847V115.072A115.071,115.071,0,0,0,324.778,0" transform="translate(475.778 465.355)" fill="#0d1b36"/>
    <g id="Grupo_1151708" data-name="Grupo 1151708" transform="translate(702.786 488.49)" clip-path="url(#clip-path-2)">
      <rect id="Rectángulo_408226" data-name="Rectángulo 408226" width="195.538" height="195.539" transform="translate(0 0)" fill="#2e5bb6"/>
    </g>
    <path id="Trazado_986407" data-name="Trazado 986407" d="M499.035,0A115.426,115.426,0,0,0,383.608,115.426V251.68h30.039V232.224h15.6v21.841h.073v72.446h.051c-.019.64,70.665,42.15,70.665,42.15l69.126-42.679-.238-93.758h15.6V251.68h29.94V115.426A115.424,115.424,0,0,0,499.035,0" transform="translate(616.392 465.043)" fill="#462d1d"/>
    <g id="Grupo_1151712" data-name="Grupo 1151712" transform="translate(1017.354 487.61)" clip-path="url(#clip-path-3)">
      <rect id="Rectángulo_408228" data-name="Rectángulo 408228" width="196.141" height="196.139" transform="translate(0 0)" fill="#ee9865"/>
    </g>
    <path id="Trazado_986409" data-name="Trazado 986409" d="M151.581,0A115.779,115.779,0,0,0,35.8,115.779V252.449h30.13V232.934H81.579v21.908h.073v72.667H81.7c-.019.642,68.169,39.79,68.169,39.79l72.049-40.32-.238-94.045h15.646v19.516H267.36V115.779A115.777,115.777,0,0,0,151.581,0" transform="translate(334.128 463.732)" fill="#00282e"/>
    <g id="Grupo_1151716" data-name="Grupo 1151716" transform="translate(387.338 487.01)" clip-path="url(#clip-path-4)">
      <rect id="Rectángulo_408230" data-name="Rectángulo 408230" width="196.741" height="196.739" transform="translate(0 0)" fill="#01899b"/>
    </g>
    <path id="Trazado_986775" data-name="Trazado 986775" d="M21.569,1.045h2.892l2.813,9.835,2.839-9.835h2.813L28.5,14H25.946ZM40.993,5.633a5.59,5.59,0,0,1,1.213,3.595,5.553,5.553,0,0,1-1.213,3.608,4.456,4.456,0,0,1-3.683,1.5,4.456,4.456,0,0,1-3.683-1.5,5.553,5.553,0,0,1-1.213-3.608,5.59,5.59,0,0,1,1.213-3.595,4.426,4.426,0,0,1,3.683-1.521A4.426,4.426,0,0,1,40.993,5.633Zm-3.691.6a2,2,0,0,0-1.692.778,3.6,3.6,0,0,0-.593,2.219,3.619,3.619,0,0,0,.593,2.224,2.216,2.216,0,0,0,3.379,0,3.639,3.639,0,0,0,.589-2.224,3.619,3.619,0,0,0-.589-2.219A1.99,1.99,0,0,0,37.3,6.23Zm6.75-5.186h2.5V14h-2.5Zm11.092,11.6q-.035.044-.176.264a1.764,1.764,0,0,1-.334.387,3.488,3.488,0,0,1-1.138.721,3.879,3.879,0,0,1-1.288.193,2.87,2.87,0,0,1-2.865-1.529,5.852,5.852,0,0,1-.413-2.487V4.42H51.5v5.774a3.023,3.023,0,0,0,.193,1.23,1.338,1.338,0,0,0,1.345.729,1.758,1.758,0,0,0,1.758-1.037,3.754,3.754,0,0,0,.246-1.485V4.42h2.54V14H55.144Zm10.23-5.59a1.227,1.227,0,0,0-1.239-.694,1.479,1.479,0,0,0-1.441.694,2.675,2.675,0,0,0-.2,1.178V14h-2.54V4.438h2.435v1.4a4.031,4.031,0,0,1,.879-1.063,3.478,3.478,0,0,1,3.665-.079,2.812,2.812,0,0,1,.826,1.151A3.185,3.185,0,0,1,68.978,4.6a3.728,3.728,0,0,1,1.723-.4,3.335,3.335,0,0,1,1.248.246,2.784,2.784,0,0,1,1.116.861,2.752,2.752,0,0,1,.545,1.23A8.5,8.5,0,0,1,73.7,7.962L73.68,14H71.113V7.9a2,2,0,0,0-.176-.9,1.249,1.249,0,0,0-1.23-.668,1.44,1.44,0,0,0-1.433.861,2.7,2.7,0,0,0-.2,1.1V14H65.55V8.3A3.2,3.2,0,0,0,65.374,7.057ZM84.2,11.188a3.178,3.178,0,0,1-.888,1.731,4.349,4.349,0,0,1-3.445,1.4,4.858,4.858,0,0,1-3.226-1.178,4.75,4.75,0,0,1-1.4-3.832,5.326,5.326,0,0,1,1.261-3.814,4.312,4.312,0,0,1,3.274-1.327,5.021,5.021,0,0,1,2.153.448,3.772,3.772,0,0,1,1.582,1.415,4.828,4.828,0,0,1,.729,1.978,12.771,12.771,0,0,1,.079,1.9H77.767a2.381,2.381,0,0,0,.905,2.021,2.132,2.132,0,0,0,1.248.36,1.8,1.8,0,0,0,1.257-.439,2.087,2.087,0,0,0,.466-.659ZM81.722,8.252a2.181,2.181,0,0,0-.6-1.507,1.87,1.87,0,0,0-1.34-.514,1.7,1.7,0,0,0-1.349.545,2.72,2.72,0,0,0-.6,1.477Zm8.8-1.978a1.744,1.744,0,0,0-1.749,1.081,3.713,3.713,0,0,0-.246,1.459V14h-2.5V4.438h2.417v1.4a4.252,4.252,0,0,1,.914-1.063,3.177,3.177,0,0,1,1.96-.58,3.7,3.7,0,0,1,2.43.778,3.163,3.163,0,0,1,.945,2.58V14H92.128V8.173a2.659,2.659,0,0,0-.2-1.16A1.422,1.422,0,0,0,90.52,6.274Zm20.206-5.212V14h-2.435V12.673a3.533,3.533,0,0,1-1.222,1.239,3.43,3.43,0,0,1-1.705.387,3.56,3.56,0,0,1-2.826-1.358,5.215,5.215,0,0,1-1.147-3.485A6,6,0,0,1,102.521,5.6a3.674,3.674,0,0,1,3.019-1.406,3.09,3.09,0,0,1,1.547.382,3.043,3.043,0,0,1,1.1,1.059V1.063Zm-6.75,8.209a3.767,3.767,0,0,0,.527,2.118,1.756,1.756,0,0,0,1.582.8A1.849,1.849,0,0,0,107.7,11.4a3.5,3.5,0,0,0,.554-2.048,3.141,3.141,0,0,0-.888-2.514A1.91,1.91,0,0,0,106.1,6.38a1.759,1.759,0,0,0-1.613.831A3.848,3.848,0,0,0,103.976,9.271ZM121.2,11.188a3.178,3.178,0,0,1-.888,1.731,4.349,4.349,0,0,1-3.445,1.4,4.858,4.858,0,0,1-3.226-1.178,4.75,4.75,0,0,1-1.4-3.832,5.326,5.326,0,0,1,1.261-3.814,4.312,4.312,0,0,1,3.274-1.327,5.021,5.021,0,0,1,2.153.448,3.772,3.772,0,0,1,1.582,1.415,4.828,4.828,0,0,1,.729,1.978,12.771,12.771,0,0,1,.079,1.9h-6.557a2.381,2.381,0,0,0,.905,2.021,2.132,2.132,0,0,0,1.248.36,1.8,1.8,0,0,0,1.257-.439,2.087,2.087,0,0,0,.466-.659Zm-2.479-2.936a2.181,2.181,0,0,0-.6-1.507,1.87,1.87,0,0,0-1.34-.514,1.7,1.7,0,0,0-1.349.545,2.72,2.72,0,0,0-.6,1.477Zm-87.029,24.2a5.14,5.14,0,0,1,1.16,3.639,5.771,5.771,0,0,1-1.138,3.858,3.685,3.685,0,0,1-2.931,1.327,3.059,3.059,0,0,1-1.9-.571,3.683,3.683,0,0,1-.809-.923v4.992H23.6V31.42H26v1.415a4.021,4.021,0,0,1,.861-.984,3.165,3.165,0,0,1,1.986-.642A3.767,3.767,0,0,1,31.694,32.448ZM30.271,36.21a3.77,3.77,0,0,0-.505-1.96,1.759,1.759,0,0,0-1.639-.853,1.865,1.865,0,0,0-1.872,1.292,4.9,4.9,0,0,0-.264,1.74,2.776,2.776,0,0,0,.888,2.347,2.021,2.021,0,0,0,1.248.4,1.809,1.809,0,0,0,1.6-.809A3.771,3.771,0,0,0,30.271,36.21Zm9.211-2.479a2.078,2.078,0,0,0-2.03.984,3.829,3.829,0,0,0-.29,1.705V41H34.639V31.42h2.391v1.67a5.3,5.3,0,0,1,1.011-1.31,2.752,2.752,0,0,1,1.828-.589q.07,0,.119,0l.215.013v2.566q-.237-.026-.422-.035T39.481,33.731Zm10.178-1.1a5.953,5.953,0,0,1,0,7.2,4.456,4.456,0,0,1-3.683,1.5,4.456,4.456,0,0,1-3.683-1.5,5.953,5.953,0,0,1,0-7.2,4.426,4.426,0,0,1,3.683-1.521A4.426,4.426,0,0,1,49.659,32.633Zm-3.691.6a2,2,0,0,0-1.692.778,3.6,3.6,0,0,0-.593,2.219,3.619,3.619,0,0,0,.593,2.224,2.216,2.216,0,0,0,3.379,0,3.639,3.639,0,0,0,.589-2.224,3.619,3.619,0,0,0-.589-2.219A1.99,1.99,0,0,0,45.968,33.23Zm15.416-5.168V41H58.949V39.673a3.533,3.533,0,0,1-1.222,1.239,3.43,3.43,0,0,1-1.705.387A3.56,3.56,0,0,1,53.2,39.941a5.215,5.215,0,0,1-1.147-3.485A6,6,0,0,1,53.179,32.6,3.674,3.674,0,0,1,56.2,31.191a3.09,3.09,0,0,1,1.547.382,3.043,3.043,0,0,1,1.1,1.059v-4.57Zm-6.75,8.209a3.767,3.767,0,0,0,.527,2.118,1.756,1.756,0,0,0,1.582.8A1.849,1.849,0,0,0,58.36,38.4a3.5,3.5,0,0,0,.554-2.048,3.141,3.141,0,0,0-.888-2.514,1.91,1.91,0,0,0-1.266-.457,1.759,1.759,0,0,0-1.613.831A3.848,3.848,0,0,0,54.634,36.271ZM69.8,39.646q-.035.044-.176.264a1.764,1.764,0,0,1-.334.387,3.488,3.488,0,0,1-1.138.721,3.879,3.879,0,0,1-1.288.193A2.87,2.87,0,0,1,64,39.682a5.852,5.852,0,0,1-.413-2.487V31.42h2.566v5.774a3.023,3.023,0,0,0,.193,1.23,1.338,1.338,0,0,0,1.345.729,1.758,1.758,0,0,0,1.758-1.037,3.754,3.754,0,0,0,.246-1.485V31.42h2.54V41H69.8Zm13.14-4.79H80.377a2.223,2.223,0,0,0-.36-.967,1.511,1.511,0,0,0-1.31-.58,1.725,1.725,0,0,0-1.731,1.257,5.255,5.255,0,0,0-.246,1.775,4.832,4.832,0,0,0,.246,1.7,1.671,1.671,0,0,0,1.688,1.2,1.488,1.488,0,0,0,1.248-.475,2.362,2.362,0,0,0,.448-1.23h2.558a4.191,4.191,0,0,1-.826,2.162A4.016,4.016,0,0,1,78.6,41.334a4.082,4.082,0,0,1-3.4-1.371,5.548,5.548,0,0,1-1.09-3.56,5.63,5.63,0,0,1,1.2-3.841,4.191,4.191,0,0,1,3.322-1.371A5,5,0,0,1,81.585,32,3.761,3.761,0,0,1,82.943,34.856Zm10.011,0H90.388a2.223,2.223,0,0,0-.36-.967,1.511,1.511,0,0,0-1.31-.58,1.725,1.725,0,0,0-1.731,1.257,5.255,5.255,0,0,0-.246,1.775,4.832,4.832,0,0,0,.246,1.7,1.671,1.671,0,0,0,1.688,1.2,1.488,1.488,0,0,0,1.248-.475,2.362,2.362,0,0,0,.448-1.23h2.558A4.191,4.191,0,0,1,92.1,39.69a4.016,4.016,0,0,1-3.489,1.644,4.082,4.082,0,0,1-3.4-1.371,5.548,5.548,0,0,1-1.09-3.56,5.63,5.63,0,0,1,1.2-3.841,4.191,4.191,0,0,1,3.322-1.371A5,5,0,0,1,91.6,32,3.761,3.761,0,0,1,92.954,34.856Zm4.3-3.437V41h-2.54V31.42Zm0-3.454v2.312h-2.54V27.966Zm10.415,4.667a5.953,5.953,0,0,1,0,7.2,5.274,5.274,0,0,1-7.365,0,5.953,5.953,0,0,1,0-7.2,5.22,5.22,0,0,1,7.365,0Zm-3.691.6a2,2,0,0,0-1.692.778,3.6,3.6,0,0,0-.593,2.219,3.619,3.619,0,0,0,.593,2.224,2.216,2.216,0,0,0,3.379,0,3.639,3.639,0,0,0,.589-2.224,3.619,3.619,0,0,0-.589-2.219A1.99,1.99,0,0,0,103.976,33.23Zm-1.477-3.1,1.688-2.628h2.795l-2.672,2.628Zm12.683,3.146a1.744,1.744,0,0,0-1.749,1.081,3.713,3.713,0,0,0-.246,1.459V41h-2.5V31.438h2.417v1.4a4.252,4.252,0,0,1,.914-1.063,3.177,3.177,0,0,1,1.96-.58,3.7,3.7,0,0,1,2.43.778,3.163,3.163,0,0,1,.945,2.58V41H116.79V35.173a2.659,2.659,0,0,0-.2-1.16A1.422,1.422,0,0,0,115.182,33.274Z" transform="translate(414 590)" fill="#fff"/>
    <path id="Trazado_986774" data-name="Trazado 986774" d="M32.361,8.92H29.566V14H26.921V1.045h6.354a5.92,5.92,0,0,1,2.1.334,3.275,3.275,0,0,1,1.244.905,4.011,4.011,0,0,1,.668,1.09,3.552,3.552,0,0,1,.246,1.362,3.881,3.881,0,0,1-.466,1.815,2.6,2.6,0,0,1-1.538,1.261A2.419,2.419,0,0,1,36.8,8.836a4.262,4.262,0,0,1,.374,2.026v.87a6.656,6.656,0,0,0,.07,1.2,1.082,1.082,0,0,0,.492.738V14H34.752q-.123-.431-.176-.694a6.379,6.379,0,0,1-.114-1.116l-.018-1.2a2.353,2.353,0,0,0-.453-1.652A2.4,2.4,0,0,0,32.361,8.92ZM34,6.564a1.443,1.443,0,0,0,.809-1.459,1.61,1.61,0,0,0-.782-1.582,2.956,2.956,0,0,0-1.318-.229H29.566v3.48h3.067A3.419,3.419,0,0,0,34,6.564Zm13.852,4.623a3.178,3.178,0,0,1-.888,1.731,4.349,4.349,0,0,1-3.445,1.4A4.858,4.858,0,0,1,40.3,13.139a4.75,4.75,0,0,1-1.4-3.832,5.326,5.326,0,0,1,1.261-3.814,4.312,4.312,0,0,1,3.274-1.327,5.021,5.021,0,0,1,2.153.448,3.772,3.772,0,0,1,1.582,1.415A4.828,4.828,0,0,1,47.9,8.006a12.771,12.771,0,0,1,.079,1.9H41.423a2.381,2.381,0,0,0,.905,2.021,2.132,2.132,0,0,0,1.248.36,1.8,1.8,0,0,0,1.257-.439,2.087,2.087,0,0,0,.466-.659ZM45.378,8.252a2.181,2.181,0,0,0-.6-1.507,1.87,1.87,0,0,0-1.34-.514,1.7,1.7,0,0,0-1.349.545,2.72,2.72,0,0,0-.6,1.477ZM49.72,1.045h2.5V14h-2.5Zm5.309,4.412a4.09,4.09,0,0,1,3.41-1.266,6.059,6.059,0,0,1,2.795.624,2.4,2.4,0,0,1,1.222,2.355v4.395q0,.457.018,1.107a1.392,1.392,0,0,0,.149.668.9.9,0,0,0,.369.29V14H60.267a2.79,2.79,0,0,1-.158-.545q-.044-.255-.07-.58a5.146,5.146,0,0,1-1.2.958,3.6,3.6,0,0,1-1.828.466,3.143,3.143,0,0,1-2.149-.743,2.649,2.649,0,0,1-.848-2.1A2.732,2.732,0,0,1,55.38,8.894a6.049,6.049,0,0,1,2.2-.615l.853-.105a3.91,3.91,0,0,0,.993-.22.753.753,0,0,0,.536-.712.845.845,0,0,0-.409-.813,2.553,2.553,0,0,0-1.2-.224,1.563,1.563,0,0,0-1.257.439,1.827,1.827,0,0,0-.352.879H54.325A3.676,3.676,0,0,1,55.028,5.457Zm1.863,6.732a1.309,1.309,0,0,0,.861.29A2.551,2.551,0,0,0,59.243,12a2.024,2.024,0,0,0,.708-1.731V9.342a2.722,2.722,0,0,1-.479.242,4.006,4.006,0,0,1-.664.171l-.562.105a3.632,3.632,0,0,0-1.134.343,1.149,1.149,0,0,0-.58,1.063A1.1,1.1,0,0,0,56.892,12.189ZM72.967,7.856H70.4a2.223,2.223,0,0,0-.36-.967,1.511,1.511,0,0,0-1.31-.58A1.725,1.725,0,0,0,67,7.566a5.255,5.255,0,0,0-.246,1.775,4.832,4.832,0,0,0,.246,1.7,1.671,1.671,0,0,0,1.688,1.2,1.488,1.488,0,0,0,1.248-.475,2.362,2.362,0,0,0,.448-1.23H72.94a4.191,4.191,0,0,1-.826,2.162,4.016,4.016,0,0,1-3.489,1.644,4.082,4.082,0,0,1-3.4-1.371,5.548,5.548,0,0,1-1.09-3.56,5.63,5.63,0,0,1,1.2-3.841A4.191,4.191,0,0,1,68.66,4.191,5,5,0,0,1,71.609,5,3.761,3.761,0,0,1,72.967,7.856Zm4.3-3.437V14h-2.54V4.42Zm0-3.454V3.277h-2.54V.966ZM87.68,5.633a5.59,5.59,0,0,1,1.213,3.595,5.553,5.553,0,0,1-1.213,3.608,5.274,5.274,0,0,1-7.365,0A5.553,5.553,0,0,1,79.1,9.228a5.59,5.59,0,0,1,1.213-3.595,5.22,5.22,0,0,1,7.365,0Zm-3.691.6a2,2,0,0,0-1.692.778A3.6,3.6,0,0,0,81.7,9.228a3.619,3.619,0,0,0,.593,2.224,2.216,2.216,0,0,0,3.379,0,3.639,3.639,0,0,0,.589-2.224,3.619,3.619,0,0,0-.589-2.219A1.99,1.99,0,0,0,83.988,6.23Zm-1.477-3.1L84.2.5h2.795L84.322,3.128ZM95.194,6.274a1.744,1.744,0,0,0-1.749,1.081A3.713,3.713,0,0,0,93.2,8.814V14H90.7V4.438H93.12v1.4a4.252,4.252,0,0,1,.914-1.063,3.177,3.177,0,0,1,1.96-.58,3.7,3.7,0,0,1,2.43.778,3.163,3.163,0,0,1,.945,2.58V14H96.8V8.173a2.659,2.659,0,0,0-.2-1.16A1.422,1.422,0,0,0,95.194,6.274ZM13.46,34.856H10.894a2.223,2.223,0,0,0-.36-.967,1.511,1.511,0,0,0-1.31-.58,1.725,1.725,0,0,0-1.731,1.257,5.255,5.255,0,0,0-.246,1.775,4.832,4.832,0,0,0,.246,1.7,1.671,1.671,0,0,0,1.688,1.2,1.488,1.488,0,0,0,1.248-.475,2.362,2.362,0,0,0,.448-1.23h2.558a4.191,4.191,0,0,1-.826,2.162,4.016,4.016,0,0,1-3.489,1.644,4.082,4.082,0,0,1-3.4-1.371,5.548,5.548,0,0,1-1.09-3.56,5.63,5.63,0,0,1,1.2-3.841,4.191,4.191,0,0,1,3.322-1.371A5,5,0,0,1,12.1,32,3.761,3.761,0,0,1,13.46,34.856Zm9.712-2.224a5.953,5.953,0,0,1,0,7.2,4.456,4.456,0,0,1-3.683,1.5,4.456,4.456,0,0,1-3.683-1.5,5.953,5.953,0,0,1,0-7.2,4.426,4.426,0,0,1,3.683-1.521A4.426,4.426,0,0,1,23.172,32.633Zm-3.691.6a2,2,0,0,0-1.692.778,3.6,3.6,0,0,0-.593,2.219,3.619,3.619,0,0,0,.593,2.224,2,2,0,0,0,1.692.782,1.985,1.985,0,0,0,1.688-.782,3.639,3.639,0,0,0,.589-2.224,3.619,3.619,0,0,0-.589-2.219A1.99,1.99,0,0,0,19.481,33.23Zm13.3-1.371a3.086,3.086,0,0,1,1.292,2.479h-2.5a1.482,1.482,0,0,0-.272-.765,1.714,1.714,0,0,0-1.406-.51,2.021,2.021,0,0,0-1.165.255.734.734,0,0,0-.347.6.654.654,0,0,0,.369.624,15.98,15.98,0,0,0,2.61.694A4.8,4.8,0,0,1,33.6,36.3a2.415,2.415,0,0,1,.738,1.8,2.911,2.911,0,0,1-1.059,2.325,4.976,4.976,0,0,1-3.274.9,4.929,4.929,0,0,1-3.335-.954,3.1,3.1,0,0,1-1.077-2.43h2.54a1.673,1.673,0,0,0,.343.949,2.317,2.317,0,0,0,1.723.5,2.626,2.626,0,0,0,1.173-.22.737.737,0,0,0,.083-1.3,14.3,14.3,0,0,0-2.61-.756A5.437,5.437,0,0,1,26.547,36.1a2.191,2.191,0,0,1-.668-1.723A2.988,2.988,0,0,1,26.921,32.1a4.183,4.183,0,0,1,2.931-.954A5.427,5.427,0,0,1,32.779,31.859Zm7.8,7.356v1.872l-1.187.044a3.184,3.184,0,0,1-2.426-.615,1.832,1.832,0,0,1-.422-1.327v-5.9H35.2V31.508h1.336V28.836h2.479v2.672h1.556v1.784H39.019v5.063a1.14,1.14,0,0,0,.149.734,1.645,1.645,0,0,0,.914.145q.114,0,.242,0T40.575,39.216Zm9.6-6.583a5.953,5.953,0,0,1,0,7.2,4.456,4.456,0,0,1-3.683,1.5,4.456,4.456,0,0,1-3.683-1.5,5.953,5.953,0,0,1,0-7.2,4.426,4.426,0,0,1,3.683-1.521A4.426,4.426,0,0,1,50.172,32.633Zm-3.691.6a2,2,0,0,0-1.692.778,3.6,3.6,0,0,0-.593,2.219,3.619,3.619,0,0,0,.593,2.224,2.216,2.216,0,0,0,3.379,0,3.639,3.639,0,0,0,.589-2.224,3.619,3.619,0,0,0-.589-2.219A1.99,1.99,0,0,0,46.481,33.23Zm5.941,1.564h5.045v2.373H52.422Zm12.894,4.852q-.035.044-.176.264a1.764,1.764,0,0,1-.334.387,3.488,3.488,0,0,1-1.138.721,3.879,3.879,0,0,1-1.288.193,2.87,2.87,0,0,1-2.865-1.529,5.852,5.852,0,0,1-.413-2.487V31.42h2.566v5.774a3.023,3.023,0,0,0,.193,1.23,1.338,1.338,0,0,0,1.345.729,1.758,1.758,0,0,0,1.758-1.037,3.754,3.754,0,0,0,.246-1.485V31.42h2.54V41H65.316Zm9.237-.431v1.872l-1.187.044a3.184,3.184,0,0,1-2.426-.615,1.832,1.832,0,0,1-.422-1.327v-5.9H69.183V31.508h1.336V28.836H73v2.672h1.556v1.784H73v5.063a1.14,1.14,0,0,0,.149.734,1.645,1.645,0,0,0,.914.145q.114,0,.242,0T74.553,39.216Zm4.184-7.8V41H76.2V31.42Zm0-3.454v2.312H76.2V27.966Zm2.479.079h2.5V41h-2.5Zm7.523,3.375V41H86.2V31.42Zm0-3.454v2.312H86.2V27.966Zm11.145.1V41H97.449V39.673a3.533,3.533,0,0,1-1.222,1.239,3.43,3.43,0,0,1-1.705.387A3.56,3.56,0,0,1,91.7,39.941a5.215,5.215,0,0,1-1.147-3.485A6,6,0,0,1,91.679,32.6,3.674,3.674,0,0,1,94.7,31.191a3.09,3.09,0,0,1,1.547.382,3.043,3.043,0,0,1,1.1,1.059v-4.57Zm-6.75,8.209a3.767,3.767,0,0,0,.527,2.118,1.756,1.756,0,0,0,1.582.8A1.849,1.849,0,0,0,96.86,38.4a3.5,3.5,0,0,0,.554-2.048,3.141,3.141,0,0,0-.888-2.514,1.91,1.91,0,0,0-1.266-.457,1.759,1.759,0,0,0-1.613.831A3.848,3.848,0,0,0,93.133,36.271Zm9.387-3.814a4.09,4.09,0,0,1,3.41-1.266,6.059,6.059,0,0,1,2.795.624,2.4,2.4,0,0,1,1.222,2.355v4.395q0,.457.018,1.107a1.392,1.392,0,0,0,.149.668.9.9,0,0,0,.369.29V41h-2.725a2.79,2.79,0,0,1-.158-.545q-.044-.255-.07-.58a5.146,5.146,0,0,1-1.2.958,3.6,3.6,0,0,1-1.828.466,3.143,3.143,0,0,1-2.149-.743,2.649,2.649,0,0,1-.848-2.1,2.732,2.732,0,0,1,1.362-2.558,6.049,6.049,0,0,1,2.2-.615l.853-.105a3.91,3.91,0,0,0,.993-.22.753.753,0,0,0,.536-.712.845.845,0,0,0-.409-.813,2.553,2.553,0,0,0-1.2-.224,1.563,1.563,0,0,0-1.257.439,1.827,1.827,0,0,0-.352.879h-2.417A3.676,3.676,0,0,1,102.52,32.457Zm1.863,6.732a1.309,1.309,0,0,0,.861.29,2.551,2.551,0,0,0,1.49-.475,2.024,2.024,0,0,0,.708-1.731v-.932a2.722,2.722,0,0,1-.479.242,4.006,4.006,0,0,1-.664.171l-.562.105a3.632,3.632,0,0,0-1.134.343,1.149,1.149,0,0,0-.58,1.063A1.1,1.1,0,0,0,104.383,39.189Zm16.506-11.127V41h-2.435V39.673a3.533,3.533,0,0,1-1.222,1.239,3.43,3.43,0,0,1-1.705.387,3.56,3.56,0,0,1-2.826-1.358,5.215,5.215,0,0,1-1.147-3.485,6,6,0,0,1,1.129-3.858,3.674,3.674,0,0,1,3.019-1.406,3.09,3.09,0,0,1,1.547.382,3.043,3.043,0,0,1,1.1,1.059v-4.57Zm-6.75,8.209a3.767,3.767,0,0,0,.527,2.118,1.756,1.756,0,0,0,1.582.8,1.849,1.849,0,0,0,1.617-.791,3.5,3.5,0,0,0,.554-2.048,3.141,3.141,0,0,0-.888-2.514,1.91,1.91,0,0,0-1.266-.457,1.759,1.759,0,0,0-1.613.831A3.848,3.848,0,0,0,114.139,36.271Z" transform="translate(738 590)" fill="#fff"/>
    <path id="Trazado_986773" data-name="Trazado 986773" d="M43.353,9.342H40.6V14H37.913V1.045h5.643a4.6,4.6,0,0,1,3.111,1,3.882,3.882,0,0,1,1.16,3.1,3.976,3.976,0,0,1-1.16,3.243A5.109,5.109,0,0,1,43.353,9.342Zm1.266-2.7a1.874,1.874,0,0,0,.527-1.477,1.753,1.753,0,0,0-.532-1.441,2.308,2.308,0,0,0-1.49-.431H40.6V7.109h2.522A2.2,2.2,0,0,0,44.619,6.644Zm9.853.088a2.078,2.078,0,0,0-2.03.984,3.829,3.829,0,0,0-.29,1.705V14H49.628V4.42h2.391V6.09A5.3,5.3,0,0,1,53.03,4.78a2.752,2.752,0,0,1,1.828-.589q.07,0,.119,0l.215.013V6.775q-.237-.026-.422-.035T54.471,6.731ZM64.86,11.188a3.178,3.178,0,0,1-.888,1.731,4.349,4.349,0,0,1-3.445,1.4A4.858,4.858,0,0,1,57.3,13.139a4.75,4.75,0,0,1-1.4-3.832,5.326,5.326,0,0,1,1.261-3.814,4.312,4.312,0,0,1,3.274-1.327,5.021,5.021,0,0,1,2.153.448,3.772,3.772,0,0,1,1.582,1.415A4.828,4.828,0,0,1,64.9,8.006a12.771,12.771,0,0,1,.079,1.9H58.426a2.381,2.381,0,0,0,.905,2.021,2.132,2.132,0,0,0,1.248.36,1.8,1.8,0,0,0,1.257-.439,2.087,2.087,0,0,0,.466-.659ZM62.381,8.252a2.181,2.181,0,0,0-.6-1.507,1.87,1.87,0,0,0-1.34-.514,1.7,1.7,0,0,0-1.349.545,2.72,2.72,0,0,0-.6,1.477Zm12.577-.4H72.392a2.223,2.223,0,0,0-.36-.967,1.511,1.511,0,0,0-1.31-.58,1.725,1.725,0,0,0-1.731,1.257,5.255,5.255,0,0,0-.246,1.775,4.832,4.832,0,0,0,.246,1.7,1.671,1.671,0,0,0,1.688,1.2,1.488,1.488,0,0,0,1.248-.475,2.362,2.362,0,0,0,.448-1.23h2.558a4.191,4.191,0,0,1-.826,2.162,4.016,4.016,0,0,1-3.489,1.644,4.082,4.082,0,0,1-3.4-1.371,5.548,5.548,0,0,1-1.09-3.56,5.63,5.63,0,0,1,1.2-3.841,4.191,4.191,0,0,1,3.322-1.371A5,5,0,0,1,73.6,5,3.761,3.761,0,0,1,74.958,7.856Zm4.3-3.437V14h-2.54V4.42Zm0-3.454V3.277h-2.54V.966ZM89.671,5.633a5.59,5.59,0,0,1,1.213,3.595,5.553,5.553,0,0,1-1.213,3.608,5.274,5.274,0,0,1-7.365,0,5.553,5.553,0,0,1-1.213-3.608,5.59,5.59,0,0,1,1.213-3.595,5.22,5.22,0,0,1,7.365,0Zm-3.691.6a2,2,0,0,0-1.692.778,3.6,3.6,0,0,0-.593,2.219,3.619,3.619,0,0,0,.593,2.224,2.216,2.216,0,0,0,3.379,0,3.639,3.639,0,0,0,.589-2.224,3.619,3.619,0,0,0-.589-2.219A1.99,1.99,0,0,0,85.98,6.23Zm15.592,5.256,1.978-7.066h2.663l-3.287,9.422a13.23,13.23,0,0,1-1.5,3.379,2.856,2.856,0,0,1-2.215.655q-.334,0-.536,0t-.606-.031v-2l.316.018a3.948,3.948,0,0,0,.7-.026,1.262,1.262,0,0,0,.563-.2,1.352,1.352,0,0,0,.409-.624,1.319,1.319,0,0,0,.154-.58l-3.516-10H99.48ZM34.722,31.42h2.813l2,7.066,2.039-7.066h2.689L40.8,41H38.159Zm18.94,1.213a5.953,5.953,0,0,1,0,7.2,4.456,4.456,0,0,1-3.683,1.5,4.456,4.456,0,0,1-3.683-1.5,5.953,5.953,0,0,1,0-7.2,4.426,4.426,0,0,1,3.683-1.521A4.426,4.426,0,0,1,53.663,32.633Zm-3.691.6a2,2,0,0,0-1.692.778,3.6,3.6,0,0,0-.593,2.219,3.619,3.619,0,0,0,.593,2.224,2.216,2.216,0,0,0,3.379,0,3.639,3.639,0,0,0,.589-2.224,3.619,3.619,0,0,0-.589-2.219A1.99,1.99,0,0,0,49.971,33.23Zm6.75-5.186h2.5V41h-2.5Zm11.092,11.6q-.035.044-.176.264a1.764,1.764,0,0,1-.334.387,3.488,3.488,0,0,1-1.138.721,3.879,3.879,0,0,1-1.288.193,2.87,2.87,0,0,1-2.865-1.529,5.852,5.852,0,0,1-.413-2.487V31.42h2.566v5.774a3.023,3.023,0,0,0,.193,1.23,1.338,1.338,0,0,0,1.345.729,1.758,1.758,0,0,0,1.758-1.037,3.754,3.754,0,0,0,.246-1.485V31.42h2.54V41H67.813Zm10.23-5.59a1.227,1.227,0,0,0-1.239-.694,1.479,1.479,0,0,0-1.441.694,2.675,2.675,0,0,0-.2,1.178V41h-2.54V31.438h2.435v1.4a4.031,4.031,0,0,1,.879-1.063,3.478,3.478,0,0,1,3.665-.079,2.812,2.812,0,0,1,.826,1.151A3.185,3.185,0,0,1,81.647,31.6a3.728,3.728,0,0,1,1.723-.4,3.335,3.335,0,0,1,1.248.246,2.784,2.784,0,0,1,1.116.861,2.752,2.752,0,0,1,.545,1.23,8.5,8.5,0,0,1,.088,1.415L86.349,41H83.783V34.9a2,2,0,0,0-.176-.9,1.249,1.249,0,0,0-1.23-.668,1.44,1.44,0,0,0-1.433.861,2.7,2.7,0,0,0-.2,1.1V41H78.219V35.3A3.2,3.2,0,0,0,78.043,34.057ZM96.87,38.188a3.178,3.178,0,0,1-.888,1.731,4.349,4.349,0,0,1-3.445,1.4,4.858,4.858,0,0,1-3.226-1.178,4.75,4.75,0,0,1-1.4-3.832,5.326,5.326,0,0,1,1.261-3.814,4.312,4.312,0,0,1,3.274-1.327,5.021,5.021,0,0,1,2.153.448,3.772,3.772,0,0,1,1.582,1.415,4.828,4.828,0,0,1,.729,1.978,12.771,12.771,0,0,1,.079,1.9H90.436a2.381,2.381,0,0,0,.905,2.021,2.132,2.132,0,0,0,1.248.36,1.8,1.8,0,0,0,1.257-.439,2.087,2.087,0,0,0,.466-.659Zm-2.479-2.936a2.181,2.181,0,0,0-.6-1.507,1.87,1.87,0,0,0-1.34-.514,1.7,1.7,0,0,0-1.349.545,2.72,2.72,0,0,0-.6,1.477Zm8.8-1.978a1.744,1.744,0,0,0-1.749,1.081,3.713,3.713,0,0,0-.246,1.459V41H98.7V31.438h2.417v1.4a4.252,4.252,0,0,1,.914-1.063,3.177,3.177,0,0,1,1.96-.58,3.7,3.7,0,0,1,2.43.778,3.163,3.163,0,0,1,.945,2.58V41H104.8V35.173a2.659,2.659,0,0,0-.2-1.16A1.422,1.422,0,0,0,103.189,33.274Z" transform="translate(1044 590)" fill="#fff"/>
    <g id="Grupo_1151928" data-name="Grupo 1151928" transform="translate(774 526.085)">
      <g id="Grupo_1151921" data-name="Grupo 1151921" transform="translate(0 -0.468)">
        <g id="Grupo_1151920" data-name="Grupo 1151920" clip-path="url(#clip-path-5)">
          <path id="Trazado_986480" data-name="Trazado 986480" d="M7.8,62.836h10.02l-.015-.663-.3-13.414h-9.1A14.01,14.01,0,0,0,6.415,59.224,13.615,13.615,0,0,0,7.8,62.836" transform="translate(-5.316 -42.167)" fill="#60bec8"/>
        </g>
      </g>
      <g id="Grupo_1151923" data-name="Grupo 1151923" transform="translate(0 -0.468)">
        <g id="Grupo_1151922" data-name="Grupo 1151922" clip-path="url(#clip-path-5)">
          <path id="Trazado_986481" data-name="Trazado 986481" d="M9.9,133.322h10.02l-.015-.663-1.843-2.95H8.508A13.612,13.612,0,0,0,9.9,133.322" transform="translate(-7.408 -112.653)" fill="#4aaaaf"/>
          <path id="Trazado_986482" data-name="Trazado 986482" d="M87.041,7.319a10.228,10.228,0,0,1-3.671.626s-9.749.047-9.749,7.087v6.338c0,5.2,5.318,8.131,9.895,8.131h4.908a2.128,2.128,0,0,0,0-4.256h2.128a2.128,2.128,0,1,0,0-4.256h.542a2.128,2.128,0,1,0,0-4.255h7.533a2.128,2.128,0,0,0,0-4.256H87.21a7.306,7.306,0,0,0,2.186-.91,2.429,2.429,0,1,0-2.356-4.248" transform="translate(-64.104 -5.818)" fill="#f9ddb4"/>
          <path id="Trazado_986483" data-name="Trazado 986483" d="M73.621,107.806v1.327c0,5.2,5.318,8.131,9.895,8.131h4.908a2.128,2.128,0,0,0,2.022-2.791,2.127,2.127,0,0,1-2.022,1.465H83.516c-4.576,0-9.895-2.935-9.895-8.131" transform="translate(-64.104 -93.581)" fill="#e0c096"/>
          <path id="Trazado_986484" data-name="Trazado 986484" d="M179.531,128.579a.663.663,0,0,0,.663.663h2.576a2.129,2.129,0,0,0,2.022-2.791,2.128,2.128,0,0,1-2.022,1.465h-2.576a.663.663,0,0,0-.664.664" transform="translate(-156.323 -109.816)" fill="#e0c096"/>
          <path id="Trazado_986485" data-name="Trazado 986485" d="M180.23,95.657a.663.663,0,0,0,.663.664h3.028a2.13,2.13,0,0,0,2.022-2.792,2.126,2.126,0,0,1-2.022,1.465h-3.028a.663.663,0,0,0-.664.663" transform="translate(-156.932 -81.15)" fill="#e0c096"/>
          <path id="Trazado_986486" data-name="Trazado 986486" d="M181.062,62.739a.663.663,0,0,0,.663.663h10.454a2.128,2.128,0,0,0,2.022-2.791,2.127,2.127,0,0,1-2.022,1.465H181.726a.663.663,0,0,0-.664.664" transform="translate(-157.656 -52.487)" fill="#e0c096"/>
          <path id="Trazado_986487" data-name="Trazado 986487" d="M156.137,16.693c.5,1.826-2.861,2.841-6.336,2.948a.633.633,0,0,0,.015,1.265h3.189a7.312,7.312,0,0,0,2.186-.91,2.428,2.428,0,0,0,.946-3.3" transform="translate(-129.899 -14.247)" fill="#e0c096"/>
          <path id="Trazado_986488" data-name="Trazado 986488" d="M34.908,68.151a1.415,1.415,0,1,1-1.415-1.415,1.415,1.415,0,0,1,1.415,1.415" transform="translate(-27.931 -57.821)" fill="#efefef"/>
          <rect id="Rectángulo_408332" data-name="Rectángulo 408332" width="9.783" height="10.477" transform="translate(1.426 40.924)" fill="#fc6947"/>
          <rect id="Rectángulo_408333" data-name="Rectángulo 408333" width="9.783" height="16.749" transform="translate(15.077 34.652)" fill="#60bec8"/>
          <rect id="Rectángulo_408334" data-name="Rectángulo 408334" width="9.783" height="28.871" transform="translate(28.728 22.53)" fill="#efcf4a"/>
        </g>
      </g>
      <g id="Grupo_1151925" data-name="Grupo 1151925" transform="translate(0 -0.468)">
        <g id="Grupo_1151924" data-name="Grupo 1151924" clip-path="url(#clip-path-5)">
          <rect id="Rectángulo_408336" data-name="Rectángulo 408336" width="9.782" height="46.552" transform="translate(42.38 4.849)" fill="#40d39b"/>
          <path id="Trazado_986489" data-name="Trazado 986489" d="M2.49,58.327h6.2a.786.786,0,0,0,0-1.572H2.962a12.778,12.778,0,0,1-1.094-3A13.316,13.316,0,0,1,3.52,44.249H7.474a.786.786,0,0,0,0-1.572H3.092A.785.785,0,0,0,2.454,43,14.694,14.694,0,0,0,.334,54.1,14.442,14.442,0,0,0,1.8,57.921a.785.785,0,0,0,.688.406" transform="translate(-0.001 -36.872)"/>
        </g>
      </g>
      <g id="Grupo_1151927" data-name="Grupo 1151927" transform="translate(0 -0.468)">
        <g id="Grupo_1151926" data-name="Grupo 1151926" clip-path="url(#clip-path-5)">
          <path id="Trazado_986490" data-name="Trazado 986490" d="M116.563,3.895a15.805,15.805,0,0,1,3.344-.47h0A10.514,10.514,0,0,0,123.96,2.7a1.643,1.643,0,0,1,2.3,2.1.786.786,0,1,0,1.439.634,3.216,3.216,0,0,0-4.5-4.11,9.046,9.046,0,0,1-3.293.527,17.11,17.11,0,0,0-3.727.518.786.786,0,1,0,.386,1.524" transform="translate(-100.642 -0.513)"/>
          <path id="Trazado_986491" data-name="Trazado 986491" d="M88.172,34.214a2.9,2.9,0,0,0-.688-1.878,2.913,2.913,0,0,0,.9-3.719h4.947a2.914,2.914,0,0,0,0-5.828H78.086a.786.786,0,0,0,0,1.572H93.333a1.341,1.341,0,0,1,0,2.683H82.217a.786.786,0,0,0,0,1.572H85.8a1.341,1.341,0,0,1,0,2.683H82.91a.786.786,0,0,0,0,1.573h2.348a1.341,1.341,0,1,1,0,2.683H82.019a.786.786,0,0,0,0,1.573H83.13a1.342,1.342,0,1,1,0,2.683H78.223a10.9,10.9,0,0,1-6.2-1.967,6.567,6.567,0,0,1-2.908-5.378V26.128a5.285,5.285,0,0,1,3.1-4.89.786.786,0,1,0-.739-1.388,6.839,6.839,0,0,0-3.936,6.278v6.338a8.131,8.131,0,0,0,3.554,6.65,12.355,12.355,0,0,0,7.125,2.267H83.13A2.914,2.914,0,0,0,85.7,37.094a2.918,2.918,0,0,0,2.473-2.881" transform="translate(-58.812 -16.915)"/>
          <path id="Trazado_986492" data-name="Trazado 986492" d="M28.194,60.654a2.2,2.2,0,1,0,2.2,2.2,2.2,2.2,0,0,0-2.2-2.2m0,2.83a.629.629,0,1,1,.629-.629.629.629,0,0,1-.629.629" transform="translate(-22.632 -52.525)"/>
          <path id="Trazado_986493" data-name="Trazado 986493" d="M15.522,308.267H5.739a.786.786,0,0,0-.786.786V319.53a.786.786,0,0,0,.786.786h9.783a.786.786,0,0,0,.786-.786V309.053a.786.786,0,0,0-.786-.786m-.786,10.477H6.525v-8.9h8.21Z" transform="translate(-4.313 -268.129)"/>
          <path id="Trazado_986494" data-name="Trazado 986494" d="M121.124,259.744h-9.782a.786.786,0,0,0-.786.787v16.749a.786.786,0,0,0,.786.786h9.782a.786.786,0,0,0,.786-.786V260.531a.787.787,0,0,0-.786-.787m-.786,16.749h-8.21V261.317h8.21Z" transform="translate(-96.264 -225.879)"/>
          <path id="Trazado_986495" data-name="Trazado 986495" d="M226.725,165.974h-9.783a.786.786,0,0,0-.786.786v28.871a.786.786,0,0,0,.786.786h9.783a.786.786,0,0,0,.786-.786v-11.42a.786.786,0,0,0-1.572,0v10.633h-8.21v-27.3h8.21V181.59a.786.786,0,1,0,1.572,0V166.76a.786.786,0,0,0-.786-.786" transform="translate(-188.214 -144.23)"/>
          <path id="Trazado_986496" data-name="Trazado 986496" d="M332.327,29.193h-9.782a.786.786,0,0,0-.787.786V76.531a.786.786,0,0,0,.787.786h9.782a.786.786,0,0,0,.787-.786V29.979a.786.786,0,0,0-.787-.786m-.786,46.552h-8.21V30.765h8.21Z" transform="translate(-280.165 -25.131)"/>
        </g>
      </g>
    </g>
    <g id="Grupo_1151930" data-name="Grupo 1151930" transform="translate(1078 526)">
      <g id="Grupo_1151929" data-name="Grupo 1151929" clip-path="url(#clip-path-9)">
        <path id="Trazado_986497" data-name="Trazado 986497" d="M48.966,6.074H78.758v37.8H6.078V6.074Z" transform="translate(-4.967 -4.963)" fill="#40d39b"/>
        <path id="Trazado_986498" data-name="Trazado 986498" d="M16.536,6.07A10.454,10.454,0,0,1,6.082,16.524V6.072l0,0Z" transform="translate(-4.97 -4.96)" fill="#2cb77e"/>
        <path id="Trazado_986499" data-name="Trazado 986499" d="M16.536,166.078A10.453,10.453,0,0,0,6.082,155.625v10.451H16.536Z" transform="translate(-4.97 -127.166)" fill="#2cb77e"/>
        <path id="Trazado_986500" data-name="Trazado 986500" d="M356.808,155.625a10.453,10.453,0,0,0-10.453,10.453h10.453Z" transform="translate(-283.016 -127.166)" fill="#2cb77e"/>
        <path id="Trazado_986501" data-name="Trazado 986501" d="M6.082,212.785h72.68V224.76H6.084Z" transform="translate(-4.97 -173.873)" fill="#2cb77e"/>
        <path id="Trazado_986502" data-name="Trazado 986502" d="M356.808,16.524A10.453,10.453,0,0,1,346.355,6.07h10.451l0,0Z" transform="translate(-283.016 -4.96)" fill="#2cb77e"/>
        <path id="Trazado_986503" data-name="Trazado 986503" d="M152.394,41.914a15.109,15.109,0,1,1-15.109-15.109,15.109,15.109,0,0,1,15.109,15.109" transform="translate(-99.833 -21.903)" fill="#2cb77e"/>
        <path id="Trazado_986504" data-name="Trazado 986504" d="M74.9,1.112A1.113,1.113,0,0,0,73.792,0H1.112A1.112,1.112,0,0,0,0,1.112L0,50.888A1.112,1.112,0,0,0,1.114,52H73.792A1.112,1.112,0,0,0,74.9,50.888V1.112ZM2.225,29.64a9.355,9.355,0,0,1,8.158,8.16H2.225Zm0,10.385H72.68v1.74H2.225ZM72.68,37.8h-8.16a9.355,9.355,0,0,1,8.16-8.16Zm0-27.418A9.356,9.356,0,0,1,64.52,2.224H72.68Zm-62.3-8.158A9.263,9.263,0,0,1,9.892,4.3a1.112,1.112,0,1,0,2.091.76,11.46,11.46,0,0,0,.638-2.837h49.66a11.585,11.585,0,0,0,10.4,10.4V27.4a11.583,11.583,0,0,0-10.4,10.4H12.622a11.583,11.583,0,0,0-10.4-10.4V12.62A11.58,11.58,0,0,0,9.753,8.8,1.112,1.112,0,1,0,8.091,7.318a9.352,9.352,0,0,1-5.865,3.064V2.224ZM2.227,49.775V47.921h4.58a1.113,1.113,0,0,0,0-2.225H2.226V43.991H72.68V45.7H10.514a1.113,1.113,0,0,0,0,2.225H72.68v1.854Z"/>
        <path id="Trazado_986505" data-name="Trazado 986505" d="M132.315,53.162a16.222,16.222,0,1,0-16.221-16.221,16.24,16.24,0,0,0,16.221,16.221m0-30.218a14,14,0,1,1-14,14,14.013,14.013,0,0,1,14-14" transform="translate(-94.864 -16.93)"/>
        <path id="Trazado_986506" data-name="Trazado 986506" d="M176.015,54.943a1.112,1.112,0,0,0-1.112,1.112v3.886h-4.217a1.112,1.112,0,0,0,0,2.225H174.9V64.43a1.112,1.112,0,0,0,2.224,0V62.166h.135a5.194,5.194,0,1,0,0-10.388h-2.494a2.969,2.969,0,0,1,0-5.938h.135v3.9a1.112,1.112,0,1,0,2.224,0v-3.9h4.216a1.112,1.112,0,1,0,0-2.224h-4.216V41.351a1.112,1.112,0,1,0-2.224,0v2.264h-.135a5.194,5.194,0,1,0,0,10.388h2.494a2.969,2.969,0,0,1,0,5.938h-.135V56.055a1.112,1.112,0,0,0-1.112-1.112" transform="translate(-138.564 -32.88)"/>
        <path id="Trazado_986507" data-name="Trazado 986507" d="M58.922,80.4h4.025a1.113,1.113,0,0,0,0-2.225H58.922a1.113,1.113,0,1,0,0,2.225" transform="translate(-47.237 -63.88)"/>
        <path id="Trazado_986508" data-name="Trazado 986508" d="M58.922,107.048h4.025a1.112,1.112,0,1,0,0-2.224H58.922a1.112,1.112,0,1,0,0,2.224" transform="translate(-47.237 -85.655)"/>
      </g>
    </g>
    <g id="Grupo_1151932" data-name="Grupo 1151932" transform="translate(460 526)">
      <g id="Grupo_1151931" data-name="Grupo 1151931" clip-path="url(#clip-path-10)">
        <path id="Trazado_986509" data-name="Trazado 986509" d="M38.184,4.606h-11.9a2.781,2.781,0,0,1-2.471-1.638,3.733,3.733,0,0,0-6.706,0,2.781,2.781,0,0,1-2.471,1.638H2.74A1.865,1.865,0,0,0,.875,6.471V49.377A1.865,1.865,0,0,0,2.74,51.243H38.184a1.865,1.865,0,0,0,1.865-1.865V6.471a1.865,1.865,0,0,0-1.865-1.865" transform="translate(-0.059 -0.059)" fill="#90caf9"/>
        <path id="Trazado_986510" data-name="Trazado 986510" d="M32.054,34.918l10.093-3.834V24.825Z" transform="translate(-2.156 -1.67)" fill="#42a5f5"/>
        <path id="Trazado_986511" data-name="Trazado 986511" d="M21.618,46.028A39.649,39.649,0,0,1,.875,40.377V52.034A1.866,1.866,0,0,0,2.74,53.9H38.184a1.866,1.866,0,0,0,1.865-1.865V41.677a40.206,40.206,0,0,1-18.432,4.351" transform="translate(-0.059 -2.716)" fill="#42a5f5"/>
        <rect id="Rectángulo_408340" data-name="Rectángulo 408340" width="31.713" height="38.242" transform="translate(4.547 9.211)" fill="#e7eaf0"/>
        <path id="Trazado_986512" data-name="Trazado 986512" d="M38.416,32.77l-6.362,2.417,6.362-6.362Z" transform="translate(-2.156 -1.939)" fill="#ced4e0"/>
        <path id="Trazado_986513" data-name="Trazado 986513" d="M21.887,46.172A40.516,40.516,0,0,1,4.875,42.516v7.8H36.588V43.5a41.007,41.007,0,0,1-14.7,2.673" transform="translate(-0.328 -2.86)" fill="#c3ccdb"/>
        <path id="Trazado_986514" data-name="Trazado 986514" d="M31.618,33.778l-6.051,1.435L27,29.161,47.331,8.831a3.264,3.264,0,1,1,4.616,4.617Z" transform="translate(-1.72 -0.53)" fill="#f06292"/>
        <path id="Trazado_986515" data-name="Trazado 986515" d="M27.094,4.606a2.781,2.781,0,0,1-2.471-1.638,3.733,3.733,0,0,0-6.706,0,2.781,2.781,0,0,1-2.47,1.638H12.875V9.27H29.664V4.606Z" transform="translate(-0.866 -0.059)" fill="#1e88e5"/>
        <path id="Trazado_986516" data-name="Trazado 986516" d="M10.682,21.371a.815.815,0,0,1-.608-.272L8.208,19.012a.816.816,0,1,1,1.216-1.088l1.257,1.406,2.19-2.449a.816.816,0,0,1,1.216,1.088l-2.8,3.13a.815.815,0,0,1-.608.272" transform="translate(-0.538 -1.117)"/>
        <path id="Trazado_986517" data-name="Trazado 986517" d="M30.942,19.276H18.816a.816.816,0,0,1,0-1.632H30.942a.816.816,0,1,1,0,1.632" transform="translate(-1.211 -1.187)"/>
        <path id="Trazado_986518" data-name="Trazado 986518" d="M10.682,32.067a.815.815,0,0,1-.608-.272L8.208,29.708A.816.816,0,1,1,9.424,28.62l1.257,1.406,2.19-2.449a.816.816,0,0,1,1.216,1.088l-2.8,3.13a.815.815,0,0,1-.608.272" transform="translate(-0.538 -1.837)"/>
        <path id="Trazado_986519" data-name="Trazado 986519" d="M23.48,29.972H18.816a.816.816,0,0,1,0-1.632H23.48a.816.816,0,0,1,0,1.632" transform="translate(-1.211 -1.906)"/>
        <path id="Trazado_986520" data-name="Trazado 986520" d="M10.682,42.763a.815.815,0,0,1-.608-.272L8.208,40.4a.816.816,0,1,1,1.216-1.088l1.257,1.406,2.19-2.449a.816.816,0,0,1,1.216,1.088l-2.8,3.13a.815.815,0,0,1-.608.272" transform="translate(-0.538 -2.556)"/>
        <path id="Trazado_986521" data-name="Trazado 986521" d="M30.942,40.668H18.816a.816.816,0,1,1,0-1.632H30.942a.816.816,0,1,1,0,1.632" transform="translate(-1.211 -2.626)"/>
        <path id="Trazado_986522" data-name="Trazado 986522" d="M24.413,22.632h-5.6a.816.816,0,0,1,0-1.632h5.6a.816.816,0,0,1,0,1.632" transform="translate(-1.211 -1.413)"/>
        <path id="Trazado_986523" data-name="Trazado 986523" d="M20.682,33.328H18.816a.816.816,0,0,1,0-1.632h1.865a.816.816,0,0,1,0,1.632" transform="translate(-1.211 -2.132)"/>
        <path id="Trazado_986524" data-name="Trazado 986524" d="M26.278,44.024H18.816a.816.816,0,0,1,0-1.632h7.462a.816.816,0,1,1,0,1.632" transform="translate(-1.211 -2.851)"/>
        <path id="Trazado_986525" data-name="Trazado 986525" d="M42.547,15.016a.816.816,0,0,1-.816-.816V6.682a1.051,1.051,0,0,0-1.049-1.049H38.816a.816.816,0,0,1,0-1.632h1.865a2.684,2.684,0,0,1,2.682,2.682V14.2a.816.816,0,0,1-.816.816" transform="translate(-2.556 -0.269)"/>
        <path id="Trazado_986526" data-name="Trazado 986526" d="M38.126,52H2.682A2.685,2.685,0,0,1,0,49.318V6.413A2.685,2.685,0,0,1,2.682,3.731h11.9A1.98,1.98,0,0,0,16.32,2.55,4.528,4.528,0,0,1,20.4,0,4.52,4.52,0,0,1,24.49,2.55a1.978,1.978,0,0,0,1.738,1.181h5.918a.816.816,0,0,1,0,1.632H26.228a3.6,3.6,0,0,1-3.2-2.1A2.9,2.9,0,0,0,20.4,1.632a2.931,2.931,0,0,0-2.067.856,2.978,2.978,0,0,0-.551.78,3.6,3.6,0,0,1-3.2,2.095H2.682A1.051,1.051,0,0,0,1.632,6.413V49.318a1.051,1.051,0,0,0,1.049,1.049H38.126a1.051,1.051,0,0,0,1.049-1.049V26.886a.816.816,0,1,1,1.632,0V49.318A2.685,2.685,0,0,1,38.126,52"/>
        <path id="Trazado_986527" data-name="Trazado 986527" d="M30.816,10.3A.816.816,0,0,1,30,9.48V4.816a.816.816,0,1,1,1.632,0V9.48a.816.816,0,0,1-.816.816" transform="translate(-2.018 -0.269)"/>
        <path id="Trazado_986528" data-name="Trazado 986528" d="M12.816,10.3A.816.816,0,0,1,12,9.48V4.816a.816.816,0,1,1,1.632,0V9.48a.816.816,0,0,1-.816.816" transform="translate(-0.807 -0.269)"/>
        <path id="Trazado_986529" data-name="Trazado 986529" d="M25.508,35.97a.817.817,0,0,1-.795-1l1.435-6.051a.8.8,0,0,1,.217-.389L46.7,8.195a4.081,4.081,0,0,1,5.771,5.772L32.136,34.3a.832.832,0,0,1-.389.217L25.7,35.947a.8.8,0,0,1-.187.022m2.174-6.454-1.075,4.538,4.539-1.075L51.311,12.812a2.45,2.45,0,0,0,0-3.462,2.505,2.505,0,0,0-3.461,0Zm3.876,4.2h0Z" transform="translate(-1.661 -0.471)"/>
        <path id="Trazado_986530" data-name="Trazado 986530" d="M32.364,35.362a.813.813,0,0,1-.577-.239l-4.608-4.608a.817.817,0,1,1,1.155-1.155l4.608,4.608a.816.816,0,0,1-.577,1.394" transform="translate(-1.812 -1.959)"/>
        <path id="Trazado_986531" data-name="Trazado 986531" d="M4.816,48.874A.816.816,0,0,1,4,48.058V9.816A.816.816,0,0,1,4.816,9H36.529a.816.816,0,0,1,.816.816v8.451a.816.816,0,1,1-1.632,0V10.632H5.632V48.058a.816.816,0,0,1-.816.816" transform="translate(-0.269 -0.605)"/>
        <path id="Trazado_986532" data-name="Trazado 986532" d="M36.909,50.149H10.466a.816.816,0,1,1,0-1.632H36.093V28.766a.816.816,0,1,1,1.632,0V49.333a.816.816,0,0,1-.816.816" transform="translate(-0.649 -1.88)"/>
        <path id="Trazado_986533" data-name="Trazado 986533" d="M42.6,20.112a.816.816,0,0,1-.577-1.394l3.793-3.793a.817.817,0,1,1,1.156,1.155L43.18,19.873a.813.813,0,0,1-.577.239" transform="translate(-2.811 -0.988)" fill="#fff"/>
        <path id="Trazado_986534" data-name="Trazado 986534" d="M49.086,13.86a.816.816,0,0,1-.578-1.394l.586-.586a.817.817,0,0,1,1.155,1.155l-.585.586a.817.817,0,0,1-.577.239" transform="translate(-3.247 -0.783)" fill="#fff"/>
        <path id="Trazado_986535" data-name="Trazado 986535" d="M25.178,7.814H23.259a.816.816,0,0,1,0-1.632h1.919a.816.816,0,1,1,0,1.632" transform="translate(-1.51 -0.416)" fill="#fff"/>
      </g>
    </g>
    <g id="Grupo_1151933" data-name="Grupo 1151933" transform="translate(0 -51)">
      <circle id="Elipse_11825" data-name="Elipse 11825" cx="28.5" cy="28.5" r="28.5" transform="translate(457 772)" fill="#98cfd6"/>
    </g>
    <g id="Grupo_1151934" data-name="Grupo 1151934" transform="translate(315 -54)">
      <path id="Trazado_986536" data-name="Trazado 986536" d="M28.5,0A28.5,28.5,0,1,1,0,28.5,28.5,28.5,0,0,1,28.5,0Z" transform="translate(457 772)" fill="#bfcde9"/>
    </g>
    <g id="Grupo_1151935" data-name="Grupo 1151935" transform="translate(630 -51)">
      <path id="Trazado_986536-2" data-name="Trazado 986536" d="M28.5,0A28.5,28.5,0,1,1,0,28.5,28.5,28.5,0,0,1,28.5,0Z" transform="translate(457 772)" fill="#fadfd0"/>
    </g>
  </g>
</svg>
