<svg xmlns="http://www.w3.org/2000/svg" xmlns:xlink="http://www.w3.org/1999/xlink" width="108" height="108" viewBox="0 0 108 108">
  <defs>
    <filter id="Trazado_982538" x="0" y="0" width="108" height="108" filterUnits="userSpaceOnUse">
      <feOffset dy="3" input="SourceAlpha"/>
      <feGaussianBlur stdDeviation="3" result="blur"/>
      <feFlood flood-opacity="0.161"/>
      <feComposite operator="in" in2="blur"/>
      <feComposite in="SourceGraphic"/>
    </filter>
    <clipPath id="clip-path">
      <rect id="Rectángulo_408342" data-name="Rectángulo 408342" width="55.75" height="55.75" fill="none"/>
    </clipPath>
  </defs>
  <g id="Grupo_1151965" data-name="Grupo 1151965" transform="translate(-1291 -4629.365)">
    <g id="Grupo_1151888" data-name="Grupo 1151888" transform="translate(1300 4635.365)">
      <g id="Grupo_1150893" data-name="Grupo 1150893">
        <g transform="matrix(1, 0, 0, 1, -9, -6)" filter="url(#Trazado_982538)">
          <g id="Trazado_982538-2" data-name="Trazado 982538" transform="translate(9 6)" fill="#f3f3f3">
            <path d="M 45 88.5 C 39.12687683105469 88.5 33.43022537231445 87.35007476806641 28.06830024719238 85.08217620849609 C 22.88852500915527 82.89131164550781 18.23629951477051 79.75458526611328 14.2408504486084 75.75914764404297 C 10.24541282653809 71.76370239257812 7.108687400817871 67.11147308349609 4.917825222015381 61.93170166015625 C 2.649924993515015 56.56977462768555 1.5 50.87312316894531 1.5 45 C 1.5 39.12687683105469 2.649924993515015 33.43022537231445 4.917825222015381 28.06830024719238 C 7.108687400817871 22.88852500915527 10.24541282653809 18.23629951477051 14.2408504486084 14.2408504486084 C 18.23629951477051 10.24541282653809 22.88852500915527 7.108687400817871 28.06830024719238 4.917825222015381 C 33.43022537231445 2.649924993515015 39.12687683105469 1.5 45 1.5 C 50.87312316894531 1.5 56.56977462768555 2.649924993515015 61.93170166015625 4.917825222015381 C 67.11147308349609 7.108687400817871 71.76370239257812 10.24541282653809 75.75914764404297 14.2408504486084 C 79.75458526611328 18.23629951477051 82.89131164550781 22.88852500915527 85.08217620849609 28.06830024719238 C 87.35007476806641 33.43022537231445 88.5 39.12687683105469 88.5 45 C 88.5 50.87312316894531 87.35007476806641 56.56977462768555 85.08217620849609 61.93170166015625 C 82.89131164550781 67.11147308349609 79.75458526611328 71.76370239257812 75.75914764404297 75.75914764404297 C 71.76370239257812 79.75458526611328 67.11147308349609 82.89131164550781 61.93170166015625 85.08217620849609 C 56.56977462768555 87.35007476806641 50.87312316894531 88.5 45 88.5 Z" stroke="none"/>
            <path d="M 45 3 C 39.32871246337891 3 33.82865524291992 4.110054016113281 28.65262985229492 6.299339294433594 C 23.65165710449219 8.414573669433594 19.15968322753906 11.44334411621094 15.301513671875 15.301513671875 C 11.44334411621094 19.15968322753906 8.414573669433594 23.65165710449219 6.299339294433594 28.65262985229492 C 4.110054016113281 33.82865524291992 3 39.32871246337891 3 45 C 3 50.67128753662109 4.110054016113281 56.17134475708008 6.299339294433594 61.34737396240234 C 8.414573669433594 66.34834289550781 11.44334411621094 70.84031677246094 15.301513671875 74.698486328125 C 19.15968322753906 78.55665588378906 23.65165710449219 81.58542633056641 28.65262985229492 83.70066070556641 C 33.82865524291992 85.88994598388672 39.32871246337891 87 45 87 C 50.67128753662109 87 56.17134475708008 85.88994598388672 61.34737396240234 83.70066070556641 C 66.34834289550781 81.58542633056641 70.84031677246094 78.55665588378906 74.698486328125 74.698486328125 C 78.55665588378906 70.84031677246094 81.58542633056641 66.34834289550781 83.70066070556641 61.34737396240234 C 85.88994598388672 56.17134475708008 87 50.67128753662109 87 45 C 87 39.32871246337891 85.88994598388672 33.82865524291992 83.70066070556641 28.65262985229492 C 81.58542633056641 23.65165710449219 78.55665588378906 19.15968322753906 74.698486328125 15.301513671875 C 70.84031677246094 11.44334411621094 66.34834289550781 8.414573669433594 61.34737396240234 6.299339294433594 C 56.17134475708008 4.110054016113281 50.67128753662109 3 45 3 M 45 0 C 69.85281372070312 0 90 20.14718627929688 90 45 C 90 69.85281372070312 69.85281372070312 90 45 90 C 20.14718627929688 90 0 69.85281372070312 0 45 C 0 20.14718627929688 20.14718627929688 0 45 0 Z" stroke="none" fill="#fd7940"/>
          </g>
        </g>
      </g>
    </g>
    <g id="Grupo_1151937" data-name="Grupo 1151937" transform="translate(1317 4653.49)">
      <g id="Grupo_1151936" data-name="Grupo 1151936" clip-path="url(#clip-path)">
        <path id="Trazado_986537" data-name="Trazado 986537" d="M48.875,51.875h-45a3,3,0,0,1-3-3v-45a3,3,0,0,1,3-3h45a3,3,0,0,1,3,3v45a3,3,0,0,1-3,3" fill="#e7eaf0"/>
        <path id="Trazado_986538" data-name="Trazado 986538" d="M30.875,40.875l-7.1,7H3.875a3,3,0,0,1-3-3v4a3,3,0,0,0,3,3h45a3,3,0,0,0,3-3V37.787c-8.93,7.391-21,3.088-21,3.088" fill="#c3ccdb"/>
        <path id="Trazado_986539" data-name="Trazado 986539" d="M50.775,40.582a14,14,0,1,1,0-19.8,14,14,0,0,1,0,19.8" fill="#f06292"/>
        <path id="Trazado_986540" data-name="Trazado 986540" d="M47.592,37.4a9.5,9.5,0,1,1,0-13.435,9.5,9.5,0,0,1,0,13.435" fill="#f06292"/>
        <path id="Trazado_986541" data-name="Trazado 986541" d="M40.875,21.182a9.5,9.5,0,1,0,9.5,9.5,9.5,9.5,0,0,0-9.5-9.5" fill="#c3ccdb"/>
        <path id="Trazado_986542" data-name="Trazado 986542" d="M30.976,40.582a13.931,13.931,0,0,1-1.627-1.968L17.59,49.825a2.93,2.93,0,1,0,4.143,4.142l11.21-11.759a13.928,13.928,0,0,1-1.967-1.626" fill="#f06292"/>
        <path id="Trazado_986543" data-name="Trazado 986543" d="M30.976,40.582a13.931,13.931,0,0,1-1.627-1.968l-.8.762.009.024A6,6,0,0,1,27.2,45.6l-6.273,6.372a2.929,2.929,0,0,1-4.191.05c-.018-.018-.03-.039-.046-.057a2.921,2.921,0,0,0,.721,1.916,3.046,3.046,0,0,0,4.453-.044L32.943,42.208a13.928,13.928,0,0,1-1.967-1.626" fill="#d13978"/>
        <path id="Trazado_986544" data-name="Trazado 986544" d="M51.875,10.875v-7a3,3,0,0,0-3-3h-45a3,3,0,0,0-3,3v7Z" fill="#1e88e5"/>
        <path id="Trazado_986545" data-name="Trazado 986545" d="M7.875,5.875a1.5,1.5,0,1,1-1.5-1.5,1.5,1.5,0,0,1,1.5,1.5" fill="#f8bbd0"/>
        <path id="Trazado_986546" data-name="Trazado 986546" d="M12.875,5.875a1.5,1.5,0,1,1-1.5-1.5,1.5,1.5,0,0,1,1.5,1.5" fill="#ffe082"/>
        <path id="Trazado_986547" data-name="Trazado 986547" d="M17.875,5.875a1.5,1.5,0,1,1-1.5-1.5,1.5,1.5,0,0,1,1.5,1.5" fill="#c5e1a5"/>
        <path id="Trazado_986548" data-name="Trazado 986548" d="M46.875,6.75h-1a.875.875,0,0,1,0-1.75h1a.875.875,0,0,1,0,1.75" fill="#fff"/>
        <path id="Trazado_986549" data-name="Trazado 986549" d="M41.875,6.75h-10a.875.875,0,0,1,0-1.75h10a.875.875,0,0,1,0,1.75" fill="#fff"/>
        <path id="Trazado_986550" data-name="Trazado 986550" d="M46.683,31.558a.875.875,0,0,1-.875-.875,4.939,4.939,0,0,0-4.933-4.933.875.875,0,0,1,0-1.75,6.691,6.691,0,0,1,6.683,6.683.875.875,0,0,1-.875.875" fill="#fff"/>
        <path id="Trazado_986551" data-name="Trazado 986551" d="M40.875,37.365a6.672,6.672,0,0,1-5.582-3.008.875.875,0,0,1,1.461-.963,4.925,4.925,0,0,0,4.121,2.221.875.875,0,0,1,0,1.75" fill="#fff"/>
        <path id="Trazado_986552" data-name="Trazado 986552" d="M40.875,45.558A14.875,14.875,0,1,1,55.75,30.683,14.892,14.892,0,0,1,40.875,45.558m0-28A13.125,13.125,0,1,0,54,30.683,13.14,13.14,0,0,0,40.875,17.558"/>
        <path id="Trazado_986553" data-name="Trazado 986553" d="M40.875,41.058A10.375,10.375,0,1,1,51.25,30.683,10.386,10.386,0,0,1,40.875,41.058m0-19A8.625,8.625,0,1,0,49.5,30.683a8.635,8.635,0,0,0-8.625-8.625"/>
        <path id="Trazado_986554" data-name="Trazado 986554" d="M19.61,55.75a3.8,3.8,0,0,1-2.624-6.558L28.745,37.98a.875.875,0,0,1,1.208,1.267L18.194,50.458a2.054,2.054,0,0,0-.035,2.94,2.079,2.079,0,0,0,1.477.6,2.037,2.037,0,0,0,1.462-.637L29.918,44a.875.875,0,1,1,1.274,1.2l-8.823,9.37a3.782,3.782,0,0,1-2.712,1.183H19.61"/>
        <path id="Trazado_986555" data-name="Trazado 986555" d="M51.875,22.9A.875.875,0,0,1,51,22.025V3.875A2.127,2.127,0,0,0,48.875,1.75h-18a.875.875,0,0,1,0-1.75h18A3.879,3.879,0,0,1,52.75,3.875v18.15a.875.875,0,0,1-.875.875"/>
        <path id="Trazado_986556" data-name="Trazado 986556" d="M16.685,52.75H3.875A3.879,3.879,0,0,1,0,48.875v-45A3.879,3.879,0,0,1,3.875,0h21a.875.875,0,0,1,0,1.75h-21A2.127,2.127,0,0,0,1.75,3.875v45A2.127,2.127,0,0,0,3.875,51h12.81a.875.875,0,1,1,0,1.75"/>
        <path id="Trazado_986557" data-name="Trazado 986557" d="M48.875,52.75h-21a.875.875,0,0,1,0-1.75h21A2.127,2.127,0,0,0,51,48.875v-9.53a.875.875,0,0,1,1.75,0v9.53a3.879,3.879,0,0,1-3.875,3.875"/>
        <path id="Trazado_986558" data-name="Trazado 986558" d="M51.875,11.75h-51a.875.875,0,0,1,0-1.75h51a.875.875,0,0,1,0,1.75"/>
        <path id="Trazado_986559" data-name="Trazado 986559" d="M23.875,39.75h-18A.875.875,0,0,1,5,38.875v-22a.875.875,0,0,1,1.75,0V38H23.875a.875.875,0,0,1,0,1.75"/>
        <path id="Trazado_986560" data-name="Trazado 986560" d="M5.874,33.75A.875.875,0,0,1,5.2,32.32l4.924-6a.9.9,0,0,1,1.352,0l1.777,2.166,8.941-11.158a.875.875,0,1,1,1.365,1.094l-9.615,12a.873.873,0,0,1-.678.328.858.858,0,0,1-.681-.32L10.8,28.254,6.551,33.43a.873.873,0,0,1-.677.32"/>
        <path id="Trazado_986561" data-name="Trazado 986561" d="M23.066,22.75a.876.876,0,0,1-.874-.833l-.14-2.935-2.965.742a.875.875,0,0,1-.425-1.7l4-1a.876.876,0,0,1,1.087.807l.192,4a.876.876,0,0,1-.833.916h-.042"/>
        <path id="Trazado_986562" data-name="Trazado 986562" d="M9.875,39.75A.875.875,0,0,1,9,38.875V33.3a.875.875,0,0,1,1.75,0v5.571a.875.875,0,0,1-.875.875"/>
        <path id="Trazado_986563" data-name="Trazado 986563" d="M13.542,39.75a.875.875,0,0,1-.875-.875V33.3a.875.875,0,0,1,1.75,0v5.571a.876.876,0,0,1-.875.875"/>
        <path id="Trazado_986564" data-name="Trazado 986564" d="M17.208,39.75a.875.875,0,0,1-.875-.875v-9a.875.875,0,0,1,1.75,0v9a.875.875,0,0,1-.875.875"/>
        <path id="Trazado_986565" data-name="Trazado 986565" d="M20.875,39.75A.875.875,0,0,1,20,38.875v-13a.875.875,0,0,1,1.75,0v13a.875.875,0,0,1-.875.875"/>
        <path id="Trazado_986566" data-name="Trazado 986566" d="M14.875,43.75h-9a.875.875,0,0,1,0-1.75h9a.875.875,0,0,1,0,1.75"/>
        <path id="Trazado_986567" data-name="Trazado 986567" d="M9.875,46.75h-4a.875.875,0,0,1,0-1.75h4a.875.875,0,0,1,0,1.75"/>
      </g>
    </g>
  </g>
</svg>
