<svg xmlns="http://www.w3.org/2000/svg" xmlns:xlink="http://www.w3.org/1999/xlink" width="108" height="108" viewBox="0 0 108 108">
  <defs>
    <filter id="Trazado_982538" x="0" y="0" width="108" height="108" filterUnits="userSpaceOnUse">
      <feOffset dy="3" input="SourceAlpha"/>
      <feGaussianBlur stdDeviation="3" result="blur"/>
      <feFlood flood-opacity="0.161"/>
      <feComposite operator="in" in2="blur"/>
      <feComposite in="SourceGraphic"/>
    </filter>
    <clipPath id="clip-path">
      <rect id="Rectángulo_408343" data-name="Rectángulo 408343" width="62" height="59" transform="translate(0 -0.479)" fill="none"/>
    </clipPath>
  </defs>
  <g id="Grupo_1151966" data-name="Grupo 1151966" transform="translate(-200.5 -8749.225)">
    <g id="Grupo_1151565" data-name="Grupo 1151565" transform="translate(209.5 8755.225)">
      <g id="Grupo_1150893" data-name="Grupo 1150893">
        <g transform="matrix(1, 0, 0, 1, -9, -6)" filter="url(#Trazado_982538)">
          <g id="Trazado_982538-2" data-name="Trazado 982538" transform="translate(9 6)" fill="#f3f3f3">
            <path d="M 45 88.5 C 39.12687683105469 88.5 33.43022537231445 87.35007476806641 28.06830024719238 85.08217620849609 C 22.88852500915527 82.89131164550781 18.23629951477051 79.75458526611328 14.2408504486084 75.75914764404297 C 10.24541282653809 71.76370239257812 7.108687400817871 67.11147308349609 4.917825222015381 61.93170166015625 C 2.649924993515015 56.56977462768555 1.5 50.87312316894531 1.5 45 C 1.5 39.12687683105469 2.649924993515015 33.43022537231445 4.917825222015381 28.06830024719238 C 7.108687400817871 22.88852500915527 10.24541282653809 18.23629951477051 14.2408504486084 14.2408504486084 C 18.23629951477051 10.24541282653809 22.88852500915527 7.108687400817871 28.06830024719238 4.917825222015381 C 33.43022537231445 2.649924993515015 39.12687683105469 1.5 45 1.5 C 50.87312316894531 1.5 56.56977462768555 2.649924993515015 61.93170166015625 4.917825222015381 C 67.11147308349609 7.108687400817871 71.76370239257812 10.24541282653809 75.75914764404297 14.2408504486084 C 79.75458526611328 18.23629951477051 82.89131164550781 22.88852500915527 85.08217620849609 28.06830024719238 C 87.35007476806641 33.43022537231445 88.5 39.12687683105469 88.5 45 C 88.5 50.87312316894531 87.35007476806641 56.56977462768555 85.08217620849609 61.93170166015625 C 82.89131164550781 67.11147308349609 79.75458526611328 71.76370239257812 75.75914764404297 75.75914764404297 C 71.76370239257812 79.75458526611328 67.11147308349609 82.89131164550781 61.93170166015625 85.08217620849609 C 56.56977462768555 87.35007476806641 50.87312316894531 88.5 45 88.5 Z" stroke="none"/>
            <path d="M 45 3 C 39.32871246337891 3 33.82865524291992 4.110054016113281 28.65262985229492 6.299339294433594 C 23.65165710449219 8.414573669433594 19.15968322753906 11.44334411621094 15.301513671875 15.301513671875 C 11.44334411621094 19.15968322753906 8.414573669433594 23.65165710449219 6.299339294433594 28.65262985229492 C 4.110054016113281 33.82865524291992 3 39.32871246337891 3 45 C 3 50.67128753662109 4.110054016113281 56.17134475708008 6.299339294433594 61.34737396240234 C 8.414573669433594 66.34834289550781 11.44334411621094 70.84031677246094 15.301513671875 74.698486328125 C 19.15968322753906 78.55665588378906 23.65165710449219 81.58542633056641 28.65262985229492 83.70066070556641 C 33.82865524291992 85.88994598388672 39.32871246337891 87 45 87 C 50.67128753662109 87 56.17134475708008 85.88994598388672 61.34737396240234 83.70066070556641 C 66.34834289550781 81.58542633056641 70.84031677246094 78.55665588378906 74.698486328125 74.698486328125 C 78.55665588378906 70.84031677246094 81.58542633056641 66.34834289550781 83.70066070556641 61.34737396240234 C 85.88994598388672 56.17134475708008 87 50.67128753662109 87 45 C 87 39.32871246337891 85.88994598388672 33.82865524291992 83.70066070556641 28.65262985229492 C 81.58542633056641 23.65165710449219 78.55665588378906 19.15968322753906 74.698486328125 15.301513671875 C 70.84031677246094 11.44334411621094 66.34834289550781 8.414573669433594 61.34737396240234 6.299339294433594 C 56.17134475708008 4.110054016113281 50.67128753662109 3 45 3 M 45 0 C 69.85281372070312 0 90 20.14718627929688 90 45 C 90 69.85281372070312 69.85281372070312 90 45 90 C 20.14718627929688 90 0 69.85281372070312 0 45 C 0 20.14718627929688 20.14718627929688 0 45 0 Z" stroke="none" fill="#fd7940"/>
          </g>
        </g>
      </g>
    </g>
    <g id="Grupo_1151942" data-name="Grupo 1151942" transform="translate(223 8772.479)">
      <g id="Grupo_1151939" data-name="Grupo 1151939">
        <g id="Grupo_1151938" data-name="Grupo 1151938" clip-path="url(#clip-path)">
          <path id="Trazado_986568" data-name="Trazado 986568" d="M232.634,231.438a3.606,3.606,0,0,1,0,5.1l-5.57,5.57a3.6,3.6,0,0,1-5.1-5.1l5.57-5.57a3.6,3.6,0,0,1,5.1,0" transform="translate(-187.508 -195.544)" fill="#36393d"/>
          <path id="Trazado_986569" data-name="Trazado 986569" d="M246.675,231.438a3.606,3.606,0,0,1,0,5.1l-3.067,3.067a3.6,3.6,0,0,1-5.1-5.1l3.067-3.068a3.6,3.6,0,0,1,5.1,0" transform="translate(-201.549 -195.544)" fill="#494f56"/>
          <path id="Trazado_986570" data-name="Trazado 986570" d="M78.291,64.3a16.606,16.606,0,1,1-23.467,0,16.594,16.594,0,0,1,23.467,0" transform="translate(-42.408 -50.451)" fill="#f4f4f4"/>
          <path id="Trazado_986571" data-name="Trazado 986571" d="M73.1,98.62A16.6,16.6,0,0,1,75.408,119.2,16.6,16.6,0,0,1,52.518,96.313,16.6,16.6,0,0,1,73.1,98.62" transform="translate(-42.408 -79.582)" fill="#efefef"/>
          <path id="Trazado_986572" data-name="Trazado 986572" d="M40.179,49.653a18.912,18.912,0,1,0,26.744,0,18.911,18.911,0,0,0-26.744,0M63.8,73.274a14.493,14.493,0,1,1,0-20.5,14.492,14.492,0,0,1,0,20.5" transform="translate(-29.402 -37.443)" fill="#efcf4a"/>
          <path id="Trazado_986573" data-name="Trazado 986573" d="M277.926,287.4a3.688,3.688,0,0,1-5.214,0l-9.954-9.955,5.214-5.214,9.954,9.954a3.687,3.687,0,0,1,0,5.214" transform="translate(-223.024 -231.066)" fill="#494f56"/>
          <path id="Trazado_986574" data-name="Trazado 986574" d="M274.551,304.51l-9.954-9.954-1.839,1.838,9.954,9.955a3.687,3.687,0,0,0,5.966-1.087,3.689,3.689,0,0,1-4.128-.752" transform="translate(-223.024 -250.014)" fill="#36393d"/>
          <path id="Trazado_986575" data-name="Trazado 986575" d="M132.826,184.016a3.311,3.311,0,1,1-3.311-3.311,3.312,3.312,0,0,1,3.311,3.311" transform="translate(-107.119 -153.379)" fill="#60bec8"/>
          <path id="Trazado_986576" data-name="Trazado 986576" d="M68.022,54.766a.92.92,0,1,0-1.816.291,18.058,18.058,0,0,1-5.042,15.581,17.978,17.978,0,1,1,4.125-19.05.92.92,0,1,0,1.723-.646,19.837,19.837,0,1,0-4.547,21,19.9,19.9,0,0,0,5.558-17.172" transform="translate(-24.291 -32.333)"/>
          <path id="Trazado_986577" data-name="Trazado 986577" d="M62.332,71.806a15.413,15.413,0,1,0,21.8,0,15.431,15.431,0,0,0-21.8,0m20.5,20.5A13.573,13.573,0,1,1,86.8,82.7a13.484,13.484,0,0,1-3.975,9.6" transform="translate(-49.081 -57.123)"/>
        </g>
      </g>
      <g id="Grupo_1151941" data-name="Grupo 1151941">
        <g id="Grupo_1151940" data-name="Grupo 1151940" clip-path="url(#clip-path)">
          <path id="Trazado_986578" data-name="Trazado 986578" d="M228.759,231.719a4.523,4.523,0,0,0-3-7.169.92.92,0,0,0-.254,1.822,2.683,2.683,0,0,1,1.52,4.553l-.17.17-.008.008-5.214,5.214-.007.008-.171.171a2.686,2.686,0,0,1-3.795,0,2.65,2.65,0,0,1-.759-1.519.92.92,0,1,0-1.822.254,4.525,4.525,0,0,0,7.169,3l5.726,5.726a.92.92,0,0,0,1.3-1.3l-2.57-2.57,3.913-3.913,6.181,6.182a2.767,2.767,0,1,1-3.913,3.913l-1.649-1.649a.92.92,0,0,0-1.3,1.3l1.649,1.65a4.607,4.607,0,0,0,6.515-6.515Zm-3.359,7.069-1.821-1.821,3.913-3.913,1.821,1.821Z" transform="translate(-182.544 -190.586)"/>
          <path id="Trazado_986579" data-name="Trazado 986579" d="M5.516,55.034a.92.92,0,0,0,.758-1.439L1.68,46.88A.92.92,0,0,0,.162,47.919l4.6,6.715a.917.917,0,0,0,.76.4" transform="translate(-0.001 -39.451)"/>
          <path id="Trazado_986580" data-name="Trazado 986580" d="M111.677,102.953a.921.921,0,0,0-1.245.379l-5.6,10.52a4.219,4.219,0,0,0-2.894.234l-4.492-5.911a.92.92,0,0,0-1.465,1.114l4.493,5.912a4.231,4.231,0,1,0,5.981-.481l5.6-10.523a.92.92,0,0,0-.38-1.244M103.7,120.322a2.391,2.391,0,1,1,2.392-2.391,2.394,2.394,0,0,1-2.392,2.391" transform="translate(-81.307 -87.293)"/>
          <path id="Trazado_986581" data-name="Trazado 986581" d="M280.078,10.319a.919.919,0,0,0-1.239.4l-5.075,9.849-10.4-19.427a.92.92,0,0,0-1.651.059l-4.048,9.076a.92.92,0,0,0,1.68.749l3.283-7.36,10.336,19.316a.92.92,0,0,0,.811.485h.007a.921.921,0,0,0,.811-.5l5.877-11.406a.919.919,0,0,0-.4-1.239" transform="translate(-218.638 -0.552)"/>
        </g>
      </g>
    </g>
  </g>
</svg>
