<svg xmlns="http://www.w3.org/2000/svg" xmlns:xlink="http://www.w3.org/1999/xlink" width="108" height="108" viewBox="0 0 108 108">
  <defs>
    <filter id="Fondo" x="0" y="0" width="108" height="108" filterUnits="userSpaceOnUse">
      <feOffset dy="3" input="SourceAlpha"/>
      <feGaussianBlur stdDeviation="3" result="blur"/>
      <feFlood flood-opacity="0.161"/>
      <feComposite operator="in" in2="blur"/>
      <feComposite in="SourceGraphic"/>
    </filter>
    <clipPath id="clip-path">
      <rect id="Rectángulo_408350" data-name="Rectángulo 408350" width="55.748" height="55.75" fill="none"/>
    </clipPath>
  </defs>
  <g id="Grupo_1151967" data-name="Grupo 1151967" transform="translate(-326.392 -2691)">
    <g transform="matrix(1, 0, 0, 1, 326.39, 2691)" filter="url(#Fondo)">
      <g id="Fondo-2" data-name="Fondo" transform="translate(9 6)" fill="#e6d567">
        <path d="M 45 88.5 C 39.12687683105469 88.5 33.43022537231445 87.35007476806641 28.06830024719238 85.08217620849609 C 22.88852500915527 82.89131164550781 18.23629951477051 79.75458526611328 14.2408504486084 75.75914764404297 C 10.24541282653809 71.76370239257812 7.108687400817871 67.11147308349609 4.917825222015381 61.93170166015625 C 2.649924993515015 56.56977462768555 1.5 50.87312316894531 1.5 45 C 1.5 39.12687683105469 2.649924993515015 33.43022537231445 4.917825222015381 28.06830024719238 C 7.108687400817871 22.88852500915527 10.24541282653809 18.23629951477051 14.2408504486084 14.2408504486084 C 18.23629951477051 10.24541282653809 22.88852500915527 7.108687400817871 28.06830024719238 4.917825222015381 C 33.43022537231445 2.649924993515015 39.12687683105469 1.5 45 1.5 C 50.87312316894531 1.5 56.56977462768555 2.649924993515015 61.93170166015625 4.917825222015381 C 67.11147308349609 7.108687400817871 71.76370239257812 10.24541282653809 75.75914764404297 14.2408504486084 C 79.75458526611328 18.23629951477051 82.89131164550781 22.88852500915527 85.08217620849609 28.06830024719238 C 87.35007476806641 33.43022537231445 88.5 39.12687683105469 88.5 45 C 88.5 50.87312316894531 87.35007476806641 56.56977462768555 85.08217620849609 61.93170166015625 C 82.89131164550781 67.11147308349609 79.75458526611328 71.76370239257812 75.75914764404297 75.75914764404297 C 71.76370239257812 79.75458526611328 67.11147308349609 82.89131164550781 61.93170166015625 85.08217620849609 C 56.56977462768555 87.35007476806641 50.87312316894531 88.5 45 88.5 Z" stroke="none"/>
        <path d="M 45 3 C 39.32871246337891 3 33.82865524291992 4.110054016113281 28.65262985229492 6.299339294433594 C 23.65165710449219 8.414573669433594 19.15968322753906 11.44334411621094 15.301513671875 15.301513671875 C 11.44334411621094 19.15968322753906 8.414573669433594 23.65165710449219 6.299339294433594 28.65262985229492 C 4.110054016113281 33.82865524291992 3 39.32871246337891 3 45 C 3 50.67128753662109 4.110054016113281 56.17134475708008 6.299339294433594 61.34737396240234 C 8.414573669433594 66.34834289550781 11.44334411621094 70.84031677246094 15.301513671875 74.698486328125 C 19.15968322753906 78.55665588378906 23.65165710449219 81.58542633056641 28.65262985229492 83.70066070556641 C 33.82865524291992 85.88994598388672 39.32871246337891 87 45 87 C 50.67128753662109 87 56.17134475708008 85.88994598388672 61.34737396240234 83.70066070556641 C 66.34834289550781 81.58542633056641 70.84031677246094 78.55665588378906 74.698486328125 74.698486328125 C 78.55665588378906 70.84031677246094 81.58542633056641 66.34834289550781 83.70066070556641 61.34737396240234 C 85.88994598388672 56.17134475708008 87 50.67128753662109 87 45 C 87 39.32871246337891 85.88994598388672 33.82865524291992 83.70066070556641 28.65262985229492 C 81.58542633056641 23.65165710449219 78.55665588378906 19.15968322753906 74.698486328125 15.301513671875 C 70.84031677246094 11.44334411621094 66.34834289550781 8.414573669433594 61.34737396240234 6.299339294433594 C 56.17134475708008 4.110054016113281 50.67128753662109 3 45 3 M 45 0 C 69.85281372070312 0 90 20.14718627929688 90 45 C 90 69.85281372070312 69.85281372070312 90 45 90 C 20.14718627929688 90 0 69.85281372070312 0 45 C 0 20.14718627929688 20.14718627929688 0 45 0 Z" stroke="none" fill="#bca724"/>
      </g>
    </g>
    <g id="Grupo_1151958" data-name="Grupo 1151958" transform="translate(352.518 2714)">
      <g id="Grupo_1151945" data-name="Grupo 1151945" clip-path="url(#clip-path)">
        <path id="Trazado_986610" data-name="Trazado 986610" d="M40.875.875H2.87a2,2,0,0,0-1.995,2v50a2,2,0,0,0,2,2h38a2,2,0,0,0,2-2v-50a2,2,0,0,0-2-2" fill="#e7eaf0"/>
        <path id="Trazado_986611" data-name="Trazado 986611" d="M32.054,35.646l10.821-4.111v-6.71Z" fill="#c3ccdb"/>
        <path id="Trazado_986612" data-name="Trazado 986612" d="M23.114,46.436A42.509,42.509,0,0,1,.875,40.377v12.5a2,2,0,0,0,2,2h38a2,2,0,0,0,2-2v-11.1a43.105,43.105,0,0,1-19.761,4.665" fill="#c3ccdb"/>
        <path id="Trazado_986613" data-name="Trazado 986613" d="M32.054,35.646l-6.487,1.538L27.1,30.7,48.9,8.9a3.5,3.5,0,1,1,4.949,4.95Z" fill="#f06292"/>
        <rect id="Rectángulo_408347" data-name="Rectángulo 408347" width="4" height="7" transform="translate(7.875 43.875)" fill="#42a5f5"/>
        <rect id="Rectángulo_408348" data-name="Rectángulo 408348" width="4" height="14" transform="translate(14.875 36.875)" fill="#42a5f5"/>
        <rect id="Rectángulo_408349" data-name="Rectángulo 408349" width="4" height="10" transform="translate(21.875 40.875)" fill="#42a5f5"/>
        <path id="Trazado_986614" data-name="Trazado 986614" d="M22.875,13.875a9,9,0,1,1-9-9,9,9,0,0,1,9,9" fill="#42a5f5"/>
        <path id="Trazado_986615" data-name="Trazado 986615" d="M13.875,4.875v9l8.763-2.062a9,9,0,0,0-8.763-6.938" fill="#f5bb2b"/>
        <path id="Trazado_986616" data-name="Trazado 986616" d="M22.629,11.815l-8.754,2.06,5.973,6.72a8.926,8.926,0,0,0,2.781-8.78" fill="#f57c00"/>
        <path id="Trazado_986617" data-name="Trazado 986617" d="M42.661,20.5a.875.875,0,0,1-.619-1.494l4.067-4.067a.875.875,0,0,1,1.238,1.238L43.28,20.247a.872.872,0,0,1-.619.256" fill="#fff"/>
        <path id="Trazado_986618" data-name="Trazado 986618" d="M49.144,14.02a.875.875,0,0,1-.619-1.494l.629-.628a.875.875,0,1,1,1.237,1.238l-.628.628a.872.872,0,0,1-.619.256" fill="#fff"/>
        <path id="Trazado_986619" data-name="Trazado 986619" d="M42.875,15.81A.875.875,0,0,1,42,14.935V2.875A1.127,1.127,0,0,0,40.875,1.75h-2a.875.875,0,0,1,0-1.75h2A2.878,2.878,0,0,1,43.75,2.875v12.06a.875.875,0,0,1-.875.875"/>
        <path id="Trazado_986620" data-name="Trazado 986620" d="M.875,46.75A.875.875,0,0,1,0,45.875v-43A2.879,2.879,0,0,1,2.875,0H34.464a.875.875,0,0,1,0,1.75H2.875A1.127,1.127,0,0,0,1.75,2.875v43a.875.875,0,0,1-.875.875"/>
        <path id="Trazado_986621" data-name="Trazado 986621" d="M40.875,55.75h-38A2.879,2.879,0,0,1,0,52.875v-2a.875.875,0,0,1,1.75,0v2A1.127,1.127,0,0,0,2.875,54h38A1.127,1.127,0,0,0,42,52.875v-23a.875.875,0,0,1,1.75,0v23a2.879,2.879,0,0,1-2.875,2.875"/>
        <path id="Trazado_986622" data-name="Trazado 986622" d="M25.567,38.059a.876.876,0,0,1-.852-1.077L26.253,30.5a.862.862,0,0,1,.233-.417l21.8-21.8a4.375,4.375,0,0,1,6.187,6.188l-21.8,21.8a.887.887,0,0,1-.417.233l-6.488,1.537a.863.863,0,0,1-.2.024M27.9,31.14l-1.153,4.865,4.866-1.153L53.232,13.231a2.625,2.625,0,0,0-3.713-3.712Zm4.156,4.506h0Z"/>
        <path id="Trazado_986623" data-name="Trazado 986623" d="M32.755,35.812a.872.872,0,0,1-.619-.256l-4.94-4.94a.875.875,0,0,1,1.238-1.238l4.94,4.94a.875.875,0,0,1-.619,1.494"/>
        <path id="Trazado_986624" data-name="Trazado 986624" d="M13.875,23.75a9.875,9.875,0,1,1,9.875-9.875,9.886,9.886,0,0,1-9.875,9.875m0-18A8.125,8.125,0,1,0,22,13.875,8.134,8.134,0,0,0,13.875,5.75"/>
        <path id="Trazado_986625" data-name="Trazado 986625" d="M19.848,21.469a.874.874,0,0,1-.654-.293l-5.973-6.72A.871.871,0,0,1,13,13.875v-9a.875.875,0,0,1,1.75,0v8.667l5.751,6.47a.875.875,0,0,1-.653,1.457"/>
        <path id="Trazado_986626" data-name="Trazado 986626" d="M13.874,14.75a.875.875,0,0,1-.2-1.727l8.76-2.061a.875.875,0,0,1,.4,1.7l-8.76,2.061a.867.867,0,0,1-.2.023"/>
        <path id="Trazado_986627" data-name="Trazado 986627" d="M38.875,8.75h-12a.875.875,0,0,1,0-1.75h12a.875.875,0,0,1,0,1.75"/>
        <path id="Trazado_986628" data-name="Trazado 986628" d="M38.875,12.75h-12a.875.875,0,0,1,0-1.75h12a.875.875,0,0,1,0,1.75"/>
        <path id="Trazado_986629" data-name="Trazado 986629" d="M31.875,16.75h-5a.875.875,0,0,1,0-1.75h5a.875.875,0,0,1,0,1.75"/>
        <path id="Trazado_986630" data-name="Trazado 986630" d="M21.875,29.75h-17a.875.875,0,0,1,0-1.75h17a.875.875,0,0,1,0,1.75"/>
        <path id="Trazado_986631" data-name="Trazado 986631" d="M13.875,33.75h-9a.875.875,0,0,1,0-1.75h9a.875.875,0,0,1,0,1.75"/>
        <path id="Trazado_986632" data-name="Trazado 986632" d="M38.875,41.75h-8a.875.875,0,0,1,0-1.75h8a.875.875,0,0,1,0,1.75"/>
        <path id="Trazado_986633" data-name="Trazado 986633" d="M34.875,45.75h-4a.875.875,0,0,1,0-1.75h4a.875.875,0,0,1,0,1.75"/>
        <path id="Trazado_986634" data-name="Trazado 986634" d="M28.875,51.75h-24A.875.875,0,0,1,4,50.875v-13a.875.875,0,0,1,1.75,0V50H28.875a.875.875,0,0,1,0,1.75"/>
        <path id="Trazado_986635" data-name="Trazado 986635" d="M11.875,51.75A.875.875,0,0,1,11,50.875V44.75H8.75v6.125a.875.875,0,0,1-1.75,0v-7A.875.875,0,0,1,7.875,43h4a.875.875,0,0,1,.875.875v7a.875.875,0,0,1-.875.875"/>
        <path id="Trazado_986636" data-name="Trazado 986636" d="M18.875,51.75A.875.875,0,0,1,18,50.875V37.75H15.75V50.875a.875.875,0,0,1-1.75,0v-14A.875.875,0,0,1,14.875,36h4a.875.875,0,0,1,.875.875v14a.875.875,0,0,1-.875.875"/>
        <path id="Trazado_986637" data-name="Trazado 986637" d="M25.875,51.75A.875.875,0,0,1,25,50.875V41.75H22.75v9.125a.875.875,0,0,1-1.75,0v-10A.875.875,0,0,1,21.875,40h4a.875.875,0,0,1,.875.875v10a.875.875,0,0,1-.875.875"/>
      </g>
    </g>
  </g>
</svg>
