<svg xmlns="http://www.w3.org/2000/svg" xmlns:xlink="http://www.w3.org/1999/xlink" width="108" height="108" viewBox="0 0 108 108">
  <defs>
    <filter id="Fondo" x="0" y="0" width="108" height="108" filterUnits="userSpaceOnUse">
      <feOffset dy="3" input="SourceAlpha"/>
      <feGaussianBlur stdDeviation="3" result="blur"/>
      <feFlood flood-opacity="0.161"/>
      <feComposite operator="in" in2="blur"/>
      <feComposite in="SourceGraphic"/>
    </filter>
    <clipPath id="clip-path">
      <rect id="Rectángulo_408353" data-name="Rectángulo 408353" width="55.75" height="55.75" fill="none"/>
    </clipPath>
  </defs>
  <g id="Icono" transform="translate(-325.72 -689)">
    <g transform="matrix(1, 0, 0, 1, 325.72, 689)" filter="url(#Fondo)">
      <g id="Fondo-2" data-name="Fondo" transform="translate(9 6)" fill="#e6d567">
        <path d="M 45 88.5 C 39.12687683105469 88.5 33.43022537231445 87.35007476806641 28.06830024719238 85.08217620849609 C 22.88852500915527 82.89131164550781 18.23629951477051 79.75458526611328 14.2408504486084 75.75914764404297 C 10.24541282653809 71.76370239257812 7.108687400817871 67.11147308349609 4.917825222015381 61.93170166015625 C 2.649924993515015 56.56977462768555 1.5 50.87312316894531 1.5 45 C 1.5 39.12687683105469 2.649924993515015 33.43022537231445 4.917825222015381 28.06830024719238 C 7.108687400817871 22.88852500915527 10.24541282653809 18.23629951477051 14.2408504486084 14.2408504486084 C 18.23629951477051 10.24541282653809 22.88852500915527 7.108687400817871 28.06830024719238 4.917825222015381 C 33.43022537231445 2.649924993515015 39.12687683105469 1.5 45 1.5 C 50.87312316894531 1.5 56.56977462768555 2.649924993515015 61.93170166015625 4.917825222015381 C 67.11147308349609 7.108687400817871 71.76370239257812 10.24541282653809 75.75914764404297 14.2408504486084 C 79.75458526611328 18.23629951477051 82.89131164550781 22.88852500915527 85.08217620849609 28.06830024719238 C 87.35007476806641 33.43022537231445 88.5 39.12687683105469 88.5 45 C 88.5 50.87312316894531 87.35007476806641 56.56977462768555 85.08217620849609 61.93170166015625 C 82.89131164550781 67.11147308349609 79.75458526611328 71.76370239257812 75.75914764404297 75.75914764404297 C 71.76370239257812 79.75458526611328 67.11147308349609 82.89131164550781 61.93170166015625 85.08217620849609 C 56.56977462768555 87.35007476806641 50.87312316894531 88.5 45 88.5 Z" stroke="none"/>
        <path d="M 45 3 C 39.32871246337891 3 33.82865524291992 4.110054016113281 28.65262985229492 6.299339294433594 C 23.65165710449219 8.414573669433594 19.15968322753906 11.44334411621094 15.301513671875 15.301513671875 C 11.44334411621094 19.15968322753906 8.414573669433594 23.65165710449219 6.299339294433594 28.65262985229492 C 4.110054016113281 33.82865524291992 3 39.32871246337891 3 45 C 3 50.67128753662109 4.110054016113281 56.17134475708008 6.299339294433594 61.34737396240234 C 8.414573669433594 66.34834289550781 11.44334411621094 70.84031677246094 15.301513671875 74.698486328125 C 19.15968322753906 78.55665588378906 23.65165710449219 81.58542633056641 28.65262985229492 83.70066070556641 C 33.82865524291992 85.88994598388672 39.32871246337891 87 45 87 C 50.67128753662109 87 56.17134475708008 85.88994598388672 61.34737396240234 83.70066070556641 C 66.34834289550781 81.58542633056641 70.84031677246094 78.55665588378906 74.698486328125 74.698486328125 C 78.55665588378906 70.84031677246094 81.58542633056641 66.34834289550781 83.70066070556641 61.34737396240234 C 85.88994598388672 56.17134475708008 87 50.67128753662109 87 45 C 87 39.32871246337891 85.88994598388672 33.82865524291992 83.70066070556641 28.65262985229492 C 81.58542633056641 23.65165710449219 78.55665588378906 19.15968322753906 74.698486328125 15.301513671875 C 70.84031677246094 11.44334411621094 66.34834289550781 8.414573669433594 61.34737396240234 6.299339294433594 C 56.17134475708008 4.110054016113281 50.67128753662109 3 45 3 M 45 0 C 69.85281372070312 0 90 20.14718627929688 90 45 C 90 69.85281372070312 69.85281372070312 90 45 90 C 20.14718627929688 90 0 69.85281372070312 0 45 C 0 20.14718627929688 20.14718627929688 0 45 0 Z" stroke="none" fill="#bca724"/>
      </g>
    </g>
    <g id="Grupo_1151959" data-name="Grupo 1151959" transform="translate(351.453 714)">
      <g id="Grupo_1151947" data-name="Grupo 1151947" clip-path="url(#clip-path)">
        <path id="Trazado_986638" data-name="Trazado 986638" d="M46.875,48.875h-44a2,2,0,0,1-2-2v-44a2,2,0,0,1,2-2h44a2,2,0,0,1,2,2v44a2,2,0,0,1-2,2" fill="#90caf9"/>
        <path id="Trazado_986639" data-name="Trazado 986639" d="M46.875,43.875h-44a2,2,0,0,1-2-2v5a2,2,0,0,0,2,2h44a2,2,0,0,0,2-2v-5a2,2,0,0,1-2,2" fill="#42a5f5"/>
        <rect id="Rectángulo_408351" data-name="Rectángulo 408351" width="4.966" height="6" transform="translate(9.875 20.875)" fill="#e7eaf0"/>
        <rect id="Rectángulo_408352" data-name="Rectángulo 408352" width="4.966" height="10" transform="translate(18.15 16.875)" fill="#e7eaf0"/>
        <path id="Trazado_986640" data-name="Trazado 986640" d="M33.875,12.875l-4.966-7-4.965,7h2.483v14h4.965v-14Z" fill="#e7eaf0"/>
        <path id="Trazado_986641" data-name="Trazado 986641" d="M54.875,43.625v-4.5l-3.191-.532a10.627,10.627,0,0,0-1.051-2.542l1.879-2.631L49.33,30.238,46.7,32.117a10.627,10.627,0,0,0-2.542-1.051l-.532-3.191h-4.5l-.532,3.191a10.627,10.627,0,0,0-2.542,1.051L33.42,30.238,30.238,33.42l1.879,2.631a10.627,10.627,0,0,0-1.051,2.542l-3.191.532v4.5l3.191.532A10.627,10.627,0,0,0,32.117,46.7L30.238,49.33l3.182,3.182,2.631-1.879a10.627,10.627,0,0,0,2.542,1.051l.532,3.191h4.5l.532-3.191A10.627,10.627,0,0,0,46.7,50.633l2.631,1.879,3.182-3.182L50.633,46.7a10.627,10.627,0,0,0,1.051-2.542Z" fill="#c3ccdb"/>
        <path id="Trazado_986642" data-name="Trazado 986642" d="M48.234,38.353a.875.875,0,0,1-.761-.442,7.121,7.121,0,0,0-1.99-2.22.875.875,0,1,1,1.026-1.417,8.847,8.847,0,0,1,2.484,2.771.875.875,0,0,1-.759,1.308" fill="#fff"/>
        <path id="Trazado_986643" data-name="Trazado 986643" d="M21.875,5.75h-7a.875.875,0,0,1,0-1.75h7a.875.875,0,0,1,0,1.75" fill="#fff"/>
        <path id="Trazado_986644" data-name="Trazado 986644" d="M11.314,5.75h-1a.875.875,0,0,1,0-1.75h1a.875.875,0,0,1,0,1.75" fill="#fff"/>
        <path id="Trazado_986645" data-name="Trazado 986645" d="M37.946,49.354a.875.875,0,0,1-.38-.087A8.829,8.829,0,0,1,34.6,46.93a.875.875,0,0,1,1.352-1.11,7.086,7.086,0,0,0,2.375,1.871.875.875,0,0,1-.381,1.663" fill="#fff"/>
        <path id="Trazado_986646" data-name="Trazado 986646" d="M48.875,26.75A.875.875,0,0,1,48,25.875v-23A1.127,1.127,0,0,0,46.875,1.75h-12a.875.875,0,0,1,0-1.75h12A2.879,2.879,0,0,1,49.75,2.875v23a.875.875,0,0,1-.875.875"/>
        <path id="Trazado_986647" data-name="Trazado 986647" d="M25.875,49.75h-23A2.879,2.879,0,0,1,0,46.875v-44A2.879,2.879,0,0,1,2.875,0h26a.875.875,0,0,1,0,1.75h-26A1.127,1.127,0,0,0,1.75,2.875v44A1.127,1.127,0,0,0,2.875,48h23a.875.875,0,0,1,0,1.75"/>
        <path id="Trazado_986648" data-name="Trazado 986648" d="M43.625,55.75h-4.5a.874.874,0,0,1-.863-.731l-.442-2.651a11.573,11.573,0,0,1-1.706-.705l-2.186,1.561A.875.875,0,0,1,32.8,53.13L29.62,49.949a.875.875,0,0,1-.094-1.127l1.561-2.186a11.574,11.574,0,0,1-.7-1.706l-2.651-.442A.874.874,0,0,1,27,43.625v-4.5a.874.874,0,0,1,.731-.863l2.651-.442a11.574,11.574,0,0,1,.7-1.706l-1.561-2.186A.875.875,0,0,1,29.62,32.8L32.8,29.62a.875.875,0,0,1,1.127-.094l2.186,1.561a11.574,11.574,0,0,1,1.706-.7l.442-2.651A.874.874,0,0,1,39.125,27h4.5a.874.874,0,0,1,.863.731l.442,2.651a11.574,11.574,0,0,1,1.706.7l2.186-1.561a.875.875,0,0,1,1.127.094L53.13,32.8a.875.875,0,0,1,.094,1.127l-1.561,2.186a11.573,11.573,0,0,1,.705,1.706l2.651.442a.874.874,0,0,1,.731.863v4.5a.874.874,0,0,1-.731.863l-2.651.442a11.573,11.573,0,0,1-.705,1.706l1.561,2.186a.875.875,0,0,1-.094,1.127L49.949,53.13a.875.875,0,0,1-1.127.094l-2.186-1.561a11.573,11.573,0,0,1-1.706.705l-.442,2.651a.874.874,0,0,1-.863.731M39.866,54h3.018l.409-2.46a.876.876,0,0,1,.636-.7,9.735,9.735,0,0,0,2.333-.964.877.877,0,0,1,.946.046l2.027,1.448,2.134-2.134-1.448-2.027a.877.877,0,0,1-.046-.946,9.735,9.735,0,0,0,.964-2.333.876.876,0,0,1,.7-.636L54,42.884V39.866l-2.46-.409a.876.876,0,0,1-.7-.636,9.735,9.735,0,0,0-.964-2.333.877.877,0,0,1,.046-.946l1.448-2.027-2.134-2.134-2.027,1.448a.873.873,0,0,1-.946.046,9.735,9.735,0,0,0-2.333-.964.876.876,0,0,1-.636-.7l-.409-2.46H39.866l-.409,2.46a.876.876,0,0,1-.636.7,9.735,9.735,0,0,0-2.333.964.873.873,0,0,1-.946-.046l-2.027-1.448-2.134,2.134,1.448,2.027a.877.877,0,0,1,.046.946,9.735,9.735,0,0,0-.964,2.333.876.876,0,0,1-.7.636l-2.46.409v3.018l2.46.409a.876.876,0,0,1,.7.636,9.735,9.735,0,0,0,.964,2.333.877.877,0,0,1-.046.946l-1.448,2.027,2.134,2.134,2.027-1.448a.877.877,0,0,1,.946-.046,9.735,9.735,0,0,0,2.333.964.876.876,0,0,1,.636.7ZM54.875,43.625h0Z"/>
        <path id="Trazado_986649" data-name="Trazado 986649" d="M46.171,43.669a.872.872,0,0,1-.581-.221l-1.961-1.741A.875.875,0,1,1,44.791,40.4l1.416,1.257,1.651-1.292a.875.875,0,0,1,1.078,1.378L46.71,43.483a.875.875,0,0,1-.539.186"/>
        <path id="Trazado_986650" data-name="Trazado 986650" d="M35.875,27.75h-30A.875.875,0,0,1,5,26.875v-21a.875.875,0,0,1,1.75,0V26H35.875a.875.875,0,0,1,0,1.75"/>
        <path id="Trazado_986651" data-name="Trazado 986651" d="M14.84,27.75a.875.875,0,0,1-.875-.875V21.75H10.75v5.125a.875.875,0,0,1-1.75,0v-6A.875.875,0,0,1,9.875,20H14.84a.875.875,0,0,1,.875.875v6a.875.875,0,0,1-.875.875"/>
        <path id="Trazado_986652" data-name="Trazado 986652" d="M23.116,27.75a.875.875,0,0,1-.875-.875V17.75H19.026v9.125a.875.875,0,0,1-1.75,0v-10A.875.875,0,0,1,18.151,16h4.965a.875.875,0,0,1,.875.875v10a.875.875,0,0,1-.875.875"/>
        <path id="Trazado_986653" data-name="Trazado 986653" d="M31.392,27.75a.875.875,0,0,1-.875-.875v-14A.875.875,0,0,1,31.392,12h.79L28.91,7.387,25.637,12h.79a.875.875,0,0,1,.875.875v14a.875.875,0,0,1-1.75,0V13.75H23.944a.874.874,0,0,1-.714-1.381l4.966-7a.874.874,0,0,1,1.427,0l4.966,7a.875.875,0,0,1-.714,1.381H32.267V26.875a.875.875,0,0,1-.875.875"/>
        <path id="Trazado_986654" data-name="Trazado 986654" d="M19.875,33.75h-6a.875.875,0,0,1,0-1.75h6a.875.875,0,0,1,0,1.75"/>
        <path id="Trazado_986655" data-name="Trazado 986655" d="M44.15,8.78h-6a.875.875,0,1,1,0-1.75h6a.875.875,0,1,1,0,1.75"/>
        <path id="Trazado_986656" data-name="Trazado 986656" d="M44.15,12.75H39.875a.875.875,0,0,1,0-1.75H44.15a.875.875,0,0,1,0,1.75"/>
        <path id="Trazado_986657" data-name="Trazado 986657" d="M9.875,33.75h-4a.875.875,0,0,1,0-1.75h4a.875.875,0,0,1,0,1.75"/>
        <path id="Trazado_986658" data-name="Trazado 986658" d="M24.875,37.75h-19a.875.875,0,0,1,0-1.75h19a.875.875,0,0,1,0,1.75"/>
        <path id="Trazado_986659" data-name="Trazado 986659" d="M14.875,41.75h-9a.875.875,0,0,1,0-1.75h9a.875.875,0,0,1,0,1.75"/>
        <path id="Trazado_986660" data-name="Trazado 986660" d="M41.375,47.25a5.869,5.869,0,1,1,5.635-4.208.875.875,0,1,1-1.678-.495A4.126,4.126,0,1,0,41.375,45.5a4.082,4.082,0,0,0,2.544-.878A.875.875,0,1,1,45,46a5.819,5.819,0,0,1-3.625,1.251"/>
      </g>
    </g>
  </g>
</svg>
