<svg xmlns="http://www.w3.org/2000/svg" xmlns:xlink="http://www.w3.org/1999/xlink" width="108" height="108" viewBox="0 0 108 108">
  <defs>
    <filter id="Fondo" x="0" y="0" width="108" height="108" filterUnits="userSpaceOnUse">
      <feOffset dy="3" input="SourceAlpha"/>
      <feGaussianBlur stdDeviation="3" result="blur"/>
      <feFlood flood-opacity="0.161"/>
      <feComposite operator="in" in2="blur"/>
      <feComposite in="SourceGraphic"/>
    </filter>
    <clipPath id="clip-path">
      <rect id="Rect치ngulo_408346" data-name="Rect치ngulo 408346" width="55.75" height="55.75" fill="none"/>
    </clipPath>
  </defs>
  <g id="Icono" transform="translate(-325.72 -689)">
    <g transform="matrix(1, 0, 0, 1, 325.72, 689)" filter="url(#Fondo)">
      <g id="Fondo-2" data-name="Fondo" transform="translate(9 6)" fill="#e6d567">
        <path d="M 45 88.5 C 39.12687683105469 88.5 33.43022537231445 87.35007476806641 28.06830024719238 85.08217620849609 C 22.88852500915527 82.89131164550781 18.23629951477051 79.75458526611328 14.2408504486084 75.75914764404297 C 10.24541282653809 71.76370239257812 7.108687400817871 67.11147308349609 4.917825222015381 61.93170166015625 C 2.649924993515015 56.56977462768555 1.5 50.87312316894531 1.5 45 C 1.5 39.12687683105469 2.649924993515015 33.43022537231445 4.917825222015381 28.06830024719238 C 7.108687400817871 22.88852500915527 10.24541282653809 18.23629951477051 14.2408504486084 14.2408504486084 C 18.23629951477051 10.24541282653809 22.88852500915527 7.108687400817871 28.06830024719238 4.917825222015381 C 33.43022537231445 2.649924993515015 39.12687683105469 1.5 45 1.5 C 50.87312316894531 1.5 56.56977462768555 2.649924993515015 61.93170166015625 4.917825222015381 C 67.11147308349609 7.108687400817871 71.76370239257812 10.24541282653809 75.75914764404297 14.2408504486084 C 79.75458526611328 18.23629951477051 82.89131164550781 22.88852500915527 85.08217620849609 28.06830024719238 C 87.35007476806641 33.43022537231445 88.5 39.12687683105469 88.5 45 C 88.5 50.87312316894531 87.35007476806641 56.56977462768555 85.08217620849609 61.93170166015625 C 82.89131164550781 67.11147308349609 79.75458526611328 71.76370239257812 75.75914764404297 75.75914764404297 C 71.76370239257812 79.75458526611328 67.11147308349609 82.89131164550781 61.93170166015625 85.08217620849609 C 56.56977462768555 87.35007476806641 50.87312316894531 88.5 45 88.5 Z" stroke="none"/>
        <path d="M 45 3 C 39.32871246337891 3 33.82865524291992 4.110054016113281 28.65262985229492 6.299339294433594 C 23.65165710449219 8.414573669433594 19.15968322753906 11.44334411621094 15.301513671875 15.301513671875 C 11.44334411621094 19.15968322753906 8.414573669433594 23.65165710449219 6.299339294433594 28.65262985229492 C 4.110054016113281 33.82865524291992 3 39.32871246337891 3 45 C 3 50.67128753662109 4.110054016113281 56.17134475708008 6.299339294433594 61.34737396240234 C 8.414573669433594 66.34834289550781 11.44334411621094 70.84031677246094 15.301513671875 74.698486328125 C 19.15968322753906 78.55665588378906 23.65165710449219 81.58542633056641 28.65262985229492 83.70066070556641 C 33.82865524291992 85.88994598388672 39.32871246337891 87 45 87 C 50.67128753662109 87 56.17134475708008 85.88994598388672 61.34737396240234 83.70066070556641 C 66.34834289550781 81.58542633056641 70.84031677246094 78.55665588378906 74.698486328125 74.698486328125 C 78.55665588378906 70.84031677246094 81.58542633056641 66.34834289550781 83.70066070556641 61.34737396240234 C 85.88994598388672 56.17134475708008 87 50.67128753662109 87 45 C 87 39.32871246337891 85.88994598388672 33.82865524291992 83.70066070556641 28.65262985229492 C 81.58542633056641 23.65165710449219 78.55665588378906 19.15968322753906 74.698486328125 15.301513671875 C 70.84031677246094 11.44334411621094 66.34834289550781 8.414573669433594 61.34737396240234 6.299339294433594 C 56.17134475708008 4.110054016113281 50.67128753662109 3 45 3 M 45 0 C 69.85281372070312 0 90 20.14718627929688 90 45 C 90 69.85281372070312 69.85281372070312 90 45 90 C 20.14718627929688 90 0 69.85281372070312 0 45 C 0 20.14718627929688 20.14718627929688 0 45 0 Z" stroke="none" fill="#bca724"/>
      </g>
    </g>
    <g id="Grupo_1151960" data-name="Grupo 1151960" transform="translate(351.845 712)">
      <g id="Grupo_1151943" data-name="Grupo 1151943" clip-path="url(#clip-path)">
        <path id="Trazado_986582" data-name="Trazado 986582" d="M40.875,4.875H28.119A2.982,2.982,0,0,1,25.47,3.119a4,4,0,0,0-7.19,0,2.982,2.982,0,0,1-2.649,1.756H2.875a2,2,0,0,0-2,2v46a2,2,0,0,0,2,2h38a2,2,0,0,0,2-2v-46a2,2,0,0,0-2-2" fill="#90caf9"/>
        <path id="Trazado_986583" data-name="Trazado 986583" d="M23.114,46.436A42.509,42.509,0,0,1,.875,40.377v12.5a2,2,0,0,0,2,2h38a2,2,0,0,0,2-2v-11.1a43.105,43.105,0,0,1-19.761,4.665" fill="#42a5f5"/>
        <rect id="Rect치ngulo_408345" data-name="Rect치ngulo 408345" width="34" height="41" transform="translate(4.875 9.875)" fill="#e7eaf0"/>
        <path id="Trazado_986584" data-name="Trazado 986584" d="M23.114,46.436a43.438,43.438,0,0,1-18.239-3.92v8.359h34V43.57a43.964,43.964,0,0,1-15.761,2.866" fill="#c3ccdb"/>
        <path id="Trazado_986585" data-name="Trazado 986585" d="M52.875,54.875h-21a2,2,0,0,1-2-2v-21a2,2,0,0,1,2-2h21a2,2,0,0,1,2,2v21a2,2,0,0,1-2,2" fill="#f5bb2b"/>
        <path id="Trazado_986586" data-name="Trazado 986586" d="M52.875,49.875h-21a2,2,0,0,1-2-2v5a2,2,0,0,0,2,2h21a2,2,0,0,0,2-2v-5a2,2,0,0,1-2,2" fill="#ffa000"/>
        <path id="Trazado_986587" data-name="Trazado 986587" d="M45.875,37.375l-3.5-1-3.5,1v-7.5h7Z" fill="#e7eaf0"/>
        <path id="Trazado_986588" data-name="Trazado 986588" d="M28.119,4.875A2.982,2.982,0,0,1,25.47,3.119a4,4,0,0,0-7.19,0,2.981,2.981,0,0,1-2.648,1.756H12.875v5h18v-5Z" fill="#1e88e5"/>
        <path id="Trazado_986589" data-name="Trazado 986589" d="M10.875,21.714a.873.873,0,0,1-.652-.292l-2-2.236a.875.875,0,1,1,1.3-1.166l1.348,1.506L13.223,16.9a.875.875,0,1,1,1.3,1.166l-3,3.355a.873.873,0,0,1-.652.292"/>
        <path id="Trazado_986590" data-name="Trazado 986590" d="M31.875,19.4h-13a.875.875,0,0,1,0-1.75h13a.875.875,0,0,1,0,1.75"/>
        <path id="Trazado_986591" data-name="Trazado 986591" d="M10.875,32.41h0a.873.873,0,0,1-.652-.292l-2-2.237a.875.875,0,1,1,1.3-1.166l1.348,1.507L13.223,27.6a.875.875,0,1,1,1.3,1.166l-3,3.355a.873.873,0,0,1-.652.292"/>
        <path id="Trazado_986592" data-name="Trazado 986592" d="M26.875,30.09h-8a.875.875,0,0,1,0-1.75h8a.875.875,0,0,1,0,1.75"/>
        <path id="Trazado_986593" data-name="Trazado 986593" d="M10.875,43.106h0a.873.873,0,0,1-.652-.292l-2-2.237a.875.875,0,1,1,1.3-1.166l1.348,1.507,2.348-2.625a.875.875,0,1,1,1.3,1.166l-3,3.355a.873.873,0,0,1-.652.292"/>
        <path id="Trazado_986594" data-name="Trazado 986594" d="M25.875,40.786h-7a.875.875,0,0,1,0-1.75h7a.875.875,0,0,1,0,1.75"/>
        <path id="Trazado_986595" data-name="Trazado 986595" d="M24.875,22.75h-6a.875.875,0,0,1,0-1.75h6a.875.875,0,0,1,0,1.75"/>
        <path id="Trazado_986596" data-name="Trazado 986596" d="M22.875,33.445h-4a.875.875,0,0,1,0-1.75h4a.875.875,0,0,1,0,1.75"/>
        <path id="Trazado_986597" data-name="Trazado 986597" d="M22.875,44.142h-4a.875.875,0,0,1,0-1.75h4a.875.875,0,1,1,0,1.75"/>
        <path id="Trazado_986598" data-name="Trazado 986598" d="M31.875,55.75h-29A2.879,2.879,0,0,1,0,52.875v-46A2.879,2.879,0,0,1,2.875,4H15.633A2.123,2.123,0,0,0,17.5,2.734,4.849,4.849,0,0,1,21.875,0a4.847,4.847,0,0,1,4.381,2.733A2.119,2.119,0,0,0,28.119,4h6.345a.875.875,0,0,1,0,1.75H28.119A3.855,3.855,0,0,1,24.684,3.5,3.106,3.106,0,0,0,21.875,1.75a3.143,3.143,0,0,0-2.216.918,3.183,3.183,0,0,0-.591.836A3.853,3.853,0,0,1,15.633,5.75H2.875A1.127,1.127,0,0,0,1.75,6.875v46A1.127,1.127,0,0,0,2.875,54h29a.875.875,0,0,1,0,1.75"/>
        <path id="Trazado_986599" data-name="Trazado 986599" d="M42.875,30.75A.875.875,0,0,1,42,29.875v-23A1.127,1.127,0,0,0,40.875,5.75h-2a.875.875,0,0,1,0-1.75h2A2.879,2.879,0,0,1,43.75,6.875v23a.875.875,0,0,1-.875.875"/>
        <path id="Trazado_986600" data-name="Trazado 986600" d="M52.875,55.75h-21A2.879,2.879,0,0,1,29,52.875v-21A2.879,2.879,0,0,1,31.875,29h21a2.879,2.879,0,0,1,2.875,2.875v21a2.879,2.879,0,0,1-2.875,2.875m-21-25a1.127,1.127,0,0,0-1.125,1.125v21A1.127,1.127,0,0,0,31.875,54h21A1.127,1.127,0,0,0,54,52.875v-21a1.127,1.127,0,0,0-1.125-1.125Z"/>
        <path id="Trazado_986601" data-name="Trazado 986601" d="M45.875,38.25a.891.891,0,0,1-.24-.033l-3.26-.932-3.26.932A.876.876,0,0,1,38,37.375v-7.5a.875.875,0,0,1,1.75,0v6.34l2.385-.682a.87.87,0,0,1,.48,0L45,36.215v-6.34a.875.875,0,0,1,1.75,0v7.5a.876.876,0,0,1-.875.875"/>
        <path id="Trazado_986602" data-name="Trazado 986602" d="M51.06,48.75H45.1a.875.875,0,0,1,0-1.75H51.06a.875.875,0,0,1,0,1.75"/>
        <path id="Trazado_986603" data-name="Trazado 986603" d="M51.06,51.75H45.1a.875.875,0,0,1,0-1.75H51.06a.875.875,0,0,1,0,1.75"/>
        <path id="Trazado_986604" data-name="Trazado 986604" d="M30.875,10.75A.875.875,0,0,1,30,9.875v-5a.875.875,0,0,1,1.75,0v5a.875.875,0,0,1-.875.875"/>
        <path id="Trazado_986605" data-name="Trazado 986605" d="M12.875,10.75A.875.875,0,0,1,12,9.875v-5a.875.875,0,0,1,1.75,0v5a.875.875,0,0,1-.875.875"/>
        <path id="Trazado_986606" data-name="Trazado 986606" d="M29.875,51.75H10.525a.875.875,0,0,1,0-1.75h19.35a.875.875,0,0,1,0,1.75"/>
        <path id="Trazado_986607" data-name="Trazado 986607" d="M4.875,51.75A.875.875,0,0,1,4,50.875v-41A.875.875,0,0,1,4.875,9h34a.875.875,0,0,1,.875.875v16a.875.875,0,0,1-1.75,0V10.75H5.75V50.875a.875.875,0,0,1-.875.875"/>
        <path id="Trazado_986608" data-name="Trazado 986608" d="M25.375,7.932H23.318a.875.875,0,0,1,0-1.75h2.057a.875.875,0,0,1,0,1.75" fill="#fff"/>
        <path id="Trazado_986609" data-name="Trazado 986609" d="M51.463,34.016h-2.5a.875.875,0,0,1,0-1.75h2.5a.875.875,0,0,1,0,1.75" fill="#fff"/>
      </g>
    </g>
  </g>
</svg>
